{
    "accessors" : [
        {
            "bufferView" : 0,
            "componentType" : 5123,
            "count" : 2904,
            "max" : [
                2879
            ],
            "min" : [
                0
            ],
            "type" : "SCALAR"
        },
        {
            "bufferView" : 1,
            "componentType" : 5126,
            "count" : 2880,
            "max" : [
                1.3671875,
                0.984375,
                0.8515625
            ],
            "min" : [
                -1.3671875,
                -0.984375,
                -0.8515625
            ],
            "type" : "VEC3"
        },
        {
            "bufferView" : 2,
            "componentType" : 5126,
            "count" : 2880,
            "max" : [
                1.0,
                0.9970182180404663,
                1.0
            ],
            "min" : [
                -1.0,
                -0.992402970790863,
                -0.9864740371704102
            ],
            "type" : "VEC3"
        },
        {
            "bufferView" : 3,
            "componentType" : 5126,
            "count" : 2880,
            "max" : [
                1.0,
                1.0,
                1.0,
                1.0
            ],
            "min" : [
                1.0,
                0.1144353787068511,
                0.0975873525466093,
                1.0
            ],
            "type" : "VEC4"
        },
        {
            "bufferView" : 4,
            "componentType" : 5123,
            "count" : 2880,
            "max" : [
                3,
                3,
                3,
                3
            ],
            "min" : [
                0,
                0,
                0,
                0
            ],
            "type" : "VEC4"
        },
        {
            "bufferView" : 5,
            "componentType" : 5126,
            "count" : 2880,
            "max" : [
                0.9987797141075134,
                0.9689221978187561,
                0.9243773818016052,
                0.8377526998519897
            ],
            "min" : [
                0.001968342810869217,
                0.0,
                0.0,
                0.0
            ],
            "type" : "VEC4"
        },
        {
            "bufferView" : 6,
            "componentType" : 5126,
            "count" : 4,
            "max" : [
                1.0,
                0.7553224563598633,
                0.0,
                0.0,
                0.925173282623291,
                0.9999755024909973,
                0.9470171928405762,
                0.0,
                0.8077216744422913,
                -0.007002413738518953,
                0.9999755024909973,
                0.0,
                0.09679770469665527,
                0.8339817523956299,
                0.037806153297424316,
                1.0
            ],
            "min" : [
                0.3795350193977356,
                -0.7553225159645081,
                -0.5342669486999512,
                0.0,
                0.0,
                0.3115819990634918,
                0.007002413738518953,
                0.0,
                0.0,
                -0.5765454173088074,
                0.12321233749389648,
                0.0,
                -0.4028846025466919,
                0.32655590772628784,
                -0.5082788467407227,
                1.0
            ],
            "type" : "MAT4"
        },
        {
            "bufferView" : 7,
            "componentType" : 5126,
            "count" : 60,
            "max" : [
                2.4583333333333335
            ],
            "min" : [
                0.0
            ],
            "type" : "SCALAR"
        },
        {
            "bufferView" : 8,
            "componentType" : 5126,
            "count" : 60,
            "max" : [
                0.0,
                0.7242702841758728,
                4.656612873077393e-10
            ],
            "min" : [
                0.0,
                0.7242702841758728,
                4.656612873077393e-10
            ],
            "type" : "VEC3"
        },
        {
            "bufferView" : 9,
            "componentType" : 5126,
            "count" : 60,
            "max" : [
                2.4583333333333335
            ],
            "min" : [
                0.0
            ],
            "type" : "SCALAR"
        },
        {
            "bufferView" : 10,
            "componentType" : 5126,
            "count" : 60,
            "max" : [
                -0.3630674183368683,
                -0.2910778522491455,
                -0.062432337552309036,
                0.882925808429718
            ],
            "min" : [
                -0.6289013624191284,
                -0.4360577166080475,
                -0.3598352372646332,
                0.5337184071540833
            ],
            "type" : "VEC4"
        },
        {
            "bufferView" : 11,
            "componentType" : 5126,
            "count" : 60,
            "max" : [
                2.4583333333333335
            ],
            "min" : [
                0.0
            ],
            "type" : "SCALAR"
        },
        {
            "bufferView" : 12,
            "componentType" : 5126,
            "count" : 60,
            "max" : [
                0.9999999403953552,
                1.0,
                1.0
            ],
            "min" : [
                0.9999998211860657,
                0.9999998807907104,
                0.9999998807907104
            ],
            "type" : "VEC3"
        }
    ],
    "animations" : [
        {
            "channels" : [
                {
                    "sampler" : 0,
                    "target" : {
                        "node" : 5,
                        "path" : "translation"
                    }
                },
                {
                    "sampler" : 1,
                    "target" : {
                        "node" : 5,
                        "path" : "rotation"
                    }
                },
                {
                    "sampler" : 2,
                    "target" : {
                        "node" : 5,
                        "path" : "scale"
                    }
                }
            ],
            "name" : "ArmatureAction",
            "samplers" : [
                {
                    "input" : 7,
                    "interpolation" : "LINEAR",
                    "output" : 8
                },
                {
                    "input" : 9,
                    "interpolation" : "LINEAR",
                    "output" : 10
                },
                {
                    "input" : 11,
                    "interpolation" : "LINEAR",
                    "output" : 12
                }
            ]
        }
    ],
    "asset" : {
        "generator" : "Khronos Blender glTF 2.0 exporter",
        "version" : "2.0"
    },
    "bufferViews" : [
        {
            "buffer" : 0,
            "byteLength" : 5808,
            "byteOffset" : 0,
            "target" : 34963
        },
        {
            "buffer" : 0,
            "byteLength" : 34560,
            "byteOffset" : 5808,
            "target" : 34962
        },
        {
            "buffer" : 0,
            "byteLength" : 34560,
            "byteOffset" : 40368,
            "target" : 34962
        },
        {
            "buffer" : 0,
            "byteLength" : 46080,
            "byteOffset" : 74928,
            "target" : 34962
        },
        {
            "buffer" : 0,
            "byteLength" : 23040,
            "byteOffset" : 121008,
            "target" : 34962
        },
        {
            "buffer" : 0,
            "byteLength" : 46080,
            "byteOffset" : 144048,
            "target" : 34962
        },
        {
            "buffer" : 0,
            "byteLength" : 256,
            "byteOffset" : 190128
        },
        {
            "buffer" : 0,
            "byteLength" : 240,
            "byteOffset" : 190384
        },
        {
            "buffer" : 0,
            "byteLength" : 720,
            "byteOffset" : 190624
        },
        {
            "buffer" : 0,
            "byteLength" : 240,
            "byteOffset" : 191344
        },
        {
            "buffer" : 0,
            "byteLength" : 960,
            "byteOffset" : 191584
        },
        {
            "buffer" : 0,
            "byteLength" : 240,
            "byteOffset" : 192544
        },
        {
            "buffer" : 0,
            "byteLength" : 720,
            "byteOffset" : 192784
        }
    ],
    "buffers" : [
        {
            "byteLength" : 193504,
            "uri" : "test.bin"
        }
    ],
    "materials" : [
        {
            "name" : "Material.003",
            "pbrMetallicRoughness" : {
                "baseColorFactor" : [
                    0.800000011920929,
                    0.800000011920929,
                    0.800000011920929,
                    1.0
                ],
                "metallicFactor" : 0.0
            }
        }
    ],
    "meshes" : [
        {
            "name" : "Suzanne",
            "primitives" : [
                {
                    "attributes" : {
                        "COLOR_0" : 3,
                        "JOINTS_0" : 4,
                        "NORMAL" : 2,
                        "POSITION" : 1,
                        "WEIGHTS_0" : 5
                    },
                    "indices" : 0,
                    "material" : 0
                }
            ]
        }
    ],
    "nodes" : [
        {
            "mesh" : 0,
            "name" : "Suzanne",
            "skin" : 0,
            "translation" : [
                0.0,
                1.1061495542526245,
                -0.0
            ]
        },
        {
            "children" : [
                0,
                2
            ],
            "name" : "Armature",
            "translation" : [
                0.0,
                -1.1061495542526245,
                -0.0
            ]
        },
        {
            "children" : [
                3,
                4,
                5
            ],
            "name" : "Armature_Bone",
            "rotation" : [
                -0.003501228289678693,
                0.0,
                0.0,
                0.9999939203262329
            ],
            "scale" : [
                1.0,
                0.9999999403953552,
                0.9999999403953552
            ],
            "translation" : [
                0.0,
                0.27574747800827026,
                0.514106273651123
            ]
        },
        {
            "name" : "Armature_Bone.001",
            "rotation" : [
                -0.2456195056438446,
                0.0,
                0.0,
                0.9693663120269775
            ],
            "translation" : [
                0.0,
                0.7242702841758728,
                4.656612873077393e-10
            ]
        },
        {
            "name" : "Armature_Bone.002",
            "rotation" : [
                -0.2476719170808792,
                -0.1714048981666565,
                0.5299555659294128,
                0.7927334308624268
            ],
            "scale" : [
                0.9999999403953552,
                0.9999999403953552,
                0.9999998807907104
            ],
            "translation" : [
                0.0,
                0.7242702841758728,
                4.656612873077393e-10
            ]
        },
        {
            "name" : "Armature_Bone.003",
            "rotation" : [
                -0.3630674183368683,
                -0.2910778522491455,
                -0.062432337552309036,
                0.882925808429718
            ],
            "scale" : [
                0.9999998807907104,
                0.9999999403953552,
                0.9999999403953552
            ],
            "translation" : [
                0.0,
                0.7242702841758728,
                4.656612873077393e-10
            ]
        }
    ],
    "scene" : 0,
    "scenes" : [
        {
            "name" : "Scene",
            "nodes" : [
                1
            ]
        }
    ],
    "skins" : [
        {
            "inverseBindMatrices" : 6,
            "joints" : [
                2,
                3,
                4,
                5
            ],
            "skeleton" : 1
        }
    ]
}
