<?xml version="1.0" encoding="utf-8"?>
<!-- Generator: Adobe Illustrator 23.0.3, SVG Export Plug-In . SVG Version: 6.00 Build 0)  -->
<svg version="1.1" id="图层_1" xmlns="http://www.w3.org/2000/svg" xmlns:xlink="http://www.w3.org/1999/xlink" x="0px" y="0px"
	 viewBox="0 0 122 88" style="enable-background:new 0 0 122 88;" xml:space="preserve">
<style type="text/css">
	.st0{opacity:0.55;}
	.st1{fill:#FFA19B;}
</style>
<g class="st0">
	<path class="st1" d="M86.5,51.2h2.2v2.2h-2.2V51.2z M86.5,46.8h2.2V49h-2.2V46.8z M86.5,55.7h2.2v2.2h-2.2V55.7z M86.5,42.3h2.2
		v2.2h-2.2V42.3z M86.5,73.5h2.2v2.2h-2.2V73.5z M82.1,64.6h2.2v2.2h-2.2V64.6z M82.1,60.2h2.2v2.2h-2.2V60.2z M82.1,69.1h2.2v2.2
		h-2.2V69.1z M82.1,55.7h2.2v2.2h-2.2V55.7z M82.1,73.5h2.2v2.2h-2.2V73.5z M82.1,42.3h2.2v2.2h-2.2V42.3z M86.5,69.1h2.2v2.2h-2.2
		V69.1z M86.5,64.6h2.2v2.2h-2.2V64.6z M86.5,60.2h2.2v2.2h-2.2V60.2z M82.1,51.2h2.2v2.2h-2.2V51.2z M82.1,46.8h2.2V49h-2.2V46.8z"
		/>
	<path class="st1" d="M122,86.2h-6.9c0.4-1.5,1-4.4,1.5-6c0.4-1.4,0-2.4-0.4-2.9c-1.3-1.8-4.6-2.7-10.2-2.7c-3.1,0-6.1,0.4-8.9,1
		c-1.1,0.2-2.3,0.4-3.4,0.7V30.8H84v-6H68.8v38.2l-2.5-14.9L39,41.5v12.6l-3.5,32.1h-0.9l-0.2-5.6l1.4-0.3l-1.4-0.7l-1.6-40.7h0.7
		l1-6.5l2.7-3.7L36.2,24h-2.1l-0.9-3.6h-2.1V0h-1.8v20.4H27L26.1,24h-1.9L23,28.9l2.7,3.6l1,6.5h0.8l-0.9,23.7l-7.9-5.3v-3.1h-1.8
		v3.1L5.4,65.1l5.3,2.2v2.3l-9,3.5l5.7,1.4v2.3L0,80.4l6.4,1.2V88H122V86.2z M92.2,86.2c-1.7-1.1-3.5-2.1-5.3-3.1l5.5-3.4
		c2.1,0.5,4.4,1.4,6.9,2.8l-6.6,3.6H92.2z M75.2,81.7c0-0.3,0-0.4,0.2-0.6l0.2-0.2c0.8-0.5,3.9,0.5,7.7,2.4l-4.9,2.9h-1.8
		C76.2,84.9,75.3,82.7,75.2,81.7z M87.6,79.5c0.7-0.1,1.3-0.1,2.1-0.1l-4.5,2.8c-1.6-0.8-3.3-1.6-4.8-2.1h1.9
		C84,80,85.7,79.7,87.6,79.5z M85.2,84.2c1.1,0.6,2.4,1.3,3.6,2h-6.9L85.2,84.2L85.2,84.2z M101,83.6c1.1,0.7,2.3,1.6,3.5,2.6h-8.2
		L101,83.6z M107.3,86.2c-1.5-1.2-3.1-2.5-4.5-3.5l5.5-3c2.9,1.8,4.9,3.9,5.6,4.7c-0.2,0.7-0.4,1.2-0.4,1.8
		C113.3,86.2,107.3,86.2,107.3,86.2z M114.8,78.3c0.2,0.3,0.4,0.6,0.1,1.3c-0.3,0.7-0.4,1.6-0.7,2.6c-0.9-1-2.4-2.3-4.2-3.6l2.7-1.5
		C114.1,77.6,114.7,78,114.8,78.3L114.8,78.3z M110.1,76.6l-1.8,1c-0.8-0.4-1.7-0.8-2.6-1.2h0.5C107.7,76.4,109,76.5,110.1,76.6z
		 M97.5,77.3c3.4-0.5,6.4,0.2,8.9,1.3l-5.3,2.9c-2.3-1.4-4.5-2.5-6.6-3.1l1.2-0.7C96.2,77.6,96.8,77.5,97.5,77.3z M92,76.7
		c-3.5,0.8-6.8,1.5-9.7,1.5h-3.5V40H92V76.7L92,76.7z M92,38.2H78.7v-5.6H92V38.2z M70.5,73.7v-47h11.7v4.2H77v47.6
		c-0.9,0.2-1.8,0.4-2.4,0.9c-0.2,0.2-0.4,0.3-0.5,0.4c-0.5,0.5-0.7,1.2-0.6,2c0.2,1.1,0.9,3,1.3,4.4h-2.2L70.5,73.7z M40.1,60.4
		l5.4,8.7L45,73.4l-5.3-9.2C39.7,64.3,40.1,60.4,40.1,60.4z M40.4,57.5l0.3-2.4l0.9,0.1l4.6,7.4l-0.4,3.6L40.4,57.5L40.4,57.5z
		 M68.4,72.1l-7,11.6l-0.6-4.2l6.9-11.5C67.7,68.1,68.4,72.1,68.4,72.1z M67.4,65.4l-6.8,11.4l-0.6-4.2l6.7-11.3
		C66.7,61.3,67.4,65.4,67.4,65.4z M66.2,58.7l-6.6,11.1l-0.5-3.9l6.6-10.7C65.7,55.2,66.2,58.7,66.2,58.7z M57.5,54.2l-1.9-0.1
		l3.5-5.9l2.6,0.6l-4.2,7L57.5,54.2L57.5,54.2z M53.6,54l-2.8-0.2l4-6.7l2.6,0.6C57.3,47.8,53.6,54,53.6,54z M48.8,53.8l-3.2-0.2
		l4.5-7.6l2.8,0.7L48.8,53.8L48.8,53.8z M43.7,53.5l-2.9-0.2v-0.7l4.6-7.7l3,0.7C48.4,45.6,43.7,53.5,43.7,53.5z M43.7,55.3l3.2,0.2
		l-0.4,4.3L43.7,55.3z M48.6,55.6l7.2,0.4L59.1,79H46.2C46.2,79,48.6,55.6,48.6,55.6z M52.6,80.9l3.3,5.3h-3.2l-3.4-5.3
		C49.3,80.9,52.6,80.9,52.6,80.9z M54.7,80.9h4.6l0.7,5.3h-2C58,86.2,54.7,80.9,54.7,80.9z M68.9,74.8l0.8,4.7l-4.2,6.7h-3.4
		C62.1,86.2,68.9,74.8,68.9,74.8z M70.1,82.2l0.7,4h-3.2L70.1,82.2L70.1,82.2z M65.2,52.6l-6.5,10.6l-0.6-4.4l5.6-9.4l1.1,0.3
		L65.2,52.6L65.2,52.6z M43.6,44.4l-2.8,4.8v-5.4L43.6,44.4z M39.4,67.2l5.3,9.2l-0.4,4.4h3.2l3.3,5.3h-3.2L38.8,72
		C38.8,72,39.4,67.2,39.4,67.2z M38.5,74.9l6.9,11.3h-3.1L38,79.1C38,79.1,38.5,74.9,38.5,74.9z M37.7,82l2.5,4.2h-2.9
		C37.3,86.2,37.7,82,37.7,82z M32.6,78.8l-4.1-2v-2.3l4-1C32.4,73.5,32.6,78.8,32.6,78.8z M28.3,22.2h3.4l0.4,1.8h-4.3
		C27.9,24,28.3,22.2,28.3,22.2z M27.1,31.2L25,28.4l0.6-2.8h9.2l0.6,2.6l-2.1,2.8C33.3,31.1,27.1,31.2,27.1,31.2z M32.7,33L32,37.2
		h-3.8L27.6,33H32.7z M29.3,38.9h1.8l1.2,33.4l-4.1-1.6l0.2-4.9l1.9-0.8l-1.9-1.2C28.4,63.8,29.3,38.9,29.3,38.9z M12.4,69.3v-1.8
		h10.8v1.8H12.4z M25,67.3l1.6-0.6l-0.1,3.6l-1.4-0.5L25,67.3L25,67.3z M17.8,58.8l8.7,5.9l-2.6,1.1H11.7l-2.6-1.1L17.8,58.8
		L17.8,58.8z M11.7,71.1H24l4.1,1.6l-0.7,0.2H8.2l-0.7-0.2L11.7,71.1L11.7,71.1z M26.7,74.7v1.8H9v-1.8H26.7L26.7,74.7z M8.4,78.2
		h19l2.9,1.4L28.4,80H7.3l-1.9-0.4L8.4,78.2z M24,86.2v-2.7h-1.8v2.7h-3.5v-2.7h-1.8v2.7h-3.5v-2.7h-1.8v2.7H8.1v-4.4h19.4v4.4
		C27.5,86.2,24,86.2,24,86.2z M29.3,81.6l3.3-0.6l0.3,5.2h-3.5L29.3,81.6L29.3,81.6z"/>
</g>
</svg>
