<?xml version="1.0" encoding="utf-8"?>
<svg xmlns="http://www.w3.org/2000/svg" viewBox="0 0 473 52"><title>GGV Logo</title><path fill="currentColor" d="M0,26.4v-.146C0,12.038,10.877,0,26.176,0,35.022,0,40.461,2.466,45.681,6.89l-5.656,6.743C36.11,10.3,32.267,8.2,25.813,8.2c-9.354,0-16.459,8.193-16.459,17.91v.145c0,10.441,6.888,18.128,17.257,18.128a20.714,20.714,0,0,0,12.254-3.843v-9.5H25.886V23.277H47.494V44.6a32.368,32.368,0,0,1-21.173,7.9C10.442,52.5,0,41.187,0,26.4Zm56.981,0v-.146C56.981,12.038,67.858,0,83.157,0,92,0,97.442,2.466,102.662,6.89l-5.656,6.743C93.091,10.3,89.248,8.2,82.794,8.2c-9.354,0-16.459,8.193-16.459,17.91v.145c0,10.441,6.888,18.128,17.257,18.128a20.714,20.714,0,0,0,12.254-3.843v-9.5H82.867V23.277h21.608V44.6A32.368,32.368,0,0,1,83.3,52.5c-15.88,0-26.321-11.311-26.321-26.1ZM110.242.871H120.1l15.3,39.011L150.63.871h9.644l-21.1,51.119h-7.831ZM189.251,52.5c-14.5,0-25.233-11.529-25.233-26.1v-.146C164.018,11.892,174.749,0,189.4,0c9.064,0,14.5,3.336,19.723,8.121l-2.683,2.756c-4.423-4.278-9.5-7.469-17.112-7.469-12.182,0-21.391,9.934-21.391,22.7v.145c0,12.835,9.354,22.841,21.463,22.841,7.324,0,12.327-2.827,17.475-7.9l2.538,2.465c-5.366,5.294-11.166,8.847-20.158,8.847Zm73.462-.87-6.454-14.212H226.313L219.86,51.628h-3.915L239.583.509h3.626l23.638,51.119ZM241.323,4.642,227.909,34.008h26.756ZM294.648,32.7h-13.7V51.628h-3.771V.871h18.418c11.166,0,18.852,5.729,18.852,15.517v.146c0,10.659-9.208,16.169-19.795,16.169Zm16.025-16.1c0-8.048-6.236-12.254-15.373-12.254H280.944V29.223h13.922c9.427,0,15.808-4.931,15.808-12.472v-.145Zm14.672,35.022V.871h3.771V51.628ZM361.3,4.352V51.628h-3.771V4.352H339.838V.872h39.154v3.48Zm63.312,47.276-6.453-14.212H388.213L381.76,51.628h-3.916L401.483.509h3.625l23.639,51.119ZM403.222,4.642,389.807,34.008h26.757L403.222,4.642Zm35.85,46.986V.871h3.771V48.147h29.8v3.48H439.072Z"></path></svg>