<?xml version="1.0" encoding="utf-8"?>
<!-- Generator: Adobe Illustrator 23.0.3, SVG Export Plug-In . SVG Version: 6.00 Build 0)  -->
<svg version="1.1" id="图层_1" xmlns="http://www.w3.org/2000/svg" xmlns:xlink="http://www.w3.org/1999/xlink" x="0px" y="0px"
	 viewBox="0 0 125 88" style="enable-background:new 0 0 125 88;" xml:space="preserve">
<style type="text/css">
	.st0{opacity:0.55;}
	.st1{fill:#FFA19B;}
</style>
<g class="st0">
	<path class="st1" d="M4.5,57.9h2.2v3.3H4.5V57.9z M4.5,52.4h2.2v3.3H4.5V52.4z M4.5,63.5h2.2v3.3H4.5V63.5z M4.5,46.8h2.2v3.3H4.5
		V46.8z M10,57.9h2.2v3.3H10V57.9z M10,69.1h2.2v3.3H10V69.1z M10,74.6h2.2V78H10V74.6z M10,63.5h2.2v3.3H10V63.5z M10,52.4h2.2v3.3
		H10V52.4z M10,46.8h2.2v3.3H10V46.8z M4.5,80.2h2.2v3.3H4.5V80.2z M4.5,74.6h2.2V78H4.5V74.6z M4.5,69.1h2.2v3.3H4.5V69.1z
		 M91,62.4c2.2,0,3.9-1.7,3.9-3.9c0-2.2-1.7-3.9-3.9-3.9c-2.2,0-3.9,1.8-3.9,3.9C87.1,60.6,88.9,62.4,91,62.4z M91,56.6
		c1,0,1.9,0.9,1.9,1.9c0,1-0.9,1.9-1.9,1.9c-1,0-1.9-0.9-1.9-1.9S90,56.6,91,56.6L91,56.6z"/>
	<path class="st1" d="M115.5,86.1V74.8h-18V52.1h0.9v-1.9h-0.9v-6.3h0.9V42h-2.7v-7.6h-2v-3.8h0.6v-1.9h-0.6v-1.7
		c0-1.1-0.9-2.2-2-2.5v-6.1l2.7,0.7l0.5-1.8l-5-1.2v8.6c-1.1,0.4-2,1.4-2,2.5v1.7h-0.7v1.9h0.7v3.8h-2v7.6h-2.7V44H84v6.3h-0.9v1.9
		H84v7.3c-3.1,2.1-6.8,3.1-10.8,3.1C58,62.6,53.4,48.2,53,46.7v-4H51v1.9h-2.9v-1.9h-1.9v3.8c-0.2,0.8-2.4,10.6-12.8,14.9l-0.1-0.9
		l1-36.2h-6.2L24.8,0h-1.9l-3.4,24.3h-6L13.8,37h-11v4.7H0V88h125v-1.9H115.5z M107.8,76.7v9.4H105v-3.4c0-2.3-1.7-4.2-3.8-4.2
		c-2.2,0-3.8,1.8-3.8,4.2v3.4h-2.9v-3.4c0-2.3-1.7-4.2-3.8-4.2c-2.2,0-3.8,1.8-3.8,4.2v3.4H84v-3.4c0-2.3-1.7-4.2-3.8-4.2
		c-2.2,0-3.8,1.8-3.8,4.2v3.4h-2.9v-9.4H107.8L107.8,76.7z M103.1,86.1h-3.8v-3.4c0-1.3,0.9-2.4,1.9-2.4c1.1,0,1.9,1.1,1.9,2.4
		L103.1,86.1L103.1,86.1z M92.6,86.1h-3.8v-3.4c0-1.3,0.9-2.4,1.9-2.4c1.1,0,1.9,1.1,1.9,2.4C92.6,82.7,92.6,86.1,92.6,86.1z
		 M82.1,86.1h-3.8v-3.4c0-1.3,0.9-2.4,1.9-2.4c1.1,0,1.9,1.1,1.9,2.4C82.1,82.7,82.1,86.1,82.1,86.1z M95.5,50.2h-2v-6.3h2V50.2z
		 M91.6,43.9v6.3h-1.9v-6.3H91.6z M93.7,42h-2.1v-5.7h2.1V42z M89.6,27.2c0-0.5,0.5-0.9,1.1-0.9c0.6,0,1.1,0.5,1.1,0.9v1.6h-2.1
		C89.6,28.8,89.6,27.2,89.6,27.2z M89.6,30.7h2.1v3.8h-2.1V30.7z M87.6,36.4h2.1V42h-2.1V36.4z M85.8,43.9h2v6.3h-2V43.9z
		 M95.5,52.1v22.7h-9.7V52.1L95.5,52.1L95.5,52.1z M83.9,67.2h-2.6v-4.3c0.9-0.4,1.7-0.8,2.6-1.2V67.2z M76.5,67.2v-3.1
		c1-0.2,1.9-0.4,2.9-0.7v3.7C79.4,67.1,76.5,67.2,76.5,67.2z M74.6,64.3v2.9h-2.9v-2.8h1.3C73.6,64.4,74.1,64.4,74.6,64.3z
		 M62.3,67.2v-5.6c0.9,0.5,1.8,0.9,2.9,1.3v4.2C65.2,67.2,62.3,67.2,62.3,67.2z M67.1,63.6c0.9,0.3,1.8,0.5,2.8,0.6v3h-2.8
		L67.1,63.6L67.1,63.6z M60.4,60.4v6.8h-2.9V58C58.4,58.8,59.4,59.7,60.4,60.4L60.4,60.4z M55.6,55.7v11.5h-2.8V51.5
		C53.6,53,54.6,54.4,55.6,55.7L55.6,55.7z M48.1,79.5V69.1H51v10.4H48.1z M27.7,34.2H20l0.4-2.8h6.9L27.7,34.2z M27,29.5h-6.3
		l0.5-3.3h5.3L27,29.5L27,29.5z M19.8,36.1H28l0.4,2.8h-9L19.8,36.1z M28.6,40.8l0.4,2.8H18.7l0.4-2.8L28.6,40.8L28.6,40.8z
		 M29.3,45.5l0.4,2.8H18l0.4-2.8C18.4,45.5,29.3,45.5,29.3,45.5z M30,50.2l0.4,2.8h-13l0.4-2.8L30,50.2L30,50.2z M30.6,55l0.4,2.8
		H16.7l0.4-2.8H30.6z M31.3,59.7l0.4,2.8H16l0.4-2.8L31.3,59.7L31.3,59.7z M33,71.9H14.7l0.4-2.8h17.5L33,71.9z M15.4,67.2l0.4-2.8
		h16.1l0.4,2.8L15.4,67.2L15.4,67.2z M14.5,73.8h18.8l0.4,2.8H14L14.5,73.8L14.5,73.8z M33.9,78.6l0.4,2.8H13.4l0.4-2.8L33.9,78.6
		L33.9,78.6z M34.5,83.3l0.4,2.8H12.7l0.4-2.8H34.5L34.5,83.3z M34.5,69.1h11.6v10.4H36L34.5,69.1z M48.1,67.2v-3.8H51v3.8H48.1z
		 M51,61.6h-2.9v-3.8H51V61.6z M51,55.9h-2.9v-3.8H51C51,52.1,51,55.9,51,55.9z M51,46.5v3.8h-2.9v-3.8H51z M46.2,67.2h-2.9V56.5
		c1.2-1.5,2.2-3,2.9-4.3L46.2,67.2L46.2,67.2z M41.4,58.5v8.7h-2.9v-6.4C39.6,60.1,40.6,59.3,41.4,58.5z M36.6,62v5.2h-2.4l-0.6-3.9
		C34.7,63,35.7,62.5,36.6,62L36.6,62z M32.4,26.2l-0.7,23.1l-3.2-23.1L32.4,26.2L32.4,26.2z M23.9,7l2.4,17.3h-4.9
		C21.4,24.3,23.9,7,23.9,7z M19.3,26.2L16,49.1l-0.7-22.9L19.3,26.2L19.3,26.2z M4.8,38.9h9.1l0.1,2.8H4.8
		C4.8,41.7,4.8,38.9,4.8,38.9z M1.9,43.6h12l0.5,16.9l-3,21.1v-1.1H9.5v2.8h1.6l-0.4,2.8H1.9L1.9,43.6L1.9,43.6z M65.8,86.1H36.9
		l-0.7-4.7h29.6L65.8,86.1L65.8,86.1z M65.8,79.5h-13V69.1h31v5.7h-18L65.8,79.5L65.8,79.5z M67.7,76.7h3.8v9.4h-3.8V76.7L67.7,76.7
		z M113.5,86.1h-3.8v-9.4h3.8V86.1L113.5,86.1z"/>
</g>
</svg>
