<?xml version="1.0" encoding="utf-8"?>
<!-- Generator: Adobe Illustrator 23.0.3, SVG Export Plug-In . SVG Version: 6.00 Build 0)  -->
<svg version="1.1" id="图层_1" xmlns="http://www.w3.org/2000/svg" xmlns:xlink="http://www.w3.org/1999/xlink" x="0px" y="0px"
	 viewBox="0 0 125 97" style="enable-background:new 0 0 125 97;" xml:space="preserve">
<style type="text/css">
	.st0{opacity:0.55;}
	.st1{fill:#FFA19B;}
</style>
<g class="st0">
	<path class="st1" d="M17.9,53.5h2.2v2.2h-2.2V53.5z M17.9,49.1h2.2v2.2h-2.2V49.1z M17.9,66.9h2.2v2.2h-2.2V66.9z M17.9,62.4h2.2
		v2.2h-2.2V62.4z M17.9,58h2.2v2.2h-2.2V58z"/>
	<path class="st1" d="M114.8,95.1V72.5l-8.5,5.3V31.4H89.1v63.7h-2.9l-1.9-84.6h-1.9l0.2,6.6H74l-2.9,48.6
		c-3.1-3.2-7.5-5.3-12.4-5.3c-4.5,0-8.5,1.7-11.5,4.5v-7.3L45.9,58c0,0-1,0.4-2.6,1V46.6H31v23.8c-1.3,2.6-1.9,5.5-1.9,8.5v7.2
		l-4.4-5c0.3-0.7,0.4-1.4,0.4-2.2c0-1.6-0.6-3.2-1.6-4.4V43.4c1-1.1,1.6-2.7,1.6-4.4c0-1.8-0.7-3.4-1.9-4.7c-0.5-0.5-1-1-1.7-1.2
		l-0.6-8.1c1-0.7,1.6-1.9,1.6-3.1c0-1.8-1.2-3.4-3-3.8V0h-1.9v18.1c-1.7,0.5-3,2-3,3.8c0,1.2,0.7,2.5,1.6,3.1l-0.6,8.1
		c-2.2,1-3.7,3.3-3.7,5.9c0,1.6,0.6,3.1,1.6,4.4v31.2c-1,1.2-1.6,2.8-1.6,4.4c0,0.8,0.1,1.5,0.4,2.2l-12.3,14H0V97h125v-1.9H114.8z
		 M84,77h-2.9c-0.4-2.5-0.7-5-1-7.6h3.6L84,77L84,77z M74.9,87.7v2.8H42.4v-2.8H74.9z M49.3,77.6c0-6.8,2.9-12.6,6.7-14.5
		c-1.6,3.7-2.1,10.5-2.1,14.5c0,2.8,0.2,5.7,0.5,8.2h-3.6C49.8,83.3,49.3,80.6,49.3,77.6L49.3,77.6z M66.6,85.8H63
		c0.3-2.5,0.6-5.3,0.6-8.2c0-4.1-0.5-10.9-2.1-14.5c3.8,1.9,6.7,7.7,6.7,14.5C68.1,80.6,67.7,83.3,66.6,85.8z M56.3,85.8
		c-0.4-2.4-0.6-5.2-0.6-8.1c0-10.1,2.1-15.2,3-15.2c0.9,0,3,5.1,3,15.2c0,2.8-0.2,5.6-0.6,8.1H56.3L56.3,85.8z M73.8,85.8
		c1.1-2.1,1.9-4.4,2.1-6.8h3.7c0.3,2.5,0.7,4.8,1,6.8C80.6,85.8,73.8,85.8,73.8,85.8z M82.8,26.7l0.2,6.7H80c0.5-2.6,1-4.8,1.5-6.6
		C81.5,26.7,82.8,26.7,82.8,26.7z M82.1,24.8c0.2-0.8,0.5-1.4,0.8-2.1v2.1H82.1z M83,35.2l0.2,6.7h-4.3c0.1-2.4,0.4-4.6,0.7-6.7
		L83,35.2L83,35.2z M83.3,50.4h-4.7v-1.9v-4.8h4.5L83.3,50.4L83.3,50.4z M78,33.3h-3.1l0.4-6.6h4.2C78.9,28.6,78.4,30.9,78,33.3
		L78,33.3z M77.7,35.2c-0.4,2.1-0.6,4.3-0.8,6.7h-2.6l0.4-6.7C74.7,35.2,77.7,35.2,77.7,35.2z M76.8,43.8c-0.1,1.5-0.1,3.1-0.1,4.8
		v1.9h-2.9l0.4-6.7H76.8z M76.8,52.3c0.1,2.2,0.2,4.4,0.4,6.7h-3.8l0.4-6.7L76.8,52.3L76.8,52.3z M77.3,60.9
		c0.2,2.2,0.4,4.5,0.7,6.6h-5.1l0.4-6.7C73.2,60.9,77.3,60.9,77.3,60.9z M78.2,69.4c0.4,2.6,0.7,5.1,1,7.6h-3.3
		c-0.1-2.8-0.9-5.3-2.1-7.6L78.2,69.4L78.2,69.4z M79.9,67.5c-0.2-2.2-0.5-4.5-0.8-6.7h4.4l0.2,6.7H79.9z M79.1,59
		c-0.2-2.3-0.4-4.5-0.4-6.7h4.7l0.2,6.7H79.1L79.1,59z M82.1,19.1c-0.6,1.1-1.3,3.1-2.1,5.7h-4.6l0.3-5.7H82.1L82.1,19.1z M74,77.7
		c0,2.8-0.9,5.6-2.4,8.1h-3c0.9-2.5,1.3-5.3,1.3-8.2c0-5.4-1.6-10.2-4.3-13.3C70.6,66.8,74,71.9,74,77.7z M51.7,64.2
		c-2.7,3.1-4.3,8-4.3,13.4c0,2.9,0.5,5.7,1.4,8.2h-3c-1.5-2.4-2.4-5.2-2.4-8.1C43.5,71.8,46.8,66.8,51.7,64.2z M32.9,48.5h8.6V60
		c-2.7,1.5-6,3.8-8.6,7.2V48.5L32.9,48.5z M23.3,83.6c0.2-0.2,0.4-0.5,0.6-0.7l10.5,12.2h-3l-9-10.8C22.8,84.1,23,83.9,23.3,83.6
		L23.3,83.6z M15.8,95.1H8.1l7.7-9.2C15.8,85.9,15.8,95.1,15.8,95.1z M19.5,95.1h-1.8v-9.7c0.6,0.1,1.2,0.1,1.8,0L19.5,95.1
		L19.5,95.1z M29,95.1h-7.5V86L29,95.1z M18.6,20c1.1,0,2,0.9,2,2c0,1.1-0.9,2-2,2c-1.1,0-2-0.9-2-2C16.6,20.8,17.4,20,18.6,20z
		 M19.5,32.6c-0.3-0.1-0.7-0.1-1-0.1s-0.7,0.1-1,0.1l0.5-6.7h1C19.1,25.8,19.5,32.6,19.5,32.6z M18.6,34.4c1.2,0,2.5,0.5,3.3,1.3
		c0.7,0.7,1,1.5,1.2,2.4H14C14.5,36,16.3,34.4,18.6,34.4z M23.2,40c-0.2,1-0.6,1.7-1.2,2.4c-1,0.9-2.1,1.3-3.3,1.3
		c-1.2,0-2.5-0.5-3.3-1.3c-0.7-0.7-1-1.5-1.2-2.4H23.2L23.2,40z M21.6,44.8v28.2c-1-0.5-2-0.8-3-0.8c-1.1,0-2.1,0.3-3.1,0.8V44.8
		c1,0.5,2,0.8,3.1,0.8C19.7,45.6,20.7,45.3,21.6,44.8L21.6,44.8z M18.6,74.3c1.2,0,2.5,0.5,3.3,1.3c0.6,0.7,1,1.5,1.2,2.4H14
		C14.5,75.9,16.3,74.3,18.6,74.3z M23.2,79.9c-0.2,0.9-0.6,1.7-1.2,2.4c-0.9,0.9-2.1,1.3-3.3,1.3c-1.2,0-2.5-0.5-3.3-1.3
		c-0.7-0.7-1-1.5-1.2-2.4H23.2L23.2,79.9z M13.4,82.8c0.2,0.2,0.4,0.5,0.6,0.7c0.3,0.3,0.5,0.5,0.8,0.7L5.6,95.1h-3L13.4,82.8
		L13.4,82.8z M36.9,95.1L31,88.4v-9.4c0-11.7,10.6-17.1,14.3-18.6v6.7c-2.3,2.9-3.7,6.6-3.7,10.5c0,2.9,0.8,5.7,2.1,8.2h-3.1v9.3
		L36.9,95.1L36.9,95.1z M42.4,95.1v-2.7h32.5v2.7H42.4L42.4,95.1z M76.8,95.1v-7.4h4.1c0.4,2.5,0.9,4.9,1.3,7.4
		C82.3,95.1,76.8,95.1,76.8,95.1z M81.4,78.9H84l0.2,6.8h-1.6C82.1,83.5,81.7,81.2,81.4,78.9z M84.2,95.1c-0.2-1.2-0.8-3.9-1.3-7.4
		h1.3l0.2,7.4L84.2,95.1L84.2,95.1z M91,44.7l0.5,2.8H91V44.7z M104.4,90.3h-5.8v-2.8h5.8V90.3z M97.1,71.3l-0.4-2.8h1.9l-0.5,2.8
		H97.1z M97.9,73.2l-0.2,1.4l-0.2-1.4C97.5,73.2,97.9,73.2,97.9,73.2z M102.5,44.7l-0.5,2.8h-8.6L93,44.7H102.5z M92.6,42.8l-1-6.7
		h12.1l-1,6.7H92.6L92.6,42.8z M101.7,49.5l-0.5,2.8h-7.1l-0.4-2.8H101.7L101.7,49.5z M100.9,54.2l-0.5,2.8h-5.5l-0.5-2.8
		C94.5,54.2,100.9,54.2,100.9,54.2z M100.2,59l-0.5,2.8h-4L95.2,59C95.2,59,100.2,59,100.2,59z M99.5,63.7L99,66.6h-2.6l-0.4-2.8
		C96.1,63.7,99.5,63.7,99.5,63.7z M104.4,85.6h-5.8v-2.8h5.8V85.6z M98.6,80.8L99,78h5.3v2.8C104.4,80.8,98.6,80.8,98.6,80.8z
		 M104.4,76.1h-5.1l0.5-2.8h4.6C104.4,73.2,104.4,76.1,104.4,76.1z M104.4,71.3h-4.3l0.5-2.8h3.8C104.4,68.5,104.4,71.3,104.4,71.3z
		 M104.4,66.6h-3.5l0.5-2.8h3.1V66.6z M104.4,61.8h-2.8l0.5-2.9h2.3V61.8L104.4,61.8z M104.4,57.1h-2l0.5-2.8h1.5V57.1z M104.4,52.3
		h-1.2l0.5-2.8h0.8V52.3z M104.4,47.6h-0.5l0.5-2.8V47.6z M104,34.4H91.3l-0.1-1h13L104,34.4L104,34.4z M91,49.5h0.8l0.5,2.8H91
		L91,49.5L91,49.5z M91,54.2h1.5l0.5,2.8h-2V54.2z M91,59h2.3l0.5,2.8H91V59z M91,63.7h3l0.5,2.8H91V63.7z M91,68.5h3.7l0.5,2.8H91
		V68.5z M91,73.2h4.5l0.5,2.8h-5V73.2z M91,78h5.2l0.5,2.8H91L91,78L91,78z M91,82.7h5.7v2.8H91V82.7z M91,87.5h5.7v2.8H91V87.5
		L91,87.5z M98.6,92.2h5.8v2.8h-5.8L98.6,92.2L98.6,92.2z M91,92.2h5.7v2.8H91V92.2z M112.9,95.1h-6.7v-15l6.7-4.2V95.1L112.9,95.1z
		"/>
</g>
</svg>
