<?xml version="1.0" encoding="utf-8"?>
<!-- Generator: Adobe Illustrator 23.0.3, SVG Export Plug-In . SVG Version: 6.00 Build 0)  -->
<svg version="1.1" id="图层_1" xmlns="http://www.w3.org/2000/svg" xmlns:xlink="http://www.w3.org/1999/xlink" x="0px" y="0px"
	 viewBox="0 0 124 94" style="enable-background:new 0 0 124 94;" xml:space="preserve">
<style type="text/css">
	.st0{opacity:0.55;}
	.st1{fill:#FFA19B;}
</style>
<g class="st0">
	<path class="st1" d="M114.4,92.1v-4.5h-1V72.3h1v-6.4h-1V43.9h-1.9v1.9h-6.2l-4.3-7.6l-4.3,7.6h-6.2v-1.9h-1.9v21.8h-1v6.4h1v15.3
		h-1V92h-0.9c-0.3-1.3-1-4.3-1.9-7.6h0.1V25.9H70v23.6c-13.2,0.1-33,1.4-37.8,1.8l0.1-21.6v-3.9l-1-2.5v-7.8c0-3.1-2-5.8-4.7-6.9
		V4.7c0-1.1-0.9-2.2-1.9-2.6V0h-1.9v2.2c-1.1,0.4-1.9,1.3-1.9,2.5v3.9c-2.7,1.1-4.7,3.8-4.7,6.9v7.8l-1,2.5v4l0.1,34
		c-6.7,0-9,5.1-10.4,10.1C3.1,79.3,0.7,89.4,0,92.1V94h124v-1.9H114.4z M95.4,87.6V72.3h1v-6.4h-1V62c0-1.5,0.6-2.9,1.7-4
		c1-1,2.5-1.7,4-1.7s2.9,0.6,4,1.7c1,1,1.7,2.5,1.7,4.1v3.9h-1v6.4h1v15.3h-1v4.5h-9.2v-4.5L95.4,87.6
		C95.4,87.7,95.4,87.6,95.4,87.6z M89.6,67.7h5v2.6h-5V67.7L89.6,67.7z M112.5,67.7v2.6h-5v-2.6L112.5,67.7L112.5,67.7z M107.6,89.5
		h5v2.6h-5V89.5L107.6,89.5z M111.5,87.6h-2.8V72.3h2.8V87.6L111.5,87.6z M108.6,51.5h2.9v5.1L108.6,51.5z M111.5,47.7v1.9h-4
		l-1-1.9L111.5,47.7L111.5,47.7z M90.7,47.7h5l-1,1.9h-4V47.7L90.7,47.7z M90.7,51.5h2.9l-2.9,5.1V51.5z M90.7,60.5L101.1,42
		l10.4,18.4v5.4h-2.8v-4c0-2-0.8-3.9-2.2-5.3c-1.4-1.4-3.3-2.2-5.4-2.2c-4.2,0-7.6,3.4-7.6,7.5v4h-2.8L90.7,60.5L90.7,60.5z
		 M90.7,72.3h2.8v15.3h-2.8V72.3L90.7,72.3z M89.6,89.5h5v2.6h-5C89.6,92.1,89.6,89.5,89.6,89.5z M18.8,35.4l-0.1,28.3h-1.9
		l-0.1-34.1h13.5l-0.1,37h-1.9V35.3h-1.9v31.4h-2.2l0.4-3h-0.1l0.1-28.3h-1.9l-0.1,28.3h-1.9l0.1-28.3
		C20.8,35.3,18.8,35.4,18.8,35.4z M20.4,25h6.1l-0.3,0.8v2h-5.4v-2L20.4,25L20.4,25z M22.5,17.9h1.9v5.3h-1.9
		C22.5,23.1,22.5,17.9,22.5,17.9z M32,57.1c1-0.1,2.9-0.2,5.5-0.4l-1.6,10H32V57.1z M77.7,65.7h5.4v2.8h-3
		C79.4,67.5,78.7,66.4,77.7,65.7L77.7,65.7z M79.7,72.3H65.3l-0.9-6.6h7.7C75.8,65.8,78.1,67.6,79.7,72.3z M23.9,68.7l39-0.2
		l0.9,6.6H23C23,75.1,23.9,68.7,23.9,68.7z M37.9,66.7l0.8-5l0.8,5H37.9z M45.4,66.7l0.8-5.2l0.8,5.2H45.4z M54,66.6l0.8-5.4
		l0.8,5.4H54L54,66.6z M62.6,65.8l0.1,0.8h-0.3L62.6,65.8z M62.9,63.8l0.5-3.2l0.6,3.2H62.9z M69.9,63.8h-4.1l-1.4-8.4
		c1.9-0.1,3.8-0.1,5.5-0.1V63.8z M60.5,66.6h-3.1l-1.6-11c2.1-0.1,4.3-0.2,6.3-0.3L60.5,66.6L60.5,66.6z M52,66.7h-3.1l-1.6-10.6
		c2.1-0.1,4.2-0.2,6.3-0.4C53.6,55.7,52,66.7,52,66.7z M43.4,66.7h-2.2l-1.6-10.1c1.6-0.1,3.4-0.2,5.4-0.3L43.4,66.7L43.4,66.7z
		 M22.8,77h41.3l2,15.1H20.7L22.8,77z M65.6,74.2h14.7v0.2c1.4,5,3.7,14.5,4.5,17.8H68L65.6,74.2L65.6,74.2z M82.2,73.8
		c-0.3-1.1-0.7-2.4-1.1-3.4h2.1v6.9C82.7,76.1,82.4,74.8,82.2,73.8z M71.8,27.9h11.4v2.8H71.8V27.9z M71.8,32.6h11.4v2.8H71.8V32.6z
		 M71.8,37.3h11.4v2.8H71.8V37.3z M71.8,42h11.4v2.8H71.8C71.8,44.9,71.8,42,71.8,42z M71.8,46.8h11.4v2.8H71.8V46.8z M71.8,51.5
		h11.4v2.8H71.8V51.5z M71.8,56.2h11.4V59H71.8V56.2z M83.1,60.9v2.8H71.8v-2.8H83.1z M69.9,51.5v1.9c-13.2,0.1-33,1.4-37.9,1.8
		v-1.9C36.5,53,56.6,51.6,69.9,51.5z M28.1,27.8v-1.6l1-2.5l1,2.5v1.6C30.2,27.8,28.1,27.8,28.1,27.8z M29.2,18.9l-1.8,4.2h-0.9
		v-5.8h2.8L29.2,18.9L29.2,18.9z M22.5,4.8c0-0.5,0.5-0.8,0.9-0.8s0.9,0.4,0.9,0.8v3.4c-0.6-0.1-1.3-0.1-1.9,0V4.8L22.5,4.8z
		 M23.5,10c3.1,0,5.7,2.5,5.7,5.5H17.8C17.8,12.5,20.4,10,23.5,10z M17.8,17.4h2.9v5.8h-1l-1.8-4.3L17.8,17.4L17.8,17.4L17.8,17.4z
		 M16.8,26.2l1-2.5l1,2.5v1.6h-2.1L16.8,26.2L16.8,26.2z M15,65.7h7.5l-0.9,6.6H7.1C8.7,67.5,11.1,65.7,15,65.7L15,65.7z M6.4,74.4
		c0-0.1,0-0.2,0.1-0.3h14.8l-2.4,17.9H2C2.7,88.8,5,79.4,6.4,74.4z"/>
	<path class="st1" d="M19,32.5h2.2v2.2H19V32.5z M101.1,67.1c2.1,0,3.9-1.8,3.9-3.9c0-2.1-1.8-3.9-3.9-3.9s-3.9,1.8-3.9,3.9
		C97.2,65.4,99,67.1,101.1,67.1L101.1,67.1z M101.1,61.2c1.1,0,2,0.9,2,2.1c0,1.1-0.9,2.1-2,2.1c-1.1,0-2-0.9-2-2.1
		C99.1,62.1,100,61.2,101.1,61.2L101.1,61.2z M26.8,32.5H29v2.2h-2.2V32.5z M22.3,32.5h2.2v2.2h-2.2V32.5z M59.2,71.6h2.2v2.2h-2.2
		V71.6z M49.2,71.6h2.2v2.2h-2.2V71.6z M40.2,71.6h2.2v2.2h-2.2V71.6z M24.6,71.6h2.2v2.2h-2.2V71.6z M53.6,71.6h2.2v2.2h-2.2V71.6z
		 M44.7,71.6h2.2v2.2h-2.2V71.6z M34.6,71.6h2.2v2.2h-2.2V71.6z M30.2,71.6h2.2v2.2h-2.2V71.6z M79.3,82.8h1.1V85h-1.1V82.8z
		 M71.5,87.3h1.1v2.2h-1.1V87.3z M71.5,82.8h1.1V85h-1.1V82.8z M23.5,87.3h1.1v2.2h-1.1V87.3z M74.8,82.8H76V85h-1.1V82.8z
		 M27.9,87.3H29v2.2h-1.1V87.3z M27.9,82.8H29V85h-1.1V82.8z M74.8,87.3H76v2.2h-1.1V87.3z M23.5,82.8h1.1V85h-1.1V82.8z M79.3,87.3
		h1.1v2.2h-1.1V87.3z M13.4,87.3h1.1v2.2h-1.1V87.3z M10.1,82.8h1.1V85h-1.1V82.8z M13.4,82.8h1.1V85h-1.1V82.8z M61.4,82.8h1.1V85
		h-1.1V82.8z M10.1,87.3h1.1v2.2h-1.1V87.3z M6.7,87.3h1.1v2.2H6.7V87.3z M31.3,87.3h1.1v2.2h-1.1V87.3z M6.7,82.8h1.1V85H6.7V82.8z
		 M53.6,87.3h1.1v2.2h-1.1V87.3z M50.3,82.8h1.1V85h-1.1V82.8z M53.6,82.8h1.1V85h-1.1V82.8z M50.3,87.3h1.1v2.2h-1.1V87.3z
		 M61.4,87.3h1.1v2.2h-1.1V87.3z M58.1,87.3h1.1v2.2h-1.1V87.3z M31.3,82.8h1.1V85h-1.1V82.8z M58.1,82.8h1.1V85h-1.1V82.8z
		 M45.8,82.8h1.1V85h-1.1V82.8z M34.6,82.8h1.1V85h-1.1V82.8z M34.6,87.3h1.1v2.2h-1.1V87.3z M39.1,87.3h1.1v2.2h-1.1V87.3z
		 M42.5,82.8h1.1V85h-1.1V82.8z M45.8,87.3h1.1v2.2h-1.1V87.3z M42.5,87.3h1.1v2.2h-1.1V87.3z M39.1,82.8h1.1V85h-1.1V82.8z"/>
</g>
</svg>
