<?xml version="1.0" encoding="utf-8"?>
<!-- Generator: Adobe Illustrator 23.0.3, SVG Export Plug-In . SVG Version: 6.00 Build 0)  -->
<svg version="1.1" id="图层_1" xmlns="http://www.w3.org/2000/svg" xmlns:xlink="http://www.w3.org/1999/xlink" x="0px" y="0px"
	 viewBox="0 0 160.5 123.5" style="enable-background:new 0 0 160.5 123.5;" xml:space="preserve">
<style type="text/css">
	.st0{opacity:0.5;}
	.st1{fill:#FFA19B;}
</style>
<g class="st0">
	<rect x="34.3" y="86.7" class="st1" width="2.4" height="2.3"/>
	<polygon class="st1" points="34.3,84.1 36.7,84.1 36.7,81.7 34.3,81.7 	"/>
	<rect x="29.4" y="81.7" class="st1" width="2.3" height="2.4"/>
	<rect x="34.3" y="91.6" class="st1" width="2.4" height="2.3"/>
	<rect x="34.3" y="96.5" class="st1" width="2.3" height="2.3"/>
	<path class="st1" d="M146.1,121.4v-3h-2.7v-1.8h0.3v-1.3h-2.5v-1.4h0.2v-1.3h-11.2c0.8-0.7,1-1.9,0.3-2.7c0-0.1-0.1-0.1-0.2-0.2
		c0.9-0.3,1.8-0.7,2.7-1.1c0,1.1,1,1.9,2,1.8s1.9-1,1.8-2c0-0.6-0.4-1.2-0.9-1.5c0.7-0.5,1.4-1,2.1-1.6c0.3,1,1.3,1.6,2.4,1.4
		s1.6-1.3,1.4-2.4c-0.2-0.6-0.7-1.2-1.3-1.3c0.6-0.7,1.2-1.4,1.7-2.2c0.6,0.9,1.8,1.1,2.7,0.5s1.1-1.8,0.5-2.7
		c-0.3-0.5-0.8-0.8-1.4-0.8c0.4-0.8,0.8-1.6,1.1-2.5c0.8,0.7,2,0.6,2.7-0.2c0.7-0.8,0.6-2-0.2-2.7c-0.5-0.4-1.1-0.6-1.7-0.4
		c0.2-0.9,0.3-1.8,0.4-2.7c0.3,0.1,0.6,0.2,0.8,0.2c1.1,0,1.9-0.9,1.9-1.9s-0.9-1.9-1.9-1.9l0,0c-0.3,0-0.6,0.1-0.8,0.2
		c-0.1-1-0.2-2-0.4-3c1.1,0.2,2.1-0.5,2.2-1.6c0.2-1.1-0.5-2.1-1.6-2.2c-0.6-0.1-1.2,0.1-1.6,0.4c-0.3-0.9-0.7-1.7-1.1-2.5
		c1.1-0.1,1.8-1.1,1.7-2.1s-1.1-1.8-2.1-1.7c-0.6,0.1-1.1,0.4-1.4,0.8c-0.5-0.7-1.1-1.5-1.7-2.1c1-0.3,1.6-1.4,1.3-2.4
		s-1.4-1.6-2.4-1.3c-0.6,0.2-1.1,0.7-1.3,1.3c-0.7-0.6-1.4-1.1-2.1-1.6c0.9-0.6,1.1-1.8,0.5-2.7s-1.8-1.1-2.7-0.5
		c-0.5,0.3-0.8,0.9-0.8,1.4c-0.8-0.4-1.7-0.7-2.5-1c0.3-0.3,0.4-0.7,0.4-1.2c0-1.1-0.9-1.9-1.9-1.9c-1.1,0-1.9,0.9-1.9,1.9
		c0,0.1,0,0.2,0,0.2c-0.9-0.2-1.7-0.3-2.6-0.3c0.4-1-0.1-2.1-1.1-2.5s-2.1,0.1-2.5,1.1c-0.2,0.4-0.2,0.9,0,1.4
		c-0.9,0.1-1.7,0.2-2.6,0.4c0.2-1-0.5-2.1-1.5-2.3s-2.1,0.5-2.3,1.5c-0.1,0.6,0,1.2,0.5,1.7c-0.5,0.2-1,0.4-1.5,0.6v-41l-21,16.9v69
		h-5.8v2.8h-3.2v8.2h-1.1v-0.2V120v-1.2v-1.2v-1v-1.2V114c5.6-3.8,7.5-9.1,8.4-12.9c1.2-5.4-1.1-13.4-1.2-13.8l-0.1-0.5l0,0V30.6
		l-21-16.9v51H48.2v-4.8h-1.6v4.8h-4.5v-3.6h-1.6v3.6h-3.2V60h-9.1v4.8h-6.9v-3.6h-1.8v3.7h-6.1c-0.1,2.4,0.7,4.8,2.1,6.7
		c1.8,2.6,4.6,4.1,8.7,4.7h0.3v24.5c0,0.3,0,0.6-0.1,0.9l-0.3,1.3c-0.3,1.4-4.5,15-6.3,18.3H8.7v1.7h143.2v-1.7L146.1,121.4
		L146.1,121.4z M147.3,86.7L147.3,86.7L147.3,86.7c0.4,0,0.7,0.3,0.7,0.7s-0.3,0.7-0.7,0.7s-0.7-0.3-0.7-0.7
		C146.7,87,147,86.7,147.3,86.7z M28.2,120.3c-1.4-6.7-2-13.6-1.9-20.5V76.4h14.3v32.2c-0.1,4,1.7,12.3,1.7,12.5v0.3H29
		C28.6,121.2,28.3,120.9,28.2,120.3z M70.6,85.4c0-2.7,0-5.4,0-8.2v-0.9l13.1,0.1v8.8L81.2,87v0.4c0,0.6-0.3,1.5-0.7,2.6l-0.9,2
		c-0.6,1.2-1.3,2.6-2,3.8c-0.7-4.3-1.5-8.1-1.5-8.4L76,86.6h-5.4V85.4z M66.1,121.4h-0.8l0.8-1.8V121.4z M68.2,121.2h-1.4v-1.7h1.4
		V121.2z M70.7,121.2H69v-1.7h1.7V121.2z M73.1,121.2h-1.5v-1.7h1.5V121.2z M75.2,121.2h-1.4v-1.7h1.4V121.2z M77.9,121.4l-1.2-3.1
		H65.4l-1.6,3.1h-1.5v-4.3h5.3h6.7h5.3v4.3H77.9z M76.6,121.4H76v-1.7L76.6,121.4z M44.3,121.4c-0.3,0-0.5,0-0.5,0l-1.1-6.5
		c-0.1-0.6,0-1.3,0.3-1.8l3-6.3c0.3,0.4,0.6,0.8,0.9,1.2c0.3,3.3,1.4,12.3,1.5,13.5L44.3,121.4L44.3,121.4z M42.2,100.9l0.2,0.3
		c0.1,0.1,0.9,1.7,2.2,3.6c-0.3,0.8-0.5,1.7-0.8,2.5c-0.2,0.6-0.4,1.2-0.6,1.8l-0.1,0.3l-0.9,1.6C42.2,111,42.2,100.9,42.2,100.9z
		 M46.3,99.4c1,0.9,2.1,1.7,3.3,2.2c0.2,1.1,0.5,2.3,0.8,3.4C48.9,103.4,47.5,101.5,46.3,99.4L46.3,99.4z M53.3,110.2
		C53.4,110.2,53.4,110.3,53.3,110.2c2.1,2,4.1,3.2,5.7,4c-0.2-0.1-0.4-0.2-0.7-0.2c-2.7-0.9-5.2-2.3-7.3-4.1
		c-3.1-2.7-5.9-7.4-6.8-8.9l0.5-0.7C47,104,49.9,107.4,53.3,110.2z M63.1,101.2c-0.1,1.4-0.2,2.9-0.2,4.4c-2.4-3.7-4.5-8.1-5.8-10.9
		C58.7,97.1,62,100.1,63.1,101.2z M70.6,115.8l-3-0.4h-0.5c0,0-7.5-0.8-12.6-6.5c-2-2.3-3.2-6.2-3.6-9.7l-0.2-1.9
		c-0.1-0.8-0.1-2.8-0.2-3.4l1.2-0.4l2.7-0.7C55.9,96.1,60.7,110,70.6,115.8z M74.6,88.3c0.6,3,2.7,14.9,3.2,18.6
		c0.3,2.7,0.3,5.4,0,8l-0.1,0.4h-4.8l-4.6-3.6c-1.1-0.8-2.3-2.1-3.4-3.5c-0.8-6,0.8-13,2.1-17.1l0.6-1.9c0.1-0.4,0.3-0.8,0.4-1
		L74.6,88.3L74.6,88.3z M61,120.2v1.2h-0.6v-0.9L61,120.2z M60.4,119.2v-1l0.6-0.3v1.1L60.4,119.2z M61,116.6l-0.6,0.3v-2.1
		c0.2,0.1,0.4,0.2,0.6,0.2V116.6z M50.2,120.3c-0.7-3.4-1.2-6.8-1.5-10.3c0.4,0.4,0.7,0.7,1.1,1.1c2.3,2,5,3.5,7.9,4.4
		c0.5,0.2,1,0.4,1.5,0.6v1.4v1.3v0.9v1.8h-8.1C50.7,121.2,50.4,120.9,50.2,120.3z M78.7,102.1c-0.2-1.2-0.4-2.4-0.6-3.7l0,0
		c0.9-1.5,4.4-7.5,4.8-10.4l0.1-0.1C82.3,95.1,80.1,99.8,78.7,102.1z M68.7,86.6h-2l-0.2,0.5c-0.1,0.2-1.2,3-2.1,6.9V76.4h4.4v10.2
		H68.7z M62.6,98.4c-2.7-2.5-5.2-6.5-5.2-6.5l-1.9-1.1l0,0l0,0L49,92.5v0.6c0,0.2-0.1,3,0.3,6.4c-0.3-0.2-0.7-0.4-1-0.6V76.4h14.3
		V98.4z M46.5,96.9c0,0.3-0.1,0.5-0.1,0.8h-2.1l-2.1,3V76.4h4.3v1.3c0,1.8,0,3.6,0,5.4C46.6,87.6,46.6,92.3,46.5,96.9z M142.2,116.5
		v1.8h-2.4v-1.8H142.2z M138.1,113.8h2v1.5h-2V113.8z M138.2,116.6v1.8h-2.4v-1.8H138.2z M134.5,113.8h2v1.5h-2V113.8z M134.6,116.6
		v1.8h-2.4v-1.8H134.6z M131.2,113.8h2v1.5h-2V113.8z M131,116.6v1.8h-2.4v-1.8H131z M129.9,113.8v1.5h-2v-1.5H129.9z M128.4,110.8
		C128.5,110.8,128.5,110.8,128.4,110.8L128.4,110.8c0.3-0.4,0.6-0.5,1-0.3c0.3,0.2,0.4,0.6,0.3,0.9c-0.2,0.3-0.5,0.4-0.8,0.3
		C128.5,111.5,128.3,111.2,128.4,110.8z M135.1,109.1c-0.4,0-0.7-0.3-0.7-0.7c0-0.4,0.3-0.7,0.7-0.7s0.7,0.3,0.7,0.7
		C135.7,108.8,135.4,109.1,135.1,109.1z M129.2,108.7l-5.1-19l13.9,14C135.5,106,132.5,107.7,129.2,108.7z M125,116.6h2.4v1.8H125
		V116.6z M124.7,115.3v-1.5h2v1.5H124.7z M124.6,112.6L124.6,112.6c0.3-0.6,0.4-1.1,0.2-1.6v-0.1c0.9-0.1,1.7-0.2,2.5-0.3
		c-0.2,0.7,0,1.5,0.6,2v0.1L124.6,112.6L124.6,112.6z M123.7,113.8v1.5h-2v-1.4L123.7,113.8L123.7,113.8z M122,111.3
		c0.2-0.3,0.6-0.5,0.9-0.3c0.1,0.1,0.3,0.2,0.3,0.4c0.2,0.1,0,0.5,0,0.5c-0.1,0.3-0.5,0.5-0.9,0.3l0,0
		C122,112,121.8,111.6,122,111.3z M123.8,116.6v1.8h-2.4v-1.8H123.8z M122.8,109.6h-0.3c-1.7,0-3.5-0.2-5.2-0.6l5.1-19.3l5.1,19.4
		C126.1,109.4,124.5,109.6,122.8,109.6z M118.5,115.2v-1.4h2v1.4H118.5z M120.2,116.6v1.8h-2.3l-0.1-1.8H120.2z M117.3,112.5
		c0.4-0.2,0.7-0.5,0.9-0.9l0,0c0.2-0.4,0.2-0.8,0.2-1.2c0.9,0.2,1.8,0.3,2.8,0.4c-0.2,0.5-0.2,1.2,0.1,1.7H117.3z M115.2,115.3v-1.5
		h2v1.5H115.2z M116.6,116.6v1.8h-2.4v-1.8H116.6z M115.8,110.5L115.8,110.5c0.2-0.4,0.5-0.5,0.9-0.4c0.2,0.1,0.3,0.2,0.4,0.4
		c0.1,0.2,0.1,0.4,0,0.6l0,0c-0.1,0.3-0.5,0.5-0.9,0.3l0,0C115.8,111.2,115.6,110.8,115.8,110.5z M116.1,108.7
		c-3.2-1-6.1-2.8-8.6-5.1h-0.3l14.1-14.3L116.1,108.7z M101.1,99.4c0.1-0.3,0.5-0.5,0.8-0.4c0.2,0.1,0.3,0.2,0.4,0.4
		c0.1,0.2,0.1,0.3,0,0.5l0,0c-0.1,0.2-0.2,0.3-0.3,0.3h-0.6C101.1,100.1,101,99.8,101.1,99.4z M101.4,93.8h-0.3l19.4-5.2l-13.9,14.1
		C104.2,100.1,102.4,97.1,101.4,93.8z M98.8,81.6c-0.3-0.1-0.5-0.5-0.3-0.9l0,0c0.2-0.3,0.6-0.4,0.9-0.3c0.3,0.2,0.4,0.6,0.3,0.9
		C99.5,81.7,99.1,81.8,98.8,81.6z M98.7,93.4c0.2-0.3,0.5-0.4,0.9-0.3c0.3,0.2,0.5,0.5,0.3,0.9l0,0c-0.2,0.3-0.6,0.4-0.9,0.3
		C98.6,94.1,98.5,93.7,98.7,93.4z M99.5,91.8L99.5,91.8L99.5,91.8L99.5,91.8z M97.2,94.1c0.1,0.5,0.4,1,1,1.3h-2.8L97.2,94.1z
		 M112.1,46.4h-10L97.6,43h14.5V46.4z M112.1,47.9v3.4h-3.7l-4.5-3.4H112.1z M112.1,52.7v1.4l-1.8-1.4H112.1z M112.1,61.1h-6.8
		l5.5-3.5h1.3V61.1z M112.1,62.5v2.2c-0.4-0.4-0.9-0.7-1.5-0.7c-1.1,0-1.9,0.9-1.9,2H97.6l5.5-3.5H112.1z M110,65.6
		C110.1,65.6,110.1,65.6,110,65.6L110,65.6c0.1-0.2,0.4-0.4,0.6-0.4c0.1,0,0.2,0,0.3,0.1c0.3,0.2,0.5,0.5,0.3,0.9
		c-0.2,0.3-0.5,0.5-0.9,0.3C110,66.3,109.9,66,110,65.6z M109.4,67.4c0.1,0,0.1,0.1,0.2,0.1c-0.8,0.5-1.6,1.1-2.3,1.8
		c-0.3-1-1.4-1.6-2.4-1.3c-0.5,0.2-1,0.6-1.2,1.1c-0.3,0.6-0.2,1.2,0.1,1.8h-5.3l-4-2.9l0.9-0.6H109.4z M100.9,75L100.9,75
		c0.2-0.4,0.6-0.5,0.9-0.3s0.4,0.6,0.3,0.9c-0.2,0.3-0.5,0.4-0.8,0.3C100.9,75.7,100.8,75.3,100.9,75z M106.1,70.2
		c-0.2,0.3-0.5,0.5-0.9,0.3c-0.3-0.1-0.5-0.5-0.3-0.9l0,0c0.2-0.3,0.5-0.5,0.9-0.3l0,0C106.1,69.5,106.3,69.9,106.1,70.2z
		 M104.3,72.3c0.1-0.1,0.2-0.3,0.4-0.4l0.1-0.1l0,0c-0.6,0.7-1.3,1.5-1.8,2.3c-0.3-0.4-0.7-0.7-1.1-0.8l-1.4-1H104.3z M106.3,72.1
		l13.9,14L101.3,81C102.3,77.6,104,74.6,106.3,72.1z M120.1,87.3l-19,5.2c-0.8-3.4-0.9-6.9-0.1-10.3L120.1,87.3z M100.5,95.4H100
		c0.1-0.1,0.3-0.1,0.4-0.2C100.4,95.2,100.5,95.3,100.5,95.4z M104.9,104.3c0.1-0.2,0.3-0.4,0.6-0.4c0.4,0,0.6,0.3,0.6,0.7
		c0,0.1,0,0.2-0.1,0.2v0.1c-0.2,0.3-0.5,0.5-0.9,0.3l0,0C104.9,105.1,104.8,104.7,104.9,104.3C104.9,104.4,104.9,104.4,104.9,104.3z
		 M110,108.2L110,108.2c0.2-0.4,0.6-0.5,0.9-0.4c0.2,0.1,0.3,0.2,0.4,0.4c0.1,0.2,0.1,0.4,0,0.5c-0.2,0.3-0.5,0.5-0.9,0.3l0,0
		C110,109,109.8,108.6,110,108.2z M111.5,110.1c0.2-0.1,0.4-0.3,0.6-0.6v0.8h-1.3C111,110.3,111.3,110.2,111.5,110.1z M140.7,104.7
		c0,0.4-0.3,0.6-0.7,0.7c-0.4,0-0.7-0.3-0.7-0.7s0.3-0.7,0.7-0.7S140.7,104.4,140.7,104.7z M144.6,99.6c0,0.4-0.3,0.7-0.7,0.7
		s-0.7-0.3-0.7-0.7s0.3-0.7,0.7-0.7C144.3,99,144.6,99.3,144.6,99.6z M139,102.8l-14.1-14.3l19.5,5.2
		C143.2,97.2,141.4,100.3,139,102.8z M146.4,80.1L146.4,80.1c0.4,0,0.7,0.3,0.7,0.7s-0.3,0.7-0.7,0.7s-0.7-0.3-0.7-0.7
		C145.8,80.4,146,80.1,146.4,80.1z M146.4,93.1c0.4,0,0.6,0.3,0.6,0.6l0,0c0,0.4-0.3,0.7-0.7,0.7s-0.7-0.3-0.7-0.7
		S146.1,93.1,146.4,93.1z M144.6,81.9c0.9,3.5,0.9,7.2,0,10.7L125,87.3L144.6,81.9z M144,74.2L144,74.2c0.4,0,0.7,0.3,0.7,0.7
		s-0.3,0.7-0.7,0.7s-0.7-0.3-0.7-0.7S143.6,74.2,144,74.2z M140.1,69.2c0.4,0,0.7,0.3,0.7,0.7s-0.3,0.7-0.7,0.7s-0.7-0.3-0.7-0.7
		S139.7,69.2,140.1,69.2z M138.6,71.7c2.5,2.5,4.3,5.6,5.3,9L124.8,86L138.6,71.7z M135.1,65.4L135.1,65.4L135.1,65.4
		c0.4,0,0.7,0.3,0.7,0.7s-0.3,0.7-0.7,0.7s-0.7-0.3-0.7-0.7C134.4,65.7,134.7,65.4,135.1,65.4z M129.1,63L129.1,63
		c0.4,0,0.7,0.3,0.7,0.7c0,0.4-0.3,0.7-0.7,0.7s-0.7-0.3-0.7-0.7C128.4,63.3,128.7,63,129.1,63z M129.2,65.7c3.3,1,6.3,2.7,8.9,5
		l-14,14.2L129.2,65.7z M122.8,62.2c0.4,0,0.7,0.3,0.7,0.7s-0.3,0.7-0.7,0.7c-0.4,0-0.7-0.3-0.7-0.7S122.4,62.2,122.8,62.2z
		 M122.8,64.8h-0.4c1.7,0,3.4,0.2,5.1,0.6l-5.1,19.3l-4.8-19.3C119.4,65,121.1,64.8,122.8,64.8z M115.9,63.2L115.9,63.2L115.9,63.2
		c0.1-0.2,0.4-0.4,0.6-0.4c0.4,0,0.6,0.3,0.6,0.7s-0.3,0.6-0.7,0.6c-0.1,0-0.2,0-0.2-0.1C115.9,63.9,115.7,63.6,115.9,63.2z
		 M116.1,65.8l5.2,19.6L107.4,71C109.8,68.6,112.8,66.9,116.1,65.8z M112.1,27.4V32h-5.7L112.1,27.4z M104.6,33.4h7.5v3.4h-11.7
		L104.6,33.4z M98.6,38.2h13.5v3.4H95.7L95,41.1L98.6,38.2z M93.9,42l14.2,10.8l-14.2-5.7V42z M93.9,48.7l6.4,2.6h-6.4V48.7z
		 M93.9,52.7h10l7.3,2.9l-0.9,0.5H93.9V52.7z M93.9,57.6h14.2l-5.5,3.5h-8.7V57.6z M93.9,62.5h6.5L95,66h-1L93.9,62.5L93.9,62.5z
		 M93.9,69.3l2.1,1.5h-2.1V69.3z M93.9,72.3H98l2.1,1.5c-0.2,0.2-0.3,0.3-0.4,0.6c-0.2,0.5-0.2,1-0.1,1.4H94L93.9,72.3L93.9,72.3z
		 M93.9,77.2h7.2v-0.1h0.1c-0.4,0.8-0.7,1.6-1,2.5c-0.8-0.7-2-0.7-2.7,0.1c-0.3,0.3-0.4,0.6-0.5,1h-3.1V77.2z M93.9,82.1h3.4
		c0.1,0.1,0.2,0.2,0.3,0.3c0.4,0.3,0.8,0.5,1.3,0.5c0.1,0,0.3,0,0.4-0.1c-0.2,0.9-0.3,1.8-0.3,2.7c-0.5-0.3-1.2-0.3-1.7,0h-3.5
		L93.9,82.1L93.9,82.1z M98.9,87.7C98.7,88,98.4,88.2,98,88l0,0c-0.3-0.1-0.5-0.5-0.3-0.9l0,0c0.1-0.2,0.3-0.4,0.6-0.4
		c0.4,0,0.6,0.3,0.6,0.7C98.9,87.5,98.9,87.5,98.9,87.7L98.9,87.7z M93.9,87h2.4c-0.1,0.8,0.2,1.7,1,2.1c0.6,0.3,1.2,0.3,1.8,0
		c0,0.5,0.1,1,0.2,1.4H94L93.9,87L93.9,87z M93.9,91.9h3.9l-3.9,2.8V91.9z M93.9,96.8h7.2c0.1,0.3,0.3,0.6,0.4,0.9
		c-0.7,0-1.4,0.4-1.7,1.1c-0.2,0.5-0.2,1-0.1,1.5h-5.8V96.8z M93.9,101.7H104c0.3,0.4,0.6,0.7,0.9,1.1h-0.1c-1,0.3-1.5,1.4-1.2,2.4
		h-9.7C93.9,105.2,93.9,101.7,93.9,101.7z M93.9,106.7h15.5c0,0,0.1,0,0.1,0.1c-0.9,0.5-1.2,1.7-0.7,2.7c0.3,0.5,0.8,0.8,1.4,0.9
		H93.9V106.7z M88.1,111.8h25.4V109c0.4,0.2,0.9,0.4,1.3,0.5c-0.1,0.1-0.2,0.3-0.3,0.4c-0.4,1,0,2.1,0.9,2.6H104v0.7H88.1V111.8z
		 M111.9,115.3v-1.5h2v1.5H111.9z M112.9,116.6v1.8h-2.3v-1.8H112.9z M105.7,116.5v1.8h-2.4v-1.8H105.7z M105.4,115.3v-1.5h2v1.5
		H105.4z M107,116.6h2.3v1.8H107V116.6z M108.6,115.3v-1.5h2v1.5H108.6z M84.9,114.6h1.7l0,0H104v0.7h-2v1.2v1.8h-1.3v3h1.3v-1.7
		h2.7v1.7h1.3v-1.7h2.7v1.7h1.3v-1.7h2.7v1.7h1.3v-1.7h2.7v1.7h1.3v-1.7h2.7v1.7h1.3v-1.7h2.7v1.7h1.3v-1.7h2.7v1.7h1.5v-1.7h2.7
		v1.7h1.3v-1.7h2.7v1.7h1.3v-1.7h2.7v1.7h1.3v-1.7h2.7v1.8h-60V114.6z M80.9,121.4v-0.8l0.4,0.2v0.6
		C81.3,121.4,80.9,121.4,80.9,121.4z M81.3,116.2v0.9l-0.4-0.2V116L81.3,116.2z M80.9,114.9c0.1-0.1,0.3-0.1,0.4-0.2v0.3L80.9,114.9
		z M81.3,118.3v1.2l-0.4-0.2v-1.2L81.3,118.3z M89.2,100.6c-0.6,2.5-1.5,5.3-3.5,7.9c-1.9,2.6-6.1,5.1-6.1,5.1s0.2-3.3,0-5.1
		s-0.1-1.2-0.2-1.8c-0.1-0.6-0.2-1.3-0.3-2.2c1.1-1.4,4.9-6.9,5.6-17.3l3.4,1C88.6,89.9,90.2,96.3,89.2,100.6z M85.3,85.6v-9.1
		c0-0.2,0.1-0.3,0.1-0.5H88v10.3L85.3,85.6z M74.2,61.6h5.5v3.1h-5.5V61.6z M81.5,61.3H88v3.5h-6.4L81.5,61.3L81.5,61.3z M87.5,73
		c0.2-0.3,0.3-0.6,0.4-1v2.6h-1.6C86.8,74.1,87.2,73.6,87.5,73z M69.9,16.7l5.7,4.6h-5.7V16.7z M69.9,22.7h7.5l4.2,3.4H69.9V22.7z
		 M69.9,27.6h13.5l4.2,3.4H69.9V27.6z M69.9,32.4H88v3.4H69.9V32.4z M69.9,37.2H88v3.4H69.9V37.2z M69.9,42H88v3.5H69.9V42z
		 M69.9,46.9H88v3.5H69.9V46.9z M69.9,51.5H88V55H69.9V51.5z M69.9,56.4H88v3.5H69.9V56.4z M69.9,61.3h2.6v3.4h-2.6V61.3z
		 M29.9,61.6h5.6v3.1h-5.6V61.6z M19.4,73L19.4,73c-2.2-1.3-3.7-3.5-4.2-5.9l-0.1-0.4h71.8v0.4c-0.1,2.3-0.3,4.7-2.1,6.7
		c-0.5,0.6-1.1,0.9-1.9,1H72.4l0,0H26.6c-0.2,0-0.4,0-0.6,0C23.7,74.6,21.5,74.1,19.4,73z M19.7,121l4.9-13.8l2.1,14.2H20
		C19.8,121.4,19.6,121.2,19.7,121z"/>
</g>
</svg>
