<?xml version="1.0" standalone="no"?><!DOCTYPE svg PUBLIC "-//W3C//DTD SVG 1.1//EN" "http://www.w3.org/Graphics/SVG/1.1/DTD/svg11.dtd" ><svg xmlns="http://www.w3.org/2000/svg"><metadata></metadata><defs><font id="fonteditor" horiz-adv-x="861"><font-face font-family="Interstate" font-weight="400" font-stretch="normal" units-per-em="1000" panose-1="2 0 5 3 8 0 0 2 0 4" ascent="729" descent="-193" x-height="4" bbox="-29 -193 789 729" underline-thickness="20" underline-position="-123" unicode-range="U+0030-007a" /><missing-glyph horiz-adv-x="500"  /><glyph glyph-name="zero" unicode="0" d="M607 351 Q607 271 589 204.5 Q571 138 536 90 Q501 42 449.5 15.5 Q398 -11 330 -11 Q262 -11 210.5 15.5 Q159 42 124.5 89.5 Q90 137 72.5 203 Q55 269 55 349 Q55 428 73 494.5 Q91 561 126 609 Q161 657 212.5 684 Q264 711 332 711 Q400 711 451.5 684.5 Q503 658 537.5 610.5 Q572 563 589.5 496.5 Q607 430 607 351 ZM501 349 Q501 404 491.5 451.5 Q482 499 461.5 534 Q441 569 408.5 589 Q376 609 330 609 Q284 609 252 589.5 Q220 570 199.5 535.5 Q179 501 170 453.5 Q161 406 161 351 Q161 296 170.5 248.5 Q180 201 200.5 166 Q221 131 253.5 111 Q286 91 332 91 Q378 91 410 110.5 Q442 130 462.5 164.5 Q483 199 492 246.5 Q501 294 501 349 Z" /><glyph glyph-name="one" unicode="1" d="M143 0 L143 536 L19 536 L19 609 Q73 613 113 633 Q153 653 163 700 L248 700 L248 0 L143 0 Z" /><glyph glyph-name="two" unicode="2" d="M48 0 Q51 77 74 134 Q97 191 133.5 235 Q170 279 217.5 313 Q265 347 317 378 Q353 399 376 416 Q399 433 412.5 448.5 Q426 464 431 480 Q436 496 436 514 Q436 556 405 581 Q374 606 302 606 Q257 606 212 587 Q167 568 133 536 L66 616 Q114 661 176.5 686 Q239 711 305 711 Q414 711 478.5 664 Q543 617 543 520 Q543 479 533 449 Q523 419 501.5 393.5 Q480 368 446.5 344 Q413 320 367 293 Q317 263 283.5 239 Q250 215 229 193 Q208 171 196.5 149 Q185 127 179 102 L550 102 L550 0 L48 0 Z" /><glyph glyph-name="three" unicode="3" d="M541 208 Q541 100 472 44.5 Q403 -11 279 -11 Q242 -11 205 -3 Q168 5 134.5 20 Q101 35 73 56.5 Q45 78 27 105 L107 173 Q139 132 185 112.5 Q231 93 279 93 Q363 93 397.5 123.5 Q432 154 432 208 Q432 262 396 287.5 Q360 313 305 313 L240 313 L240 415 L304 415 Q353 415 378 443 Q403 471 403 511 Q403 526 397 543 Q391 560 376 574 Q361 588 335.5 597.5 Q310 607 271 607 Q229 607 195.5 590 Q162 573 133 542 L55 616 Q100 662 153.5 686.5 Q207 711 273 711 Q322 711 366 698.5 Q410 686 442 662 Q474 638 493 602.5 Q512 567 512 521 Q512 458 487.5 423 Q463 388 427 368 Q477 354 509 314 Q541 274 541 208 Z" /><glyph glyph-name="four" unicode="4" d="M522 157 L522 0 L420 0 L420 154 L41 154 L41 254 L402 700 L522 700 L522 250 L615 250 L615 157 L522 157 ZM423 582 Q413 568 395 544.5 Q377 521 360 499 L225 327 Q209 307 189.5 284 Q170 261 159 249 Q168 249 181.5 249 Q195 249 211 249.5 Q227 250 242.5 250 Q258 250 272 250 L420 250 L420 454 Q420 469 420.5 487 Q421 505 421.5 523 Q422 541 422.5 556.5 Q423 572 423 582 Z" /><glyph glyph-name="five" unicode="5" d="M574 238 Q574 174 553.5 127 Q533 80 496.5 49.5 Q460 19 409.5 4 Q359 -11 298 -11 Q231 -11 171 5.5 Q111 22 54 58 L105 145 Q150 120 201.5 105.5 Q253 91 301 91 Q383 91 425 128.5 Q467 166 467 233 Q467 296 429 327 Q391 358 325 358 Q280 358 248.5 346 Q217 334 190 314 L78 358 L102 700 L532 700 L532 600 L196 600 L182 423 Q211 440 248 449.5 Q285 459 333 459 Q393 459 438 442.5 Q483 426 513.5 396.5 Q544 367 559 326.5 Q574 286 574 238 Z" /><glyph glyph-name="six" unicode="6" d="M592 222 Q592 165 571 121 Q550 77 513 48 Q476 19 426 4 Q376 -11 318 -11 Q263 -11 215 4.5 Q167 20 131.5 54 Q96 88 75.5 141 Q55 194 55 268 Q55 314 64 364 Q73 414 93.5 462 Q114 510 147.5 554 Q181 598 229 632 Q277 666 341.5 687 Q406 708 489 711 L489 612 Q368 607 287.5 551 Q207 495 173 385 Q210 414 251.5 427.5 Q293 441 357 441 Q405 441 447.5 427.5 Q490 414 522 387 Q554 360 573 319 Q592 278 592 222 ZM486 220 Q486 283 444 312.5 Q402 342 327 342 Q250 342 206 311.5 Q162 281 162 219 Q162 193 172 170 Q182 147 202.5 129.5 Q223 112 253 101.5 Q283 91 322 91 Q402 91 444 125.5 Q486 160 486 220 Z" /><glyph glyph-name="seven" unicode="7" d="M513 594 Q468 544 427 481.5 Q386 419 354 344.5 Q322 270 302 183.5 Q282 97 280 0 L174 0 Q175 90 191 171 Q207 252 235 326 Q263 400 302.5 467.5 Q342 535 391 598 L24 598 L24 700 L513 700 L513 594 Z" /><glyph glyph-name="eight" unicode="8" d="M610 204 Q610 152 590.5 112 Q571 72 535 44.5 Q499 17 447.5 3 Q396 -11 333 -11 Q206 -11 133 44.5 Q60 100 60 204 Q60 332 184 378 Q157 389 139 405.5 Q121 422 110 441 Q99 460 94.5 478.5 Q90 497 90 513 Q90 564 109 601 Q128 638 161.5 662.5 Q195 687 240 699 Q285 711 336 711 Q383 711 427 699.5 Q471 688 505 664 Q539 640 559.5 603 Q580 566 580 515 Q580 500 575.5 480.5 Q571 461 560 442 Q549 423 531 406 Q513 389 486 378 Q543 357 576.5 314.5 Q610 272 610 204 ZM474 512 Q474 532 466.5 550.5 Q459 569 442.5 583.5 Q426 598 399 606.5 Q372 615 334 615 Q296 615 269.5 607 Q243 599 226.5 585.5 Q210 572 203 554 Q196 536 196 516 Q196 474 233 447 Q270 420 336 420 Q404 420 439 447 Q474 474 474 512 ZM504 201 Q504 257 463 289 Q422 321 334 321 Q249 321 207.5 290.5 Q166 260 166 206 Q166 150 210 117.5 Q254 85 335 85 Q420 85 462 117.5 Q504 150 504 201 Z" /><glyph glyph-name="nine" unicode="9" d="M581 432 Q581 386 572 336 Q563 286 542.5 238 Q522 190 488.5 146 Q455 102 407 68 Q359 34 294.5 12.5 Q230 -9 147 -11 L147 88 Q268 93 348.5 149 Q429 205 463 315 Q426 286 384.5 272.5 Q343 259 279 259 Q231 259 188.5 272.5 Q146 286 114 313 Q82 340 63 381 Q44 422 44 478 Q44 535 65 579 Q86 623 123 652 Q160 681 210 696 Q260 711 318 711 Q373 711 421 695 Q469 679 504.5 645.5 Q540 612 560.5 559 Q581 506 581 432 ZM474 481 Q474 506 464 529.5 Q454 553 433.5 570.5 Q413 588 383 598.5 Q353 609 314 609 Q234 609 192 574.5 Q150 540 150 480 Q150 417 192 387.5 Q234 358 309 358 Q386 358 430 388.5 Q474 419 474 481 Z" /><glyph glyph-name="a" unicode="a" d="M377 0 L377 52 Q350 25 313 7 Q276 -11 233 -11 Q201 -11 168.5 -1.5 Q136 8 110 29 Q84 50 67.5 84 Q51 118 51 166 Q51 210 67 242 Q83 274 111 295 Q139 316 177 326 Q215 336 260 336 Q332 336 377 316 L377 355 Q377 398 351.5 421 Q326 444 278 444 Q237 444 204.5 436 Q172 428 141 411 L101 489 Q139 512 182 524 Q225 536 281 536 Q369 536 423.5 492.5 Q478 449 478 360 L478 0 L377 0 ZM377 224 Q356 235 327.5 241 Q299 247 257 247 Q207 247 178 226 Q149 205 149 169 Q149 130 174 106 Q199 82 250 82 Q292 82 325.5 103 Q359 124 377 149 L377 224 Z" /><glyph glyph-name="b" unicode="b" d="M517 254 Q517 186 500 136.5 Q483 87 454.5 54 Q426 21 388.5 5 Q351 -11 310 -11 Q270 -11 235 7 Q200 25 178 49 L178 0 L76 0 L76 676 L178 729 L178 475 Q207 501 240 518.5 Q273 536 315 536 Q357 536 394 520 Q431 504 458.5 470 Q486 436 501.5 382.5 Q517 329 517 254 ZM414 251 Q414 351 383.5 396 Q353 441 296 441 Q259 441 228 420.5 Q197 400 177 374 L177 153 Q186 141 199 129 Q212 117 228 107 Q244 97 262 90.5 Q280 84 300 84 Q356 84 385 125.5 Q414 167 414 251 Z" /><glyph glyph-name="c" unicode="c" d="M406 374 Q374 407 343.5 422.5 Q313 438 278 438 Q221 438 188 391.5 Q155 345 155 264 Q155 225 163 192.5 Q171 160 187 136.5 Q203 113 226.5 100 Q250 87 281 87 Q318 87 343.5 103.5 Q369 120 400 152 L466 87 Q451 67 433 49.5 Q415 32 392.5 18.5 Q370 5 342 -3 Q314 -11 278 -11 Q230 -11 188.5 8.5 Q147 28 116.5 63.5 Q86 99 68.5 149 Q51 199 51 261 Q51 326 69 377 Q87 428 118 463.5 Q149 499 191 517.5 Q233 536 281 536 Q339 536 384.5 513.5 Q430 491 467 447 L406 374 Z" /><glyph glyph-name="d" unicode="d" d="M392 0 L392 50 Q363 24 330 6.5 Q297 -11 255 -11 Q213 -11 176 5 Q139 21 111.5 55 Q84 89 68.5 142.5 Q53 196 53 271 Q53 338 70 388 Q87 438 115.5 471 Q144 504 181.5 520 Q219 536 260 536 Q300 536 335 518 Q370 500 392 476 L392 676 L494 729 L494 0 L392 0 ZM393 372 Q384 384 371 396 Q358 408 342 418 Q326 428 307.5 434.5 Q289 441 270 441 Q214 441 185 399.5 Q156 358 156 274 Q156 174 186.5 129 Q217 84 274 84 Q311 84 342 104.5 Q373 125 393 151 L393 372 Z" /><glyph glyph-name="e" unicode="e" d="M502 273 Q502 259 501 246.5 Q500 234 499 226 L152 226 Q156 188 168 161 Q180 134 198 116.5 Q216 99 238 90.5 Q260 82 284 82 Q317 82 344.5 93 Q372 104 398 124 L459 58 Q424 25 381 7 Q338 -11 278 -11 Q232 -11 190.5 7 Q149 25 118 60 Q87 95 69 146 Q51 197 51 262 Q51 329 68 380 Q85 431 115 465.5 Q145 500 187.5 518 Q230 536 281 536 Q337 536 378.5 515 Q420 494 447.5 458 Q475 422 488.5 374 Q502 326 502 273 ZM398 311 Q396 338 388.5 362 Q381 386 366 404 Q351 422 328.5 432.5 Q306 443 274 443 Q222 443 191.5 408.5 Q161 374 154 311 L398 311 Z" /><glyph glyph-name="f" unicode="f" d="M322 626 Q288 636 262 636 Q236 636 225 625 Q214 614 214 585 L214 525 L311 525 L311 429 L214 429 L214 0 L111 0 L111 429 L43 429 L43 525 L111 525 L111 594 Q111 630 121.5 655 Q132 680 150 696 Q168 712 192 719 Q216 726 244 726 Q264 726 284.5 723.5 Q305 721 322 716 L322 626 Z" /><glyph glyph-name="g" unicode="g" d="M494 50 Q494 -10 482 -54.5 Q470 -99 441.5 -129 Q413 -159 365 -175 Q317 -191 246 -193 L211 -115 Q266 -112 301.5 -103 Q337 -94 356.5 -75.5 Q376 -57 383.5 -28.5 Q391 0 391 41 L391 50 Q362 24 329.5 6.5 Q297 -11 255 -11 Q213 -11 176 5 Q139 21 112 55 Q85 89 69 142.5 Q53 196 53 271 Q53 338 70 388 Q87 438 116 471 Q145 504 182 520 Q219 536 260 536 Q300 536 335 518 Q370 500 391 476 L391 525 L494 525 L494 50 ZM393 372 Q384 384 371 396 Q358 408 342 418 Q326 428 307.5 434.5 Q289 441 270 441 Q214 441 185 399.5 Q156 358 156 274 Q156 174 186.5 129 Q217 84 274 84 Q311 84 342 104.5 Q373 125 393 151 L393 372 Z" /><glyph glyph-name="h" unicode="h" d="M395 0 L395 297 Q395 377 366.5 409 Q338 441 287 441 Q235 441 207 406 Q179 371 179 307 L179 0 L76 0 L76 675 L179 729 L179 475 Q199 504 234.5 520 Q270 536 311 536 Q403 536 450.5 477 Q498 418 498 301 L498 0 L395 0 Z" /><glyph glyph-name="i" unicode="i" d="M199 659 Q199 632 179.5 612.5 Q160 593 133 593 Q105 593 85.5 612.5 Q66 632 66 659 Q66 687 85.5 706.5 Q105 726 133 726 Q160 726 179.5 706.5 Q199 687 199 659 ZM81 0 L81 525 L184 525 L184 0 L81 0 Z" /><glyph glyph-name="j" unicode="j" d="M199 659 Q199 632 179.5 612.5 Q160 593 133 593 Q105 593 85.5 612.5 Q66 632 66 659 Q66 687 85.5 706.5 Q105 726 133 726 Q160 726 179.5 706.5 Q199 687 199 659 ZM184 24 Q184 -26 176.5 -61.5 Q169 -97 149.5 -122.5 Q130 -148 95 -165 Q60 -182 6 -193 L-29 -115 Q7 -105 28.5 -95 Q50 -85 62 -70 Q74 -55 77.5 -33.5 Q81 -12 81 22 L81 525 L184 525 L184 24 Z" /><glyph glyph-name="k" unicode="k" d="M375 0 L259 261 L179 155 L179 0 L76 0 L76 675 L179 729 L179 398 Q179 386 179 370.5 Q179 355 178.5 339.5 Q178 324 178 310 Q178 296 178 286 Q189 302 205.5 327.5 Q222 353 236 372 L345 525 L462 525 L329 349 L487 0 L375 0 Z" /><glyph glyph-name="l" unicode="l" d="M81 0 L81 675 L184 729 L184 0 L81 0 Z" /><glyph glyph-name="m" unicode="m" d="M686 0 L686 297 Q686 377 661 409 Q636 441 585 441 Q533 441 508.5 406 Q484 371 484 307 L484 0 L381 0 L381 297 Q381 377 356 409 Q331 441 280 441 Q228 441 203.5 406 Q179 371 179 307 L179 0 L76 0 L76 525 L179 525 L179 475 Q199 504 231 520 Q263 536 304 536 Q358 536 392.5 516.5 Q427 497 448 459 Q462 477 477.5 491 Q493 505 512 515 Q531 525 554.5 530.5 Q578 536 609 536 Q701 536 745 477 Q789 418 789 301 L789 0 L686 0 Z" /><glyph glyph-name="n" unicode="n" d="M395 0 L395 297 Q395 377 366.5 409 Q338 441 287 441 Q235 441 207 406 Q179 371 179 307 L179 0 L76 0 L76 525 L179 525 L179 475 Q199 504 234.5 520 Q270 536 311 536 Q403 536 450.5 477 Q498 418 498 301 L498 0 L395 0 Z" /><glyph glyph-name="o" unicode="o" d="M519 265 Q519 200 501 148.5 Q483 97 451 61.5 Q419 26 376 7.5 Q333 -11 282 -11 Q232 -11 190 8.5 Q148 28 117 64 Q86 100 68.5 150 Q51 200 51 262 Q51 326 69 377 Q87 428 118.5 463.5 Q150 499 192.5 517.5 Q235 536 285 536 Q335 536 378 516.5 Q421 497 452.5 462 Q484 427 501.5 376.5 Q519 326 519 265 ZM415 262 Q415 343 379.5 390.5 Q344 438 281 438 Q222 438 188.5 390.5 Q155 343 155 265 Q155 178 191 132.5 Q227 87 286 87 Q315 87 339 101 Q363 115 380 138.5 Q397 162 406 194 Q415 226 415 262 Z" /><glyph glyph-name="p" unicode="p" d="M517 254 Q517 186 500 136.5 Q483 87 454.5 54 Q426 21 388.5 5 Q351 -11 310 -11 Q270 -11 235 7 Q200 25 178 49 L178 -140 L76 -193 L76 525 L178 525 L178 475 Q207 501 240 518.5 Q273 536 315 536 Q357 536 394 520 Q431 504 458.5 470 Q486 436 501.5 382.5 Q517 329 517 254 ZM414 251 Q414 351 383.5 396 Q353 441 296 441 Q259 441 228 420.5 Q197 400 177 374 L177 153 Q186 141 199 129 Q212 117 228 107 Q244 97 262 90.5 Q280 84 300 84 Q356 84 385 125.5 Q414 167 414 251 Z" /><glyph glyph-name="q" unicode="q" d="M392 -193 L392 50 Q363 24 330 6.5 Q297 -11 255 -11 Q213 -11 176 5 Q139 21 111.5 55 Q84 89 68.5 142.5 Q53 196 53 271 Q53 338 70 388 Q87 438 115.5 471 Q144 504 181.5 520 Q219 536 260 536 Q300 536 335 518 Q370 500 392 476 L392 525 L494 525 L494 -140 L392 -193 ZM393 372 Q384 384 371 396 Q358 408 342 418 Q326 428 307.5 434.5 Q289 441 270 441 Q214 441 185 399.5 Q156 358 156 274 Q156 174 186.5 129 Q217 84 274 84 Q311 84 342 104.5 Q373 125 393 151 L393 372 Z" /><glyph glyph-name="r" unicode="r" d="M361 416 Q344 425 326 430 Q308 435 282 435 Q233 435 206 401 Q179 367 179 300 L179 0 L76 0 L76 525 L179 525 L179 475 Q197 501 228.5 518.5 Q260 536 299 536 Q331 536 351.5 530.5 Q372 525 388 514 L361 416 Z" /><glyph glyph-name="s" unicode="s" d="M443 144 Q443 100 426.5 70.5 Q410 41 383 23 Q356 5 320.5 -3 Q285 -11 246 -11 Q192 -11 138.5 8 Q85 27 45 56 L92 134 Q129 108 168.5 95 Q208 82 245 82 Q341 82 341 140 Q341 170 308.5 188 Q276 206 219 228 Q177 244 147.5 260.5 Q118 277 99.5 296 Q81 315 73 338.5 Q65 362 65 393 Q65 428 78 455 Q91 482 115 500 Q139 518 172 527 Q205 536 244 536 Q294 536 340.5 520 Q387 504 422 478 L377 399 Q345 422 312 433 Q279 444 241 444 Q203 444 186 430.5 Q169 417 169 396 Q169 386 173 377.5 Q177 369 188 360 Q199 351 217.5 341.5 Q236 332 266 320 Q310 303 343 287.5 Q376 272 398.5 252.5 Q421 233 432 207 Q443 181 443 144 Z" /><glyph glyph-name="t" unicode="t" d="M327 13 Q308 2 282.5 -4.5 Q257 -11 226 -11 Q171 -11 139.5 23 Q108 57 108 128 L108 431 L33 431 L33 525 L108 525 L108 675 L209 729 L209 525 L339 525 L339 431 L209 431 L209 146 Q209 109 221.5 96 Q234 83 263 83 Q283 83 304 89.5 Q325 96 339 104 L327 13 Z" /><glyph glyph-name="u" unicode="u" d="M391 0 L391 50 Q371 21 335.5 5 Q300 -11 259 -11 Q167 -11 119.5 48 Q72 107 72 224 L72 525 L175 525 L175 228 Q175 148 203.5 116 Q232 84 283 84 Q335 84 363 119 Q391 154 391 218 L391 525 L494 525 L494 0 L391 0 Z" /><glyph glyph-name="v" unicode="v" d="M324 0 L221 0 L33 525 L141 525 L235 240 Q248 202 258.5 167.5 Q269 133 274 111 Q279 133 288.5 167.5 Q298 202 310 240 L400 525 L509 525 L324 0 Z" /><glyph glyph-name="w" unicode="w" d="M555 0 L467 0 L396 265 Q388 295 380.5 326.5 Q373 358 369 377 Q365 358 357.5 326 Q350 294 342 264 L272 0 L184 0 L40 525 L142 525 L204 270 Q212 240 219 207 Q226 174 230 155 Q235 175 243 207 Q251 239 259 270 L329 525 L412 525 L483 269 Q491 238 498.5 206.5 Q506 175 511 155 Q516 175 522.5 207.5 Q529 240 537 270 L599 525 L701 525 L555 0 Z" /><glyph glyph-name="x" unicode="x" d="M369 0 L319 91 Q303 120 287.5 151 Q272 182 264 197 Q261 189 254.5 176.5 Q248 164 240 149.5 Q232 135 223 119 Q214 103 207 90 L156 0 L40 0 L205 272 L51 525 L170 525 L211 451 Q227 422 243 391.5 Q259 361 266 346 Q270 353 276.5 365.5 Q283 378 290.5 393 Q298 408 306 423.5 Q314 439 322 453 L362 525 L480 525 L325 272 L491 0 L369 0 Z" /><glyph glyph-name="y" unicode="y" d="M259 -185 L150 -185 L226 10 L33 525 L146 525 L232 268 Q238 251 245 229 Q252 207 258.5 185 Q265 163 270.5 144.5 Q276 126 278 115 Q281 127 286.5 145.5 Q292 164 298.5 185 Q305 206 312 227.5 Q319 249 325 266 L414 525 L523 525 L259 -185 Z" /><glyph glyph-name="z" unicode="z" d="M58 0 L58 84 L283 359 Q299 379 317 401 Q335 423 346 435 Q339 435 327 435 Q315 435 301.5 435 Q288 435 275 435 Q262 435 252 435 L78 435 L78 525 L463 525 L463 442 L243 167 Q227 147 209 124.5 Q191 102 180 90 Q187 90 199.5 90 Q212 90 225.5 90 Q239 90 252.5 90 Q266 90 276 90 L463 90 L463 0 L58 0 Z" /></font>
</defs>
</svg>
