<?xml version="1.0" standalone="no"?><!DOCTYPE svg PUBLIC "-//W3C//DTD SVG 1.1//EN" "http://www.w3.org/Graphics/SVG/1.1/DTD/svg11.dtd" ><svg xmlns="http://www.w3.org/2000/svg"><metadata></metadata><defs><font id="fonteditor" horiz-adv-x="256"><font-face font-family="ghNûNzùwóOS-Heavy" font-weight="800" font-stretch="normal" units-per-em="256" panose-1="2 0 0 0 0 0 0 0 0 0" ascent="221" descent="-54" x-height="0" bbox="-22 -59 276 216" underline-thickness="12" underline-position="-42" unicode-range="U+0021-ff0c" /><missing-glyph horiz-adv-x="71"  /><glyph glyph-name="exclam" unicode="!" d="M26 162 L35 165 L44 161 Q38 81 29 34 L11 34 L12 53 Q19 131 26 162 ZM23 25 Q33 21 33 13 Q30 -2 16 -2 Q1 4 4 10 L5 12 Q43 31 23 25 Z" /><glyph glyph-name="quotedbl" unicode="&quot;" d="M53 174 Q67 173 73 164 L73 152 Q71 138 41 112 L25 107 Q39 136 41 140 L40 145 Q33 168 53 174 ZM12 172 Q37 178 38 158 L37 150 Q38 141 0 107 L-3 121 L8 142 Q5 144 4 160 L12 172 Z" /><glyph glyph-name="numbersign" unicode="#" d="M102 153 L117 153 Q113 128 111 122 L117 122 Q124 122 131 109 L131 98 L102 98 Q106 102 101.5 74 Q97 46 97 60 L117 68 Q148 66 133 58 Q132 46 129 39 L94 42 Q96 40 90 -8 L75 -9 L62 -6 L70 41 Q71 41 41 41 Q41 22 42 17 Q35 -8 27 -8 L25 -8 Q20 -8 12 2 Q17 23 24 48 Q24 38 22 38 L-4 39 L4 54 Q4 64 16 64 L26 65 Q28 66 33 90 Q37 94 10 97 L14 118 L39 118 Q40 118 41 131 Q44 136 47 152 L72 151 L64 120 L86 120 Q86 120 87 128 Q92 181 102 153 ZM61 97 L52 64 L79 65 Q74 60 78 81 L82 97 L61 97 Z" /><glyph glyph-name="percent" unicode="%" d="M99 163 Q107 161 107 153 L107 148 Q90 112 23 -14 L13 -14 Q4 -14 4 -1 Q20 20 88 155 Q90 163 99 163 ZM34 150 Q55 140 55 119 Q43 89 26 89 L23 89 Q1 101 1 116 Q2 144 34 150 ZM20 116 Q20 113 27 110 Q33 110 35 124 Q34 127 31 129 Q20 129 20 116 ZM104 71 Q124 63 124 44 L124 41 Q115 22 100 15 Q73 17 72 40 Q74 70 104 71 ZM93 44 L93 38 Q93 38 97 36 Q101 37 103 43 Q104 50 101 50 Q94 51 93 44 Z" /><glyph glyph-name="quotesingle" unicode="&#39;" d="M17 178 L23 178 Q30 178 37 165 L37 160 Q37 146 8 119 L-1 119 L-1 129 Q11 145 10 148 L9 151 Q3 151 5 165 Q11 178 17 178 Z" /><glyph glyph-name="parenleft" unicode="(" d="M56 163 L56 149 Q32 122 29 84 L29 69 Q32 44 58 8 L58 -3 L51 -3 Q25 -3 8 64 Q6 76 8 91 Q25 163 56 163 Z" /><glyph glyph-name="parenright" unicode=")" d="M14 166 L31 166 Q61 132 61 99 Q61 41 16 -7 L12 -7 Q6 -7 0 4 L0 9 Q38 50 39 104 Q37 125 14 166 Z" /><glyph glyph-name="asterisk" unicode="*" d="M40 127 Q46 111 49 99 Q64 100 81 93 L57 75 Q62 65 62 40 Q42 55 37 58 Q33 54 5 35 Q15 68 17 74 Q16 76 -6 91 L7 99 L26 99 Q27 99 28 121 L40 127 Z" /><glyph glyph-name="plus" unicode="+" d="M65 154 L82 152 Q76 142 77 100 Q90 99 109 101 L129 101 L129 75 L79 75 Q79 72 77 11 L53 10 L53 27 Q52 51 53 66 Q48 112 67 74 Q32 75 10 74 L9 99 L55 99 Q53 107 54 134 L54 151 Q60 154 65 154 Z" /><glyph glyph-name="comma" unicode="," d="M23 31 Q43 34 43 12 Q48 -3 7 -33 L-2 -33 L-2 -25 Q-2 -22 13 -1 Q9 3 9 17 Q13 30 23 31 Z" /><glyph glyph-name="hyphen" unicode="-" d="M114 90 L120 77 L120 67 L102 66 Q74 65 24 65 L17 78 Q19 88 31 88 Q72 90 114 90 Z" /><glyph glyph-name="period" unicode="." d="M27 17 Q40 13 44 2 L44 -7 Q35 -22 23 -22 Q5 -14 5 0 Q13 17 27 17 Z" /><glyph glyph-name="slash" unicode="/" d="M73 177 L78 176 Q86 174 86 166 Q69 107 21 -18 L2 -13 Q2 -2 42 106 Q64 175 73 177 Z" /><glyph glyph-name="zero" unicode="0" d="M64 166 L74 166 Q121 168 133 101 Q130 1 72 -14 L69 -14 Q38 -12 24 10.5 Q10 33 7 63 L9 92 Q24 156 64 166 ZM34 90 L32 77 Q32 31 59 14 L71 14 Q100 18 108 77 L108 107 Q100 138 75 143 L71 142 Q49 138 34 90 Z" /><glyph glyph-name="one" unicode="1" d="M70 167 L89 167 Q89 161 92 155 L62 -12 L54 -12 L38 -5 L70 167 Z" /><glyph glyph-name="two" unicode="2" d="M12 124 Q25 161 55 163 Q114 173 114 124 Q109 103 40 26 L33 17 L44 15 L36 15 Q48 15 104 16 Q119 12 119 1 L116 -6 Q93 -6 81 -6 L43 -7 Q24 -7 24 -11 Q2 -1 2 7 Q2 11 86 112 L94 127 Q87 148 52 142 Q29 130 22 116 L14 116 Q14 122 12 124 Z" /><glyph glyph-name="three" unicode="3" d="M57 169 Q105 170 105 131 Q98 101 71 93 L64 100 Q125 97 116 36 Q109 -4 67 -11 Q53 -14 36 -11 Q12 -6 0 18 L0 33 L31 15 Q73 4 89 40 Q97 78 54 77 L43 75 L30 70 L27 70 Q20 70 15 81 L15 87 Q58 108 74 127 Q81 146 59 145 L53 144 L20 127 L20 143 Q28 163 57 169 Z" /><glyph glyph-name="four" unicode="4" d="M61 174 L70 154 Q37 74 37 67 L56 67 Q67 67 71 65 L86 144 Q86 151 91.5 155.5 Q97 160 109 144 L96 70 L108 71 L122 73 Q131 64 130 56 Q128 47 103 46 L91 46 Q91 46 86 -11 L77 -16 L74 -16 Q67 -16 61 -3 Q66 29 71 47 L71 45 L47 43 L36 43 Q1 38 7 60 Q38 145 61 174 Z" /><glyph glyph-name="five" unicode="5" d="M44 162 Q55 162 65 162 Q75 162 85 162 L97 162 Q113 161 113 148 L113 146 Q113 129 102 140 Q78 137 46 140 Q39 108 39 99 L49 100 Q51 100 51 101 Q102 104 113 77 L116 74 Q134 -13 55 -12 Q25 -13 5 21 L5 34 L15 34 Q20 34 35 20 L54 13 Q85 13 91 33 L93 51 Q92 80 63 77 Q48 77 26 70 Q19 70 13 83 L28 167 Q42 162 44 162 Z" /><glyph glyph-name="six" unicode="6" d="M84 164 Q88 162 96 162 L96 147 Q65 147 46 91 L52 91 L66 93 Q120 87 117 43 Q113 -9 66 -13 Q6 -16 12 69 Q21 108 43 141 Q70 164 84 164 ZM37 54 Q35 14 62 11 L64 11 Q84 11 92 39 Q96 67 64 71 L48 68 Q42 67 37 54 Z" /><glyph glyph-name="seven" unicode="7" d="M107 169 Q123 162 123 150 Q89 107 76 61 Q63 15 54 -14 L47 -14 Q33 -7 33 7 Q68 126 119 189 Q95 142 82 147 Q56 144 35 144 L30 144 Q20 144 20 154 L20 163 Q38 167 107 169 Z" /><glyph glyph-name="eight" unicode="8" d="M68 167 Q120 163 115 120 L115 118 Q115 99 97 86 Q104 82 113 67.5 Q122 53 121 39 Q121 -12 70 -12 Q20 -19 10 30 Q11 72 37 85 Q29 90 21 113 L21 128 Q20 165 68 167 ZM46 123 Q46 106 68 98 Q88 101 91 125 Q89 148 67 148 Q43 141 46 123 ZM37 34 Q40 11 68 14 Q93 14 95 36 Q92 67 67 73 Q35 62 37 34 Z" /><glyph glyph-name="nine" unicode="9" d="M64 167 Q119 174 122 118 Q122 59 56 1 Q25 -18 17 -13 L5 -5 Q25 9 40 19 Q68 43 77 59 L79 64 Q64 59 39.5 68.5 Q15 78 15 114 Q20 167 64 167 ZM38 112 Q40 90 59 88 L62 88 Q91 90 92 96 Q97 106 96 116 L96 120 Q97 144 68 145 L59 144 Q38 137 38 112 Z" /><glyph glyph-name="colon" unicode=":" d="M20 62 Q21 82 39 81 Q57 82 58 62 Q58 42 38 42 Q17 45 20 62 ZM20 9 Q21 30 39 29 Q57 30 58 9 Q58 -11 38 -11 Q17 -8 20 9 Z" /><glyph glyph-name="semicolon" unicode=";" d="M23 61 Q24 82 42 81 Q61 82 62 62 Q62 42 41 42 Q22 45 23 61 ZM39 32 Q58 35 59 14 Q63 -3 20 -31 L12 -31 L12 -24 Q12 -21 27 -2 Q20 1 21 15 Q24 32 39 32 Z" /><glyph glyph-name="less" unicode="&lt;" d="M91 140 Q96 140 102 129 L102 123 L32 76 Q39 68 99 37 L102 30 L102 20 L92 20 Q28 46 0 75 L0 83 L86 140 L91 140 Z" /><glyph glyph-name="equal" unicode="=" d="M112 113 Q131 107 131 99 L131 88 L109 88 Q89 88 67 87 Q34 86 4 91 L4 98 Q8 108 19 111 L65 111 Q87 111 112 113 ZM19 74 L111 74 Q131 73 131 62 L131 58 Q131 48 100 46 L95 48 L32 48 Q2 50 2 62 L2 70 L19 74 Z" /><glyph glyph-name="greater" unicode="&gt;" d="M20 141 Q106 107 112 95 L112 88 Q27 19 12 19 L1 19 L1 28 Q1 35 64 80 Q73 89 73 93 Q15 122 9 129 Q9 141 20 141 Z" /><glyph glyph-name="question" unicode="?" d="M35 173 Q68 180 83 140 Q82 111 62.5 97 Q43 83 46 47 L39 41 L24 41 L24 58 Q21 100 55 124 L57 129 Q59 146 40 148 Q24 149 18 133 L12 114 Q1 114 -6 128 L-4 142 Q5 173 35 173 ZM33 35 Q58 35 50 13 Q50 5 37.5 3 Q25 1 21 20 Q25 32 33 35 Z" /><glyph glyph-name="at" unicode="@" d="M95 169 Q174 157 171 86 Q161 34 126 34 Q107 35 101 49 Q86 38 68 41 Q44 43 45 74 Q44 117 81 128 Q122 134 122 96 Q120 73 120 65 Q120 61 123 59 L129 59 Q154 71 147 114 Q133 142 95 147 Q60 151 35 112 Q22 83 30 58 Q34 30 79 18 Q104 13 138 26 Q157 39 157 27 L157 17 Q127 -5 90 -6 Q23 -1 7 53 Q1 85 11 112.5 Q21 140 45.5 154.5 Q70 169 95 169 ZM66 67 Q71 60 81 65 Q95 75 98 92 Q99 104 91 104 Q66 103 66 67 Z" /><glyph glyph-name="B" unicode="b" d="M63 166 Q104 157 104 132 Q106 114 91 101 Q128 101 132 58 Q138 13 71 -2 Q55 -4 51 -4 L14 -2 Q11 13 11 53 L11 82 Q11 84 11 88 Q10 165 23 165 L63 166 ZM34 144 L33 137 Q32 120 32 96 L33 95 Q54 95 79 122 Q83 133 83 136 Q79 146 61 146 L45 146 Q35 144 34 144 ZM32 65 L32 22 Q33 17 66 21 Q110 32 109 57 L108 64 Q101 77 85 79 L66 78 Q42 75 32 65 Z" /><glyph glyph-name="C" unicode="c" d="M63 164 Q105 173 122 136 L109 131 Q92 147 69 142 Q30 117 30 80 Q26 33 61 21 L71 20 Q94 19 120 48 L130 46 Q138 32 131 30 Q102 -5 67 -5 L62 -5 Q3 8 5 75 Q2 131 54 160 Q59 164 63 164 Z" /><glyph glyph-name="D" unicode="d" d="M46 168 L62 167 Q121 163 132 103 L133 90 Q132 25 74 -2 Q54 -4 42 -4 L10 -4 Q10 14 10 18 Q10 41 10 56 L10 67 Q10 96 10 164 Q27 168 46 168 ZM33 150 L33 46 Q33 17 29 19 L53 20 Q85 26 102 57 Q112 77 105 109 Q96 148 25 147 L33 150 Z" /><glyph glyph-name="E" unicode="e" d="M106 166 Q123 166 128 162 L132 152 Q132 144 120 144 L34 145 Q38 145 37 128 Q38 98 34 86 L34 94 Q75 94 89 94 L99 94 Q113 96 121 88 L120 71 Q97 71 84 71 L36 71 Q36 71 36 68 Q35 54 34 20 L36 19 L97 19 Q104 19 123 19 Q137 15 137 7 L137 4 Q137 -5 114 -5 L37 -5 Q18 -6 10 -2 L10 12 Q10 44 12 50 Q12 54 12 63 Q15 136 15 147 Q15 156 15 162 L23 166 L66 166 Q86 166 106 166 Z" /><glyph glyph-name="H" unicode="h" d="M111 105 Q113 153 118 163 L132 164 L132 104 Q128 36 128 10 Q124 -3 118 -3 Q104 0 109 22 Q110 44 110 52 L110 76 Q108 86 108 86 L70 87 Q67 87 51 87 L41 87 Q36 85 36 87 Q32 18 28 3 L22 3 Q16 3 11 13 L11 31 Q16 117 21 164 L31 164 L38 161 Q36 122 36 112 L38 106 Q38 106 49 107 Q73 105 76 105 Q87 105 95 105 L111 105 Z" /><glyph glyph-name="I" unicode="i" d="M27 166 Q46 167 56 165 L55 143 Q45 145 45 145 L45 120 Q43 93 40 19 Q46 19 58 20 L59 -3 Q41 -3 25.5 -3 Q10 -3 3 -3 L0 8 L-2 17 L16 19 Q18 33 18 39 L18 46 Q20 73 25 165 Q41 141 9 143 Q7 169 27 166 Z" /><glyph glyph-name="J" unicode="j" d="M35 165 Q77 167 86 165 L85 144 Q78 144 74 148 L74 140 Q74 105 76 68 Q78 1 42 -4 Q17 -10 0 11 L-6 24 Q-9 42 5 47 L14 47 Q15 25 25 21 L39 19 Q52 20 52 82 Q51 115 48 175 Q65 141 35 145 Q35 156 35 165 Z" /><glyph glyph-name="L" unicode="l" d="M29 165 L31 165 Q43 163 43 144 L38 21 Q79 20 100 22 Q115 19 115 5 Q115 -4 105 -4 L67 -4 Q63 -4 37 -4 L9 -4 L18 126 L20 157 Q12 165 29 165 Z" /><glyph glyph-name="M" unicode="m" d="M133 164 L143 164 Q159 164 175 37 L183 -5 L168 -5 Q163 -5 154 9 L150 40 Q140 123 143 123 Q133 102 94 0 Q80 8 66 80 Q63 99 63 110 L60 121 Q60 127 65 125 Q64 121 57 94 Q46 72 20 7 L10 7 Q1 7 1 16 L1 19 Q18 57 55 155 L63 158 L69 158 Q79 151 93 56 Q101 69 129 149 L133 164 Z" /><glyph glyph-name="N" unicode="n" d="M126 166 Q135 166 149 155 Q141 104 131 -5 L122 -5 Q111 4 64 94 Q41 131 41 120 L49 142 L27 0 L16 0 Q8 0 6 12 Q21 145 35 161 Q55 161 106 62 Q109 57 113 49 L110 52 Q118 130 126 166 Z" /><glyph glyph-name="O" unicode="o" d="M99 165 Q141 153 140 88 L140 79 Q134 11 90 -2 Q81 -6 56 -4 Q2 9 5 67 L7 89 Q16 133 35 147 Q57 169 99 165 ZM29 65 Q30 21 68 20 Q104 22 117 79 Q120 143 83 143 L77 143 Q43 143 31 87 Q29 80 29 65 Z" /><glyph glyph-name="P" unicode="p" d="M65 166 Q117 157 115 121 Q117 77 67 71 Q64 72 35 71 L34 6 L33 -5 L24 -5 Q17 -5 10 12 Q11 93 12 138 L12 153 Q15 166 63 166 L65 166 ZM36 142 L36 128 Q36 120 36 105 L36 95 Q37 95 66 95 Q89 101 91 118 Q92 140 65 144 L40 144 Q38 144 36 142 Z" /><glyph glyph-name="Q" unicode="q" d="M66 164 Q134 176 139 96 L139 76 Q132 48 122 36 Q126 30 136 23 L144 11 Q141 -4 133 -4 L127 -4 Q109 14 107 14 Q79 -5 46 -1 Q2 22 5 71 Q4 107 27 142 Q45 159 66 164 ZM29 81 Q25 43 51 26 L62 22 Q87 27 88 31 L88 33 Q88 33 71 46 L71 51 Q74 58 83 62 Q98 53 104 49 Q118 62 117 101 Q108 147 68 141 Q58 138 48 129 Q35 117 29 81 Z" /><glyph glyph-name="R" unicode="r" d="M44 164 Q119 169 122 122 Q122 93 92 77 Q77 70 69 69 Q102 39 141 -2 L119 -4 L108 -4 Q65 40 34 68 Q36 75 36 37 L35 4 Q35 -5 26 -5 L23 -5 L10 -3 Q13 159 22 163 L44 164 ZM39 92 L41 92 L52 93 Q101 92 95 128 Q86 145 37 141 Q36 141 39 92 Z" /><glyph glyph-name="S" unicode="s" d="M73 166 Q99 162 107 146 L106 141 L101 132 L78 143 Q43 151 35 125 Q38 107 80 94 Q115 84 114 43 Q101 -9 41 -3 Q9 0 -2 35 L-2 45 L11 53 Q26 25 45 20 L64 22 Q85 27 87 45 L87 49 Q86 70 57 75 Q8 94 11 127 Q16 173 73 166 Z" /><glyph glyph-name="T" unicode="t" d="M119 166 Q133 164 133 157 L133 147 L119 145 L111 145 Q100 146 74 146 L74 137 Q72 119 71 -4 L50 -4 Q50 73 51 104 Q53 131 52 141 Q53 151 56 145 L-1 145 Q-6 150 -6 165 L41 166 L73 166 Q91 166 119 166 Z" /><glyph glyph-name="V" unicode="v" d="M127 166 Q135 162 142 158 L110 76 Q85 24 71 -3 L64 -5 Q48 -2 -2 156 L-2 166 L14 166 Q21 163 62 43 L64 39 Q83 78 119 166 L127 166 Z" /><glyph glyph-name="Y" unicode="y" d="M120 166 L128 166 Q92 115 83 105 Q49 63 72 130 Q69 74 69 63 L70 11 Q70 -4 63 -4 Q44 -7 44 3 Q45 63 45 71 Q45 80 45 89 L-13 166 L17 166 L51 125 L58 117 Q94 156 120 166 Z" /><glyph glyph-name="Z" unicode="z" d="M109 165 Q129 165 129 157 L125 144 Q89 106 46 43 Q45 38 31 23 L30 21 L44 21 Q78 21 85 21 L128 22 Q136 25 141 -3 L129 -3 Q122 -4 104 -4 L86 -4 Q53 -4 16 -4 Q-8 -4 -6 9 L-5 14 Q2 28 77 129 Q81 135 86 141 Q65 141 43 141 L16 141 Q9 141 10 165 Q58 165 109 165 Z" /><glyph glyph-name="bracketleft" unicode="[" d="M62 173 Q67 164 67 153 L40 152 Q41 32 40 11 L70 11 L74 -14 L16 -14 Q17 28 17 69 Q16 115 17 172 L32 172 Q37 174 62 173 Z" /><glyph glyph-name="bracketright" unicode="]" d="M15 -13 Q18 0 16 11 L47 12 Q46 128 47 151 L17 151 L22 174 L71 174 Q70 132 70 91 Q71 45 70 -13 L15 -13 Z" /><glyph glyph-name="underscore" unicode="_" d="M174 24 L174 11 L172 1 L156 1 Q133 0 76 0 L76 15 Q78 23 90 23 Q131 25 174 24 Z" /><glyph glyph-name="a" unicode="a" d="M55 95 Q74 96 87 73 Q85 46 81 36 L83 29 Q84 23 89 18 Q96 10 96 1 L78 -3 Q67 4 63 14 Q47 -4 30 -3 Q5 1 1 29 Q4 81 35 94 Q47 97 55 95 ZM24 41 L25 29 Q27 23 28 23 L35 23 Q49 23 60 52 L63 68 Q60 74 51 74 Q30 74 24 41 Z" /><glyph glyph-name="b" unicode="b" d="M19 179 L28 179 Q38 176 38 162 L37 110 Q37 102 37 97 L67 97 Q100 89 102 56 Q99 -2 53 -2 Q45 -3 28 -3 L14 -3 L8 12 Q13 12 18 167 Q19 173 19 179 ZM36 74 L36 57 Q34 27 35 24 Q81 20 76 57 Q72 78 54 74 Q36 74 36 74 Z" /><glyph glyph-name="c" unicode="c" d="M40 96 Q81 96 78 76 L78 68 L70 68 Q58 75 51 75 L46 75 Q22 68 25 38 Q25 26 38 21 Q58 15 86 34 L81 12 Q73 -3 40 -4 Q1 4 3 43 Q3 85 40 96 Z" /><glyph glyph-name="d" unicode="d" d="M84 173 L94 171 Q104 171 104 159 Q90 85 89 50 Q90 21 110 20 L115 10 L115 7 Q115 1 103 -6 Q68 0 68 5 Q70 20 46 0 L38 -2 Q1 0 3 39 Q8 90 45 97 Q72 101 71 102 Q71 102 84 173 ZM27 38 Q27 23 34 23 Q45 23 63 65 Q63 74 56 76 L50 76 Q33 74 27 38 Z" /><glyph glyph-name="e" unicode="e" d="M43 97 Q77 97 84 71 Q84 46 22 34 L22 53 Q26 19 41 20 Q51 17 87 34 L85 15 Q64 -4 42 -4 Q-2 -3 -1 48 Q6 89 43 97 ZM26 57 Q49 57 61 74 Q61 76 57 77 L53 77 Q26 71 26 57 Z" /><glyph glyph-name="f" unicode="f" d="M50 159 L61 156 Q67 146 59 130 Q45 141 45 102 L45 97 Q78 104 74 71 Q54 74 46 73 Q48 25 48 13 Q48 -50 9 -50 L2 -50 L2 -35 Q27 -29 27 26 Q24 68 24 71 Q15 70 -1 71 Q-12 88 1 95 Q16 95 23 91 Q21 163 50 159 Z" /><glyph glyph-name="g" unicode="g" d="M48 97 Q85 99 78 57 Q79 43 77 30 Q77 17 77 -2 Q77 -54 37 -54 L20 -51 Q-4 -38 0 -6 L11 1 Q19 -28 37 -30 Q57 -28 54 7 Q54 8 53 6 Q51 3 39 1 Q2 5 8 51 Q12 95 48 97 ZM27 46 Q23 26 39 22 Q58 32 58 54 L56 74 Q56 73 52 75 Q29 74 27 46 Z" /><glyph glyph-name="h" unicode="h" d="M30 176 L35 169 L35 151 Q35 120 30 79 L30 89 Q35 97 62 96 Q88 99 83 53 Q79 23 100 17 L100 1 L89 -2 Q54 -3 57 69 Q28 69 28 -3 L17 -3 Q4 1 4 20 Q9 20 17 161 Q20 176 30 176 Z" /><glyph glyph-name="i" unicode="i" d="M27 123 Q38 119 40 109 L40 106 Q40 97 32 97 L28 97 Q14 105 14 121 Q24 123 27 123 ZM22 97 L25 97 Q30 97 40 87 Q32 60 30 32 Q29 20 32 21 L42 25 L51 25 Q51 8 39 -1 Q8 -12 10 31 Q12 66 12 67 L8 63 L3 85 L22 97 Z" /><glyph glyph-name="j" unicode="j" d="M14 130 Q34 130 43 117 Q40 110 40 103 L29 103 Q14 107 14 130 ZM25 99 Q42 105 41 81 Q41 31 40 7 L40 -7 Q36 -53 4 -52 Q-22 -40 -22 -24 L-22 -16 L-13 -16 Q-2 -29 7 -26 Q16 -19 16 -5 L18 19 Q18 25 19 35 Q20 45 20 57 L20 73 Q20 73 4 76 L25 99 Z" /><glyph glyph-name="k" unicode="k" d="M25 148 L30 154 Q38 155 46 149 Q41 101 40 95 Q46 99 55 99 Q87 94 79 72 Q78 46 52 41 L53 40 Q69 17 76 17 Q80 17 83 17 L87 17 Q96 12 96 6 L96 4 Q89 -8 76 -8 Q62 -10 27 39 L27 37 Q31 40 25 -8 L15 -8 Q6 -8 6 2 L5 8 Q13 48 25 148 ZM36 68 L34 56 Q34 57 43 57 Q56 62 57 73 Q59 78 54 77 Q43 77 36 68 Z" /><glyph glyph-name="l" unicode="l" d="M16 161 Q32 170 38 157 Q35 125 33 109 L29 50 Q26 29 33 25 L39 26 L49 34 Q54 34 62 26 Q62 11 36 -3 Q-1 -2 8 54 Q8 67 16 161 Z" /><glyph glyph-name="m" unicode="m" d="M94 95 Q127 94 124 70 L124 36 Q124 16 143 12 L143 2 L133 -3 Q98 -7 101 68 L99 69 Q80 71 79 48 Q79 3 74 3 L68 1 Q58 5 58 13 Q58 45 58 49 Q57 66 46 64 Q32 67 30 -1 L18 -3 Q6 0 7 18 L7 24 Q13 62 11 69 Q9 75 -6 88 L16 92 Q28 83 28 83 L29 84 Q37 91 50 92 Q66 89 69 85 Q79 95 94 95 Z" /><glyph glyph-name="n" unicode="n" d="M8 100 L29 90 Q30 75 24 75 L40 88 L55 95 L59 96 Q96 101 86 66 L84 42 Q85 20 95 19 L109 15 Q101 -3 94 -3 Q63 -8 62 41 Q64 61 68 86 Q68 71 62 71 Q39 61 38 52 Q30 39 28 -2 L12 -2 Q-1 4 4 18 Q10 27 10 74 Q8 84 8 100 Z" /><glyph glyph-name="o" unicode="o" d="M46 97 Q86 95 89 46 Q87 3 43 -4 Q2 -4 1 45 Q9 94 40 97 L46 97 ZM26 53 L25 39 Q26 22 43 18 Q66 25 66 45 Q70 71 44 75 Q27 71 26 53 Z" /><glyph glyph-name="p" unicode="p" d="M37 111 Q38 95 38 95 L64 95 Q95 90 95 49 Q91 5 40 3 Q40 -42 13 -55 Q-1 -48 -1 -39 Q16 -33 16 -1 Q18 -1 18 14.5 Q18 30 18 39 L20 65 Q20 61 14 65 L-1 65 L-1 75 Q18 85 37 111 ZM40 70 L40 28 Q41 26 40 26 L43 26 Q61 26 70 43 L72 58 Q70 74 55 73 Q40 71 40 70 Z" /><glyph glyph-name="q" unicode="q" d="M37 95 Q68 95 76 71 L80 56 L63 58 Q56 70 45 70 L42 70 Q24 58 29 33 Q32 26 38 25 Q55 29 58 72 L67 72 Q72 72 79 61 L72 -17 L73 -16 L86 -5 L98 -5 Q84 -34 66 -53 Q55 -53 52 -43 Q51 -28 53 -1 L53 4 Q53 4 55 4 Q51 -1 37 4 Q21 4 8 25 Q-3 76 37 95 Z" /><glyph glyph-name="r" unicode="r" d="M62 95 Q84 91 84 72 L68 63 Q62 74 54 71 Q28 49 31 17 L31 6 Q31 -3 20 -3 L18 -3 Q12 -3 8 6 L8 16 Q8 18 10 56 L10 62 Q10 69 4 86 Q9 97 26 97 L29 85 Q30 76 32 72 L25 72 Q45 95 62 95 Z" /><glyph glyph-name="s" unicode="s" d="M40 98 Q59 98 66 82 L66 74 Q58 74 43 78 Q32 76 30 70 L32 66 Q67 45 67 35 Q70 30 70 24 Q63 -9 33 -4 Q1 -4 -1 33 L12 36 Q21 16 35 20 Q45 19 46 28 Q38 39 24 45.5 Q10 52 9 68 Q9 93 40 98 Z" /><glyph glyph-name="t" unicode="t" d="M26 126 L42 119 L41 101 L40 92 L50 91 Q47 91 47 95 Q62 95 71 77 Q59 71 54 71 Q37 73 34 42 Q32 21 38 21 L45 21 L54 31 Q65 31 65 22 Q59 -3 40 -3 Q8 -8 12 50 L15 62 Q17 71 -4 70 L2 91 Q21 90 20 92 Q22 112 26 126 Z" /><glyph glyph-name="u" unicode="u" d="M29 95 Q38 95 38 81 Q29 55 28 29 L31 25 Q54 10 68 81 Q70 86 70 92 L87 92 Q87 86 89 80 Q82 46 82 27 Q82 27 91 7 L91 -3 L83 -3 Q69 -3 64 9 Q57 -4 32 -2 Q8 6 8 25 L8 27 Q8 40 14 73 Q-12 73 13 89 Q21 95 29 95 Z" /><glyph glyph-name="v" unicode="v" d="M53 97 L63 97 Q78 88 78 82 Q78 62 38 -2 Q15 -2 8 69 Q6 71 0 71 L0 80 Q0 89 9 89 L15 89 Q25 89 36 32 Q42 35 57 76 Q53 88 53 97 Z" /><glyph glyph-name="w" unicode="w" d="M88 100 L97 100 Q111 92 112 75 Q109 51 81 -1 L72 -1 Q65 5 49 68 L57 48 Q57 43 28 -4 Q10 4 5 93 L16 93 Q21 93 27 82 Q25 70 25 68 Q27 43 30 33 L31 29 L24 29 Q38 59 50 87 L55 87 Q66 87 78 39 Q79 40 91 79 Q88 88 88 100 Z" /><glyph glyph-name="x" unicode="x" d="M111 90 L89 90 L89 79 Q74 70 64 55 L61 48 Q69 26 76 18 L96 19 L96 9 Q94 0 81 -4 Q57 -11 43 32 L48 25 Q29 -7 12 -2 Q-2 1 -2 11 L13 19 Q27 29 38 51 Q29 70 7 75 Q18 91 24 89 Q41 91 46 82 L51 70 Q64 94 111 90 Z" /><glyph glyph-name="y" unicode="y" d="M-8 74 L18 96 Q25 96 34 80 Q32 58 33 30 L40 35 Q58 51 60 95 L70 95 Q82 93 80 65 L80 -4 Q80 -8 81 -17 Q78 -42 67 -49 Q60 -59 38 -58 Q7 -57 -2 -19 L-2 -11 L8 -11 Q24 -35 39 -34 Q56 -32 56 -19 L58 24 Q57 13 62 28 Q54 19 32 -2 Q25 -2 9 8 L12 16 L12 72 Q12 74 -8 74 Z" /><glyph glyph-name="z" unicode="z" d="M72 94 L78 83 L78 77 Q59 62 31 22 L30 21 Q65 20 75 20 L85 8 L85 -2 Q48 -2 0 -3 L0 16 L45 78 L45 71 L26 71 Q19 70 15 72 Q6 78 6 85 L6 92 L20 92 Q47 93 72 94 Z" /><glyph glyph-name="braceleft" unicode="{" d="M185 211 L190 211 Q198 209 198 202 L198 198 Q187 184 187 178 L187 125 Q187 123 186.5 110 Q186 97 176 83 Q185 81 185 -19 Q188 -36 207 -52 L191 -52 Q159 -52 159 24 L159 47 Q159 67 146 77 L146 83 Q164 100 164 120 L164 178 Q164 198 185 211 Z" /><glyph glyph-name="bar" unicode="|" d="M135 179 Q136 128 136 106 L136 -20 L129 -20 Q125 -20 113 -15 Q113 39 113 55.5 Q113 72 113 93 Q113 114 113 128.5 Q113 143 110 182 Q121 177 135 179 Z" /><glyph glyph-name="braceright" unicode="}" d="M51 204 L67 202 Q89 190 88 169 L87 153 L87 125 Q87 110 104 91 Q92 70 92 61 Q92 49 94 19 Q94 -23 68 -35 L53 -39 L45 -25 Q71 -16 71 19 Q71 24 71 35 L71 61 Q71 67 77 88 L77 90 Q66 114 66 129 Q66 150 66 171 Q67 181 58 188 L51 204 Z" /><glyph glyph-name="uni3002" unicode="&#x3002;" d="M103 -3 Q95 -13 79 -9 Q64 -10 53 5 Q43 24 53 46 L66 56 Q82 62 93 57 Q113 50 113 49 Q113 49 115 24 Q115 4 103 -3 ZM69 25 Q70 13 78 12 Q83 10 87 12 Q92 15 94 24 Q94 25 94 27 Q93 33 86 36 L78 36 Q70 35 69 25 Z" /><glyph glyph-name="uni4E00" unicode="&#x4e00;" d="M210 117 L212 117 Q220 117 234 98 L234 94 Q234 82 216 89 Q182 90 52 78 Q38 77 28 92 Q28 100 46 105 Q54 102 64 103 Q87 105 109 109 L163 113 L183 114 Q207 117 210 117 Z" /><glyph glyph-name="uni4E0A" unicode="&#x4e0a;" d="M108 179 Q122 179 130 159 L129 117 Q130 114 130 114 Q131 114 160 116 Q175 112 177 106 L177 102 Q177 96 167 90 Q152 86 131 85 L131 38 Q131 36 131.5 32.5 Q132 29 131 29 L200 29 Q224 32 224 22 L230 7 Q222 1 214 1 Q209 1 138 1 Q136 1 130.5 1 Q125 1 43 -5 L35 -5 Q25 -5 25 5 Q25 19 94 24 Q107 25 106 25 L106 34 L103 144 Q102 165 102 175 L108 179 Z" /><glyph glyph-name="uni4E0D" unicode="&#x4e0d;" d="M168 171 L181 171 Q186 171 195 161 L195 148 L187 146 L174 146 Q135 145 135 137 Q134 131 129 116 Q138 80 137 32 L136 -7 L136 -24 Q111 -29 110 -9 L111 34 Q112 84 111 89 L106 82 Q73 45 31 24 L27 35 L79 87 Q92 101 105 128 Q111 143 113 141 L71 135 Q59 136 49 153 L63 161 L78 161 L98 162 L168 171 ZM147 97 Q221 73 234 64 L234 51 Q234 43 224 43 L220 43 Q202 51 142 79 L136 81 L136 93 Q142 93 147 97 Z" /><glyph glyph-name="uni4E0E" unicode="&#x4e0e;" d="M85 192 Q99 193 103 170 Q105 170 159 175 Q166 177 169 178 Q184 177 187 172 L193 162 Q187 153 179 153 Q152 153 105 146 L100 148 Q99 131 95 112 Q101 113 105 115 Q121 119 167 124 L180 124 Q216 123 217 102 Q214 85 203 42 Q198 26 183 -9 Q168 -44 168 -23 Q148 -20 112 14 Q115 23 122 23 L125 23 Q147 10 160 10 Q173 32 176 51 L179 49 Q159 49 153 49 L136 46 L57 38 Q35 36 28 54 Q43 60 165 75 Q178 76 196 73 L182 73 L188 93 L188 97 Q188 102 153 99 Q108 93 89 83 L77 79 Q70 85 66 96 Q71 107 77 156 L79 171 L79 174 Q72 190 85 192 Z" /><glyph glyph-name="uni4E13" unicode="&#x4e13;" d="M113 205 L120 205 Q131 203 131 188 L131 174 L129 164 L135 167 Q142 170 151 170 Q162 163 164 158 L164 151 Q164 142 129 139 Q124 132 124 122 L128 122 L157 130 L207 137 Q217 132 224 124 L224 117 Q224 113 213 107 L201 109 Q114 109 114 85 Q114 74 109 66 Q146 73 166 79 Q181 79 188 69 L188 60 Q188 46 143 0 Q167 -17 167 -21 Q169 -26 169 -31 L163 -35 Q143 -35 129 -18 Q112 -4 97 6 L97 15 Q99 23 108 23 Q123 11 127 11 Q152 47 152 54 L165 54 Q108 43 83 29 L74 43 L74 48 Q90 80 91 91 L60 86 L43 86 Q34 89 31 99 L31 105 L39 110 L52 108 Q55 110 92 116 Q102 115 102 133 L90 131 L70 151 Q109 155 109 163 Q109 178 107.5 185.5 Q106 193 106 203 L113 205 Z" /><glyph glyph-name="uni4E5F" unicode="&#x4e5f;" d="M94 183 L104 183 Q117 171 117 154 L117 135 L110 135 Q146 150 161 150 Q173 138 173 131 Q160 37 143 37 Q115 60 115 69 L122 73 Q131 67 134 67 L138 67 Q141 67 145 101 L145 122 L143 122 Q117 116 117 112 L117 69 Q117 58 109 58 L102 58 Q94 58 94 69 L94 103 Q94 104 95 104 Q79 98 78 98 Q79 69 78 57 L79 42 Q79 24 102 22 Q126 22 143.5 22 Q161 22 162 22 Q194 22 207 26 L212 34 Q212 41 214 57 L224 62 Q233 53 233 34 L233 25 Q233 4 216 -1 L179 -3 Q174 -3 137 -3 Q72 -7 57 26 L54 51 Q53 79 54 82 L55 96 Q55 90 33 81 L14 100 Q49 113 54 116 L53 129 Q53 134 48 166 L66 163 Q77 150 78 124 Q94 129 95 131 L95 158 Q95 161 94 183 Z" /><glyph glyph-name="uni4E61" unicode="&#x4e61;" d="M131 199 Q140 192 150 192 Q138 167 113 141 Q113 145 115 145 Q140 145 141 147 Q153 156 162 176 L177 163 Q177 152 170 144 Q162 132 118 85 Q119 87 122 87 Q145 88 153 93 Q175 131 180 131 Q186 131 191 115 L191 108 Q159 21 103 -20 Q79 -36 61 -37 L61 -28 Q119 18 140 63 Q119 60 82 50 L71 68 Q111 108 119 120 Q112 119 78 112 L71 126 Q98 152 131 199 Z" /><glyph glyph-name="uni4E8C" unicode="&#x4e8c;" d="M155 155 L159 155 Q168 155 172 134 Q152 129 103 120 Q78 124 78 135 L78 146 Q123 147 155 155 ZM189 77 Q235 76 235 60 L235 56 L229 44 L202 49 Q183 49 155 45 L150 45 L47 35 Q31 35 26 47 Q26 57 148 71 Q168 73 189 77 Z" /><glyph glyph-name="uni4EB2" unicode="&#x4eb2;" d="M113 208 Q130 203 134 193 L134 189 Q134 180 125 180 L122 180 Q116 180 101 199 Q108 208 113 208 ZM174 188 L187 181 L187 176 Q187 165 178 165 Q162 164 162 170 L170 161 Q163 142 144 123 Q165 126 176 127 Q190 128 198 131 Q203 131 215 124 L220 105 Q182 104 180 104 Q44 92 37 92 L33 100 L33 111 Q89 118 89 118 Q89 126 81 152 L91 158 L94 158 Q103 158 117 124 Q118 120 109 117 Q141 140 142 161 L140 161 Q89 159 73 159 L68 168 L68 175 Q85 175 155 186 Q165 190 174 188 ZM117 99 Q123 99 132 85 L143 85 Q146 85 150 87 Q164 83 173 69 Q159 61 151 61 L135 61 Q139 45 139 23 L138 -13 L133 -31 L119 -34 Q91 -15 85 -6 L85 6 L93 6 Q104 -1 110 -1 Q110 -1 112 9 Q112 37 112 43 Q111 56 111 56 L90 54 L73 57 L73 66 Q73 73 107 80 L107 91 Q111 99 117 99 ZM61 51 L63 51 Q72 51 72 42 L72 35 Q67 5 53 1 Q46 1 41 11 L41 16 Q55 51 61 51 ZM167 50 L174 50 Q189 50 216 28 L216 6 L199 6 Q168 35 167 43 L167 50 Z" /><glyph glyph-name="uni4EBA" unicode="&#x4eba;" d="M122 169 L125 169 Q135 167 135 157 Q123 131 117 107 Q176 39 200 32 Q221 25 235 20 L235 12 Q235 0 216 0 Q167 1 108 85 L103 89 Q108 89 82 48 Q70 34 30 7 L21 7 L21 18 Q80 73 99 132 Q108 161 122 169 Z" /><glyph glyph-name="uni4ECA" unicode="&#x4eca;" d="M110 177 L117 177 Q132 155 143 146 Q192 100 212 101 Q238 94 238 87 L238 78 Q229 78 221 75 Q190 69 121 134 Q112 145 114 145 Q62 81 32 63 Q21 63 21 77 Q50 95 110 177 ZM109 114 Q131 104 131 97 L131 82 Q110 82 98 102 L98 106 Q98 114 109 114 ZM146 73 L153 73 Q159 73 169 58 L169 52 Q169 47 109 -26 L95 -34 L93 -18 Q100 -3 129 42 L131 47 Q131 46 131 46 L127 46 Q103 40 96 40 L82 40 Q80 40 71.5 40 Q63 40 63 50 L63 61 Q87 61 146 73 Z" /><glyph glyph-name="uni4EE5" unicode="&#x4ee5;" d="M147 173 L161 173 Q169 169 169 164 L169 151 Q169 97 131 24 Q114 7 94 -8 L84 -8 L84 3 Q123 38 137 101 Q147 155 147 173 ZM39 143 L45 143 Q60 143 59 79 L57 51 L75 70 L86 70 Q86 49 51 -4 Q40 -4 27 13 Q36 28 36 84 Q36 98 36 130 Q39 137 39 143 ZM76 125 L83 125 Q120 114 120 97 Q120 88 110 88 L107 88 Q90 88 76 115 L76 125 ZM167 62 L176 57 Q216 35 233 18 L233 7 Q233 -8 224 -8 Q216 -8 171 36 Q154 47 154 62 L167 62 Z" /><glyph glyph-name="uni4F4D" unicode="&#x4f4d;" d="M78 170 Q83 170 92 157 Q92 148 68 118 Q66 115 63 113 Q69 109 69 86 L69 67 Q72 20 66 -16 L54 -16 Q47 -8 45 -6 Q45 48 45 73 L45 90 Q43 88 19 73 L19 86 Q65 151 73 170 L78 170 ZM121 171 L127 171 Q147 168 160 147 L178 150 Q200 146 200 135 L200 133 Q200 124 188 116 L176 121 Q134 108 98 108 L93 119 L93 131 Q135 131 132 137 Q132 148 121 160 L121 171 ZM174 109 L180 109 Q192 109 192 92 Q191 79 170 42 L166 33 Q236 36 236 17 Q236 6 225 0 L216 0 Q183 7 180 7 Q177 7 160 7 L141 7 Q131 7 97 -2 Q73 0 73 12 Q73 21 87 23 Q103 24 106 24 Q144 30 152 56 L174 109 ZM105 94 Q129 94 138 45 Q137 39 137 31 L122 31 Q117 36 111 36 Q111 61 105 94 Z" /><glyph glyph-name="uni4F53" unicode="&#x4f53;" d="M131 207 L144 201 Q155 196 153 150 L188 155 Q192 153 199 153 L199 141 Q199 130 156 127 Q153 127 153 125 Q154 118 205 66 Q219 56 239 46 L257 39 Q237 28 230 29 Q214 16 157 84 L151 94 L151 54 Q160 56 183 60 L189 46 L189 44 Q189 32 152 29 Q153 5 151 -20 Q148 -24 148 -29 L138 -29 Q134 -29 126 -13 L127 19 L127 25 Q114 22 102 30 L94 37 L94 45 Q128 50 129 51 Q129 84 129 88 L130 89 Q87 27 75 21 L67 21 L67 33 Q96 75 123 121 L101 121 Q87 127 87 133 L87 142 Q131 144 131 146 L131 150 Q131 191 131 207 ZM69 176 L74 176 Q82 176 86 160 L86 153 Q79 139 63 118 Q65 109 64 91 L64 3 L61 -16 L50 -16 Q43 -16 39 1 Q39 5 41 37 L41 60 Q41 78 41 108 L46 105 Q16 83 7 83 L7 92 Q53 142 69 176 Z" /><glyph glyph-name="uni4F60" unicode="&#x4f60;" d="M128 190 Q137 190 139 168 Q183 165 194 173 Q209 171 217 166 L217 158 Q217 143 179 120 L171 120 L171 130 L183 147 L182 146 L167 145 Q134 142 130 133 L110 112 L104 106 L94 111 Q117 154 118 190 L128 190 ZM83 186 L95 160 L66 127 L71 110 L70 14 L70 -2 Q59 -2 47 5 L48 111 Q48 113 48 112 Q31 96 13 96 Q71 170 83 186 ZM141 132 L151 132 Q160 132 167 80 Q167 71 168 51 L168 27 Q169 13 165 -6 L165 -13 L151 -13 Q129 2 129 25 L143 21 Q144 53 143 80 Q141 97 141 132 ZM97 83 L116 83 L116 72 Q116 50 96 34 L81 34 L97 83 ZM192 77 Q220 77 237 55 Q236 46 236 36 L225 36 Q201 50 192 66 L192 77 Z" /><glyph glyph-name="uni4F7F" unicode="&#x4f7f;" d="M145 202 L155 202 Q157 167 177 173 L185 152 L158 149 L158 142 L164 143 Q174 147 176 143 Q210 137 210 124 L210 119 Q182 75 165 75 L152 75 Q149 56 140 41 Q154 15 216 0 Q249 -6 249 -14 L249 -21 Q227 -27 225 -27 Q181 -27 122 24 L129 24 Q87 -13 57 -13 L54 0 Q104 22 108 40 Q96 53 76 72 L85 80 L85 85 Q85 108 76 124 Q80 131 80 136 L96 135 L106 135 Q131 136 131 139 L131 142 Q133 148 104 140 L96 151 Q96 163 137 169 L139 172 L139 187 L132 198 L145 202 ZM59 168 Q76 158 76 152 L76 146 Q76 142 57 122 Q60 93 60 78 L60 46 Q60 -17 48 -17 L43 -17 L33 -7 L35 21 Q35 38 36 44.5 Q37 51 37 86 L37 94 L35 106 L40 106 L24 93 L14 93 L14 102 Q45 135 59 168 ZM157 116 L157 105 Q157 103 159 102 Q174 105 178 114 L178 120 Q178 120 178 119 L159 119 Q159 119 157 116 ZM106 112 L106 102 L108 93 Q131 95 131 106 L131 116 Q131 116 131 115 L129 115 Q118 115 106 112 ZM109 66 Q109 63 117 60 Q124 62 124 73 L117 73 Q109 73 109 66 Z" /><glyph glyph-name="uni505A" unicode="&#x505a;" d="M99 189 Q113 189 113 162 L113 144 Q113 144 139 142 L139 134 Q139 125 112 120 L111 119 L111 102 L132 102 Q139 105 153 154 L153 178 L162 178 Q170 178 177 162 Q172 146 172 146 L170 140 Q184 142 211 149 L221 149 L220 129 Q203 125 203 118 Q203 107 186 53 Q186 40 222 16 Q252 9 252 -2 Q252 -11 242 -11 L239 -11 Q207 -11 169 36 L176 36 Q158 13 108 -10 L108 5 Q141 28 157 52 Q139 76 139 88 L150 88 Q164 74 169 74 Q176 88 176 108 L176 120 Q176 121 176 120 Q158 120 134 71 Q134 32 90 32 Q85 32 76 19 Q66 22 59 36 L59 57 Q57 84 57 98 L79 98 L85 99 L85 118 Q85 118 84 118 L68 114 L64 124 L64 134 Q86 134 92 145 L92 167 Q92 169 91 185 L99 189 ZM57 173 Q65 170 71 170 L71 155 Q46 125 46 121 Q52 93 52 82 Q54 13 50 -6 Q40 -6 28 1 Q28 35 28 80 L28 96 Q28 107 34 107 L19 97 L2 97 L57 173 ZM80 73 Q80 55 85 55 Q114 55 114 78 L83 78 Q82 78 80 73 Z" /><glyph glyph-name="uni514B" unicode="&#x514b;" d="M99 202 L109 202 Q130 198 126 174 L125 157 Q124 159 125 159 L161 166 Q176 153 176 149 L176 139 L137 138 Q124 138 123 135 L123 121 L144 121 Q162 121 167 105 L167 94 Q132 57 135 38 Q138 7 159.5 5.5 Q181 4 185 4 Q208 9 206 7 L207 25 L210 42 L221 42 Q228 31 233 -12 Q219 -20 178 -22 Q109 -25 109 41 Q113 56 113 61 L118 59 Q108 55 89 28 Q48 -14 19 -14 Q74 37 74 51 Q62 57 62 109 Q70 123 80 113 Q99 115 99 114 L99 126 L98 131 L73 130 Q60 130 60 142 L60 151 Q101 153 101 153 L102 181 L99 202 ZM88 93 Q89 79 88 79 L100 79 Q130 79 136 97 Q88 97 88 93 Z" /><glyph glyph-name="uni5165" unicode="&#x5165;" d="M73 168 L89 168 Q145 109 156 85 Q201 27 238 24 L238 15 Q238 4 228 4 L220 4 Q182 0 136 75 Q105 115 120 101 Q92 36 36 6 L24 6 L24 17 Q77 58 98 108 L101 116 L101 123 Q101 124 73 158 L73 168 Z" /><glyph glyph-name="uni5178" unicode="&#x5178;" d="M130 198 L142 198 Q158 198 156 153 L160 153 Q202 155 199 130 Q187 93 187 80 L187 78 Q233 81 233 67 L233 57 Q229 57 229 54 Q157 54 153 54 Q148 54 92 45.5 Q36 37 31 37 Q25 39 19 39 L19 46 Q19 55 62 63 Q62 63 67 66 Q62 121 50 133 Q84 146 90 146 L90 148 Q90 151 84 176 L98 176 L113 151 L132 151 Q133 151 133 151 L133 176 Q133 181 130 198 ZM116 130 L118 115 Q118 114 119 114 L121 113 L133 116 L133 129 L120 130 L116 130 Q116 130 116 130 ZM154 130 L154 117 L172 117 Q171 117 174 126 L174 130 Q174 130 173 130 L154 130 ZM79 125 Q79 107 94 108 Q94 108 96 108 L94 125 Q94 126 94 125 L80 125 Q79 125 79 125 ZM152 94 L154 79 Q154 78 156 77 L160 77 Q161 77 163 82 L165 93 Q163 93 163 93 Q152 94 152 94 ZM119 90 L121 87 L123 77 L132 77 Q133 77 133 76 L133 82 L130 90 L121 90 Q119 90 119 90 ZM89 82 L89 72 Q90 69 77 69 L99 73 Q99 73 99 72 Q98 85 97 86 L90 86 Q90 86 89 82 ZM95 46 L103 34 L105 18 Q73 -18 53 -18 L37 -18 Q68 8 95 46 ZM144 37 L154 37 Q191 22 207 -5 L195 -19 Q155 12 144 23 L144 37 Z" /><glyph glyph-name="uni5199" unicode="&#x5199;" d="M180 194 Q216 189 216 178 L216 171 Q180 138 163 138 L150 138 L180 171 Q181 172 181 170 L159 173 Q68 172 69 163 L68 142 L71 122 Q68 122 68 118 Q48 118 41 179 Q108 200 180 194 ZM82 146 L100 146 L102 134 L160 140 L168 130 Q168 119 160 117 L141 115 Q98 111 97 102 L98 96 L156 106 L175 106 Q199 106 212 78 Q197 4 179 -17 Q175 -25 166 -26 Q103 -8 103 7 Q105 7 105 10 Q149 4 158 4 L160 4 Q171 8 181 57 L181 71 Q181 79 178 80 L150 80 Q91 74 85 62 Q72 65 63 65 Q78 116 78 124 L82 146 ZM162 61 Q170 57 177 57 L177 37 L171 37 L65 26 L56 26 L39 29 L39 35 Q39 40 52 47 L59 45 Q106 53 162 61 Z" /><glyph glyph-name="uni51FB" unicode="&#x51fb;" d="M109 200 L121 200 Q137 187 136 161 L135 154 L152 154 Q157 154 162 144 L162 137 L138 123 Q138 118 132 107 Q167 109 201 111 Q230 104 230 97 L228 84 Q225 84 225 81 L207 84 L165 85 Q134 86 135 80 Q135 32 135 32 Q138 32 154 31 Q168 31 175 32 Q183 69 193 69 L204 67 Q204 61 206 57 Q205 40 182 -20 L175 -20 L152 -15 Q163 -4 163 2 Q161 5 153 4 Q119 8 68 -12 Q49 -11 49 42 L45 42 Q49 53 49 59 L58 59 Q74 59 77 20 Q108 23 108 26 L110 77 Q110 78 108 78 Q44 70 29 70 L18 91 Q113 99 111 105 L111 120 L107 123 L89 123 Q75 130 75 136 L75 145 L86 145 Q112 143 112 149 L112 166 Q113 169 109 200 Z" /><glyph glyph-name="uni5207" unicode="&#x5207;" d="M53 181 L61 181 Q75 181 74 134 Q76 134 86 135 Q99 131 99 124 L99 114 Q71 105 71 97 Q70 78 70 72 L59 63 L92 100 L101 100 L101 93 Q101 86 77 40 Q70 24 60 24 Q54 24 47 38 L47 43 Q49 97 49 99 Q49 99 28 102 L28 114 L51 127 Q52 135 52 140 Q52 146 53 181 ZM206 169 Q224 160 230 151 Q227 121 221 80 Q215 37 198 -5 L188 -5 Q182 -3 152 36 L152 49 L161 49 Q182 34 185 34 Q201 97 201 139 L193 139 Q176 137 175 132 Q164 48 93 6 L84 6 L84 15 Q147 79 148 134 L148 131 L131 131 Q117 131 112 141 L112 152 Q171 156 206 169 Z" /><glyph glyph-name="uni52A0" unicode="&#x52a0;" d="M77 194 L87 194 Q93 194 102 176 Q101 153 97 137 Q114 142 122 142 Q132 142 142 127 Q126 13 98 -18 Q63 14 63 20 L63 31 Q91 17 91 18 Q112 92 119 126 L119 113 L113 113 Q99 110 91 107 Q70 38 28 -1 L19 -1 L19 8 Q55 70 61 101 L62 105 Q42 108 42 118 Q42 126 72 132 Q77 154 77 172 L77 194 ZM217 133 Q239 126 239 108 Q239 92 224 59 L223 57 Q228 57 235 42 L235 28 Q200 30 199 30 Q191 30 170 25 Q151 21 147 40 L143 73 Q142 112 142 116 Q160 124 217 133 ZM167 96 Q170 52 173 52 Q205 52 211 105 L211 107 Q211 107 209 107 Q167 103 167 96 Z" /><glyph glyph-name="uni52A8" unicode="&#x52a8;" d="M182 194 L193 194 L201 180 L189 135 Q209 136 215 136 Q235 134 240 112 Q228 44 204 -21 L196 -25 Q165 -9 153 15 Q158 15 158 21 Q185 8 187 8 Q210 74 212 103 L212 109 L183 108 Q176 81 162 52 Q154 27 112 -14 L102 -14 L102 -6 L111 10 Q103 29 102 29 Q89 29 30 11 L30 24 Q46 70 60 93 L60 84 L53 84 L22 83 L18 91 L18 104 L25 104 L91 115 L116 118 Q121 118 133 105 Q133 95 114 92 Q88 91 82 80 Q61 48 61 43 Q48 43 67 47 Q94 50 95 67 L107 67 Q115 62 130 36 L129 37 Q150 79 159 109 Q159 109 131 112 L140 125 Q140 133 165 135 Q174 161 182 194 ZM63 151 L75 151 Q97 151 97 139 L97 127 L84 125 Q59 125 51 149 L63 151 Z" /><glyph glyph-name="uni539A" unicode="&#x539a;" d="M173 203 Q194 199 194 191 L194 180 L91 173 Q88 174 85 174 L85 161 Q85 151 80.5 99.5 Q76 48 55 27 Q38 1 29 1 L22 1 L22 9 Q58 60 62 153 L62 175 Q62 198 126 198 Q140 197 173 203 ZM162 178 L186 178 Q201 171 201 160 Q193 138 183 104 L118 96 L116 96 Q102 96 97 151 Q95 151 95 161 Q104 166 162 178 ZM121 153 Q119 149 124 146 L129 146 Q130 146 162 152 L171 147 L172 149 Q174 156 172 156 L159 156 Q121 153 121 153 ZM125 125 L123 117 Q133 117 167 125 L167 129 Q125 127 125 125 ZM175 101 L177 93 L177 86 Q153 67 153 63 L156 62 L165 62 Q168 62 203 63 Q225 65 233 50 L233 47 Q233 38 223 38 L189 40 Q188 40 165 38 Q168 14 168 2 L155 -38 L147 -38 Q105 -12 105 -6 L105 2 L114 2 Q139 -7 139 -9 Q143 10 143 20 L143 29 Q143 36 140 36 Q109 32 102 32 L82 32 Q73 32 73 45 Q135 53 135 57 Q135 61 140 90 L140 74 Q134 74 120 73 Q105 76 105 83 L105 89 Q156 101 175 101 Z" /><glyph glyph-name="uni53BB" unicode="&#x53bb;" d="M120 198 Q137 198 132 159 L132 138 L121 138 Q146 145 164 148 Q173 146 181 131 L176 122 L157 121 L143 119 Q132 119 132 117 L132 89 Q133 86 115 86 Q194 96 218 96 Q230 83 230 66 Q227 66 227 60 Q211 68 192 68 L148 64 Q130 64 109 31 L101 17 Q103 17 138 22 Q157 25 157 25 L153 45 L166 45 Q185 27 204 -5 L190 -26 Q181 -26 164 1 Q111 -8 104 -9 Q97 -10 74 -14 Q61 -8 61 -2 L61 4 Q99 47 99 47 L101 59 L39 50 L26 50 L26 71 Q106 81 105 85 Q108 116 110 114 Q91 107 75 121 L75 130 Q97 139 109 139 L110 179 L110 190 Q114 198 120 198 Z" /><glyph glyph-name="uni53C2" unicode="&#x53c2;" d="M96 202 L105 202 Q111 202 117 191 L117 182 Q101 166 98 147 L98 161 L86 161 L130 169 L130 163 L124 175 L124 177 Q126 185 136 185 Q166 177 165 158 L165 151 Q121 151 121 139 L121 137 L107 137 L175 148 L184 136 Q184 129 168 121 Q163 125 162 125 L152 123 Q151 109 214 82 Q224 80 240 64 L240 54 L229 54 Q194 54 132 111 Q124 116 119 116 L113 116 Q52 51 16 38 L16 50 Q73 102 74 107 L72 107 L58 105 Q54 107 48 107 L48 125 Q96 129 96 129 L98 142 Q96 140 72 134 Q67 146 67 154 Q96 180 96 202 ZM117 111 Q127 111 132 100 L132 92 Q117 75 91 60 L81 60 L81 71 Q99 86 117 111 ZM131 84 L139 84 Q145 78 145 73 L145 67 Q95 23 78 23 L78 32 Q112 66 131 84 ZM145 60 L150 60 Q156 60 163 46 L163 40 Q99 -32 63 -36 L63 -22 Q101 0 145 60 Z" /><glyph glyph-name="uni53D1" unicode="&#x53d1;" d="M112 198 L122 198 Q132 195 132 180 Q132 171 126 137 L154 140 Q158 140 162 143 Q182 134 182 127 L182 118 Q111 118 111 118 L109 96 Q117 96 160 102 Q165 102 178 88 L145 36 L145 34 Q153 20 207 5 Q230 4 230 -9 L230 -17 L212 -21 Q176 -21 126 15 Q84 -19 52 -16 Q46 -14 40 -14 L40 -1 Q94 13 107 31 L108 33 Q93 49 85 55 Q44 20 40 20 L13 18 Q69 67 88 108 Q88 108 88 108 Q75 110 75 106 Q65 108 57 108 L57 117 L78 171 Q94 164 97 157 L97 150 L90 130 L94 130 Q110 141 110 185 L112 198 ZM151 180 L162 180 Q193 170 193 155 Q193 145 183 145 Q151 159 151 170 L151 180 ZM101 71 Q116 52 127 52 Q133 52 146 87 L146 78 L141 78 Q101 73 101 71 Z" /><glyph glyph-name="uni53E4" unicode="&#x53e4;" d="M111 191 L123 191 Q138 175 138 153 L136 143 L136 135 Q136 134 139 132 Q189 137 199 137 Q224 135 224 113 L216 109 Q186 111 179 111 Q134 111 134 107 Q133 88 133 77 Q135 77 135 75 L177 76 Q200 76 211 52 L211 43 Q175 13 175 10 Q177 10 185 -4 L185 -8 L179 -18 Q156 -12 140 -11 Q92 -16 92 -23 Q72 -23 56 61 Q92 69 107 72 L108 103 Q102 104 87 101 Q54 99 44 99 L31 105 L31 110 Q31 125 111 130 L112 132 L112 161 Q112 173 111 181 L111 191 ZM86 42 Q92 13 96 13 Q157 16 157 20 L173 47 L173 50 Q173 50 171 51 Q86 44 86 42 Z" /><glyph glyph-name="uni53E5" unicode="&#x53e5;" d="M80 198 L92 198 Q99 198 106 185 Q106 181 99 157 Q154 163 163 167 Q212 167 225 141 Q202 21 182 -21 L174 -25 Q114 4 108 22 Q113 22 113 25 Q154 16 161 16 L165 16 Q171 16 198 137 Q198 141 180 141 Q92 139 79 117 L73 108 L76 107 Q102 118 126 118 Q146 119 163 97 Q142 69 137 41 Q94 45 82 28 Q68 32 61 54 L64 64 L62 90 Q61 87 40 71 L31 71 L31 82 Q68 134 80 180 L80 198 ZM85 84 L85 69 Q85 69 85 69 Q128 66 126 90 L126 92 L112 92 Q85 86 85 84 Z" /><glyph glyph-name="uni53EA" unicode="&#x53ea;" d="M152 179 Q187 167 187 156 Q168 107 168 83 L158 78 L136 78 Q99 74 99 67 L99 60 Q73 60 73 80 L73 83 L69 155 Q71 166 88 170 L101 169 Q152 171 152 179 ZM91 146 L93 149 Q97 95 99 95 L112 97 Q140 102 146 104 Q152 132 157 148 Q156 149 156 150 Q105 146 91 146 ZM83 63 Q93 58 98 58 L103 43 Q69 -2 31 -9 L31 1 Q62 27 82 58 Q83 58 83 63 ZM150 60 Q189 48 223 13 L225 -1 Q225 -10 215 -10 Q205 -10 150 47 L150 60 Z" /><glyph glyph-name="uni53EF" unicode="&#x53ef;" d="M155 174 L173 176 L213 178 Q221 178 224 166 L224 161 L220 152 L181 152 Q183 130 183 128 Q183 30 183 10 L183 8 Q183 -27 168 -27 Q139 -14 111 8 L111 17 L123 17 Q153 9 160 7 L158 7 L159 124 Q160 151 157 151 L152 151 L65 138 Q28 141 28 152 Q30 162 38 162 L55 162 Q94 162 155 174 ZM123 128 Q139 123 139 113 Q131 53 93 53 Q81 53 81 41 L69 41 Q58 41 55 103 Q54 103 54 113 Q70 124 123 128 ZM79 103 Q78 103 78 103 Q78 92 80 75 L85 75 Q113 75 112 105 Q91 103 79 103 Z" /><glyph glyph-name="uni53F3" unicode="&#x53f3;" d="M114 200 L127 200 Q136 196 136 191 L136 181 Q131 141 131 137 Q129 136 138 138 L186 143 Q201 143 207 130 L207 127 L202 118 L190 117 Q119 113 121 106 Q116 96 106 75 L99 76 L122 80 Q123 80 154 84 L189 85 Q205 85 218 63 Q199 29 199 27 Q199 25 201 8 Q201 -3 120 -6 Q114 -18 108 -18 L104 -18 Q91 -18 84 33 L81 39 Q49 3 43 3 L30 3 L30 13 Q83 68 95 109 L81 110 Q65 110 62 121 L62 125 L66 135 L80 131 Q99 131 107 134 Q112 158 114 200 ZM108 53 L96 55 L96 65 Q111 18 112 18 Q125 18 149.5 21 Q174 24 174 28 Q184 51 184 62 Q194 58 166 61 Q141 59 108 53 Z" /><glyph glyph-name="uni5403" unicode="&#x5403;" d="M114 189 L129 189 Q134 189 144 170 Q138 159 138 159 L153 160 Q161 160 170 165 L181 165 Q187 165 194 155 L194 151 Q194 141 133 131 Q129 125 122 112 L119 108 Q136 110 167 123 L187 109 Q125 46 129 23 Q133 13 141 13 Q183 15 201 15 Q213 15 213 24 Q213 28 217 47 L217 57 Q233 57 240 5 Q240 -13 170 -13 L148 -13 Q105 -15 103 21 Q103 49 141 95 L141 92 L161 92 L109 86 Q109 93 108 93 Q87 93 87 47 Q67 42 53 42 L45 42 L29 25 L17 40 L17 51 Q17 72 12 103 Q22 119 78 124 Q97 118 97 105 Q103 107 117 173 L114 189 ZM34 92 Q39 66 39 66 L57 66 Q72 74 72 102 Q72 104 88 104 Q34 97 34 92 Z" /><glyph glyph-name="uni540E" unicode="&#x540e;" d="M167 191 L170 191 Q175 191 194 168 Q121 146 107 138 Q115 117 113 112 Q165 124 215 124 L225 110 Q225 104 213 97 Q198 98 191 98 Q106 88 105 82 Q61 -7 31 -7 L31 2 Q81 74 82 99 Q85 130 68 130 L68 141 Q79 150 112 165 L167 191 ZM184 79 Q202 79 223 59 L223 50 Q199 13 199 12 L204 6 Q204 -7 194 -7 L175 -7 Q155 -7 122 -14 L118 -14 Q107 -14 98 45 L93 59 Q119 73 184 79 ZM122 46 Q124 15 129 15 L140 15 Q193 18 187 51 L185 52 L183 52 Q122 52 122 46 Z" /><glyph glyph-name="uni5427" unicode="&#x5427;" d="M182 171 Q201 164 207 149 Q186 84 180 79 Q117 79 117 61 L118 52 Q119 22 167 22 L185 21 Q213 20 216 23 L216 25 Q216 32 217 57 L226 57 Q242 37 243 6 L243 -1 L196 -5 L171 -5 Q102 -7 97 46 L96 56 Q98 97 101 127 L101 129 Q101 133 94 142 L94 154 Q105 154 182 171 ZM158 145 L159 103 L165 103 Q173 103 182 161 Q182 161 180 147 L167 147 Q162 147 158 145 ZM122 133 Q122 127 123 115 L123 94 L130 94 L135 96 L141 162 Q141 139 138 139 Q124 139 122 133 ZM75 138 Q89 138 92 116 Q84 65 71 65 Q47 65 36 48 L30 48 Q25 48 18 60 L22 66 L22 74 Q22 80 14 121 Q35 129 75 138 ZM41 109 Q42 78 24 78 Q69 83 69 113 L66 113 Q39 111 41 109 Z" /><glyph glyph-name="uni548C" unicode="&#x548c;" d="M94 187 Q109 180 109 174 L109 170 Q109 163 69 139 L55 139 L55 148 L94 187 ZM84 151 L96 151 L107 135 Q111 135 132 139 L143 128 L143 118 Q108 114 108 111 L109 96 Q109 96 143 73 L147 67 Q147 56 134 56 L113 64 L105 67 L105 36 Q105 34 106 26 Q103 -19 93 -19 L91 -19 Q84 -19 77 -6 Q81 11 81 23 L81 69 L82 75 L89 75 Q67 50 41 29 L33 29 L33 38 Q74 89 74 100 L74 104 Q75 104 29 91 L25 100 L25 108 Q49 120 83 128 L86 150 Q86 135 76 135 Q84 146 84 151 ZM212 136 Q222 135 234 113 Q221 89 221 69 L220 45 L207 45 Q172 48 162 30 Q150 44 143 52 L146 58 L146 65 Q146 87 142 111 Q142 131 203 135 L212 136 ZM166 105 Q166 70 169 68 Q185 72 194 70 Q205 81 206 105 L206 111 Q189 113 166 105 Z" /><glyph glyph-name="uni559C" unicode="&#x559c;" d="M131 207 Q143 194 143 186 L143 174 Q175 176 189 176 L198 162 Q186 153 180 153 L146 153 Q145 153 143 149 L143 145 Q143 143 143 143 Q143 143 143 147 Q161 144 161 129 L161 124 L100 116 Q84 117 84 128 L84 134 Q117 137 117 145 L117 148 Q117 149 141 149 L97 145 Q76 146 76 157 L76 162 L96 166 L120 166 Q120 165 120 165 L120 180 L117 195 Q123 207 131 207 ZM165 122 Q185 117 185 109 L185 103 Q161 85 161 77 L163 68 Q163 59 153 53 Q155 52 186 52 L213 52 Q233 52 238 36 L238 33 L234 24 L131 30 Q61 20 48 20 Q28 20 26 31 L26 39 Q30 39 30 41 L39 39 Q91 44 91 44 L91 47 L80 114 Q84 114 84 117 L100 114 Q146 122 165 122 ZM105 91 L105 87 Q105 85 107 84 Q151 84 153 104 L161 101 Q123 101 105 91 ZM109 63 Q111 52 112 52 L115 52 Q136 54 136 54 L138 68 Q133 68 109 63 ZM155 30 Q189 25 189 13 Q169 -13 169 -15 L173 -31 L156 -34 L100 -34 Q85 -34 81 -21 Q81 -20 82 -10 Q78 -5 78 21 L155 30 ZM109 4 Q104 6 99 6 Q100 -11 102 -11 L119 -11 Q124 -11 128 -10 Q132 -11 132 -11 Q157 -8 157 -8 L159 7 L156 7 Q120 7 109 4 Z" /><glyph glyph-name="uni559D" unicode="&#x559d;" d="M174 201 Q179 201 188 192 L187 184 L187 176 Q187 119 162 119 Q139 117 139 105 Q196 115 217 115 Q231 115 239 99 L239 89 Q220 7 199 -29 L191 -29 L153 -6 L153 7 Q160 7 185 2 L188 2 Q196 -1 214 91 Q211 93 210 93 Q159 93 159 71 L169 71 Q184 71 191 59 L191 46 L182 46 Q170 46 151 52 Q147 47 133 36 Q131 41 134 41 L138 41 L180 44 L187 36 Q187 23 127 15 Q127 9 105 9 Q100 24 95 53 L101 53 Q91 39 87 39 L77 39 L77 56 Q92 56 113 104 L113 108 L109 113 L109 152 Q109 153 103 181 L122 181 Q129 161 129 161 Q164 170 164 171 Q166 175 166 175 Q166 175 166 175 L164 179 Q145 179 117 173 L113 183 L113 185 Q113 190 125 198 L130 195 L134 195 Q144 195 174 201 ZM130 140 L130 133 Q130 131 120 131 Q160 141 160 145 L160 149 L186 149 Q131 144 130 140 ZM77 124 Q84 124 89 114 Q89 46 43 46 Q43 39 32 39 Q19 45 19 51 L19 75 Q19 76 14 102 Q22 120 28 120 L52 120 Q54 120 77 124 ZM34 98 L36 101 Q36 82 41 68 Q63 68 63 94 L63 102 L66 100 Q37 98 34 98 ZM113 60 Q117 44 116 44 Q139 68 139 80 L139 82 Q124 81 113 60 Z" /><glyph glyph-name="uni5723" unicode="&#x5723;" d="M160 192 Q163 185 167 185 Q163 165 133 129 Q144 112 243 90 L243 82 Q243 72 233 72 Q194 74 155 87 L125 104 L120 107 Q93 77 39 60 Q39 58 21 58 L21 71 Q71 94 97 118 Q85 128 64 149 L64 163 L78 163 L111 139 L112 140 Q129 156 129 165 L129 167 L144 167 Q96 160 95 160 Q75 163 75 171 L75 180 Q89 180 160 192 ZM106 96 L116 96 Q128 96 129 75 L139 75 Q160 75 162 62 L162 52 Q127 47 127 47 L129 13 Q129 13 195 14 L206 2 L206 -12 Q202 -12 202 -16 Q190 -12 189 -12 Q109 -12 98 -12 Q90 -12 48 -17 Q35 -13 35 -5 Q35 5 105 12 L106 13 L105 43 Q96 43 84 41 Q69 45 69 52 L69 62 L84 65 L104 68 Q105 68 106 71 L106 74 Q106 78 104 83 Q106 89 106 96 Z" /><glyph glyph-name="uni5728" unicode="&#x5728;" d="M102 199 L115 199 Q122 199 131 186 Q131 174 124 146 L130 146 Q136 146 177 154 Q194 149 194 138 L194 130 Q120 125 118 122 Q89 69 89 62 Q89 58 91 36 Q92 -3 88 -28 L80 -28 Q64 -22 61 -13 Q66 8 66 21 Q66 24 66 40 L62 36 Q37 11 29 11 L13 11 Q77 83 86 114 Q57 116 56 136 L69 138 Q98 139 102 160 L103 169 L103 174 L102 199 ZM139 111 L148 111 Q162 111 163 80 L177 80 L198 77 L198 68 Q198 56 164 54 L164 48 Q164 17 164 17 Q173 19 188 19 Q219 26 229 10 L236 -7 L188 -7 L101 -13 Q87 -9 87 0 Q89 11 97 11 L104 11 Q139 11 139 15 L139 48 Q139 48 138 49 L125 46 Q108 51 108 60 L108 68 Q139 71 139 74 L139 111 Z" /><glyph glyph-name="uni586B" unicode="&#x586b;" d="M137 209 L145 209 Q152 209 159 197 Q153 158 153 173 Q156 173 181 177 Q198 172 198 165 Q198 155 151 151 Q148 147 149 145 L176 151 L185 136 L185 47 Q185 44 187 45 L219 45 Q238 41 240 30 L240 19 Q231 19 227 19 L210 19 Q188 21 190 23 L194 18 Q219 -1 220 -15 L221 -22 Q220 -29 211 -38 Q171 2 166 16 L152 16 Q127 16 127 16 Q125 13 130 13 Q119 -17 78 -35 L78 -24 Q101 1 104 10 Q104 10 104 10 L52 2 L52 20 Q107 30 107 30 Q107 36 106 51 L107 122 Q107 131 128 141 L129 149 L127 149 L91 145 L96 156 Q92 165 134 172 L135 179 L137 209 ZM40 154 L48 154 Q58 154 63 112 Q85 112 85 101 Q85 92 65 88 L62 85 L62 69 Q62 69 61 69 L83 74 L83 60 Q52 29 29 16 L21 16 Q11 16 11 28 L37 50 Q40 62 40 68 L40 74 Q40 82 20 90 L20 100 Q40 103 40 103 Q40 118 40 154 ZM128 117 L126 115 Q126 116 131 116 Q164 121 164 121 Q161 125 161 126 L159 126 Q128 119 128 117 ZM128 97 Q126 86 133 90 Q144 92 157 92 Q165 90 165 83 L165 81 Q165 74 129 64 Q127 62 132 63 Q142 66 153 69 L163 69 Q163 71 163 87 Q163 102 163 101 L160 101 Q128 97 128 97 ZM128 39 L128 36 Q129 33 127 35 Q164 38 164 42 L164 48 Q164 48 164 47 Q128 39 128 39 Z" /><glyph glyph-name="uni58EB" unicode="&#x58eb;" d="M112 161 Q112 164 106 189 L123 189 Q137 160 137 138 L137 117 Q137 118 143 116 Q162 116 190 118.5 Q218 121 218 93 L211 93 Q190 94 178 94 L156 94 Q131 94 134 62 L132 36 L183 40 Q192 40 201 26 L201 10 L177 13 L146 13 Q104 7 100 7 L91 7 Q64 7 63 20 Q63 30 110 35 Q112 52 112 83 L107 87 Q70 78 59 78 Q36 81 36 91 L36 102 Q49 102 53 98 Q89 98 112 115 L112 161 Z" /><glyph glyph-name="uni58F0" unicode="&#x58f0;" d="M130 200 L144 200 Q153 200 158 167 L138 167 Q183 172 183 179 Q206 170 206 156 L195 151 L164 151 Q156 151 154 146 L154 140 Q152 144 152 144 Q156 146 161 147 Q177 142 177 134 L177 124 Q145 120 104 109 L100 120 L100 124 Q100 132 127 138 Q129 142 129 146 Q104 141 89 137 Q74 141 74 155 L132 167 L133 168 Q133 185 130 200 ZM184 125 Q205 119 207 109 L207 105 L195 81 Q193 73 198 73 Q198 50 110 44 Q110 41 105 21 Q99 -7 63 -40 L45 -40 Q85 6 85 71 L85 86 Q85 108 133 115 Q170 120 184 125 ZM154 76 L156 75 L160 75 Q177 75 178 102 L178 100 Q158 102 158 93 Q154 53 154 76 ZM110 89 L108 65 Q108 66 110 66 Q135 66 135 77 Q137 91 133 94 Q110 89 110 89 Z" /><glyph glyph-name="uni590D" unicode="&#x590d;" d="M87 203 L101 203 Q110 187 111 187 Q117 187 163 196 Q169 194 178 194 L178 173 L105 162 L99 162 Q65 114 40 114 L40 125 Q87 177 87 203 ZM146 166 L154 166 L171 162 L171 123 Q166 86 166 80 L171 75 L171 70 Q171 58 134 18 L134 23 Q180 -2 212 -5 Q219 -7 230 -10 L230 -19 Q230 -29 220 -29 L206 -29 Q179 -32 120 5 Q68 -21 47 -21 L34 -23 L26 -23 L26 -10 Q93 10 100 21 Q100 27 77 35 Q54 12 27 12 Q82 68 84 99 L84 145 Q84 160 146 166 ZM110 141 L108 138 L108 136 Q108 135 111 135 Q132 139 141 139 L151 139 L151 129 Q151 119 111 109 L111 103 Q113 105 146 110 L145 109 Q145 120 147 131 Q145 139 145 145 L149 143 Q120 141 110 141 ZM99 69 Q99 69 99 69 Q138 80 143 80 L143 83 Q143 84 140 84 Q99 78 99 69 ZM95 47 L95 49 Q95 52 116 38 L118 38 Q127 43 134 57 Q134 57 134 57 Q107 47 95 47 Z" /><glyph glyph-name="uni591C" unicode="&#x591c;" d="M103 194 L118 194 Q124 194 133 179 L133 166 L119 166 Q112 166 103 179 L103 194 ZM166 172 Q193 171 197 152 Q186 147 182 147 Q172 148 167 148 Q152 148 90 140 Q52 139 50 151 L50 157 Q54 163 61 163 L68 160 Q135 166 166 172 ZM133 152 L146 152 Q146 146 149 146 Q140 123 140 117 Q141 115 131 115 Q172 127 190 127 Q201 123 198 112 Q184 73 154 37 Q174 16 226 0 L236 -6 Q236 -19 214 -22 Q190 -19 132 21 L139 21 Q94 -15 83 -15 L74 -15 L74 -2 Q119 29 119 34 Q119 36 81 69 Q104 94 133 152 ZM87 141 L104 141 L104 131 Q104 121 72 84 L78 60 Q76 -8 68 -20 L63 -20 Q53 -20 53 -9 Q55 37 54 66 Q32 45 20 45 L20 56 Q48 87 87 141 ZM109 70 Q109 66 133 50 Q146 50 168 108 L168 101 L186 101 Q126 94 121 89 Q111 78 109 70 ZM121 89 L121 83 Q122 74 148 64 L150 73 L150 79 Q150 86 130 93 Q126 89 121 89 Z" /><glyph glyph-name="uni5927" unicode="&#x5927;" d="M111 186 L120 186 L124 170 L124 119 Q137 121 161 131 Q180 126 180 116 L180 104 Q118 99 118 98 Q130 93 165 39 Q183 18 239 -3 L239 -20 L215 -20 Q170 -20 111 77 Q111 77 91 34 Q48 -10 25 -10 L25 4 Q43 8 76 54 Q89 79 89 92 Q89 91 87 91 Q84 91 66 87 Q51 91 51 104 Q99 116 99 118 Q99 186 111 186 Z" /><glyph glyph-name="uni592A" unicode="&#x592a;" d="M99 191 L111 191 Q125 187 125 166 L125 134 Q125 132 125 132 L125 134 L170 144 L180 131 L180 126 Q180 118 128 108 Q186 22 245 12 L245 3 Q245 -7 222 -8 Q189 -12 111 93 L116 93 Q99 50 75.5 29 Q52 8 27 -2 L7 -2 Q88 65 90 98 L90 105 Q90 107 90 107 Q81 106 75 106 Q59 107 59 117 L59 127 Q100 127 100 141 Q103 154 103 166 L99 191 ZM84 41 L90 41 Q108 41 131 12 L131 7 Q131 -2 121 -2 L117 -2 Q84 26 84 31 L84 41 Z" /><glyph glyph-name="uni597D" unicode="&#x597d;" d="M182 183 Q200 178 200 169 L200 162 Q191 155 168 115 L168 122 L181 108 L226 112 Q240 112 247 90 L231 88 L213 87 Q182 85 189 88 Q194 50 194 31 Q187 -21 172 -21 Q152 -11 132 15 L132 28 L143 28 L161 17 L167 15 Q168 15 169 37 Q170 75 163 82 Q150 82 112 77 Q108 79 102 79 L102 90 Q104 100 155 105 Q155 105 144 109 L144 120 Q165 149 165 156 L149 153 L144 153 Q134 153 134 164 L134 173 Q179 179 182 183 ZM74 174 Q80 168 84 154 L79 112 Q79 131 100 136 Q114 132 114 125 Q114 106 86 51 Q114 30 114 25 L114 6 L103 6 Q74 32 68 32 Q37 12 28 12 L17 12 L17 23 Q48 41 52 49 L38 61 Q50 85 51 98 L52 101 L46 100 Q44 100 26 96 L22 96 Q12 96 12 107 Q12 116 58 126 Q62 134 62 152 L62 162 Q64 174 74 174 ZM67 68 L70 66 Q74 69 88 109 L78 107 Q74 105 67 68 Z" /><glyph glyph-name="uni5B9E" unicode="&#x5b9e;" d="M101 191 L117 191 Q123 191 129 182 L129 176 Q132 163 118 168 Q101 173 101 182 L101 191 ZM171 174 Q209 168 212 158 L212 151 Q209 142 139 116 L167 149 L163 149 Q127 149 75 139 L77 108 L63 108 Q54 117 48 158 L65 162 L82 162 Q92 162 171 174 ZM123 139 L137 139 L141 123 Q140 114 136 85 Q137 85 137 82 Q162 84 195 84 Q217 84 221 64 Q216 64 215 62 Q184 62 149 61 L136 61 Q141 64 142 63 L142 59 Q180 4 236 -8 L236 -15 Q236 -25 225 -25 Q178 -25 122 51 L126 51 Q97 -8 62 -17 L44 -22 L35 -22 L38 -10 Q79 11 96 43 L100 56 L97 55 Q59 44 40 42 Q23 45 23 52 L23 58 Q110 71 109 80 L123 139 ZM88 121 Q117 114 117 105 L117 94 L107 94 Q92 94 83 109 L83 120 Q88 120 88 121 ZM67 95 Q88 95 95 80 L95 69 L85 69 Q57 74 57 83 L57 85 Q59 95 67 95 Z" /><glyph glyph-name="uni5C31" unicode="&#x5c31;" d="M51 194 Q79 189 79 177 Q79 166 67 166 Q58 166 51 180 L51 194 ZM107 172 L113 160 L113 150 Q95 150 37 142 Q22 149 22 156 L22 164 L107 172 ZM162 172 L178 172 Q202 172 207 154 L207 141 L199 141 Q162 148 162 163 L162 172 ZM134 169 L143 169 Q159 169 159 119 Q157 114 159 114 Q172 114 172 124 Q184 115 193 115 L193 95 Q161 90 159 89 Q157 60 161 33 Q161 12 190 9 Q195 10 215 8 Q213 8 213 12 Q213 21 213 60 L223 60 Q239 52 241 -13 Q219 -19 188 -17 Q157 -17 140 19 Q136 31 136 37 Q138 47 138 47 L141 47 Q104 -3 96 -3 L87 -3 L87 9 Q105 27 105 33 L78 56 L78 69 Q93 69 118 52 Q127 66 127 79 L127 83 Q127 83 127 82 L107 82 L107 102 Q136 102 136 127 L136 133 Q134 150 127 150 Q134 161 134 169 ZM46 139 L36 144 Q36 139 31 139 L36 112 Q34 97 34 81 L34 79 Q34 73 34 73 Q44 68 44 70 L54 70 Q59 68 59 58 L57 14 Q57 15 57 15 L41 13 L41 7 Q42 0 66 -15 L75 -15 Q82 36 77 54 Q77 71 77 71 L79 75 Q92 75 107 131 Q107 140 95 144 Q51 139 46 139 ZM55 119 L55 89 Q52 93 74 97 Q74 97 80 113 L84 134 Q84 123 84 123 L78 121 Q55 121 55 119 ZM36 64 L46 64 L46 47 Q32 20 23 17 L11 17 Q25 63 36 64 Z" /><glyph glyph-name="uni5DE6" unicode="&#x5de6;" d="M107 193 L118 193 Q132 191 132 167 Q132 164 128 132 Q107 132 174 139 Q192 131 192 124 L192 117 Q119 112 121 108 Q121 103 105 69 L105 74 Q124 76 176 86 Q182 83 188 83 L188 74 Q188 63 151 56 Q153 39 153 24 L153 18 Q153 17 153 17 L167 18 Q175 18 199 19 Q235 12 235 0 L235 -11 Q188 -5 179 -5 L153 -5 Q82 -14 70 -20 Q55 -12 55 -1 Q76 5 124 14 Q131 21 127 43 Q125 53 123 53 Q98 55 77 25 Q42 -9 11 -9 Q81 42 94 105 L68 106 L68 124 Q107 124 107 154 L107 193 Z" /><glyph glyph-name="uni5DF1" unicode="&#x5df1;" d="M149 171 L154 162 L154 158 Q154 150 142 115 Q142 111 150 103 Q150 85 72 81 Q70 82 70 37 Q69 18 111 15 L166 15 Q188 13 188 61 L195 61 Q206 59 206 51 L206 47 Q215 -11 187 -11 L118 -12 Q49 -11 49 16 Q47 25 47 32 Q47 101 67 106 Q115 109 118 112 Q124 131 124 143 L124 145 Q86 143 68 142 Q64 150 62 164 L108 167 Q145 171 149 171 Z" /><glyph glyph-name="uni5DF4" unicode="&#x5df4;" d="M150 175 Q168 171 168 163 Q159 107 159 97 L162 81 L148 76 L133 79 Q66 75 66 68 Q61 19 118 14 L155 14 Q190 16 190 20 Q192 57 202 60 L210 60 Q210 43 213 35 Q220 -11 195 -11 Q177 -13 141 -12 Q41 -15 43 53 Q44 81 45 127 L46 148 Q43 161 150 175 ZM115 146 L117 130 Q117 116 117 109 L116 99 Q140 100 140 114 Q143 134 143 146 L143 148 L117 146 Q115 146 115 146 ZM67 140 Q69 120 69 109 L69 96 Q69 94 45 94 L91 98 Q94 97 94 114 Q94 115 94 128 Q94 141 94 141 L85 141 L67 140 Z" /><glyph glyph-name="uni5E74" unicode="&#x5e74;" d="M81 201 L91 201 Q96 201 103 190 L100 177 L100 173 Q103 175 125 176 Q130 178 162 180 L173 177 L173 160 Q140 157 140 157 L140 139 Q140 137 140 137 L162 139 Q171 134 171 128 L171 116 L140 116 Q138 116 138 116 L140 85 Q142 85 179 87 Q233 80 233 69 Q233 60 218 56 Q200 61 160 62 Q140 61 138 60 L138 29 Q138 11 135 -27 L121 -27 L121 -20 Q117 -1 119 11 Q117 29 117 51 L117 59 Q117 58 117 58 L100 58 Q61 54 38 46 Q31 49 25 49 L25 66 Q79 71 79 87 Q73 116 73 125 Q119 134 119 135 L119 142 Q119 151 116 152 L91 152 L58 121 L42 121 Q81 165 81 201 ZM98 111 L98 81 Q98 80 98 80 Q119 81 119 84 L119 112 Q119 112 119 114 Q110 114 98 111 Z" /><glyph glyph-name="uni5E95" unicode="&#x5e95;" d="M94 198 L107 198 Q113 198 123 183 L123 171 L114 171 Q108 171 94 188 L94 198 ZM164 182 Q186 177 186 170 L186 166 Q186 154 83 150 Q81 148 77 104 Q50 8 15 8 L15 18 Q41 42 55 109 Q59 117 59 132 L59 160 Q61 170 69 170 Q164 175 164 182 ZM133 142 L149 142 Q158 138 158 132 L158 122 L151 122 Q134 122 97 116 Q97 134 133 142 ZM131 123 L143 123 L160 103 L194 111 L200 98 L200 89 Q167 85 167 84 Q179 46 213 17 L217 17 Q217 17 218 19 L218 26 L219 48 Q238 46 240 22 Q240 9 232 -16 L219 -16 Q153 40 144 75 Q100 63 99 61 L100 21 L130 56 L139 56 Q139 32 95 -15 L90 -15 Q79 -15 76 8 Q76 14 78 28 Q78 30 76 51 Q78 89 78 110 Q80 114 80 121 L98 121 L99 105 L98 85 L101 83 Q136 91 136 95 L136 100 Q136 100 131 123 ZM136 30 L147 30 Q154 30 170 2 Q167 -4 167 -10 L158 -10 Q136 5 136 30 Z" /><glyph glyph-name="uni5EFA" unicode="&#x5efa;" d="M138 198 L145 198 Q157 198 156 171 Q159 171 177 173 Q191 163 189 146 Q234 148 234 131 L234 121 Q210 124 199 124 L187 124 Q180 123 180 124 L180 120 Q180 116 185 109 L185 104 Q185 94 166 93 Q158 94 154 95 Q159 93 159 98 Q178 92 180 85 L180 74 Q154 72 154 71 L154 68 Q155 65 155 65 L175 67 Q180 67 195 70 Q204 66 211 53 L211 42 Q189 47 155 49 Q157 49 149 1 L143 1 Q135 1 131 14 L131 32 Q131 41 130 41 L122 41 Q89 37 89 34 Q104 14 169 -4 Q276 -8 233 -25 L222 -32 Q136 -32 88 9 Q83 12 77 12 Q69 -9 30 -16 L26 -16 Q17 -16 17 -4 Q30 2 46 9 Q53 14 59 24 Q61 25 25 46 L25 65 Q67 45 69 45 Q73 53 73 59 Q63 59 56 60 L48 60 Q48 67 43 79 Q53 93 53 111 Q37 111 34 123 L34 133 L49 136 L68 136 Q74 136 79 125 L79 120 Q79 118 73 89 Q100 81 98 60 L107 57 L110 57 Q127 62 127 67 L132 67 Q132 65 117 65 L113 80 L131 89 L131 91 L123 91 Q121 91 117 88 Q103 94 103 99 L103 108 Q131 111 131 115 Q133 122 131 122 Q93 114 77 114 L73 123 Q73 130 131 143 L112 157 Q136 169 136 170 Q136 180 135 188 Q138 193 138 198 ZM154 150 L154 143 Q155 141 129 141 L163 144 Q165 145 165 151 L161 151 Q154 150 154 150 ZM154 119 L154 113 L145 113 Q153 116 153 116 L155 124 Q155 122 154 119 Z" /><glyph glyph-name="uni5F00" unicode="&#x5f00;" d="M152 190 Q164 177 164 173 L164 163 Q132 161 119 161 L104 161 L82 164 L82 181 L152 190 ZM85 157 L94 157 Q106 157 109 115 L107 117 Q141 120 140 127 Q140 144 140 152 L153 159 Q164 127 163 127 Q231 127 231 107 L231 105 Q231 96 217 96 Q189 102 174 102 L166 102 Q164 102 163 100 Q164 -4 152 -39 L138 -39 L139 -1 Q138 19 138 38 L139 98 Q139 98 139 98 L108 95 Q109 94 101 66 Q69 8 53 8 L48 17 Q80 70 79 85 L79 91 Q79 90 66 88 Q54 85 41 85 Q27 90 24 101 Q40 107 86 116 L86 89 Q82 135 82 147 Q85 151 85 157 Z" /><glyph glyph-name="uni5F53" unicode="&#x5f53;" d="M101 190 L112 190 Q125 186 128 160 L128 114 Q154 135 165 170 L177 170 Q191 166 191 146 Q172 125 145 105 L156 105 L171 107 Q209 96 209 81 Q183 28 183 17 L191 7 L191 -4 L168 -9 Q161 -9 140 -10 Q104 -10 63 -15 Q58 -12 52 -12 L52 -3 Q52 9 156 19 Q164 39 176 76 L176 78 Q118 78 64 66 L60 66 Q50 66 50 75 L50 80 Q54 84 106 98 L107 101 L103 110 Q103 115 105 120 Q103 141 103 155 L101 169 L101 190 ZM55 149 L66 149 Q90 129 90 109 Q86 102 86 97 L80 97 Q64 97 55 149 ZM131 62 Q152 57 152 50 L152 34 L137 34 Q91 34 75 27 Q60 31 60 38 L60 42 Q60 49 131 62 Z" /><glyph glyph-name="uni5F97" unicode="&#x5f97;" d="M186 196 Q198 192 206 179 Q194 117 186 114 Q159 111 147 111 Q147 111 140 105 L134 105 Q124 105 124 115 L119 139 L117 173 L126 173 Q138 173 141 132 Q178 132 178 140 L178 142 Q168 142 139 142 L139 155 Q147 164 160 164 Q179 162 182 163 Q184 171 179 173 L166 173 Q164 173 141 169 Q126 169 121 181 Q121 194 186 196 ZM77 184 L92 177 L92 173 Q92 154 55 131 L42 131 L42 140 Q54 151 77 184 ZM83 143 Q90 157 101 135 Q101 128 81 108 Q72 101 71 100 Q71 96 73 86 L73 25 Q71 -12 61 -12 L59 -12 Q50 -12 50 -3 Q50 2 51 25 L49 86 Q48 84 34 70 L6 68 Q69 129 83 143 ZM125 96 Q125 91 137 86 L160 89 Q164 90 165 83 L166 80 Q104 75 81 69 L95 55 L167 63 Q169 62 169 25 Q169 11 164 0 Q160 0 149 4 L135 4 L135 -1 Q135 -6 165 -26 L169 -26 Q186 -30 189 17 L187 63 Q187 63 199 65 Q210 66 234 62 L237 68 L237 74 L232 83 L182 85 Q182 85 182 90 Q182 93 197 93 L197 101 Q197 106 185 110 Q125 105 125 96 ZM114 54 L121 54 Q159 48 159 36 L159 28 L151 20 Q114 33 114 44 L114 54 Z" /><glyph glyph-name="uni5FC3" unicode="&#x5fc3;" d="M95 161 L108 161 Q122 155 131 143 L131 131 L119 117 Q95 146 95 151 L95 161 ZM191 117 L198 117 Q206 117 231 88 L231 81 Q231 75 223 68 L209 61 Q209 76 191 102 L191 117 ZM27 107 L37 107 Q42 100 45 88 L48 61 L47 39 L38 34 Q32 34 24 50 L24 90 L27 107 ZM71 106 Q85 58 110 42 Q122 36 122 35 Q170 35 170 41 Q158 58 158 77 L166 73 L169 73 Q200 54 207 29 Q198 15 183 13 Q156 5 129 9 Q76 20 61 80 Q61 88 54 95 L71 106 Z" /><glyph glyph-name="uni6002" unicode="&#x6002;" d="M126 190 L146 190 Q146 182 150 175 Q136 115 103 82 L91 82 L91 92 L98 105 Q98 105 79 118 Q59 83 45 80 L36 80 L36 89 Q70 128 72 157 L72 184 L87 184 Q97 182 97 174 Q97 160 90 138 L90 136 Q97 125 107 125 L115 125 Q117 125 126 165 L126 190 ZM128 125 Q176 125 190 104 L190 91 Q128 105 128 118 L128 125 ZM98 86 Q143 69 143 60 Q143 50 132 50 Q103 59 98 72 L98 86 ZM180 78 Q201 78 230 53 L230 42 Q223 42 219 38 Q207 38 180 64 L180 78 ZM28 67 L38 67 Q53 67 53 33 L53 13 L42 13 Q36 13 30 24 L30 33 L28 67 ZM54 65 L66 65 Q93 18 112 18 L175 18 Q175 18 175 18 L175 37 L178 53 L185 53 Q195 53 201 7 Q201 -8 152 -8 L133 -8 Q74 -8 54 54 L54 65 Z" /><glyph glyph-name="uni602A" unicode="&#x602a;" d="M169 183 Q177 181 177 172 Q177 163 161 127 Q172 111 216 87 Q236 78 236 68 L236 58 Q203 63 147 101 Q104 59 88 53 L73 53 L73 64 Q102 85 129 115 Q129 118 100 137 L100 156 L112 156 Q133 137 139 137 Q142 137 150 159 L135 160 Q139 160 139 154 Q114 159 114 169 L114 177 Q120 177 124 180 L147 182 Q160 183 169 183 ZM43 175 L56 175 L64 173 L63 133 L64 126 Q78 126 92 106 L92 91 L80 91 Q68 103 64 103 L64 92 Q65 88 65 47 L64 -9 Q64 -19 54 -19 L46 -19 Q44 -13 40 -8 Q46 80 43 175 ZM133 94 L150 94 Q158 81 157 69 L172 71 Q186 67 186 59 Q186 48 158 44 L158 41 L157 15 Q191 18 214 11 L216 2 L216 -12 L209 -12 Q193 -6 137 -11 Q134 -11 83 -16 L79 -7 Q79 4 132 13 L132 38 L106 38 L106 61 Q133 61 133 63 L133 94 ZM39 118 Q44 108 44 105 Q45 81 29 66 L20 66 L20 74 Q24 118 39 118 Z" /><glyph glyph-name="uni60F3" unicode="&#x60f3;" d="M81 191 Q95 186 94 172 L95 156 Q95 156 118 154 L123 147 Q123 134 97 132 L97 124 Q124 108 124 102 L124 90 L108 90 Q101 97 94 97 Q92 97 92 97 L94 46 Q75 46 71 59 L71 62 Q71 74 72 93 L68 88 Q54 74 37 65 L28 65 L28 74 Q64 112 64 129 L66 127 Q57 128 57 120 Q42 128 33 128 L33 136 Q33 145 71 151 L73 159 L73 168 L71 187 L81 191 ZM173 186 L175 186 Q203 186 203 158 Q199 99 199 60 L192 60 Q187 60 179 65 Q173 65 137 60 L132 60 Q123 60 123 71 L123 73 L127 80 L126 95 Q126 110 128 125 L124 174 Q147 186 173 186 ZM145 160 Q145 151 150 151 Q178 155 178 158 L178 167 Q165 165 145 160 ZM149 125 L149 121 Q149 121 152 121 Q178 125 178 127 L178 135 Q178 134 178 134 Q149 128 149 125 ZM164 100 Q154 97 150 97 L149 96 Q147 87 154 87 Q171 88 175 94 L175 103 Q172 101 164 100 ZM114 53 L130 53 Q153 38 155 30 Q155 23 141 16 Q121 32 114 42 L114 53 ZM192 57 L200 57 Q242 45 242 17 L226 17 Q198 32 192 44 L192 57 ZM44 40 L53 40 Q65 40 71 1 Q69 -4 69 -10 L60 -10 Q46 -10 44 24 Q44 32 44 40 ZM73 43 L86 43 Q113 6 139 6 L150 6 Q189 6 189 12 Q189 31 201 31 Q208 21 215 -3 L215 -6 Q215 -18 180 -24 L150 -24 Q86 -18 73 34 L73 43 Z" /><glyph glyph-name="uni6211" unicode="&#x6211;" d="M114 203 Q131 190 146 130 L148 129 Q159 129 178 134 Q193 129 195 122 L195 111 L179 108 Q164 107 150 106 L151 111 Q161 75 163 73 L161 73 L176 97 L186 97 L191 85 Q188 73 175 54 Q184 32 201 14 L205 11 Q206 37 219 37 Q229 20 229 8 L229 -22 Q229 -31 218 -31 L214 -31 Q175 -2 160 33 Q144 18 123 3 L112 3 L112 12 Q141 42 146 55 L146 58 Q132 98 129 102 L119 100 Q110 97 104 96 Q104 94 104 92 L121 97 Q115 77 108 71 Q105 -17 95 -17 L89 -17 Q53 2 48 14 L48 22 Q60 22 82 15 L84 15 Q88 15 86 58 Q85 59 85 61 Q84 61 54 41 Q43 33 32 33 L23 47 Q81 78 83 86 L83 93 Q83 94 82 94 Q77 94 34 87 L34 107 Q83 113 83 114 L83 118 Q83 132 67 123 L49 128 L74 147 Q91 166 107 172 Q113 176 114 176 Q112 175 103 194 L114 203 ZM153 178 L163 178 Q186 178 198 158 L198 142 Q153 159 153 171 L153 178 ZM94 141 Q104 127 104 117 L92 117 Q123 123 123 125 Q121 153 115 153 Q96 145 94 141 Z" /><glyph glyph-name="uni624B" unicode="&#x624b;" d="M143 197 L148 197 Q154 197 160 186 Q146 165 80 153 L80 166 L143 197 ZM125 164 Q130 164 138 146 Q162 146 169 125 Q127 117 127 121 L137 108 Q137 98 136 100 Q171 102 193 102 L212 102 Q238 96 238 84 Q238 75 225 75 Q216 75 191 79 Q171 78 144 78 L139 78 Q139 78 141 75 Q144 5 132 -31 L120 -31 Q95 -16 83 2 L83 14 L95 14 L114 0 Q120 0 118 70 Q117 74 114 73 L46 66 L39 66 L22 69 L22 75 Q24 85 32 85 L60 90 Q118 98 118 98 L116 115 Q116 116 113 118 L109 116 Q105 116 95 114 Q76 119 76 127 L76 134 L83 134 Q116 134 116 148 Q116 164 125 164 Z" /><glyph glyph-name="uni624D" unicode="&#x624d;" d="M154 200 L162 200 Q175 196 175 174 L175 152 Q175 151 175 151 Q179 151 199 156 Q213 152 213 143 L213 141 Q213 131 178 126 Q175 122 175 120 L175 4 L173 -17 L161 -21 Q132 -2 120 19 L120 27 L129 27 Q146 20 147 20 L151 20 Q151 19 151 23 Q151 36 152 67 Q151 94 152 101 L157 98 Q106 48 10 -3 Q120 92 142 120 Q142 121 142 120 L139 120 Q97 115 93 115 Q84 115 76 130 L76 138 Q154 140 154 151 L154 200 Z" /><glyph glyph-name="uni6253" unicode="&#x6253;" d="M74 188 L82 188 Q95 184 95 160 L95 140 Q95 139 114 136 L114 124 Q95 118 95 117 L96 112 L114 115 L114 105 Q95 88 95 79 L95 55 Q95 8 88 -13 L72 -10 Q60 2 41 15 L41 25 L55 25 Q64 23 66 23 Q73 26 72 48 L72 66 Q72 70 75 68 L39 36 Q26 42 20 42 L20 55 Q69 87 70 93 L70 109 Q70 110 70 110 L67 110 L50 105 Q45 110 40 110 L40 126 Q74 132 74 135 L74 188 ZM122 148 L122 133 Q127 133 132 131 Q142 136 165 136 L169 136 Q173 136 171 118 Q171 38 169 13 L168 14 L153 18 L146 18 L146 9 Q171 -18 180 -18 L186 -18 L190 -3 Q190 42 190 82 L189 137 L209 139 Q217 139 229 138 L234 138 Q234 154 216 160 Q161 152 122 148 Z" /><glyph glyph-name="uni626B" unicode="&#x626b;" d="M80 179 Q93 176 94 164 L96 132 L93 134 L122 135 L122 117 L97 112 L98 93 Q129 111 105 73 Q94 64 96 40 Q98 16 96 -5 L90 -21 Q28 -1 41 18 Q66 12 70 13 L71 53 Q47 39 26 25 L21 48 Q25 58 70 77 L71 79 L70 104 L65 103 L46 100 Q38 101 31 105 L28 108 Q28 120 70 127 L71 130 Q71 179 80 179 ZM216 145 Q226 142 230 125 Q220 66 221 40 Q223 33 223 27 Q205 19 154 12 Q120 15 120 30 L120 37 Q127 37 127 41 L138 37 Q198 37 197 58 Q200 60 201 76 L201 74 L152 65 Q132 73 132 80 L132 86 Q171 94 200 99 Q200 103 204 120 L199 120 Q189 120 137 112 Q131 115 125 115 L125 131 Q210 143 216 145 Z" /><glyph glyph-name="uni6362" unicode="&#x6362;" d="M120 127 Q124 127 129 127 L143 130 Q146 130 152 144 L143 143 Q141 142 129 128 L115 130 L115 138 L138 185 L153 185 Q154 170 154 168 L157 168 Q165 168 175 170 Q181 168 189 168 L189 157 Q189 150 181 142 L167 131 L187 131 L206 128 L206 118 Q197 93 190 82 Q196 83 187 83 Q210 85 223 85 L233 75 L233 61 L224 61 Q188 59 188 59 L179 61 L179 70 Q185 43 247 -5 L247 -17 L231 -17 Q190 0 158 55 Q143 15 103 -15 Q96 -16 87 -16 L87 -5 Q122 31 132 52 L133 54 L102 51 Q97 55 91 55 L91 70 Q116 74 116 74 L116 76 Q112 100 109 100 L101 115 L108 126 Q117 127 120 127 ZM163 109 L165 96 Q162 83 162 83 L167 83 Q168 83 178 109 L165 109 Q163 109 163 109 ZM134 103 Q135 79 135 79 Q143 77 143 97 Q144 107 144 109 Q135 107 134 103 ZM68 130 Q34 122 34 116 Q34 110 48 106 Q64 108 67 108 Q68 108 68 108 L70 100 Q70 87 11 40 L11 35 L28 31 Q42 42 68 65 Q68 65 70 58 Q68 24 69 6 L63 8 L51 15 L41 15 L41 9 Q66 -20 74 -20 Q91 -20 87 66 L87 85 L95 99 Q95 103 87 107 Q88 114 105 124 Q100 137 91 136 Q90 182 73 183 L65 183 Q73 162 68 130 Z" /><glyph glyph-name="uni63CF" unicode="&#x63cf;" d="M174 192 Q190 192 195 155 Q206 152 206 145 L206 139 Q184 126 170 105 L158 105 L161 125 L150 125 L150 119 Q150 114 147 97 L145 99 Q170 99 200 107 Q222 107 236 97 Q236 67 202 -20 L193 -20 L183 -12 L177 -12 Q152 -12 142 -16 Q113 -16 113 33 Q106 73 106 86 Q128 95 128 99 L128 120 Q126 126 115 126 L115 138 L127 148 L127 161 Q127 163 127 181 L134 181 Q148 181 150 150 L168 150 Q170 150 171 152 L171 171 Q165 183 174 192 ZM67 177 L76 177 Q88 177 88 145 L88 124 Q88 122 88 122 Q92 124 96 127 Q111 122 111 114 Q111 104 90 102 L88 98 L88 92 L97 93 L103 93 L103 85 Q88 65 88 55 L88 45 Q88 -24 76 -24 L71 -24 Q47 -14 28 3 L28 14 L35 14 L55 8 L63 8 Q63 7 63 8 L63 45 Q63 47 64 46 L35 26 L29 26 Q20 26 15 45 Q40 57 63 70 L67 76 Q67 91 57 91 Q38 91 38 102 Q38 111 65 118 Q68 123 68 134 L68 155 L67 177 ZM181 80 L181 62 Q181 61 209 60 L209 53 Q209 41 182 36 Q182 31 182 13 L191 13 Q198 13 211 77 L211 83 Q211 83 210 83 Q181 83 181 80 ZM127 73 L127 93 Q131 56 133 56 L141 56 Q155 56 157 62 L157 68 L156 75 L147 75 L127 73 ZM138 31 L138 11 Q138 11 138 11 L156 12 Q158 12 157 31 L155 35 Q138 32 138 31 Z" /><glyph glyph-name="uni63D0" unicode="&#x63d0;" d="M175 196 Q189 188 191 180 L191 178 Q191 161 193 146 Q189 103 177 103 Q157 103 129 87 Q122 102 122 114 Q122 120 124 150 Q120 166 120 178 L129 178 Q136 178 146 160 Q169 162 169 166 L169 169 Q169 169 164 173 L144 170 Q139 173 134 173 L134 187 L175 196 ZM72 192 L76 192 Q87 189 87 173 L87 136 Q87 136 110 131 L110 115 Q87 111 87 108 Q88 104 86 106 L105 106 L105 96 Q80 79 83 41 L82 17 Q80 8 80 8 L78 -3 L75 -3 Q112 35 120 60 L120 65 L119 67 L107 65 L105 65 Q95 65 95 75 Q95 86 138 90 Q138 94 211 106 Q225 102 225 94 Q225 85 180 77 Q178 73 177 70 L200 71 L204 63 L204 56 Q179 44 179 35 L178 15 L241 -4 L248 -16 L237 -22 L220 -22 Q163 -22 124 26 Q87 -23 68 -23 Q56 -23 31 11 L31 21 L40 21 Q54 11 58 11 Q60 11 60.5 31 Q61 51 61 52 Q59 56 66 56 Q32 30 20 30 Q10 30 10 40 L10 46 Q63 78 63 90 L65 103 Q65 106 66 104 L49 103 L47 103 Q38 103 38 112 L38 119 Q68 119 68 155 L62 188 L72 192 ZM145 122 L146 121 Q169 121 169 141 Q148 141 148 132 Q145 129 145 122 ZM136 48 Q145 25 159 23 L156 23 L156 70 Q156 71 152 72 Q136 70 136 48 Z" /><glyph glyph-name="uni6447" unicode="&#x6447;" d="M62 197 L74 197 Q85 197 89 164 L89 137 L94 134 L80 134 L105 139 Q111 136 117 136 L117 118 Q89 115 89 111 L89 105 L100 107 L100 97 Q86 80 86 73 L86 66 Q86 47 84 2 L84 -12 L78 -24 Q54 -24 31 5 L31 12 L41 18 Q55 7 56 7 L60 7 Q63 40 63 63 Q62 61 28 34 L14 39 L11 46 L11 53 Q65 91 65 91 L65 105 Q65 106 63 106 Q60 106 38 104 Q34 106 28 106 L28 113 Q28 124 63 127 Q69 132 68 158 L68 160 Q68 167 62 197 ZM180 194 Q186 194 191 183 L191 174 Q172 164 165 160 Q169 136 169 130 L161 126 L155 126 Q145 152 145 152 L139 152 Q154 129 154 111 Q154 102 141 102 L141 117 Q143 104 144 104 Q161 113 198 116 Q213 111 213 96 L200 93 L198 93 L172 87 L172 76 L221 77 Q241 72 243 62 L243 49 Q230 49 212 53 Q172 52 172 49 L172 17 L197 15 Q203 15 203 20 Q202 36 202 43 L215 43 Q227 43 227 20 Q227 1 222 -29 L212 -29 Q200 -25 195 -9 L185 -8 Q135 -17 119 -17 Q114 -8 109 -8 L115 36 L122 36 Q132 36 135 5 L124 5 Q148 10 148 12 L148 42 Q148 45 146 46 L106 36 Q93 43 93 49 L93 53 Q110 67 126 119 Q131 119 131 111 L115 157 Q173 194 180 194 ZM198 166 L207 166 Q213 166 221 151 Q198 128 168 113 L168 128 Q198 163 198 166 ZM131 72 L131 66 Q131 64 130 66 Q151 68 151 71 L151 80 Q151 82 150 82 Q137 82 131 72 Z" /><glyph glyph-name="uni64B0" unicode="&#x64b0;" d="M182 187 L196 187 Q214 187 214 173 Q212 131 185 131 L183 125 L183 130 Q186 132 211 134 L217 127 L217 112 Q208 112 182 105 Q159 110 159 138 L159 175 Q159 187 182 187 ZM65 188 Q73 188 82 167 L83 154 L83 142 Q98 139 98 131 L98 123 Q82 119 82 119 L91 110 L91 100 Q82 100 76 4 L80 4 Q76 -7 76 -16 L60 -16 Q30 4 30 24 L39 24 L54 17 L57 17 Q57 17 56 72 L58 70 Q54 70 26 44 L10 44 L13 65 Q58 98 58 98 L56 110 Q56 110 56 110 L32 107 L24 122 Q57 135 60 141 L60 167 L56 174 L56 177 Q56 188 65 188 ZM152 184 Q159 176 164 176 Q150 126 124 125 L123 117 Q122 122 122 115 L152 117 L161 107 L161 104 Q161 91 151 91 L151 89 Q166 89 166 104 L185 102 L188 91 Q208 92 208 83 Q208 73 189 70 Q184 60 184 60 L182 53 Q189 55 227 57 Q238 51 245 42 L245 30 Q202 32 196 32 Q135 25 92 19 Q79 25 79 31 Q79 39 130 47 L130 58 Q130 59 127 60 L108 59 L108 77 Q126 79 126 83 L127 90 Q99 88 100 110 L100 168 Q100 175 113 182 L139 182 L152 184 ZM180 163 L180 157 Q180 157 180 157 L186 157 Q188 157 189 161 L189 164 Q189 165 185 166 L182 166 Q182 166 180 163 ZM120 161 L122 149 Q122 149 122 149 Q131 149 134 155 L134 162 Q134 162 134 161 L122 161 Q120 161 120 161 ZM151 65 L151 52 Q151 50 154 49 L156 49 Q162 51 162 61 L162 66 L151 66 Q151 66 151 65 ZM142 26 L151 12 Q141 -4 114 -20 L106 -20 L106 -12 Q128 26 142 26 ZM174 26 L187 26 Q202 20 223 -3 L223 -20 L211 -20 Q174 11 174 26 Z" /><glyph glyph-name="uni653E" unicode="&#x653e;" d="M155 184 Q164 184 164 170 Q164 165 159 145 L166 146 L169 146 Q181 147 189 154 Q204 145 206 137 Q206 126 144 115 Q129 77 108 77 Q108 89 135 139 Q147 184 155 184 ZM49 164 L64 164 Q70 164 82 145 Q89 144 118 147 L124 135 L124 125 L115 125 Q83 120 84 120 Q79 99 100 100 Q114 94 109 73 L91 5 L106 8 Q128 15 144 46 L124 80 L124 93 L132 93 Q159 64 155 64 Q158 71 169 124 L176 124 Q183 124 188 100 Q181 59 172 50 Q183 29 248 -5 L248 -21 L240 -21 Q198 -21 159 24 Q140 -3 114 -12 Q91 -11 88 -11 Q81 -17 70 -17 Q48 18 33 29 L51 32 L56 32 Q66 26 73 22 Q81 21 85 79 L84 80 L79 80 Q70 76 50 46 L27 18 L7 18 Q50 77 62 126 L62 116 Q56 116 37 112 Q33 114 26 114 L26 130 L63 140 L63 136 L49 154 L49 164 Z" /><glyph glyph-name="uni6548" unicode="&#x6548;" d="M55 183 L71 183 Q90 169 90 163 L90 153 Q86 153 86 147 Q58 161 55 172 L55 183 ZM145 173 L151 173 Q157 173 163 161 L163 158 Q163 150 159 139 Q162 136 156 136 Q168 145 197 153 Q203 151 209 151 L209 140 Q188 125 188 122 Q188 97 168 46 Q184 14 240 0 L240 -17 L234 -17 Q208 -31 154 23 Q122 -14 95 -14 Q91 -9 84 -9 L84 5 Q115 5 141 43 Q138 54 110 83 L117 96 L117 100 Q117 100 117 99 L107 99 L84 49 Q84 57 112 26 L112 13 L100 13 Q78 32 76 32 Q41 -3 19 -3 L14 9 Q41 23 59 54 Q59 46 35 78 L52 78 Q67 66 74 66 Q76 66 80 104 L78 116 Q73 126 88 128 Q118 120 126 116 Q138 128 138 143 L138 159 L135 166 L145 173 ZM107 158 L112 158 Q121 154 121 148 L121 146 Q121 137 66 126 Q49 52 10 52 Q38 91 48 137 Q55 117 38 131 L38 137 Q38 147 107 158 ZM133 89 Q133 86 155 67 L149 67 Q164 89 164 115 L160 118 L155 118 Q133 93 133 89 Z" /><glyph glyph-name="uni65E5" unicode="&#x65e5;" d="M157 180 Q173 180 190 158 L188 147 Q188 45 188 38 Q185 11 185 -14 L174 -19 Q157 -5 151 5 Q95 1 77 1 Q68 5 64 16 Q66 56 66 142 L66 146 L70 166 L85 166 Q91 166 157 180 ZM104 149 L92 149 Q91 149 90 146 L90 103 Q90 103 92 103 Q97 103 142 115 L148 115 Q153 115 163 104 L163 98 Q163 88 101 82 L91 83 Q88 74 91 29 L91 24 Q91 22 91 22 Q106 24 143 32 L161 29 L161 154 Q161 155 145 156 Q115 149 104 149 Z" /><glyph glyph-name="uni661F" unicode="&#x661f;" d="M162 192 Q170 192 181 177 L181 160 Q175 119 161 94 L141 96 L135 96 L135 93 Q136 91 135 91 L155 91 Q159 91 164 95 Q182 88 180 78 Q180 74 167 64 L154 66 L145 66 Q140 65 140 65 L140 59 L157 59 L175 61 Q183 53 183 39 L173 32 L161 37 Q139 37 138 21 L138 16 L139 15 L198 15 Q213 15 221 -1 L221 -14 Q213 -14 185 -11 Q109 -11 69 -22 L53 -22 Q37 -22 34 -10 L34 -1 Q113 3 114 18 L114 26 L95 26 L79 29 L80 47 Q115 50 115 54 L115 61 L118 59 Q81 56 69 38 L52 21 L47 21 Q37 21 37 33 Q59 50 76 90 L81 90 Q87 90 92 78 Q113 81 114 85 L114 89 Q114 90 110 92 Q90 89 84 89 Q74 97 66 167 Q66 187 162 192 ZM88 163 Q92 152 91 152 Q100 152 141 156 Q154 152 154 145 L154 141 Q154 128 102 128 L96 128 Q96 128 96 127 L95 117 Q95 117 95 117 Q99 117 135 125 L149 125 Q152 125 154 145 L155 170 Q88 164 88 163 Z" /><glyph glyph-name="uni662F" unicode="&#x662f;" d="M148 196 Q163 196 172 178 Q155 112 148 112 Q95 102 92 102 L90 102 Q85 102 78 113 L75 184 Q92 189 131 195 Q141 197 148 196 ZM100 168 L100 166 L101 160 Q129 164 142 166 L147 181 Q147 173 142 174 Q138 174 100 168 ZM102 139 L102 128 Q135 131 135 132 L137 146 L156 146 L102 139 ZM206 112 L217 98 L217 86 L193 86 L157 84 Q148 81 148 81 L149 69 Q137 69 164 76 Q178 67 178 59 L178 56 Q178 51 149 46 L148 36 L148 20 Q148 14 232 -15 L237 -23 Q237 -34 227 -34 Q147 -30 88 34 L87 33 Q61 -3 35 -11 L24 -11 L24 -2 Q58 28 68 52 Q78 76 93 76 Q41 67 28 67 L24 76 L24 86 Q139 103 160.5 106.5 Q182 110 206 112 ZM105 77 L104 70 L102 60 L102 52 Q100 45 122 33 L125 79 L105 77 Z" /><glyph glyph-name="uni66F4" unicode="&#x66f4;" d="M150 191 Q155 190 164 190 L164 177 Q164 168 136 165 L137 163 L159 165 Q166 165 189 152 L189 137 Q169 102 169 101 Q172 97 172 90 Q172 78 128 77 Q118 58 112 40 L112 49 Q154 21 244 -10 L236 -18 Q236 -22 224 -29 Q185 -29 102 27 Q89 5 44 -12 Q27 -12 27 0 Q68 18 82 39 Q55 64 34 67 L38 86 Q72 80 66 78 Q63 133 54 133 Q60 145 60 150 L65 150 Q100 158 112 162 Q112 162 108 162 Q103 162 82 160 L78 169 Q78 180 150 191 ZM134 139 L134 135 Q164 138 153 127 L152 117 Q131 113 133 114 L132 99 Q132 98 132 98 Q154 100 159 136 L159 139 Q160 144 154 144 L136 144 Q136 144 134 139 ZM83 129 L81 123 Q81 124 85 124 Q113 127 113 133 L113 135 Q113 135 113 135 L105 135 Q83 133 83 129 ZM89 101 L89 93 Q89 93 87 93 L101 93 Q102 93 108 101 L108 107 Q108 107 108 107 L106 107 Q93 101 89 101 ZM85 68 Q88 64 101 57 L94 57 Q97 61 99 67 L99 70 Q99 71 97 70 L85 68 Z" /><glyph glyph-name="uni6700" unicode="&#x6700;" d="M193 127 L225 125 L225 104 Q220 104 220 101 Q198 106 177 102 Q145 99 116 91 L116 62 Q119 54 130 53 Q114 31 115 11 L125 9 L112 9 Q138 34 147 43 Q147 44 124 64 L124 75 L139 75 L163 57 Q168 59 168 59 L170 74 Q166 72 151 67 Q136 74 136 83 Q149 89 183 99 Q198 93 198 87 Q196 70 179 44 Q184 31 237 5 Q237 -8 227 -8 Q199 -8 162 25 Q131 4 115 -9 L114 -25 Q114 -42 101 -44 L99 -44 L86 -36 Q91 -16 91 -3 L91 16 Q91 18 92 17 Q72 2 46 -4 Q41 -3 34 -3 L34 7 Q34 13 91 40 L91 48 Q74 46 74 37 Q74 27 57 19 Q52 37 54 63 L53 91 Q57 87 22 89 L20 108 Q65 110 108 116 Q151 122 193 127 ZM104 119 Q101 119 96 116 Q78 121 78 138 L79 172 Q79 169 75 169 Q75 198 138 197 Q149 198 160 198 Q178 198 178 183 L161 134 L158 125 L104 119 ZM106 173 L97 173 Q97 173 97 173 L97 171 Q97 169 97 169 L115 171 Q149 175 153 175 L153 178 Q153 178 153 177 L144 177 Q140 177 106 173 ZM100 149 Q101 140 101 140 Q145 140 145 151 L145 154 Q118 149 100 149 ZM74 87 L72 84 Q72 85 76 85 Q95 86 95 90 Q74 90 74 87 ZM74 66 L79 66 Q91 66 91 66 L93 67 Q74 65 74 66 Z" /><glyph glyph-name="uni6709" unicode="&#x6709;" d="M120 203 L129 203 Q137 203 140 187 L131 160 Q131 160 132 160 Q142 160 183 166 Q186 166 213 161 L213 154 Q208 142 194 142 L180 142 Q120 141 119 124 Q122 124 122 122 Q148 124 177 128 Q196 128 197 82 Q198 36 198 14 L198 -2 Q198 -9 190 -35 L180 -35 Q162 -21 153 -21 L153 -3 L172 -2 Q172 -2 172 -2 L172 24 Q172 40 170 72 L183 72 L128 62 L119 63 Q119 58 119 58 L117 49 Q153 53 153 58 Q176 53 176 45 L176 42 Q176 33 127 26 L117 32 Q115 32 115 32 L117 27 Q114 -16 114 -20 L105 -25 Q94 -18 91 -11 L91 9 Q93 79 93 79 L95 83 L100 83 Q51 29 39 29 L39 38 Q88 99 97 135 L75 133 Q61 133 56 144 L56 155 L74 155 L106 158 Q111 160 120 203 ZM117 99 L117 83 Q117 83 118 83 Q133 83 156 89 L186 85 L172 85 L170 84 Q169 103 169 107 L173 105 Q117 106 117 99 Z" /><glyph glyph-name="uni673A" unicode="&#x673a;" d="M57 178 L65 178 Q79 171 79 148 Q79 147 79 120 Q96 118 96 109 L96 104 Q74 91 74 91 L76 76 L100 55 L100 44 L86 44 Q76 50 74 50 Q71 43 74 0 L74 -5 Q74 -24 55 -24 Q52 -19 49 -16 Q52 14 54 47 L54 41 Q52 40 32 25 L19 25 L19 35 Q37 47 55 85 L55 88 Q55 90 51 90 Q41 89 41 84 Q22 90 22 97 L22 106 Q58 113 57 124 Q57 129 57 158 Q57 170 57 178 ZM178 150 L183 141 L183 137 Q171 93 171 64 L171 46 Q171 15 196 15 L210 16 Q212 16 214 43 L225 43 Q233 41 233 32 L233 11 L235 -4 Q237 -15 224 -15 Q163 -19 152 10 Q143 50 157 119 L157 124 Q157 126 157 126 L153 126 Q139 126 139 122 L136 90 Q126 12 92 -8 L82 -8 L82 4 Q107 37 114 86 Q114 93 115 142 Q156 150 178 150 Z" /><glyph glyph-name="uni6751" unicode="&#x6751;" d="M181 186 Q193 186 199 137 L228 137 L228 120 Q199 116 199 114 L201 41 Q201 26 199 -15 Q197 -19 197 -27 L190 -27 Q173 -27 134 7 L134 16 L141 16 Q170 7 175 7 L175 109 L173 109 Q165 109 129 101 Q115 105 115 113 Q115 122 175 131 L176 138 L174 163 L173 184 L181 186 ZM66 192 L84 176 Q87 124 83 126 Q110 127 110 117 L110 108 Q88 103 88 100 L88 92 Q97 83 118 59 L118 53 Q118 44 106 44 Q96 47 86 61 L76 68 Q83 68 84 61 L84 -2 L79 -18 L69 -18 L59 -16 Q59 -9 61 15 Q61 53 65 48 Q60 43 40 31 L23 31 L31 47 Q56 73 59 93 L59 95 Q59 96 59 95 Q51 97 51 91 Q28 96 28 105 L28 115 L49 118 L66 120 Q66 120 66 121 L66 192 ZM126 96 Q166 81 166 70 L166 61 L150 61 Q124 75 121 84 L121 92 Q126 92 126 96 Z" /><glyph glyph-name="uni6765" unicode="&#x6765;" d="M106 198 L124 201 Q128 167 129 160 L151 162 Q165 158 165 151 L165 139 L128 139 Q128 106 128 108 L123 106 Q138 128 138 141 L162 133 L162 126 Q157 114 133 93 L133 87 L162 88 Q216 90 216 68 Q207 64 203 64 Q160 64 154 64 L141 64 Q139 64 139 69 Q169 38 224 13 L224 1 Q212 -2 210 -2 Q181 -2 135 43 L132 46 Q131 -6 131 -33 L131 -41 L117 -41 Q107 -38 107 -19 Q109 18 109 29 Q109 32 109 35 Q88 15 49 -6 L30 -6 Q84 43 94 59 L96 62 L100 60 Q43 56 37 56 L33 75 Q109 83 109 83 L106 136 L82 134 L71 141 Q71 153 106 158 Q106 160 106 163 Q106 166 106 198 ZM89 135 Q101 135 107 99 Q101 85 92 85 Q80 102 80 130 L89 135 Z" /><glyph glyph-name="uni679C" unicode="&#x679c;" d="M160 188 Q180 184 180 171 Q164 99 151 99 Q133 99 133 99 L135 91 Q135 90 136 90 Q184 95 194 95 Q217 86 217 79 Q217 67 208 67 Q135 70 135 71 L136 67 Q170 29 213 23 Q234 10 234 5 Q234 -4 222 -4 Q177 -4 130 39 L135 39 Q133 12 133 1 L133 -17 L129 -35 L115 -32 Q110 -32 107 -17 Q109 24 109 24 L111 46 L116 46 Q44 -19 31 1 Q88 48 94 61 L80 61 Q71 61 38 54 L34 65 L31 79 Q110 85 109 86 L109 91 Q109 93 108 95 L85 91 Q70 96 68 105 L67 132 Q64 157 64 174 L78 187 L97 187 Q119 187 160 188 ZM86 167 L85 165 Q90 143 90 124 L90 119 Q90 119 90 119 L109 119 Q110 119 111 121 L111 132 L106 132 Q91 132 88 145 L88 151 L111 156 L111 166 Q111 167 110 167 Q95 165 92 165 Q87 167 86 167 ZM135 165 L135 161 Q135 158 135 157 L150 159 L150 165 L135 165 ZM135 121 Q150 121 150 137 L145 138 L135 137 Q135 134 135 121 Z" /><glyph glyph-name="uni6811" unicode="&#x6811;" d="M195 192 L202 192 Q218 192 223 141 Q238 139 238 132 L237 121 Q226 115 224 115 Q222 90 224 27 Q224 -4 204 -29 Q169 -19 155 -1 L155 12 Q188 4 194 4 Q198 7 199 46 Q198 64 192 62 Q159 69 151 85 L151 94 Q156 94 161 97 L209 88 Q197 88 197 89 L197 106 Q198 115 196 114 L165 114 L160 123 Q160 133 197 140 L197 164 L195 192 ZM54 186 L62 186 Q75 180 75 165 L75 136 L85 137 Q90 135 95 135 L95 117 Q75 117 75 101 L75 96 Q82 85 97 64 L87 57 L75 59 Q74 6 68 -16 L59 -16 Q52 -16 48 -2 Q49 31 51 57 L41 59 L54 59 Q31 36 16 36 L16 45 Q49 86 51 106 L49 108 Q37 106 29 106 Q18 106 18 116 L18 118 Q18 126 51 131 Q56 136 56 151 Q54 171 54 186 ZM138 135 Q143 135 158 119 L141 76 Q149 72 161 55 L161 51 Q161 41 150 41 L128 56 L125 56 Q100 29 86 29 L79 29 L79 38 Q98 58 109 70 Q89 89 89 102 Q90 102 90 110 Q119 88 120 88 Q128 101 128 107 L128 113 Q128 115 146 115 L110 111 L103 120 Q103 132 138 135 Z" /><glyph glyph-name="uni6846" unicode="&#x6846;" d="M60 187 L70 187 Q83 187 83 153 L84 136 L97 136 Q107 134 107 123 Q81 108 81 108 L81 93 Q83 89 100 80 L104 80 L104 107 Q113 144 113 150 L129 150 L126 47 Q156 47 156 63 Q158 67 132 73 L132 90 Q156 92 156 92 L156 100 Q156 104 132 107 L132 115 Q134 128 158 128 Q179 126 179 136 Q190 128 200 128 L200 109 L182 106 L177 106 Q179 97 186 97 L208 97 Q208 95 210 95 Q210 77 182 72 L181 71 L181 57 Q181 57 184 57 Q191 57 206 59 Q224 53 224 45 L224 33 Q220 33 220 31 L205 33 L146 27 L128 30 L128 21 L129 10 L196 10 Q233 10 233 -6 L233 -14 L216 -17 L137 -17 Q125 -18 125 -24 Q103 -20 103 -10 L103 -3 Q103 3 103 29 Q106 59 92 59 Q82 68 82 68 Q81 67 81 64 Q81 13 70 -27 L63 -27 Q58 -27 49 -17 Q55 -5 55 25 L54 40 L31 20 L22 20 L22 30 Q58 71 58 102 L48 100 L28 108 L28 119 Q61 123 61 127 L61 133 Q61 149 63 160 Q60 170 60 187 ZM187 163 Q192 160 200 160 L200 149 Q197 138 174 138 L161 138 Q140 138 135 149 Q135 163 187 163 Z" /><glyph glyph-name="uni690D" unicode="&#x690d;" d="M162 195 L166 195 Q170 195 178 183 Q178 178 167 154 L142 154 Q184 158 196 158 L200 158 Q206 158 212 147 Q212 136 202 136 L193 136 Q150 136 150 125 L156 125 Q165 125 173 131 Q196 131 196 80 Q194 58 194 39 L194 21 Q195 12 196 12 L206 12 Q239 12 251 -9 L251 -12 L249 -24 Q225 -13 175 -13 Q127 -15 94 -22 L88 -22 Q73 -22 70 -11 L70 -3 Q117 -3 117 22 Q118 71 118 111 Q132 124 132 127 Q107 129 107 141 Q109 154 131 154 L145 154 Q148 154 155 179 L152 191 L162 195 ZM52 177 L63 177 Q75 177 77 153 Q75 126 75 116 L78 114 Q78 114 88 116 Q92 114 98 114 L98 95 Q75 95 75 86 Q73 73 73 69 Q88 57 88 53 L88 41 L82 41 L73 42 Q73 11 65 -29 L55 -29 L47 -25 Q49 13 49 30 L49 48 Q45 46 21 23 L9 23 L9 32 Q41 65 47 89 L46 90 L37 88 L35 88 Q26 88 26 97 L26 106 Q53 106 53 126 L56 149 L52 177 ZM140 105 L140 98 Q140 98 141 98 L155 100 Q172 92 171 92 L172 94 L172 107 Q172 107 172 106 Q140 106 140 105 ZM142 71 L143 70 L167 72 L172 72 L172 76 Q172 76 172 75 L166 75 Q142 75 142 71 ZM138 35 Q138 44 141 44 L160 44 Q171 44 171 34 L171 26 Q134 17 134 17 L136 8 Q136 6 135 8 L166 8 Q166 8 170 14 L170 34 L172 52 L168 52 Q140 43 138 35 Z" /><glyph glyph-name="uni6BCD" unicode="&#x6bcd;" d="M170 187 Q191 182 191 158 Q191 150 189 123 L190 121 L211 123 Q248 121 248 106 L248 97 L187 98 L181 54 Q205 48 205 36 Q205 27 195 27 L177 29 Q174 17 166 -3 Q152 -27 147 -27 Q106 -27 87 -3 L87 5 L93 5 Q120 0 135 2 Q141 4 146 15 L151 31 Q133 31 133 31 Q76 28 66 27 Q49 27 44 40 L61 90 L19 86 Q3 94 3 102 L3 108 Q68 113 69 112 Q73 135 83 156 L93 156 L99 144 Q94 124 94 117 Q168 117 168 134 L168 158 Q165 164 151 164 L135 164 Q132 164 98 159 L89 159 L89 169 Q89 185 170 187 ZM106 149 L116 149 Q136 149 143 135 L143 124 Q138 124 138 120 Q106 130 106 139 L106 149 ZM89 92 Q85 91 75 58 Q70 40 70 51 Q101 55 121 55 Q153 57 153 57 Q156 69 160 93 Q161 100 163 98 L160 98 Q103 92 89 92 ZM95 90 L105 90 Q120 90 140 68 L140 54 L124 54 Q103 66 95 82 L95 90 Z" /><glyph glyph-name="uni6C99" unicode="&#x6c99;" d="M139 191 L145 191 Q165 191 165 161 L165 77 L153 77 Q147 77 140 87 L140 110 L139 191 ZM54 159 L62 159 Q85 159 87 146 L87 134 L71 134 Q54 143 54 150 L54 159 ZM178 157 Q230 143 230 134 L230 122 Q168 130 168 143 L168 154 Q173 154 178 157 ZM116 150 L132 150 L135 132 Q122 109 108 98 L95 98 L95 108 Q116 142 116 150 ZM182 128 L200 128 L200 117 Q174 33 132 -7 Q112 -24 79 -24 Q129 18 152 57 Q165 80 182 128 ZM36 124 Q55 115 63 115 L63 105 Q63 95 52 95 Q31 95 23 111 L23 120 Q29 120 36 124 ZM76 101 L88 101 L80 74 L50 6 L41 6 Q33 20 33 27 Q47 51 76 101 Z" /><glyph glyph-name="uni6CA1" unicode="&#x6ca1;" d="M162 187 Q176 182 178 173 Q174 156 174 152 L174 139 Q174 125 212 123 L212 113 Q212 103 195 102 Q150 106 150 147 L153 161 L152 162 L150 162 Q134 162 127 152 L129 142 Q129 132 110 89 Q126 60 137 60 Q149 75 149 75 L151 84 L148 84 Q141 82 126 78 L123 78 Q114 78 114 90 L115 91 Q115 99 166 113 Q178 113 178 98 Q171 71 156 42 Q178 19 208 13 Q233 8 233 0 Q233 -9 215 -13 Q183 -14 157 8 Q145 17 138 24 Q104 -1 83 -9 Q77 -7 71 -7 L71 6 Q121 28 121 42 Q94 74 87 92 Q108 123 108 152 L96 185 Q123 178 124 178 L128 178 Q134 178 162 187 ZM41 164 Q72 157 75 148 L75 135 Q55 135 41 151 L41 164 ZM18 123 L29 123 Q47 114 52 102 L52 98 L47 84 Q27 95 18 112 L18 123 ZM91 118 L91 111 Q87 83 42 6 Q30 6 30 15 L25 33 Q45 54 78 118 L91 118 Z" /><glyph glyph-name="uni6CBB" unicode="&#x6cbb;" d="M130 191 L140 191 Q152 186 157 172 Q144 139 136 126 L136 123 Q155 125 173 137 L165 148 L175 156 L182 156 Q190 156 225 116 Q225 104 216 104 L211 104 L200 111 L195 111 Q178 111 119 94 Q112 96 105 96 L105 109 Q134 165 134 171 L130 191 ZM50 164 L67 164 Q79 155 83 142 L73 138 Q50 138 50 164 ZM87 119 L105 119 Q57 -3 42 -6 Q30 -3 30 16 Q58 56 87 119 ZM29 116 Q46 116 58 98 L58 83 L50 83 Q27 93 25 102 L25 108 L29 116 ZM190 91 Q226 91 222 61 Q203 27 203 26 Q205 26 212 13 L212 2 Q193 -3 184 -3 L152 -3 Q140 -3 131 -16 Q114 -9 114 9 L111 39 Q111 40 108 81 L123 81 Q143 81 190 91 ZM136 55 L138 39 L140 24 L173 24 Q195 51 192 60 L192 62 Q192 63 187 65 Q164 68 136 55 Z" /><glyph glyph-name="uni6D3B" unicode="&#x6d3b;" d="M109 151 Q154 179 166 179 Q178 185 184 175 L184 171 Q181 162 160 156 Q162 140 165 125 L232 123 L232 107 L163 104 Q162 98 162 94 L162 76 Q163 72 166 71 Q198 75 209 63 L209 58 Q209 47 194 4 Q185 -10 133 -10 Q133 -14 123 -14 Q118 -14 108 1 L108 8 Q108 26 104 60 L133 66 Q142 68 142 77 L142 97 Q142 99 139 99 L94 98 Q93 93 77 56 L50 -8 L40 5 Q37 5 28 16 L39 27 Q78 91 88 113 Q134 120 142 120 L142 143 Q140 149 140 149 Q126 144 118 144 L109 151 ZM55 162 Q64 162 84 147 L85 126 L75 126 Q58 126 45 156 L55 162 ZM33 115 Q53 105 56 90 L50 76 Q38 76 21 102 Q23 115 33 115 ZM129 45 Q128 22 133 15 Q181 10 179 44 L179 47 Q179 48 179 48 L169 48 Q129 46 129 45 Z" /><glyph glyph-name="uni6EDA" unicode="&#x6eda;" d="M116 196 L133 196 L152 177 L178 181 Q186 177 186 171 L186 157 Q129 157 128 140 Q111 109 88 109 Q109 141 109 149 L98 158 Q98 169 132 176 L132 168 L116 186 L116 196 ZM148 161 L193 148 L193 138 Q193 129 184 129 L181 129 Q170 129 148 141 L148 161 ZM136 136 Q142 131 149 124 Q139 108 134 101 L136 102 L133 102 Q155 106 151 127 L170 116 Q187 106 195 92 L195 83 L184 83 Q182 83 165 90 L159 90 Q127 77 127 65 Q129 34 129 23 Q128 23 141 33 Q152 31 152 21 Q135 -4 117 -33 Q104 -19 103 -12 Q104 1 105.5 22 Q107 43 111 43 L100 32 Q83 23 74 23 L74 32 L103 69 L105 76 L90 77 Q118 111 126 136 L136 136 ZM190 77 L197 77 Q207 75 207 67 L207 59 Q177 45 173 42 Q205 20 231 12 L245 8 Q237 -3 226 -8 Q188 -10 128 55 L128 66 L142 66 L155 55 L161 55 L190 77 ZM48 167 L59 167 L74 156 L74 139 L61 131 Q55 139 48 152 L48 167 ZM24 117 L31 117 Q48 117 55 99 L45 80 Q34 90 24 106 L24 117 ZM74 101 L86 101 L86 92 L45 -12 L36 -12 Q27 -12 23 7 Q49 51 74 101 Z" /><glyph glyph-name="uni706B" unicode="&#x706b;" d="M99 189 L111 189 Q123 184 130 167 L125 139 Q122 110 120.5 102.5 Q119 95 117 86 Q180 17 208 14 Q234 2 234 -5 L234 -11 L217 -14 Q165 -14 111 67 Q104 45 89 30 Q48 -8 23 -8 L23 3 Q104 44 102 171 L99 189 ZM147 137 Q168 137 174 123 L175 117 Q175 106 130 77 L120 77 L120 87 Q147 117 147 137 ZM58 117 L66 117 Q79 117 91 74 L77 74 Q69 74 58 101 L58 117 Z" /><glyph glyph-name="uni70B9" unicode="&#x70b9;" d="M107 188 L121 188 Q131 171 133 171 Q152 174 159 174 L161 166 L161 161 Q159 148 142 148 L132 148 Q130 127 133 127 Q140 127 161 131 Q190 125 190 112 L190 110 Q170 75 170 53 Q98 42 87 42 L78 51 Q81 74 81 76 Q81 87 67 122 L77 122 Q90 117 97 117 Q108 117 108 147 Q107 182 107 188 ZM102 94 Q104 70 106 70 L124 70 Q155 70 155 102 L155 108 L169 108 Q102 98 102 94 ZM139 40 L150 40 Q163 32 171 14 L171 -4 L159 -4 Q139 16 139 32 L139 40 ZM197 40 Q232 10 232 -12 L232 -15 L222 -25 Q203 -7 184 30 L184 32 Q184 42 197 40 ZM44 37 L57 37 Q64 37 68 21 Q52 -18 27 -18 L27 -10 Q44 13 44 37 ZM88 36 L100 36 L123 10 Q131 -3 123 -16 L109 -15 Q88 11 88 36 Z" /><glyph glyph-name="uni7115" unicode="&#x7115;" d="M132 192 Q142 171 144 171 L166 174 Q180 166 183 158 Q159 133 160 131 L176 134 Q188 128 188 120 L188 107 L175 78 Q174 79 175 79 Q177 79 177 82 L191 79 L220 81 Q239 75 240 64 L240 54 Q236 54 236 50 Q221 57 204 57 Q200 59 200 49 Q189 57 189 57 Q187 57 161 54 L161 64 Q183 15 235 -2 Q249 -10 249 -18 L249 -28 Q195 -28 142 48 Q122 2 94 -10 Q94 -16 76 -16 L76 -5 Q112 29 116 43 L116 51 Q116 53 116 53 Q89 48 89 31 L77 31 L56 48 L62 48 Q41 7 26 -6 L11 -6 L11 5 Q41 43 41 67 Q30 75 30 105 Q32 105 32 107 Q41 107 53 98 Q52 98 53 129 Q51 154 51 167 Q49 167 49 175 L56 182 Q72 182 75 122 Q73 112 73 105 L66 105 L88 132 Q98 125 103 125 Q103 125 105 144 Q114 151 124 192 L132 192 ZM117 125 L117 137 L120 127 Q144 127 144 146 Q146 146 146 149 L135 149 Q125 139 117 125 ZM68 74 L68 66 Q68 65 79 58 L99 73 Q99 108 95 108 Q68 84 68 74 ZM153 108 Q149 78 149 77 L154 77 Q157 77 163 108 L153 108 ZM119 102 Q122 77 125 77 Q128 77 130 97 L130 106 Q130 105 129 105 L117 105 Q117 105 119 102 Z" /><glyph glyph-name="uni7136" unicode="&#x7136;" d="M128 190 L136 190 Q154 180 154 154 L154 137 Q161 135 161 144 Q179 133 179 125 Q179 113 148 107 Q134 63 99 40 L88 40 L88 52 Q121 80 121 100 L121 105 Q121 105 109 107 L109 120 L130 133 Q133 146 133 158 L133 160 Q133 161 128 180 L128 190 ZM168 184 Q182 184 194 163 Q194 153 183 153 L181 153 Q164 162 161 177 L168 184 ZM65 174 L74 174 Q87 174 87 163 L95 163 Q122 163 122 143 Q82 59 55 27 Q61 20 61 14 Q61 -8 44 -27 Q35 -27 30 -15 L30 -8 Q42 7 42 13 L25 13 L25 24 Q63 60 63 70 Q45 70 40 87 L40 99 Q54 99 62 91 L72 91 Q72 91 74 95 Q70 95 42 111 L42 123 Q65 153 65 174 ZM68 125 Q68 122 86 108 L80 108 Q90 134 90 134 L86 134 Q72 134 68 125 ZM158 91 L174 91 Q201 73 208 63 L208 58 Q208 47 197 47 L195 47 Q158 67 158 91 ZM133 30 L144 30 Q166 10 166 -11 Q163 -11 163 -20 Q133 1 133 30 ZM84 27 L95 27 Q108 25 108 0 Q104 -15 95 -15 Q90 -15 80 1 L84 7 L84 27 ZM191 22 L205 22 Q215 15 233 -12 L233 -27 L216 -27 Q191 3 191 22 Z" /><glyph glyph-name="uni718A" unicode="&#x718a;" d="M133 195 Q143 195 147 166 L159 177 L165 177 Q173 173 173 166 L173 163 Q173 158 150 141 L150 130 L161 130 Q167 130 167 138 Q187 129 190 121 Q190 109 153 103 Q131 103 129 130 L129 151 Q129 168 122 190 L133 195 ZM65 192 L76 192 Q85 188 85 182 L85 171 Q73 158 73 156 Q85 156 98 171 Q116 171 127 156 L127 145 Q93 139 84 132 Q76 138 83 138 Q61 125 40 125 L35 135 L35 140 Q65 167 65 192 ZM95 134 L101 134 Q115 128 115 110 L115 23 L112 5 Q92 5 80 28 Q94 36 94 59 Q94 59 94 59 L90 59 Q69 50 69 36 Q69 16 59 16 L56 16 Q52 16 44 29 Q50 54 50 93 L50 106 Q51 130 84 130 Q84 134 95 134 ZM71 102 L71 100 Q71 98 70 100 L73 100 Q90 102 90 107 L88 109 Q71 106 71 102 ZM136 107 Q148 86 148 86 L146 81 Q147 81 170 105 L184 105 L184 93 L149 58 Q151 52 161 52 L164 52 Q194 52 202 71 L208 71 Q219 71 219 32 Q166 25 166 23 Q123 23 123 100 L136 107 ZM69 75 Q69 73 69 73 L73 75 Q84 75 92 86 L92 83 L102 83 Q69 74 69 75 ZM23 15 L35 15 Q45 12 45 -6 L45 -15 Q45 -26 34 -26 Q28 -26 21 -14 L23 -1 L23 15 ZM142 13 L153 13 Q159 13 171 -5 L171 -20 Q150 -20 142 -3 L142 13 ZM75 10 L84 10 Q91 10 108 -17 L108 -21 Q108 -30 98 -30 Q75 -19 75 -1 L75 10 ZM211 10 Q225 3 237 -13 L237 -28 Q216 -28 200 -4 L200 0 Q203 10 211 10 Z" /><glyph glyph-name="uni7269" unicode="&#x7269;" d="M74 189 L80 189 Q92 189 97 157 L97 140 L105 140 Q115 140 115 127 Q92 117 92 101 Q99 106 110 106 L110 93 Q90 75 90 70 Q92 3 77 3 L75 3 Q65 3 65 12 L70 58 L77 58 Q44 44 31 44 Q31 46 28 46 Q28 58 66 77 Q70 83 70 94 L70 108 L64 108 Q56 108 36 79 L26 79 Q26 89 54 147 L65 147 L66 131 L64 133 Q74 133 74 142 Q75 151 75 161 L74 189 ZM135 173 L145 173 Q155 171 155 162 Q150 147 150 145 L150 143 Q188 145 205 153 Q223 153 232 127 Q220 18 192 -5 Q157 31 156 31 Q127 -7 103 -7 L103 2 Q164 57 164 124 L173 124 Q180 124 185 109 Q185 90 167 46 L167 44 Q167 43 184 34 L186 34 Q199 37 208 115 Q208 120 205 129 Q138 129 117 108 L105 108 L105 117 Q135 153 135 173 ZM140 120 Q149 120 155 101 Q135 51 121 46 L113 46 L113 60 Q127 79 135 120 L140 120 Z" /><glyph glyph-name="uni73ED" unicode="&#x73ed;" d="M116 181 L126 181 Q139 181 139 143 L139 133 Q139 118 124 45 Q125 41 123 43 Q168 43 168 61 L169 81 Q170 76 170 83 L154 83 L137 86 L137 94 Q137 104 167 110 L168 112 Q166 140 149 140 L149 148 Q149 158 188 163 Q205 159 205 146 L180 131 L180 138 Q191 114 188 116 L209 116 Q219 114 219 105 Q219 93 192 89 L192 54 Q192 53 243 42 L243 20 Q196 29 184 29 Q149 22 129 19 L115 21 Q93 -17 75 -17 L68 -17 L68 0 Q86 0 104 58 Q118 109 118 155 Q116 169 116 181 ZM72 159 L84 159 L84 146 Q73 132 73 132 L75 116 L91 114 Q93 120 93 130 L100 130 Q110 130 113 111 Q113 106 107 76 L100 76 Q89 76 90 100 Q68 90 68 66 Q68 66 68 62 Q71 62 93 70 L100 70 L100 59 Q64 21 16 21 L16 28 Q16 37 46 49 Q49 70 49 83 L40 83 L24 86 L24 100 Q54 104 54 111 Q56 126 33 140 L33 149 L72 159 Z" /><glyph glyph-name="uni7528" unicode="&#x7528;" d="M128 187 L166 188 Q205 187 205 160 Q209 91 209 26 Q209 2 200 -14 L194 -14 Q151 -2 151 14 L151 21 Q177 19 177 19 L182 17 L184 29 Q183 100 183 139 Q183 164 164 164 L130 164 Q92 161 92 157 L92 126 Q92 126 94 126 Q120 127 120 131 L120 164 L130 164 Q140 164 145 133 L142 135 Q144 135 161 136 L179 135 L179 123 Q179 111 145 109 L145 96 L147 92 L161 93 L175 93 Q185 93 185 83 L185 80 Q185 72 146 66 L145 65 L145 6 Q145 -17 134 -20 L126 -20 Q120 18 119 63 Q92 61 87 58 Q77 27 55 -5 Q46 1 41 1 L41 15 Q68 55 69 111 Q69 118 70 148 Q67 161 70 171 Q83 183 128 187 ZM92 106 L92 83 Q120 85 120 88 L120 103 Q120 105 121 106 Q88 106 92 106 Z" /><glyph glyph-name="uni7684" unicode="&#x7684;" d="M158 187 L160 187 Q166 187 171 177 L171 169 Q171 160 159 125 L159 135 Q198 137 206 137 Q224 132 224 122 Q216 -3 185 -21 L179 -21 Q158 -5 148 13 Q149 19 149 26 L161 26 Q166 18 177 15 L184 14 Q190 9 196 113 Q198 113 194 113 Q185 113 149 112 Q123 87 125 70 Q123 41 113 -8 L100 -8 L88 6 L83 6 Q71 4 45 -2 L40 9 Q39 64 38 83 Q39 105 29 105 L29 115 L82 178 L96 178 Q95 153 85 146 Q69 128 59 122 L59 128 L61 128 Q70 128 107 133 Q119 133 126 106 L121 107 Q147 143 147 175 Q153 187 158 187 ZM59 82 Q59 82 61 82 Q91 86 95 86 Q100 83 101 83 L102 110 Q102 111 99 112 Q59 112 59 95 L59 82 ZM144 87 Q183 81 183 69 L183 52 Q180 52 180 48 Q131 71 131 81 Q131 89 144 87 ZM62 25 L48 25 Q80 32 84 34 Q96 26 97 26 Q102 33 101 68 L116 68 Q67 60 61 56 Q62 29 62 25 Z" /><glyph glyph-name="uni76F4" unicode="&#x76f4;" d="M125 193 L136 193 Q145 193 145 182 L144 163 Q145 163 145 161 L158 163 Q189 158 189 149 L189 138 L158 138 Q123 137 123 137 L121 130 L148 130 Q169 130 169 103 L169 79 Q169 56 171 32 Q169 22 169 17 Q171 10 171 7 Q169 1 169 -1 Q170 -2 226 -7 L233 -19 L233 -32 L226 -32 Q188 -29 139 -29 L118 -29 Q72 -36 43 -34 Q45 -34 45 -46 Q35 -36 26 -36 L26 -26 Q26 -13 80 -11 Q84 -5 84 76 L84 109 L103 125 L103 127 Q96 127 66 135 L66 144 L70 155 L90 150 Q122 150 122 172 Q122 178 125 193 ZM105 92 L130 92 L145 88 L145 75 Q111 67 109 63 L109 56 Q109 58 143 65 L145 53 Q145 40 105 33 L105 29 L110 29 Q121 29 139 35 L149 33 Q149 33 149 35 Q145 63 145 71 L145 105 L142 110 Q105 110 105 92 ZM104 2 L104 -2 L144 -2 Q146 -2 147 0 L147 16 Q147 17 157 17 Q104 4 104 2 Z" /><glyph glyph-name="uni77E5" unicode="&#x77e5;" d="M72 180 L82 180 Q87 180 96 160 Q102 160 117 159 L117 137 Q77 137 77 114 L56 91 L46 91 L46 99 Q72 139 72 180 ZM82 132 L91 132 Q97 132 110 103 Q138 103 138 89 L138 87 Q138 75 127 75 L116 79 Q103 76 103 72 Q138 41 141 33 Q141 21 126 21 L94 51 Q72 4 51 -14 L38 -14 L38 -3 Q75 40 75 68 L73 68 Q42 61 42 56 Q23 66 23 74 Q25 80 83 93 L84 98 L82 132 ZM194 132 L208 132 Q217 132 236 121 Q236 105 219 65 L219 40 Q189 33 167 33 Q166 32 166 16 L155 16 Q143 16 142 32 Q142 45 144 61 Q144 69 136 126 L149 126 Q189 132 194 132 ZM164 105 L164 92 Q164 61 166 61 Q207 61 207 103 Q209 103 209 106 L209 108 L184 108 Q164 108 164 105 Z" /><glyph glyph-name="uni77ED" unicode="&#x77ed;" d="M187 182 L196 166 L194 156 L173 156 Q146 152 133 152 Q131 160 128 160 Q131 173 187 182 ZM59 176 L78 157 Q73 147 91 156 L102 146 Q102 139 83 128 L85 117 L85 105 Q88 103 88 109 Q116 98 116 91 Q116 83 84 78 Q62 4 29 -1 L22 12 Q41 22 57 71 Q54 70 32 64 Q25 67 19 67 L19 81 Q63 94 63 100 Q63 116 62 117 Q47 97 38 97 L33 106 L33 114 Q48 132 59 176 ZM119 142 L136 138 Q171 144 190 144 Q204 144 209 128 Q189 74 176 74 Q146 71 146 69 L146 67 L156 24 L151 24 Q165 34 175 62 Q175 70 183 70 L186 70 Q195 65 195 60 Q202 48 173 18 L173 23 Q238 21 238 4 Q238 -7 229 -7 L225 -7 Q196 -1 187 -1 L176 -1 Q121 -1 83 -9 L83 -2 Q83 14 140 18 L140 14 Q132 24 127 61 Q128 66 128 67 Q127 67 121 78 Q121 82 124 87 Q124 98 116 138 Q119 138 119 142 ZM145 117 Q145 117 142 113 Q142 91 145 91 L147 91 Q179 95 183 121 L182 122 L145 117 ZM71 54 Q96 54 108 30 L108 19 L96 19 Q81 25 71 46 L71 54 Z" /><glyph glyph-name="uni7801" unicode="&#x7801;" d="M158 183 Q207 183 207 170 Q202 143 182 113 Q168 113 168 123 Q181 154 181 162 Q181 162 181 162 L152 162 L136 166 L136 172 Q136 180 158 183 ZM67 160 L93 160 L113 157 L113 151 Q111 141 88 135 Q88 135 72 104 L102 104 Q112 104 113 88 Q113 34 63 34 Q63 29 53 29 L45 29 L40 45 L40 64 L45 64 Q30 52 18 52 L15 62 L15 69 Q34 69 62 129 L62 137 L50 149 L50 157 L67 160 ZM143 139 L157 139 L160 126 Q152 102 152 101 L212 109 Q244 103 244 82 Q221 -20 186 -20 Q138 -13 138 2 L138 12 L148 12 Q161 7 187 4 Q194 6 208 40 L208 43 Q208 44 208 44 L162 44 Q155 44 118 37 Q113 38 106 38 L106 46 Q106 61 193 68 L204 68 L210 62 L216 62 Q218 62 221 85 L217 88 L206 88 Q138 81 138 69 L123 69 Q123 73 114 73 Q133 96 143 139 ZM60 80 Q60 56 67 56 Q92 56 92 83 L69 83 Q64 83 60 80 Z" /><glyph glyph-name="uni793C" unicode="&#x793c;" d="M61 178 L72 178 Q91 169 91 161 L91 152 L78 152 Q71 152 61 167 L61 178 ZM126 164 L137 164 Q153 164 154 124 Q151 69 151 38 Q151 18 194 18 L212 18 Q213 18 215 64 L229 62 Q235 54 235 -3 Q216 -15 176 -9 Q129 -6 130 40 L132 141 Q126 149 126 164 ZM91 152 Q107 148 107 140 L107 134 Q77 88 77 85 Q82 81 125 72 L128 63 L128 52 Q124 52 124 49 L85 57 Q85 -8 82 -20 L63 -20 Q63 -15 61 -15 L64 68 Q64 66 63 66 L18 17 L18 36 Q64 102 74 122 L76 129 Q76 128 42 121 L44 141 L91 152 Z" /><glyph glyph-name="uni79CB" unicode="&#x79cb;" d="M143 181 L150 181 Q162 181 164 147 Q164 142 160 102 L158 103 L186 135 L200 135 L200 128 Q200 103 158 81 L157 76 L157 74 Q181 31 240 3 L243 -5 L243 -15 L236 -15 Q204 -21 146 44 L152 44 Q115 -8 101 -8 L92 -8 L92 1 Q132 43 132 71 Q126 71 116 106 L116 116 L129 116 L142 102 L138 102 Q143 141 143 181 ZM76 177 Q88 173 95 173 L95 156 Q80 154 80 154 Q84 144 84 131 L87 131 L102 133 Q116 127 116 121 L116 117 Q116 108 105 108 L86 108 L86 93 L109 73 L109 62 L101 62 Q98 62 86 65 L84 45 L84 -7 L78 -20 Q64 -19 60 -6 L62 76 L64 67 Q45 40 25 40 L25 51 Q60 93 60 102 Q51 102 14 96 L10 106 L10 118 Q63 118 63 140 L63 145 Q63 146 63 145 L56 145 L47 138 L40 155 Q76 173 76 177 Z" /><glyph glyph-name="uni7EA2" unicode="&#x7ea2;" d="M66 170 L81 170 L81 162 Q81 159 55 117 Q69 119 81 130 L90 130 Q90 112 67 81 Q83 78 83 71 L83 61 Q58 57 39 46 Q33 49 26 49 L26 64 Q47 79 47 93 L32 93 L26 90 L19 98 L19 107 Q43 132 66 170 ZM183 144 Q198 140 198 132 L198 121 L181 120 L166 120 L162 117 L165 100 Q162 65 162 43 L166 43 Q178 43 183 44 Q242 41 242 27 L242 25 Q242 19 230 11 L205 20 Q183 17 168 17 L139 17 Q136 17 114 12 L90 12 L90 22 Q90 31 142 42 L142 62 Q144 85 144 111 L142 112 L119 112 L119 129 L183 144 ZM101 64 L101 48 Q57 2 35 -6 L30 -6 Q22 -6 17 5 L17 14 Q29 14 101 64 Z" /><glyph glyph-name="uni7EC5" unicode="&#x7ec5;" d="M149 193 L156 193 Q168 193 173 154 L171 156 Q177 156 206 158 Q216 156 216 158 L226 139 Q215 91 205 65 L205 51 L177 51 Q177 51 176 45 Q176 -17 165 -49 L159 -49 L149 -44 L151 -28 L151 -15 Q151 -5 149 5 Q151 16 151 26 L150 47 Q143 47 129 44 Q110 49 110 69 Q110 81 107 128 Q107 156 145 156 Q149 156 149 157 L149 193 ZM72 175 Q81 175 88 159 Q67 130 67 131 L75 131 Q87 144 101 144 L107 132 Q77 99 66 82 L66 87 L71 87 Q74 87 80 91 Q86 87 92 87 L92 74 Q92 60 28 55 L28 74 Q47 74 60 118 L60 110 L76 110 L39 105 L28 118 Q46 132 72 175 ZM171 126 L171 121 Q171 117 194 114 L194 95 Q173 95 173 89 Q173 80 180 78 Q193 78 202 133 L199 135 L185 135 Q171 135 171 126 ZM126 133 Q128 113 129 113 Q149 115 149 117 L149 133 Q149 135 149 134 L128 134 Q126 133 126 133 ZM129 86 Q131 71 131 71 L142 71 Q150 71 151 75 L151 89 Q151 90 148 92 L145 92 Q131 92 129 86 ZM97 61 L107 61 L107 51 Q78 21 52 3 Q37 12 37 18 L37 23 L97 61 Z" /><glyph glyph-name="uni7ED9" unicode="&#x7ed9;" d="M143 189 L151 185 Q149 167 149 163 Q176 132 213 117 Q232 111 243 96 L243 85 Q204 87 136 146 L127 121 Q128 121 95 86 Q68 81 68 78 Q68 78 81 62 L81 54 L34 43 L25 60 Q51 76 51 85 L46 88 Q40 86 29 79 Q15 86 15 94 Q50 125 60 164 Q60 171 69 171 L78 171 Q78 166 83 166 Q75 137 61 115 L57 106 Q56 108 88 113 L85 103 Q98 106 137 189 L143 189 ZM163 107 Q168 104 173 104 L173 87 Q146 82 137 82 L132 82 Q117 82 114 95 Q119 104 163 107 ZM192 70 Q212 69 212 47 Q196 27 188 -2 Q179 -4 173 -4 L143 -4 L120 -12 Q101 -12 99 60 Q132 70 192 70 ZM124 37 Q124 17 131 17 Q141 17 149 20 L164 22 Q181 24 181 42 L176 46 L137 44 Q125 44 124 37 ZM90 47 L90 32 Q46 1 31 1 Q27 2 20 2 L20 11 Q25 22 90 47 Z" /><glyph glyph-name="uni7EF4" unicode="&#x7ef4;" d="M147 196 L156 196 Q176 185 176 179 L176 167 L161 167 Q147 174 147 196 ZM61 182 L70 182 Q77 182 83 168 Q83 161 54 123 L54 121 Q63 123 63 130 Q85 123 85 113 Q64 95 64 87 L75 85 L75 75 Q59 53 31 53 L26 62 L26 70 Q44 90 44 100 L44 102 Q44 103 23 107 L23 114 Q61 154 61 182 ZM124 182 L132 182 Q140 178 140 172 L140 167 L116 144 Q125 128 125 104 Q125 88 124 65.5 Q123 43 123 35 Q125 35 129 35 Q157 35 157 57 Q155 58 130 63 L130 78 Q157 82 157 83 L157 94 Q157 95 155 95 L141 91 L133 102 L133 116 L145 116 Q154 116 157 121 L157 140 L178 140 Q140 136 130 136 L130 149 Q132 158 192 170 L199 153 L178 138 Q178 123 202 123 L202 112 Q202 108 183 97 L183 92 Q183 92 209 87 L213 80 L213 69 Q180 69 180 55 Q178 45 183 44 L203 44 L219 45 Q238 37 238 20 L231 14 Q208 14 182 17 Q120 17 126 -6 Q126 -24 117 -24 Q111 -24 102 -11 Q100 11 103 107 Q103 131 82 122 L84 145 Q95 148 124 182 ZM85 79 L96 79 L96 69 Q46 9 28 9 L19 23 L85 79 Z" /><glyph glyph-name="uni8010" unicode="&#x8010;" d="M175 196 L186 196 Q204 185 204 169 L204 146 Q205 143 203 145 L207 145 L226 150 L237 136 L237 123 Q204 122 204 121 Q202 24 202 -21 L192 -23 Q176 -23 142 9 L142 20 Q179 6 179 4 L177 4 Q180 24 180 39 L180 108 L178 116 L172 116 Q165 116 152 114 Q144 118 134 118 L134 137 L143 137 Q182 137 182 146 L182 169 Q182 172 175 196 ZM92 168 Q97 165 104 165 L104 155 Q83 145 69 121 L89 124 L113 124 Q116 124 127 110 Q113 23 99 23 L82 32 L88 32 L78 18 L69 18 L65 34 Q65 47 68 81 Q66 98 66 98 L66 57 L63 39 L46 39 Q46 46 44 53 L46 63 Q46 96 45 96 L43 96 Q45 66 45 51 L45 28 L33 28 L23 37 L26 55 Q26 66 21 113 Q59 121 59 141 Q57 141 50 154 L50 162 L92 168 ZM85 105 Q85 48 92 48 Q100 71 100 90 L100 103 Q92 104 87 104 Q92 105 85 105 ZM138 97 L147 97 Q169 97 173 82 Q173 75 162 70 L157 70 Q136 70 129 86 Q131 97 138 97 Z" /><glyph glyph-name="uni8086" unicode="&#x8086;" d="M152 207 L159 207 Q174 204 174 183 L174 166 Q165 166 186 173 L196 173 Q203 173 209 160 L209 141 Q213 141 213 148 Q235 143 235 125 L226 121 L208 118 Q209 99 201 91 Q174 83 174 83 L172 82 Q178 80 178 85 Q198 79 198 71 L198 63 Q173 56 172 52 L172 47 L175 47 Q195 49 211 49 Q230 49 237 25 Q233 25 233 22 L211 25 L203 25 Q173 25 172 25 Q172 -35 154 -46 L148 -9 Q148 0 148 10 Q148 19 148 21 L124 21 Q115 21 115 30 Q115 39 148 44 L148 47 Q141 48 129 54 L129 68 Q148 71 148 71 L148 79 L134 80 L127 94 L150 102 Q152 107 118 101 L118 116 Q118 123 151 129 L151 140 Q132 139 136 160 Q154 161 152 169 L152 207 ZM108 178 L113 157 L89 153 Q89 154 83 153 Q75 152 75 152 L77 144 Q77 141 97 148 L99 133 L99 125 Q77 121 77 119 L82 121 Q88 122 95 123 Q106 120 107 104 Q75 95 74 90 Q74 88 76 88 Q95 88 107 92 Q121 87 123 78 L123 73 Q76 67 77 66 Q73 53 66 42 L65 40 L62 42 Q85 42 86 49 Q92 73 124 28 Q121 23 121 17 L111 17 Q98 25 97 25 Q91 25 39 11 L30 26 Q50 48 50 59 Q35 58 28 58 Q15 62 15 69 L15 75 Q54 82 54 83 Q55 94 55 101 Q55 117 50 168 Q58 173 108 178 ZM172 138 Q170 130 170 131 Q182 133 182 142 Q184 149 180 148 Q172 147 172 138 ZM173 109 L172 106 Q172 106 175 107 Q179 107 182 112 Q179 112 173 109 Z" /><glyph glyph-name="uni80FD" unicode="&#x80fd;" d="M65 190 L76 190 Q76 185 80 178 Q69 138 69 148 L71 148 Q84 148 90 152 L90 168 Q125 148 125 137 L125 135 Q125 129 114 118 Q104 127 100 132 L93 130 L25 111 L25 124 Q53 152 65 190 ZM127 185 L137 185 Q145 185 150 162 L176 182 L186 172 L186 157 L152 138 L152 134 Q155 127 164 127 Q182 127 182 135 Q202 126 205 119 L205 109 Q174 102 148 102 Q126 102 129 167 Q127 171 127 185 ZM86 125 Q111 125 111 70 Q112 58 112 36 L107 -18 L94 -18 Q79 -11 70 3 L70 11 L87 11 Q90 11 89 45 Q90 45 85 42 Q59 34 58 35 Q57 -19 39 -5 L33 0 Q37 72 37 89 L34 94 Q34 113 86 125 ZM59 95 L59 91 L70 95 Q88 97 88 97 L88 102 Q88 102 87 102 Q59 99 59 95 ZM137 100 L145 100 Q154 83 153 69 L157 71 Q155 71 184 95 L187 95 Q194 95 198 76 Q187 62 152 46 L152 37 Q156 17 160 17 L178 17 Q207 15 207 27 Q207 40 218 40 L223 40 L229 3 Q231 -7 223 -10 Q175 -12 170 -12 Q137 -12 130 34 L129 61 L129 77 L128 95 L137 100 ZM57 67 L55 56 Q55 58 59 59 Q72 64 87 69 L88 74 Q57 67 57 67 Z" /><glyph glyph-name="uni817F" unicode="&#x817f;" d="M191 190 Q200 190 207 175 Q207 115 189 115 Q177 115 167 105 Q173 97 185 97 Q207 117 222 117 Q231 112 231 103 Q211 89 198 87 Q247 73 247 62 L247 55 Q242 55 242 52 Q205 57 195 64 Q168 39 168 29 Q168 26 200 25 L226 25 Q247 25 251 12 L251 4 L220 -1 L210 2 Q198 -1 189 -1 Q184 -1 105 24 Q101 12 101 2 L101 -8 L89 -8 Q75 4 67 17 L67 27 Q82 27 82 33 L82 73 Q82 74 79 74 Q49 74 49 64 Q44 35 9 8 L9 24 Q38 54 38 160 L38 167 Q50 175 77 179 Q93 179 103 161 Q103 148 101 128 Q131 116 131 108 L128 77 Q142 44 142 42 L137 92 Q142 102 142 113 L138 113 Q142 125 144 141 Q142 152 142 164 L142 171 Q142 183 191 190 ZM161 157 L161 162 L186 162 Q186 161 186 161 Q184 166 185 166 L175 166 Q166 166 161 157 ZM59 146 L59 135 Q59 133 59 133 L61 135 Q75 135 78 142 L78 155 L62 155 Q59 154 59 146 ZM105 165 L114 165 Q122 165 132 147 L132 136 L123 136 Q117 136 105 154 L105 165 ZM163 137 L163 128 L150 128 Q182 135 182 139 L182 143 Q182 143 181 143 Q163 138 163 137 ZM59 112 L59 97 Q59 95 59 95 L63 97 Q76 97 78 103 L78 113 L70 113 L59 112 ZM103 104 Q106 59 106 49 L110 46 L118 46 L118 49 Q107 63 107 83 L109 101 L106 103 L101 103 Q101 104 103 104 ZM161 88 L163 87 Q163 82 161 56 Q166 56 178 72 L159 88 L161 88 Z" /><glyph glyph-name="uni81EA" unicode="&#x81ea;" d="M117 188 Q132 185 132 177 L132 166 L70 139 L70 151 Q98 175 117 188 ZM162 156 L166 156 Q188 156 192 143 L191 108 Q192 85 194 21 Q194 -8 186 -24 L178 -24 Q161 -8 148 -8 Q145 -8 130 -8 Q106 -15 87 -15 Q73 -12 69 13 Q70 50 71 86 L71 98 Q73 126 61 138 L61 149 L72 149 L83 144 Q96 144 162 156 ZM104 125 L94 125 L95 114 Q96 104 97 101 L116 103 Q135 109 140 109 L149 109 Q157 107 157 98 L157 95 Q157 84 106 80 L97 80 L97 59 L108 59 Q113 59 140 66 Q155 60 155 54 L155 50 Q155 40 104 36 L96 37 Q95 28 95 22 L95 11 Q95 11 95 11 L106 11 Q151 18 160 18 Q168 12 168 12 L169 14 L169 36 Q169 134 166 134 L158 134 L104 125 Z" /><glyph glyph-name="uni8282" unicode="&#x8282;" d="M159 214 Q172 216 173 185 L187 185 Q193 185 200 172 L200 166 L196 158 L169 157 Q164 156 148 131 L134 131 L134 138 Q134 141 135 144 L140 153 L121 151 Q119 151 119 132 L97 128 Q99 151 63 142 L53 157 Q61 163 95 169 L95 150 L89 194 L103 194 L119 171 Q149 172 149 189 L149 197 Q148 200 148 209 L159 214 ZM164 134 Q200 129 200 114 Q199 88 185 53 L171 33 Q136 45 136 56 L136 64 Q143 64 148 65 Q155 63 161 66 Q165 63 168 103 L168 107 Q168 108 166 108 Q133 105 133 105 L134 55 Q132 -46 114 -43 Q114 -42 112 -42 L110 -5 Q108 30 108 52 L107 73 Q105 97 105 97 L97 95 L78 92 L67 105 L67 116 L83 119 L106 124 Q131 127 164 134 Z" /><glyph glyph-name="uni82B1" unicode="&#x82b1;" d="M138 202 L147 202 Q158 202 164 171 L162 173 Q166 173 169 175 Q186 175 195 160 L195 149 L164 149 Q154 149 137 116 L124 116 L124 124 Q124 127 128 140 L126 143 Q115 140 113 140 L113 115 Q113 104 104 104 Q99 104 86 120 L89 127 L89 137 L87 140 Q72 137 66 135 Q52 139 52 152 Q87 158 87 159 Q87 160 82 178 Q84 187 95 187 L111 164 L130 164 Q138 167 138 178 Q138 192 138 202 ZM74 113 L83 113 Q89 113 95 102 Q95 96 80 78 L80 76 Q85 60 85 55 L85 51 Q85 29 77 -19 L69 -19 Q59 -19 56 -4 Q61 32 61 44 L61 54 Q61 56 65 56 L38 28 L26 28 L26 42 Q74 97 74 113 ZM169 108 L173 108 Q183 106 183 98 L183 92 Q145 63 145 55 L145 21 Q145 3 187 4 Q204 6 204 16 L203 44 L212 44 Q222 44 228 6 L228 -9 Q224 -22 202 -22 L182 -23 L165 -22 Q122 -11 122 24 L122 40 Q122 39 119 39 L78 35 Q122 62 122 70 Q124 83 118 83 Q122 95 122 100 L134 100 Q143 87 145 87 Q148 87 169 108 Z" /><glyph glyph-name="uni83B7" unicode="&#x83b7;" d="M131 197 L143 197 Q161 191 157 177 L156 168 L139 167 Q160 167 160 172 Q180 172 189 155 L189 148 L170 147 L148 145 Q147 145 130 115 L116 115 L116 126 Q120 137 126 151 L126 145 L113 144 Q107 144 107 142 L103 119 L92 119 Q83 140 81 138 L60 137 L51 159 Q79 160 79 160 L75 183 L88 183 L104 163 L119 165 L132 165 Q134 166 134 174 L134 178 Q134 183 131 190 L131 197 ZM179 139 Q210 127 217 113 Q204 106 200 106 Q186 106 174 123 L174 135 Q179 135 179 139 ZM152 132 Q168 132 170 96 L177 96 L193 98 Q201 93 201 77 Q168 72 168 71 L168 68 Q197 12 220 13 Q240 0 240 -8 Q240 -17 228 -17 Q188 -16 169 21 Q158 49 155 50 Q128 7 106 -13 Q94 -13 94 -3 L94 2 Q134 41 134 61 L133 62 Q112 63 112 75 L112 82 Q147 82 147 98 L147 112 L142 126 L152 132 ZM84 125 L95 125 L95 114 Q84 98 84 94 Q95 70 95 49 L95 45 Q90 -19 72 -19 L53 4 L53 18 L70 13 Q72 13 72 38 Q47 13 42 13 Q38 10 25 10 L25 28 Q48 28 68 74 L67 77 Q35 45 30 45 L14 45 Q58 95 58 95 L50 107 L50 121 L60 121 L71 112 Q71 112 84 125 Z" /><glyph glyph-name="uni871C" unicode="&#x871c;" d="M111 199 Q133 193 133 183 L133 180 L124 170 Q112 176 106 189 L111 199 ZM56 170 L68 170 L78 168 Q116 173 183 175 Q190 175 199 162 Q199 154 143 125 Q134 103 127 95 Q132 94 148 94 L165 97 Q155 110 170 110 Q198 102 204 87 Q189 77 149 73 L119 75 L107 79 Q70 50 19 46 Q78 75 89 89 Q89 88 69 102 L73 118 L84 118 L104 104 L107 103 Q108 103 111 110 L113 114 Q94 124 94 133 L94 143 L106 143 Q118 134 121 134 L125 147 L132 147 L140 143 L144 143 Q155 150 155 154 Q155 154 153 154 Q80 154 80 142 L77 124 L69 124 Q63 124 57 135 L57 154 L56 170 ZM188 136 Q215 131 215 121 L215 108 Q188 108 172 125 L172 134 Q178 134 188 136 ZM42 122 L51 122 Q66 122 67 77 L58 77 Q43 77 42 110 L42 122 ZM120 75 L125 75 Q133 75 137 68 Q156 69 160 69 Q186 67 186 54 L186 51 Q174 10 139 15 Q138 8 138 4 L136 6 Q172 9 173 10 Q174 11 168 29 L186 21 Q194 21 210 -12 Q207 -30 199 -30 Q186 -30 180 -10 L173 -11 L71 -28 Q63 -23 61 -23 L53 -4 Q107 3 111 4 L111 15 L92 13 Q80 21 74 54 Q77 59 77 65 L103 65 Q112 63 120 75 ZM137 50 L139 39 L152 40 Q157 42 158 44 L158 51 Q158 50 158 50 L139 50 Q137 50 137 50 ZM102 42 L102 38 Q102 36 106 35 Q113 35 112 37 L112 46 Q113 41 113 46 L104 46 Q103 46 102 42 Z" /><glyph glyph-name="uni88AD" unicode="&#x88ad;" d="M114 210 Q145 204 145 192 L145 182 L129 182 Q122 182 114 194 L114 210 ZM75 196 L83 196 Q92 192 92 185 L92 167 Q103 167 144 175 Q157 168 157 162 L157 152 L140 151 L123 151 Q122 151 122 151 L122 142 Q122 142 122 142 Q128 142 141 151 L152 151 L152 138 Q127 121 127 120 L127 118 Q127 117 133 113 L168 113 Q168 113 168 128 L175 128 Q182 128 193 109 L193 98 Q174 92 162 92 L143 92 Q123 92 107 111 L82 107 L82 122 Q104 125 104 131 Q104 146 103 146 L89 146 Q86 146 74 109 Q46 78 43 78 L32 78 L32 87 Q58 116 68 142 Q68 142 46 153 Q49 165 56 165 L70 163 Q71 164 75 196 ZM88 107 L100 107 Q107 107 113 96 L113 87 L98 87 Q88 87 88 97 L88 107 ZM145 92 Q149 90 157 90 L157 71 Q89 67 89 58 Q84 18 85 2 Q94 2 120 27 L128 27 Q128 8 84 -27 L76 -27 Q65 -22 65 -7 L65 11 L63 28 Q59 28 39 11 L24 11 Q65 57 65 62 L53 65 L53 80 L145 92 ZM175 71 L182 71 L182 62 Q182 51 146 44 L145 42 L145 40 Q220 12 226 12 L226 1 L213 -6 Q164 -6 95 53 L95 63 L104 63 Q114 63 131 53 Q161 71 175 71 Z" /><glyph glyph-name="uni88E4" unicode="&#x88e4;" d="M126 195 L138 195 Q155 181 155 174 L198 174 Q208 172 208 162 Q196 152 182 152 L147 152 Q132 152 126 149 Q129 125 129 113 Q129 52 84 5 L70 5 L70 14 Q108 56 108 113 L108 142 Q108 146 105 151 Q105 168 137 171 L137 167 L126 180 L126 195 ZM52 174 L63 174 Q68 174 78 162 L78 147 L68 147 Q63 147 52 165 L52 174 ZM152 152 L168 152 L168 136 L182 136 Q187 136 192 139 Q197 136 203 136 L203 125 L194 115 Q186 116 185 116 Q156 116 152 89 L152 87 Q164 87 167 111 L172 111 Q178 111 186 91 L187 90 L201 92 Q207 92 212 82 Q212 69 196 68 L184 70 L183 67 Q181 57 185 57 Q194 57 227 59 Q245 53 245 45 L245 33 L183 33 L183 10 Q183 -4 175 -32 L168 -32 Q162 -32 156 -17 Q160 -2 160 27 Q160 33 160 32 Q154 32 114 28 L110 37 L110 45 Q158 52 158 52 L158 66 Q158 67 158 66 L150 66 Q147 66 140 64 Q135 66 127 66 L127 74 L140 110 Q137 112 127 112 L127 126 Q152 126 152 152 ZM75 147 Q80 146 87 146 L87 134 Q59 103 59 92 L59 82 Q62 82 62 85 L85 107 L97 107 L97 94 Q74 71 74 77 Q89 68 89 62 L89 58 L84 46 Q69 57 60 57 Q59 57 59 56 L59 12 Q59 3 47 3 L35 13 Q39 39 39 68 L33 72 Q40 72 23 58 L14 58 L14 68 Q52 111 52 122 Q49 122 49 124 L45 122 L33 122 L33 129 Q33 139 75 147 Z" /><glyph glyph-name="uni8981" unicode="&#x8981;" d="M166 196 L174 179 Q147 171 147 171 L149 165 Q149 165 152 163 L160 163 Q209 159 209 147 L209 141 Q197 126 174 84 Q168 84 155 93 L148 93 Q118 93 118 93 L116 80 L131 80 Q164 84 167 84 L226 84 Q242 84 249 69 L249 64 L244 55 Q211 60 174 60 Q159 36 146 23 Q158 18 187 2 Q191 -6 197 -6 Q193 -17 193 -24 L178 -24 Q138 1 124 1 Q112 -7 51 -22 L51 -11 L103 15 L101 11 Q81 22 62 30 L62 36 L70 51 L69 49 L48 47 Q45 47 27 45 Q11 45 8 57 L8 65 Q97 70 97 81 L97 85 L80 85 Q71 78 63 78 Q53 90 53 100 L53 128 Q48 133 48 147 Q57 152 62 152 L93 153 Q93 153 93 152 L90 158 Q88 167 88 168 Q78 171 78 179 Q80 189 88 189 L102 189 Q153 196 166 196 ZM109 168 Q109 159 114 157 L125 157 Q125 157 127 160 L127 165 Q127 166 124 168 L109 168 ZM153 141 Q178 140 178 140 L180 137 Q180 133 178 130 Q178 115 143 115 L140 116 Q145 141 153 141 ZM114 115 L117 113 L120 113 Q122 114 122 121 L122 132 L116 132 Q116 132 114 115 ZM74 127 L74 125 Q74 105 76 105 Q91 109 99 109 Q99 97 93 130 L77 130 Q76 130 74 127 ZM90 42 Q88 39 131 28 L121 28 Q139 46 145 69 L145 59 Q98 62 90 42 Z" /><glyph glyph-name="uni89C9" unicode="&#x89c9;" d="M85 194 L98 194 Q109 194 113 163 L98 146 L85 183 L85 194 ZM144 194 L148 194 Q155 194 160 183 L161 174 L136 154 L137 155 Q164 157 180 157 Q204 157 215 137 Q207 130 164 105 L149 105 L177 140 Q177 136 173 136 Q113 136 57 117 Q59 106 64 89 Q61 84 61 79 L54 79 Q36 79 36 141 L59 141 L69 143 Q69 135 56 168 L69 168 Q89 146 71 146 L107 151 Q115 160 144 194 ZM136 129 Q153 129 154 109 Q153 80 152 37 L128 37 L130 87 Q131 109 132 107 Q119 107 85 105 L85 112 Q85 121 136 129 ZM78 110 L85 110 Q90 84 90 68 Q87 34 76 34 L67 34 Q68 75 68 92 L68 100 Q71 110 78 110 ZM118 100 Q118 95 126 89 Q120 68 116 53 Q117 42 117 29 L118 8 Q122 -2 151 -2 Q208 -2 204 8 Q206 25 211 33 L223 33 Q223 27 225 22 Q234 -24 210 -24 Q193 -28 168 -28 L158 -28 Q95 -28 95 17 L95 30 L100 30 Q65 -11 31 -23 L31 -5 Q69 12 100 79 Q105 100 118 100 Z" /><glyph glyph-name="uni8BA9" unicode="&#x8ba9;" d="M126 178 L143 170 Q157 163 155 144 L155 109 Q155 109 157 109 L159 109 Q161 109 186 113 Q192 109 199 109 L199 91 Q155 84 155 81 L155 36 Q159 36 159 35 L171 36 L210 36 Q233 36 238 19 L238 9 L224 9 Q216 9 157 9 Q108 5 81 1 Q77 3 71 3 L71 19 Q128 28 127 35 Q127 56 129 124 L129 149 L126 178 ZM49 166 L64 166 Q80 158 80 149 Q80 140 71 140 Q55 140 49 154 L49 166 ZM54 124 L61 124 L68 118 L64 44 Q65 42 65 42 Q65 44 84 71 L97 71 L97 58 Q67 2 58 -10 Q39 -5 39 5 Q43 21 43 97 L43 99 L24 99 Q14 99 14 108 Q14 117 54 124 Z" /><glyph glyph-name="uni8BAE" unicode="&#x8bae;" d="M123 176 Q155 160 152 147 L152 144 Q150 135 140 137 Q113 153 111 168 Q113 178 123 176 ZM39 165 L52 165 Q71 164 71 152 L71 145 L63 134 L39 149 L39 165 ZM183 149 L189 129 Q177 77 159 52 Q165 35 243 6 L219 -10 Q173 0 141 34 L150 38 Q108 -2 95 -2 Q93 -9 80 -1 L70 6 Q128 41 128 50 Q124 64 90 115 L90 124 L103 124 Q107 124 142 74 L143 72 Q151 82 170 149 L183 149 ZM66 128 L66 106 Q65 48 63 50 Q63 50 75 62 L92 62 Q77 42 54 -11 L50 -11 Q44 -11 37 3 Q42 39 42 61 L42 101 Q42 101 42 101 Q33 103 33 97 Q21 101 15 101 L15 108 Q15 123 66 128 Z" /><glyph glyph-name="uni8BB2" unicode="&#x8bb2;" d="M164 196 L177 196 Q187 185 187 157 Q200 158 200 145 L189 136 L187 106 Q187 109 190 109 L204 111 L216 111 Q229 114 237 97 Q237 87 227 87 L215 88 Q202 88 191 86 Q190 -12 183 -36 L168 -36 Q168 -29 166 -22 Q168 -9 165 83 Q165 82 165 82 Q138 79 137 56 Q132 28 105 -4 L94 -4 L94 6 Q110 41 115 67 L115 73 L94 73 Q91 73 89 73 Q87 73 78 73 L78 81 Q78 89 119 99 L121 100 L121 122 Q116 129 105 129 L105 143 Q121 146 121 147 L121 153 Q121 167 118 189 L130 189 Q141 189 143 153 L144 152 L147 152 Q161 152 163 159 L164 196 ZM51 171 L67 171 Q87 160 87 153 Q87 147 80 139 L75 139 Q51 154 51 161 L51 171 ZM142 101 Q166 101 163 129 L163 132 L161 133 Q143 133 143 115 L142 101 ZM54 133 Q58 133 69 121 Q64 85 68 68 Q67 51 67 58 L81 69 L91 69 Q91 48 46 -15 Q46 3 42 7 Q41 53 43 68 L43 105 Q43 105 18 109 L18 118 L54 133 Z" /><glyph glyph-name="uni8BDD" unicode="&#x8bdd;" d="M155 186 L163 186 Q171 186 176 175 Q176 162 121 147 L121 161 L155 186 ZM50 163 L58 163 Q75 163 80 148 L80 139 L69 139 Q54 139 50 152 L50 163 ZM151 158 L155 158 Q164 158 166 128 L175 129 Q199 129 216 129 L228 129 Q236 125 236 119 L236 103 L214 103 Q177 107 166 103 Q166 88 166 83 L193 83 Q211 83 215 67 Q200 -1 184 -1 L178 1 Q134 1 134 -10 L134 -16 L124 -16 Q114 -16 110 6 Q110 8 111 23 L105 69 L114 77 Q143 79 143 80 Q142 101 142 102 Q101 99 86 96 Q81 99 75 99 L75 108 Q75 120 144 126 L144 129 Q144 139 143 151 L151 158 ZM56 128 Q61 126 68 126 Q65 84 65 67 L65 47 Q65 45 65 45 Q85 69 90 69 L97 69 Q97 53 58 -3 L54 -3 Q47 -3 40 11 L45 94 L45 101 Q45 102 42 104 L31 103 Q25 104 18 104 L18 126 L33 126 Q42 126 56 128 ZM129 53 Q130 22 134 22 L137 22 Q188 22 188 54 Q190 54 190 56 L190 59 Q190 59 188 59 Q128 58 129 53 Z" /><glyph glyph-name="uni8BDE" unicode="&#x8bde;" d="M185 184 Q191 183 197 183 L197 173 L179 155 L179 152 Q189 125 190 125 L200 128 Q214 122 214 113 Q189 100 189 100 L189 83 Q189 84 215 82 L218 72 L218 63 Q157 53 140 37 Q131 53 124 53 L131 64 L131 79 Q131 79 131 78 Q127 78 126 40 Q126 32 235 14 L241 3 L241 -8 L224 -9 L222 -9 Q164 -9 112 24 Q81 -9 78 -9 Q75 -12 66 -12 L59 -12 L59 -1 Q97 25 97 38 Q83 49 83 67 L94 67 Q103 58 110 58 Q112 58 112 78 Q110 84 115 84 L102 74 L92 74 L92 82 Q100 106 100 113 L100 125 Q86 125 86 139 Q104 152 114 152 Q120 152 126 139 Q116 112 116 105 Q130 99 129 99 Q133 112 141 112 L147 112 L150 94 L150 74 L159 74 Q169 74 169 122 Q164 146 163 146 Q146 136 132 136 L132 145 Q140 154 185 184 ZM47 159 L60 159 Q66 159 74 144 L74 136 L66 136 Q51 136 47 149 L47 159 ZM59 123 Q61 116 66 116 Q60 74 60 51 Q60 49 75 72 L87 72 L61 -2 L49 -2 L38 7 L40 34 L40 71 L42 100 L38 100 Q35 100 30 96 Q22 100 16 100 L16 111 Q16 121 59 123 Z" /><glyph glyph-name="uni8BED" unicode="&#x8bed;" d="M162 192 Q182 186 182 179 L182 175 Q182 164 149 164 L149 143 L178 146 Q187 144 187 137 Q182 102 182 101 L221 99 Q217 99 217 104 Q241 99 241 90 L241 80 L206 79 L194 79 Q181 79 86 68 Q81 70 74 70 Q74 85 120 92 Q125 114 125 118 L104 118 L104 136 Q128 136 127 147 L126 163 L103 172 Q119 182 162 187 L162 192 ZM39 166 L52 166 Q58 166 75 154 L67 137 L59 137 Q52 137 41 154 L39 166 ZM146 121 L144 96 Q144 95 144 95 L159 95 Q161 95 164 119 Q164 119 164 122 L159 122 Q146 122 146 121 ZM36 125 L49 126 Q61 126 60 98 L61 79 L61 49 L58 49 Q75 74 80 74 L87 74 L87 59 L52 -11 Q43 -11 36 0 L41 84 Q40 99 40 101 L28 101 Q17 101 17 112 Q20 125 36 125 ZM182 70 Q187 70 200 58 Q190 -6 182 -6 L130 -8 Q130 -8 127 -23 L121 -23 Q105 -23 103 70 Q118 61 123 61 L182 70 ZM126 38 Q128 16 129 14 Q174 14 174 37 L174 48 Q126 46 126 38 Z" /><glyph glyph-name="uni8BF7" unicode="&#x8bf7;" d="M135 203 L152 203 L155 181 L155 175 Q159 175 158 175 L172 177 L181 177 L181 161 Q155 158 155 155 L155 149 L177 149 L177 137 L153 123 Q187 125 204 125 L215 125 Q220 125 230 113 L230 105 L211 102 L191 102 Q152 102 85 90 Q81 92 75 92 L75 100 Q75 109 127 116 L130 120 Q130 120 127 122 Q126 124 126 120 Q116 122 109 122 L106 140 Q128 141 133 146 L133 150 Q133 151 113 147 L107 165 L134 174 Q135 178 135 188 L135 203 ZM48 162 L57 162 Q72 162 78 149 L78 141 L69 129 Q48 147 48 153 L48 162 ZM56 119 L59 119 Q71 115 67 99 L67 57 L81 62 Q63 -2 56 -2 L54 -2 Q44 -2 44 7 Q46 66 46 97 L26 97 L26 114 Q47 119 56 119 ZM170 103 Q190 103 189 9 Q188 -30 177 -30 L174 -30 Q169 -30 151 -10 Q159 -2 165 -2 L166 27 Q127 22 127 17 Q127 0 124 -12 L118 -12 Q113 -12 101 3 Q108 13 108 50 Q108 87 108 93 L116 93 Q166 100 170 103 ZM130 75 L130 71 Q130 69 119 69 Q160 78 163 78 L163 81 Q163 83 163 82 L155 82 Q130 77 130 75 ZM127 48 L127 40 L132 40 Q163 46 163 48 L163 56 Q163 59 181 59 Q127 53 127 48 Z" /><glyph glyph-name="uni8D77" unicode="&#x8d77;" d="M78 205 Q90 205 94 176 L94 162 Q94 163 115 156 L115 148 Q91 136 91 126 L95 123 Q105 127 105 133 Q126 123 126 116 L126 108 Q99 104 99 102 L99 97 L100 90 L104 90 Q107 90 111 93 Q126 88 126 78 Q101 63 101 58 L99 32 Q157 2 242 2 Q255 -9 255 -13 L255 -19 L238 -22 L204 -22 Q129 -22 52 38 L50 38 Q50 30 19 3 L7 3 L7 15 Q45 53 48 90 L38 90 Q33 90 26 90 L26 106 Q70 112 70 125 L70 135 Q70 135 55 137 L55 151 Q68 151 72 158 L72 170 L70 198 L78 205 ZM183 162 L187 162 Q193 162 199 153 L199 146 Q199 144 192 112 Q194 107 194 99 Q155 99 155 62 L155 56 Q156 52 165 52 L168 52 Q217 52 217 61 L221 78 L227 78 Q235 78 243 42 Q243 36 229 22 L223 27 L218 27 Q206 27 190 22 Q134 25 134 62 Q134 113 161 113 Q167 113 174 128 L174 136 L165 136 Q162 136 156 134 Q151 136 145 136 L145 146 Q145 156 183 162 ZM59 57 Q73 46 73 46 L77 44 L77 91 Q77 91 72 94 L68 94 Q65 94 59 57 Z" /><glyph glyph-name="uni8E66" unicode="&#x8e66;" d="M146 211 Q167 198 167 185 Q165 173 165 170 L169 167 Q189 172 197 172 L197 155 L192 190 L204 190 Q217 190 225 148 L215 143 L197 147 Q173 147 119 133 L113 142 L121 181 L137 181 L140 164 L140 162 L146 162 Q146 161 146 162 L146 211 ZM81 167 Q93 167 100 152 Q93 121 77 109 Q79 102 100 102 L100 95 Q100 90 82 74 L83 65 L105 70 L105 60 Q77 25 11 6 L11 21 L30 35 L30 39 Q30 54 32 80 Q30 80 30 89 L37 96 L41 96 Q50 96 54 76 Q53 42 51 42 Q49 53 49 42 Q58 44 58 58 Q60 69 60 95 L60 106 Q60 107 60 107 L35 107 L32 123 Q34 138 30 138 Q30 161 81 167 ZM56 143 L56 132 L63 132 Q72 132 74 138 L74 143 Q74 143 74 143 L56 143 Q56 143 56 143 ZM207 132 L228 132 Q234 132 240 119 Q240 115 238 111 Q247 29 247 -6 L251 -6 Q244 -24 234 -24 Q225 -11 211 -11 L211 -1 L223 9 L223 25 L221 49 L232 49 Q186 39 186 20 Q184 -6 161 -6 Q135 8 132 17 L132 28 L149 25 L153 25 Q153 24 153 25 L153 58 Q153 59 165 59 Q121 51 121 25 L106 11 L93 11 L93 24 Q109 41 109 99 L109 113 Q112 123 164 128 Q173 119 177 63 L175 65 Q175 65 177 81 Q174 91 174 104 L174 106 Q174 125 207 132 ZM196 109 L196 92 Q196 90 195 92 L198 92 Q217 95 217 97 L217 113 Q217 113 216 113 Q212 113 196 109 ZM130 100 L130 96 Q130 94 130 94 L138 96 Q151 102 151 103 Q149 107 149 107 L135 107 Q135 107 130 100 ZM131 72 L131 74 L133 74 Q153 77 153 81 Q153 82 159 82 Q148 75 131 72 ZM194 65 Q194 63 194 63 Q218 65 218 66 L218 76 Q218 76 217 76 Q195 68 194 65 Z" /><glyph glyph-name="uni8EBA" unicode="&#x8eba;" d="M83 204 Q88 201 94 201 L94 192 Q94 186 53 164 L53 170 L57 170 Q81 174 81 178 Q104 178 105 154 Q105 126 110 47 Q104 -21 91 -21 L89 -21 Q83 -21 68 4 L68 15 L76 15 L83 10 Q86 10 86 49 L86 59 Q86 61 86 61 Q28 5 6 5 L61 65 Q63 64 60 63 Q54 65 16 55 L10 67 Q34 80 35 84 Q34 115 34 126 L34 152 Q34 156 32 160 Q32 173 83 204 ZM151 189 L166 189 Q174 180 175 131 L171 133 Q181 143 195 170 L199 170 Q205 170 210 158 Q210 140 171 106 Q170 108 170 108 Q178 110 208 114 Q246 109 246 94 Q230 20 205 -11 L200 -11 Q181 0 181 7 L181 17 L194 15 Q203 15 216 66 L218 82 L218 88 Q218 89 213 92 Q184 90 178 90 Q132 86 128 83 Q136 32 136 14 L136 1 L129 1 Q114 1 106 91 L106 103 L114 103 Q124 103 155 107 Q155 111 152 123 L152 155 Q152 161 151 189 ZM55 149 L55 145 Q58 145 66 143 Q84 146 84 148 L84 152 Q84 154 86 152 L54 152 Q56 152 55 149 ZM124 157 L131 157 Q141 157 153 118 L143 114 L134 114 L122 145 Q124 150 124 157 ZM55 121 L55 119 Q54 113 37 113 L84 120 L83 123 Q55 121 55 121 ZM55 90 L55 85 L53 87 Q86 90 86 94 Q88 97 89 98 Q56 92 55 90 ZM180 87 Q206 83 206 69 Q187 29 179 34 L153 31 Q143 31 134 79 Q148 81 152.5 81.5 Q157 82 180 87 ZM160 61 L160 56 Q160 56 160 56 L167 56 Q181 56 181 65 Q160 64 160 61 Z" /><glyph glyph-name="uni8F93" unicode="&#x8f93;" d="M45 190 L65 190 L65 180 Q60 136 60 156 Q66 158 92 163 L92 150 Q90 141 54 132 Q40 101 40 101 L38 102 Q44 100 50 123 L62 130 Q70 108 68 110 L82 110 Q112 135 135 197 L181 153 Q195 138 233 127 Q253 117 253 110 L253 104 L245 104 Q191 112 153 146 Q142 156 143 156 Q131 137 128 132 Q144 135 169 135 L174 124 Q171 114 128 109 L113 114 Q80 82 67 80 L67 72 L86 70 Q67 53 67 -3 L60 -13 L55 -13 Q49 -13 42 -1 Q43 26 43 38 L42 39 Q41 39 13 28 L5 39 L5 44 Q5 49 44 62 Q45 67 45 74 L45 76 Q45 76 43 78 Q37 73 29 73 L27 73 Q19 73 14 85 Q28 124 28 128 L28 130 Q28 134 22 143 L22 154 Q44 154 45 190 ZM191 116 L210 116 Q210 111 211 111 L210 90 L210 70 Q210 62 216 0 L216 -15 Q216 -24 206 -24 Q194 -24 167 -2 L167 7 L190 7 L190 18 Q190 27 186 49 Q187 84 187 103 L191 116 ZM133 106 Q153 106 153 80 L153 -19 L145 -19 Q138 -19 126 0 Q132 24 132 29 L129 31 L122 31 Q109 31 109 -4 L96 -4 L87 4 Q89 21 93 81 Q92 84 92 94 Q114 106 133 106 ZM159 95 L170 95 Q183 95 183 80 Q183 35 169 35 Q159 35 159 47 L159 95 ZM113 74 L113 80 L119 80 Q127 80 127 79 L118 79 Q117 79 113 74 ZM113 55 Q113 53 113 53 L123 55 Q125 55 130 64 Q130 60 140 60 Q113 55 113 55 Z" /><glyph glyph-name="uni8FD8" unicode="&#x8fd8;" d="M167 181 L173 181 L192 175 L187 158 Q158 156 152 133 L149 128 Q157 96 157 92 L159 40 Q159 23 147 21 Q141 21 132 35 L134 80 Q132 101 138 101 L131 97 Q96 61 79 61 L79 70 Q128 120 128 146 Q103 148 103 159 L103 171 Q133 172 137 172 Q162 176 167 181 ZM59 168 Q79 158 79 148 L79 142 L74 131 Q59 130 49 157 Q51 168 59 168 ZM23 123 L47 120 Q65 116 65 90 L63 70 Q77 48 79 29 Q104 16 240 4 L240 -6 Q240 -17 189 -20 Q146 -20 11 24 L11 31 L15 40 Q34 39 53 36 L53 42 Q53 45 41 73 Q41 76 42 94 Q23 106 23 112 L23 123 ZM182 107 Q216 96 213 83 L213 79 Q211 70 199 72 Q163 88 164 102 L166 104 Q168 110 182 107 Z" /><glyph glyph-name="uni8FD9" unicode="&#x8fd9;" d="M135 196 Q150 196 172 175 Q192 177 199 177 L204 168 L204 163 Q204 155 178 150 Q178 135 168 101 Q203 76 208 59 L213 59 Q209 48 209 46 L201 30 Q159 81 157 81 Q129 49 104 44 Q86 47 86 56 L86 61 Q135 75 135 91 Q135 91 120 109 L120 120 Q130 120 146 116 Q152 125 152 147 Q144 145 112 142 L108 150 L108 154 Q108 164 149 168 L150 169 Q150 168 135 184 L135 196 ZM52 177 Q72 177 83 161 L83 146 L73 146 Q68 146 52 168 L52 177 ZM26 124 L34 124 Q74 124 74 82 Q78 33 113 33 Q121 27 243 14 L248 7 Q248 -5 220 -9 Q149 -9 41 30 L12 30 L12 48 Q29 51 36 51 Q39 51 61 49 L61 33 Q51 100 46 100 Q26 104 26 124 Z" /><glyph glyph-name="uni9009" unicode="&#x9009;" d="M139 208 L150 208 Q163 208 162 187 L162 164 Q162 163 166 163 L187 164 L191 155 L191 153 Q191 144 161 137 Q158 131 158 115 Q158 113 157 115 Q173 115 184 121 Q198 114 198 108 L198 104 Q198 98 185 92 L172 94 L166 94 Q165 94 165 62 L165 45 Q165 42 186 39 L193 39 Q209 39 221 55 L230 55 Q235 39 235 23 Q232 17 190 15 Q141 19 141 57 L141 84 L139 84 L111 31 Q97 17 81 17 L81 26 Q111 59 111 81 Q111 80 111 80 Q95 78 91 78 Q86 80 81 80 L81 87 Q81 97 131 106 Q136 113 136 113 L138 134 Q126 134 103 103 L89 103 Q113 154 113 178 L122 178 Q131 178 136 156 Q138 155 138 155 L141 159 L141 181 Q141 193 139 208 ZM43 155 L51 155 Q68 155 72 142 L72 128 L62 128 Q55 128 43 146 L43 155 ZM32 109 L39 109 Q54 109 62 93 L60 86 L60 69 Q72 36 74 19 Q141 -6 220 -6 L232 -6 L254 -9 L254 -17 Q254 -27 204 -34 L198 -31 L180 -31 Q100 -18 52 1 Q44 1 8 9 L8 24 L30 27 L49 27 L38 85 Q23 90 23 99 Q25 109 32 109 Z" /><glyph glyph-name="uni90FD" unicode="&#x90fd;" d="M81 195 L98 195 Q101 156 102 155 L108 155 Q116 161 122 188 L131 188 Q140 184 140 178 L141 169 L116 120 L114 122 Q121 122 136 125 Q141 122 147 122 L147 113 Q147 104 101 94 L96 87 Q96 85 81 85 Q130 92 138 92 Q138 86 140 40 Q140 19 128 17 Q126 17 112 21 Q91 18 91 2 L79 2 Q75 2 67 16 L69 29 L69 52 L74 52 L25 1 L25 17 Q73 80 73 89 L64 89 Q48 85 45 85 Q34 85 34 94 Q34 102 77 115 L77 126 L74 126 L54 130 L54 136 Q54 146 81 149 L81 195 ZM203 158 Q212 156 212 148 L212 137 Q206 121 197 108 Q232 89 231 65 L231 60 Q222 35 205 20 Q180 34 174 39 L173 10 Q173 -18 165 -53 L151 -53 L151 -16 L150 26 L149 117 L147 141 Q149 153 174 153 L203 158 ZM168 132 Q171 63 172 61 Q194 52 194 52 Q204 50 206 59 L205 74 Q193 94 161 91 Q174 110 186 131 L186 133 L174 133 L168 132 ZM91 65 L98 64 Q117 66 117 69 L117 71 Q117 71 114 71 Q91 67 91 65 ZM94 42 L94 37 Q94 35 94 35 L94 37 Q101 41 117 44 L117 50 L119 48 Q105 42 94 42 ZM99 128 L101 131 L99 131 L99 128 Z" /><glyph glyph-name="uni91CC" unicode="&#x91cc;" d="M116 178 L128 179 Q148 178 162 178 Q185 176 192 167 L192 160 Q172 81 136 80 Q135 71 133 73 Q140 73 165 80 L173 67 L173 63 Q173 55 137 49 L136 45 L136 30 Q136 29 138 28 Q145 28 174 28 L188 31 Q226 16 226 7 L226 -3 L213 -3 Q194 2 164.5 2.5 Q135 3 42 -7 Q35 -3 30 -3 L30 4 Q30 14 109 24 Q114 24 114 30 Q113 46 112 46 Q109 46 84 40 Q79 41 72 41 L72 51 Q72 58 112 72 L112 78 Q112 81 109 81 Q84 72 80 72 Q69 75 69 82 Q67 94 70 94 Q65 149 63 158 Q63 171 116 178 ZM133 156 Q132 145 141 148 Q143 148 143 158 Q156 150 161 150 L161 140 Q161 130 136 125 L136 110 Q136 108 135 110 Q149 110 158 134 L158 153 Q158 155 147 158 Q133 156 133 156 ZM84 149 L85 142 Q85 141 85 141 L109 145 Q109 145 109 145 L109 155 Q109 156 108 156 Q84 153 84 149 ZM90 118 L92 102 L103 102 Q111 102 111 105 L111 118 Q111 120 110 122 L90 118 Z" /><glyph glyph-name="uni91CD" unicode="&#x91cd;" d="M141 191 Q149 187 149 181 L149 179 Q149 166 71 152 L128 191 L141 191 ZM114 146 L115 165 L134 166 L140 153 L193 154 Q225 154 227 142 L227 135 L223 127 Q185 131 167 131 L140 131 Q137 130 137 130 L139 128 Q164 128 173 128 Q190 123 190 114 Q190 49 140 49 L139 48 L139 45 L163 45 Q181 45 181 32 L181 25 Q137 25 137 11 L137 7 Q223 7 223 -11 L223 -16 L219 -24 Q163 -16 131 -20 Q120 -22 95 -24 L47 -26 L41 -19 L41 -4 Q115 2 115 6 L115 13 Q114 17 128 17 Q98 12 93 12 L83 12 L83 32 Q115 36 115 40 L115 44 Q115 46 115 45 L102 45 L91 37 Q69 44 69 75.5 Q69 107 69 115 L82 115 Q90 94 96 94 Q111 98 115 98 L115 105 L85 105 L85 112 Q85 121 115 125 L117 142 Q117 126 111 125 Q74 116 49 116 L40 116 Q32 116 25 133 Q114 143 114 146 ZM139 106 Q140 105 140 105 Q152 104 165 104 L166 85 Q139 79 139 79 L139 72 Q165 72 165 100 Q167 100 167 105 Q167 106 164 107 L140 107 Q139 107 139 106 ZM95 73 L95 65 L97 65 Q115 67 115 70 L115 74 L106 74 L95 73 Z" /><glyph glyph-name="uni95EF" unicode="&#x95ef;" d="M117 181 Q173 190 192 190 Q211 191 208 40 Q207 -2 201 -25 Q182 -25 147 -2 Q123 -2 91 18 L91 26 L99 26 Q123 22 133 22 Q139 22 146 50 L145 51 L142 51 Q94 44 72 44 L67 44 Q59 44 59 52 Q59 60 148 70 L148 77 L138 79 Q138 79 130 79 Q101 76 90 68 L81 68 L81 80 Q85 87 92 120 L96 120 Q102 120 107 108 L103 96 L103 94 Q103 92 108 92 L155 99 Q170 99 170 79 L170 77 Q170 61 154 12 Q177 6 186 6 Q187 6 187 48 L187 143 L184 168 Q184 169 179 172 Q142 165 131 165 L117 165 L117 181 ZM56 184 Q73 184 81 169 Q81 159 72 159 L66 159 Q48 168 48 176 Q50 184 56 184 ZM139 158 Q153 153 155 146 L155 135 Q139 96 132 96 Q122 96 120 110 Q129 129 129 132 Q129 132 127 132 L99 128 Q82 129 82 140 Q82 151 139 158 ZM37 152 L43 152 Q54 152 58 131 Q56 115 56 62 Q56 48 56 -11 L43 -7 Q39 -7 31 3 L33 13 Q31 57 35 127 Q34 134 34 141 Q37 146 37 152 Z" /><glyph glyph-name="uni96EA" unicode="&#x96ea;" d="M147 196 Q165 189 165 182 L165 174 Q146 168 133 168 Q132 165 135 164 Q186 166 208 166 Q212 166 227 157 L227 143 L198 119 L186 119 L186 129 L194 140 L194 144 Q136 143 136 140 L136 101 L133 79 L117 79 L111 100 L111 140 Q107 138 76 133 Q66 135 64 135 Q66 113 66 101 L66 91 L56 91 Q50 91 41 109 L44 114 Q44 124 42 153 L59 154 L66 154 Q110 154 110 161 Q110 170 110 170 L76 168 Q77 189 89 189 Q146 193 147 193 L147 196 ZM154 145 Q183 136 183 127 L183 117 Q179 117 179 114 Q150 120 150 128 L150 141 Q154 141 154 145 ZM80 138 Q99 132 99 125 L99 123 Q99 113 90 113 L85 113 Q78 113 71 127 L71 129 Q71 136 80 138 ZM71 111 L85 111 L103 105 L103 90 L85 86 Q78 86 71 98 L71 111 ZM157 116 L160 116 Q175 116 181 103 L181 91 Q174 91 170 87 Q147 95 147 109 L157 116 ZM180 83 Q194 83 205 59 Q191 24 183 10 L183 17 Q197 1 197 -5 Q199 -17 186 -15 Q174 -11 155 -11 Q124 -11 65 -15 L61 -7 L61 4 Q161 12 161 16 Q177 49 177 58 L170 58 Q149 58 91 50 Q86 50 74 50 L64 60 Q69 71 76 71 L97 74 Q160 83 180 83 ZM147 50 L149 50 Q169 49 169 38 L169 33 Q166 27 150 26 Q105 21 91 21 L85 21 Q75 21 75 30 Q75 41 147 50 Z" /><glyph glyph-name="uni97F3" unicode="&#x97f3;" d="M101 200 L113 200 Q119 200 128 186 Q130 186 162 188 L172 174 L155 164 Q155 162 157 158 Q156 146 137 126 L137 130 Q162 132 173 132 L213 132 Q230 132 234 119 L234 108 Q230 108 230 106 Q206 111 192 111 L173 111 Q156 111 34 87 L24 87 L24 95 Q24 105 88 117 L89 119 Q83 153 66 164 L66 175 Q106 175 106 179 Q101 185 101 200 ZM100 156 Q107 125 108 125 L114 125 Q133 143 133 157 L133 161 Q113 159 100 156 ZM150 102 Q171 102 174 51 Q174 29 166 -18 L154 -18 Q144 -8 137 -8 Q97 -12 90 -12 Q80 -2 80 8 L80 41 Q80 49 78 62 Q78 100 133 100 Q133 102 150 102 ZM99 72 L99 69 Q100 60 102 60 Q133 67 143 67 Q153 65 153 58 Q153 47 99 37 Q100 12 102 12 Q152 13 152 20 L152 58 Q152 78 147 82 Q104 79 99 72 Z" /><glyph glyph-name="uni9A8C" unicode="&#x9a8c;" d="M147 195 L166 184 L161 176 L161 171 Q190 134 251 115 L251 105 Q251 96 240 96 Q207 98 161 143 Q149 152 145 154 Q123 119 106 101 Q106 98 108 94 Q108 46 80 -12 L66 -22 L23 8 L23 21 Q33 21 61 10 Q72 14 72 50 L5 39 L-2 39 L-2 54 Q18 59 80 79 L80 81 L66 81 Q52 81 32 66 L17 75 Q38 110 40 142 L47 142 Q53 142 60 131 L52 103 Q94 103 94 114 Q100 121 147 195 ZM91 180 Q104 174 104 168 L104 161 Q96 153 86 109 L76 109 Q66 109 66 119 Q66 126 77 161 Q77 153 71 155 L64 155 Q60 155 55 153 Q40 159 40 165 L40 174 Q45 174 45 181 L60 174 Q86 180 91 180 ZM175 121 Q182 117 190 117 L190 110 Q190 99 131 91 Q117 95 117 103 Q117 114 175 121 ZM193 97 Q208 86 208 77 Q208 63 157 23 L157 37 Q176 62 193 97 ZM152 86 L155 86 Q164 86 170 46 L159 44 L156 44 Q150 44 142 56 L142 78 Q144 86 152 86 ZM121 77 L124 77 Q135 77 141 31 L141 27 L138 29 Q207 32 211 34 Q227 33 236 23 L236 19 Q236 9 226 9 L191 9 Q166 9 108 5 Q103 6 96 6 L96 24 Q127 27 127 21 Q111 40 111 74 L121 77 Z" /><glyph glyph-name="uni9E21" unicode="&#x9e21;" d="M147 206 L157 206 Q157 182 161 182 L205 189 L216 175 L216 166 Q212 160 206 121 Q196 92 186 86 L182 86 Q175 86 156 92 L156 98 Q156 105 179 110 Q188 124 190 166 Q145 166 124 133 L112 133 Q112 146 133 177 Q137 206 147 206 ZM100 150 L112 134 Q97 88 97 83 Q97 81 104 76 L110 76 Q113 76 116 117 L116 134 L132 134 Q132 124 136 113 Q132 86 132 80 L140 80 Q185 89 212 89 L217 89 Q232 89 245 70 L245 63 Q227 -17 197 -40 Q153 -25 145 -12 L157 -5 Q179 -14 185 -14 L191 -14 Q220 26 220 65 L218 66 Q197 68 197 60 Q185 66 185 66 Q177 66 129 53 Q97 53 82 63 Q44 28 27 28 L24 28 Q14 28 14 39 Q14 44 40 51 Q61 70 61 71 L61 77 L39 102 L39 112 Q72 99 75 99 Q80 99 84 127 L84 124 L74 124 Q58 118 49 118 L49 129 Q49 138 100 150 ZM154 148 L172 148 Q179 148 185 136 L185 133 Q185 124 175 124 L171 124 Q149 124 145 137 Q145 148 154 148 ZM191 53 Q206 47 208 40 L208 27 L186 24 L106 26 Q108 26 108 13 Q97 24 88 24 L88 44 L96 44 Q140 49 159 49 L182 49 Q187 49 191 53 Z" /><glyph glyph-name="uni9E45" unicode="&#x9e45;" d="M63 200 L70 200 Q83 200 97 132 Q119 132 119 114 Q105 111 105 111 L105 107 Q106 98 105 98 L115 106 Q126 101 126 95 L126 88 Q117 77 117 72 Q117 44 133 44 Q143 44 212 57 L217 47 L217 32 L200 29 L183 29 Q169 29 140 27 Q140 24 140 25 Q144 9 144 -6 L133 -6 Q122 4 99 48 Q68 30 68 18 Q68 10 64 -3 Q44 -3 23 23 L23 33 Q38 33 47 26 L51 26 Q49 30 53 57 L24 37 Q17 41 11 41 L11 54 Q47 71 52 77 Q53 79 53 83 L53 86 Q53 95 50 95 Q35 90 27 90 Q23 92 16 92 L16 105 Q53 112 53 120 L53 123 L38 133 Q69 161 69 171 Q63 183 63 200 ZM155 198 L162 198 Q167 198 178 184 L174 178 L174 173 L172 175 Q201 177 203 177 Q219 172 219 155 L219 153 Q219 139 207 89 Q207 88 238 83 Q249 70 249 67 L249 52 Q212 -32 202 -33 Q174 -33 151 -10 L151 2 L160 2 Q173 -7 193 -7 L195 -7 Q226 40 226 66 L225 67 L219 67 Q167 67 149 52 L143 52 Q132 52 132 63 Q139 88 139 101 L138 113 Q139 118 139 125 L148 125 Q156 123 156 116 L156 79 L158 79 Q165 79 178 84 Q177 84 167 90 L167 105 L189 105 Q193 105 197 150 Q195 155 195 155 Q161 155 147 129 L138 129 L138 143 Q155 165 155 198 ZM98 171 L112 171 Q117 171 129 157 L129 146 L117 146 Q98 156 98 162 L98 171 ZM71 136 Q71 135 70 133 Q72 121 74 121 Q75 121 76 123 Q76 136 74 136 L71 136 ZM183 139 Q188 137 194 137 L194 116 L179 113 Q157 116 157 126 Q157 135 183 139 ZM75 99 L75 93 Q75 77 73 48 L76 46 L69 46 Q90 60 90 72 L90 78 Q86 102 84 102 L77 102 Q76 102 75 99 Z" /><glyph glyph-name="uni9E7F" unicode="&#x9e7f;" d="M105 207 L120 207 L139 192 L149 192 Q156 192 170 197 Q175 192 178 192 L178 198 Q202 189 205 180 Q205 169 195 169 L177 169 Q168 169 151 171 Q119 162 85 162 L82 162 Q82 162 82 162 Q82 157 85 157 L82 137 Q80 113 87 113 L82 103 L82 95 Q82 45 33 -15 L23 -22 L11 -22 L11 -11 Q58 35 58 100 Q60 100 60 108 L60 163 L57 172 Q74 184 98 184 L110 184 Q111 184 111 186 L105 199 L105 207 ZM157 172 Q170 166 170 151 Q188 149 188 153 Q201 153 214 140 Q190 80 168 80 L157 80 Q162 58 155 58 Q177 69 194 85 Q201 81 207 81 L207 66 Q161 40 161 29 Q164 4 179 4 L222 4 Q221 4 223 34 L238 34 Q238 27 250 -16 Q231 -24 212 -24 L200 -24 Q134 -19 134 37 Q134 48 134 47 Q105 47 105 13 L105 9 L126 25 L138 25 L138 14 L102 -24 L95 -24 Q89 -24 84 -14 L84 13 Q84 26 88 41 L85 52 Q89 71 98 71 L102 71 L111 63 Q134 66 134 76 Q107 71 97 71 L93 80 L93 90 Q109 90 109 115 Q105 118 105 118 L91 114 L83 127 Q107 141 107 146 Q107 161 116 161 L126 161 Q127 144 128 144 L137 144 Q149 144 149 172 L157 172 ZM163 108 Q164 107 164 107 L169 109 Q172 109 178 121 L178 127 Q178 127 178 126 L169 126 Q169 126 163 108 ZM129 122 L127 100 L131 100 Q144 109 144 122 L139 122 Q129 122 129 122 Z" /><glyph glyph-name="uni9F3B" unicode="&#x9f3b;" d="M121 209 L134 209 L134 195 L126 185 L126 191 Q150 194 163 194 Q163 193 163 200 L181 189 Q177 114 149 114 Q130 114 99 106 Q83 109 83 127 Q83 129 85 143 Q85 151 77 183 Q106 198 121 209 ZM104 166 L104 137 Q104 129 109 129 Q153 136 153 138 L117 129 Q112 132 105 132 L105 148 L114 148 Q145 156 150 156 Q158 152 150 152 L157 159 Q157 155 154 155 L141 155 Q129 154 115 146 Q109 150 104 150 L104 157 Q105 171 146 174 L157 174 Q157 173 157 173 L159 171 L135 171 Q104 168 104 166 ZM183 116 Q202 113 202 105 Q202 83 166 54 Q96 45 96 47 Q96 48 99 48 Q190 58 197 58 L203 58 Q221 49 221 43 L221 32 L193 34 Q169 34 164 32 Q165 16 165 4 L165 -7 Q165 -43 143 -43 L143 -32 Q143 -23 143 5.5 Q143 34 143 30 L121 28 Q118 20 102 3 Q79 -17 76 -17 L63 -17 L63 -5 Q84 9 94 26 Q96 25 94 25 Q49 21 40 21 L36 27 L36 40 L43 40 Q53 40 78 44 Q70 49 60 106 L70 106 Q171 116 183 116 ZM140 95 Q140 95 167 94 L167 87 Q167 76 144 72 L160 73 Q172 83 175 95 L173 96 L153 96 Q140 96 140 95 ZM86 87 Q89 66 90 66 L118 66 Q115 66 115 68 L104 68 Q94 68 94 77 L94 84 L118 90 Q118 90 115 90 Q86 87 86 87 Z" /><glyph glyph-name="uniFF08" unicode="&#xff08;" d="M199 195 L199 180 Q171 147 168 102 L168 83 Q171 53 202 10 L202 -2 L194 -2 Q164 -2 144 78 Q142 92 144 109 Q164 195 199 195 Z" /><glyph glyph-name="uniFF09" unicode="&#xff09;" d="M56 200 L75 200 Q110 161 110 121 Q110 53 57 -3 L52 -3 Q46 -3 39 7 L39 15 Q84 63 86 127 Q83 152 56 200 Z" /><glyph glyph-name="uniFF0C" unicode="&#xff0c;" d="M82 32 Q101 35 100 11 Q98 -10 63 -31 L50 -31 L64 -13 Q68 -7 71 -3 Q64 -1 64 14 Q67 32 82 32 Z" /></font>
</defs>
</svg>
