<?xml version="1.0" encoding="utf-8"?>
<!-- Generator: Adobe Illustrator 21.0.0, SVG Export Plug-In . SVG Version: 6.00 Build 0)  -->
<svg version="1.1" id="图层_1" xmlns="http://www.w3.org/2000/svg" xmlns:xlink="http://www.w3.org/1999/xlink" x="0px" y="0px"
	 viewBox="0 0 5188 2083" style="enable-background:new 0 0 5188 2083;" xml:space="preserve">
<style type="text/css">
	.st0{fill:#FFFFFF;}
	.st1{fill:#3ABA91;}
</style>
<path class="st0" d="M378.3,1633.3V433.8h363.3l216.2,818.2l214.5-818.2h363.5v1199.5h-224.3l-0.7-944.2l-238.2,944.2H840.1
	L603.3,689.1l-0.7,944.2H378.3z"/>
<path class="st1" d="M1756.3,1633.3V433.8h887v202.6h-645.3v266.2h600.5v202.6h-600.5v325.6h668.5v202.6H1756.3z"/>
<path class="st0" d="M2810.6,1245.6l235.9-23.2c14.1,79.2,42.7,137.3,85.9,174.4s101.3,55.7,174.6,55.7
	c77.6,0,136.1-16.5,175.4-49.6c39.3-33,59-71.7,59-115.9c0-28.4-8.3-52.5-24.8-72.5s-45.4-37.3-86.6-52
	c-28.2-9.8-92.5-27.3-192.8-52.5c-129.1-32.3-219.7-71.9-271.7-118.9c-73.2-66.2-109.8-146.8-109.8-242
	c0-61.2,17.2-118.5,51.7-171.8s84.1-93.9,148.9-121.8c64.8-27.9,143.1-41.8,234.8-41.8c149.7,0,262.4,33.3,338.1,99.8
	s115.4,155.3,119.2,266.3l-241.6,8.7c-10.3-61.7-32.3-106.1-66-133.1c-33.8-27-84.4-40.5-151.9-40.5c-69.7,0-124.2,14.5-163.6,43.4
	c-25.4,18.6-38.1,43.4-38.1,74.6c0,28.4,11.9,52.7,35.8,72.9c30.3,25.7,104.1,52.5,221.2,80.4c117.1,27.9,203.7,56.7,259.8,86.5
	c56.1,29.8,100,70.4,131.7,122c31.7,51.6,47.6,115.3,47.6,191.2c0,68.8-19,133.2-57.1,193.2c-38.1,60-91.9,104.7-161.5,133.9
	c-69.6,29.2-156.3,43.8-260.2,43.8c-151.2,0-267.3-35-348.3-105C2874.7,1481.5,2826.3,1379.5,2810.6,1245.6z"/>
<path class="st0" d="M4280.8,1461.2v-311.1h-314V934.5h314V623.4h209.8v311.1H4806v215.6h-315.4v311.1H4280.8z"/>
</svg>
