<?xml version="1.0" standalone="no"?><!DOCTYPE svg PUBLIC "-//W3C//DTD SVG 1.1//EN" "http://www.w3.org/Graphics/SVG/1.1/DTD/svg11.dtd" ><svg xmlns="http://www.w3.org/2000/svg"><metadata></metadata><defs><font id="fonteditor" horiz-adv-x="256"><font-face font-family="ghNûNzùwóOS-Bold" font-weight="700" font-stretch="normal" units-per-em="256" panose-1="2 0 0 0 0 0 0 0 0 0" ascent="221" descent="-54" x-height="0" bbox="-15 -52 272 213" underline-thickness="12" underline-position="-42" unicode-range="U+003e-ff1f" /><missing-glyph horiz-adv-x="71"  /><glyph glyph-name="greater" unicode="&gt;" d="M20 140 Q105 106 111 95 L111 88 Q26 20 12 20 L2 20 L2 28 Q2 34 64 79 Q74 89 74 94 Q15 123 10 130 Q10 140 20 140 Z" /><glyph glyph-name="question" unicode="?" d="M35 172 Q68 179 82 140 Q81 112 61.5 97.5 Q42 83 45 47 L38 42 L25 42 L25 58 Q22 100 56 124 L58 129 Q60 147 40 149 Q24 150 17 134 L11 115 Q2 115 -5 128 L-3 142 Q6 172 35 172 ZM33 34 Q57 34 49 13 Q49 5 37.5 4 Q26 3 22 20 Q26 31 33 34 Z" /><glyph glyph-name="Q" unicode="q" d="M66 163 Q133 175 138 96 L138 76 Q131 48 123 34 Q125 30 135 22 L143 11 Q140 -3 133 -3 L127 -3 Q109 15 106 15 Q79 -4 47 0 Q3 23 6 71 Q5 107 28 142 Q45 158 66 163 ZM28 81 Q24 42 51 25 L62 21 Q88 26 89 31 L89 33 Q89 33 72 46 L72 51 Q75 57 83 60 Q97 52 105 47 Q119 62 118 102 Q109 148 68 142 Q58 139 48 130 Q34 118 28 81 Z" /><glyph glyph-name="uni4E00" unicode="&#x4e00;" d="M210 116 L212 116 Q219 116 233 97 L233 94 Q233 83 216 90 Q182 91 52 79 Q39 78 29 93 Q29 99 46 104 Q54 101 64 102 Q87 104 109 108 L163 112 L183 113 Q207 116 210 116 Z" /><glyph glyph-name="uni4E07" unicode="&#x4e07;" d="M169 162 L202 162 Q223 158 229 148 Q234 135 219 135 L193 141 L140 139 Q134 124 131 106 Q100 32 89 26 Q51 -5 49 -5 L41 -5 L41 3 Q102 69 105 108 Q108 121 111 134 Q105 132 93 131 Q79 129 45 126 L30 130 Q30 133 27 136 L32 148 Q42 148 44 145 L169 162 ZM173 100 L186 96 L190 88 Q184 53 160 -13 Q156 -24 150 -24 L146 -24 Q112 0 112 22 L121 22 Q134 7 141 7 Q151 25 164 77 L158 78 L130 78 Q125 78 121 88 Q121 95 173 100 Z" /><glyph glyph-name="uni4E0B" unicode="&#x4e0b;" d="M209 180 L213 175 L219 160 Q189 160 140 156 L136 155 Q137 145 135 119 L135 100 Q140 97 188 89 Q199 77 199 74 L199 70 Q199 61 190 61 Q178 67 135 78 Q135 78 134.5 70.5 Q134 63 134 47 Q134 31 134 18 L133 -6 Q132 -26 124 -26 Q107 -14 107 -6 L109 11 Q109 34 110 77.5 Q111 121 111 136 L111 148 Q112 152 107 154 L51 148 Q45 152 32 161 Q53 174 53 169 L63 168 Q169 182 209 180 Z" /><glyph glyph-name="uni4E0D" unicode="&#x4e0d;" d="M168 170 L181 170 Q186 170 194 160 L194 149 L186 147 L174 147 Q136 146 136 148 Q133 131 128 116 Q137 79 136 32 L135 -7 L135 -23 Q112 -28 111 -9 L112 34 Q113 84 112 92 L105 83 Q72 46 32 25 L28 35 L80 87 Q93 100 106 128 Q112 142 113 142 L71 136 Q60 137 51 152 L63 160 L78 160 L98 161 L168 170 ZM147 95 Q221 72 233 63 L233 51 Q233 44 224 44 L220 44 Q202 52 143 80 L137 82 L137 92 Q143 92 147 95 Z" /><glyph glyph-name="uni4E0E" unicode="&#x4e0e;" d="M85 191 Q98 192 102 169 Q105 169 159 174 Q167 176 169 177 Q183 176 186 171 L192 162 Q186 154 179 154 Q152 154 105 147 L99 150 Q98 131 93 110 Q101 112 106 114 Q121 118 167 123 L180 123 Q215 122 216 102 Q213 85 202 42 Q197 27 183 -6 Q169 -39 169 -22 Q148 -19 113 14 Q116 22 122 22 L125 22 Q147 9 161 9 Q174 31 177 50 L179 50 Q159 50 153 50 L136 47 L56 39 Q35 37 29 53 Q43 59 166 74 Q178 75 183 74 L189 93 L189 97 Q189 103 152 100 Q107 94 89 84 L77 81 Q71 86 67 96 Q72 106 78 155 L80 171 L80 174 Q73 189 85 191 Z" /><glyph glyph-name="uni4E16" unicode="&#x4e16;" d="M177 186 Q187 177 193 169 Q192 153 186 139 L186 137 L188 137 Q206 137 220 139 Q241 134 241 127 L241 123 Q241 118 234 113 L219 115 L188 115 Q182 115 183 91 L182 80 Q183 72 186 63 L186 56 Q180 56 175 56 Q130 52 129 48 Q109 48 106 92 Q106 105 105 105 L82 105 L82 93 Q88 25 93 25 L95 25 Q156 33 168 33 Q216 34 216 18 L216 14 L212 8 Q171 11 154 10 L131 10 Q112 8 87 -1 Q67 10 67 24 Q63 105 56 103 Q19 98 8 112 L55 124 L54 130 Q54 131 51 140 L51 154 Q59 154 75 126 L83 126 Q103 129 103 130 L103 137 Q103 141 97 163 L104 167 Q112 167 123 129 L163 134 Q167 134 169 162 L169 165 L170 183 L177 186 ZM127 105 L127 97 Q127 72 133 72 L155 75 Q157 78 161 103 L161 107 Q161 111 155 111 Q127 110 127 105 Z" /><glyph glyph-name="uni4E24" unicode="&#x4e24;" d="M145 180 Q150 180 157 169 L157 166 Q157 162 147 156 L138 156 Q111 153 103 152 L85 150 L74 158 L74 168 L145 180 ZM87 147 L94 147 Q102 147 105 119 L121 119 Q131 119 133 123 L133 147 L144 147 L152 125 L182 125 Q211 125 227 104 L227 99 Q227 74 180 -16 L175 -16 Q158 0 142 13 L142 23 L151 23 Q167 21 171 21 Q183 33 202 96 Q192 104 186 102 L157 104 Q151 102 145 92 L145 85 Q176 71 176 64 L176 52 Q165 52 136 66 Q100 28 94 28 L84 28 L84 40 Q104 56 104 55 Q93 66 90 70 Q63 39 58 39 L61 7 L54 3 Q37 9 35 33 Q35 56 30 112 L41 112 Q51 112 54 62 L59 66 Q79 88 79 93 Q79 97 59 99 L59 108 Q84 111 84 121 Q84 132 87 147 ZM99 93 L99 86 Q99 83 117 75 Q121 75 124 90 L124 97 Q124 100 121 100 Q99 97 99 93 Z" /><glyph glyph-name="uni4E2A" unicode="&#x4e2a;" d="M121 188 Q132 163 186 137 Q233 118 236 111 Q236 103 229 103 Q188 101 119 161 Q103 125 46 88 L40 88 Q33 88 33 96 Q68 120 99 166 Q99 173 121 188 ZM115 140 Q132 127 132 95 L132 87 Q132 67 133 33 L134 26 Q128 -25 121 -25 L115 -25 Q111 -1 109 -1 Q109 3 110 8 Q112 75 112 115 L112 121 L107 127 L107 132 Q107 140 115 140 Z" /><glyph glyph-name="uni4E3A" unicode="&#x4e3a;" d="M121 196 L129 196 Q134 196 146 178 Q135 145 132 130 Q169 134 184 135 L200 138 Q225 121 225 111 Q213 38 183 -15 Q177 -25 167 -25 Q151 -15 141.5 -2 Q132 11 132 23 Q155 8 164 9 Q181 3 197 95 L197 106 Q194 117 177 114 Q150 113 127 110 Q102 58 90 41.5 Q78 25 47 -3 L37 -3 L37 4 Q95 77 101 107 L74 102 Q65 102 59 110 L46 121 Q103 128 103 127 Q94 135 76 157 Q105 167 115 150 Q121 176 121 196 ZM119 89 L130 89 Q145 89 169 74 Q168 53 160 47 Q142 64 119 79 L119 89 Z" /><glyph glyph-name="uni4E3B" unicode="&#x4e3b;" d="M94 176 Q144 176 136 158 L154 160 L172 160 Q177 160 187 147 L187 142 L184 137 Q170 137 170 137 Q129 135 129 132 Q131 111 131 97 L140 97 Q143 97 161 101 L163 101 Q167 101 177 90 L177 80 Q169 80 165 80 Q132 74 131 70 L131 18 Q135 22 181 22 L208 22 Q230 22 227 30 L227 -22 Q233 -2 227 -7 L220 -6 L211 -3 Q189 -2 150 0 Q123 0 108 -1 Q93 -2 83 -2 Q67 -2 29 -6 Q26 -2 22 -2 L22 1 Q18 15 107 23 L106 64 Q107 66 107 66 L85 65 Q79 65 71 125 L71 80 Q109 88 110 94 L110 124 Q110 126 104 129 L83 126 L68 127 L65 131 Q77 143 113 151 L101 165 L94 176 Z" /><glyph glyph-name="uni4E49" unicode="&#x4e49;" d="M94 179 Q118 179 139 163 Q136 148 125 148 Q109 154 94 168 L94 179 ZM156 151 L168 151 L172 137 Q175 109 139 65 L138 62 Q160 42 187 29 Q210 18 258 9 L239 3 Q235 -4 223 -4 L221 -4 Q177 -4 122 47 Q62 -2 29 3 L29 14 Q74 25 107 62 L109 63 Q66 120 66 131 L74 131 Q92 117 120 82 L124 79 Q156 127 156 151 Z" /><glyph glyph-name="uni4E4E" unicode="&#x4e4e;" d="M134 200 Q142 200 149 189 L149 179 Q144 179 84 157 L80 164 L80 170 Q124 190 134 200 ZM120 165 Q129 145 133 124 L135 124 Q139 124 163 162 L167 162 Q179 157 181 152 Q181 142 136 107 Q138 103 138 104 L142 104 Q208 111 224 111 L237 97 L237 85 L188 85 Q135 85 135 78 L135 46 Q135 -30 122 -30 L119 -30 Q83 -2 83 6 L90 11 Q105 -2 110 -2 Q115 25 115 74 L115 80 Q115 82 112 82 Q98 82 36 73 L24 76 L24 80 Q24 88 84 100 Q85 102 85 102 Q85 111 72 143 L82 143 Q92 137 109 104 L111 104 Q115 104 115 110 Q115 127 108 160 L120 165 Z" /><glyph glyph-name="uni4E50" unicode="&#x4e50;" d="M144 197 L152 197 Q152 193 158 187 L158 172 Q152 172 87 153 L80 152 Q85 137 85 121 L84 102 Q87 99 89 99 Q115 102 115 107 L115 145 L121 145 Q131 145 137 106 L169 110 Q169 110 169 114 Q183 107 192 98 Q192 88 140 83 Q138 83 140 79 L141 55 L141 27 Q141 -28 125 -28 Q81 0 81 1 L77 11 Q93 11 111 6 L116 6 Q120 6 118 57 L118 68 Q118 80 117 81 L107 80 Q75 75 72 75 Q67 75 57 85 Q63 102 64 120 Q65 140 60 151 Q39 151 144 197 ZM175 62 L185 62 Q225 47 216 17 Q213 17 213 14 Q201 16 175 54 L175 62 ZM54 59 L59 59 Q64 59 66 48 L60 12 Q43 12 37 23 Q37 38 54 59 Z" /><glyph glyph-name="uni4E5F" unicode="&#x4e5f;" d="M95 182 L104 182 Q116 171 116 154 L115 136 Q146 149 161 149 Q172 138 172 131 Q159 38 144 38 Q116 60 116 68 L122 72 Q130 66 134 66 L138 66 Q142 66 146 101 L146 123 L142 123 Q116 117 116 112 L116 69 Q116 59 109 59 L102 59 Q95 59 95 69 L95 103 Q95 105 95 105 Q79 99 77 99 Q78 69 77 57 L78 42 Q78 23 102 21 Q126 21 143.5 21 Q161 21 162 21 Q194 21 207 25 L213 34 Q213 41 215 57 L224 61 Q232 53 232 34 L232 25 Q232 5 216 0 L179 -2 Q174 -2 137 -2 Q72 -6 58 26 L55 51 Q54 78 55 82 L54 96 Q54 90 33 82 L16 100 Q49 112 55 115 L54 129 Q54 134 49 165 L65 162 Q76 150 77 123 Q94 129 96 130 L96 158 Q96 161 95 182 Z" /><glyph glyph-name="uni4E89" unicode="&#x4e89;" d="M112 203 Q116 203 126 185 Q125 185 147 189 L156 189 Q161 189 167 179 L167 172 L141 146 Q135 146 138 144 Q151 148 163 148 Q172 148 179 137 Q179 130 174 110 L172 110 Q199 111 205 111 L217 111 Q230 103 230 89 Q208 89 208 89 Q164 89 164 50 L169 78 Q173 73 178 62 Q178 51 167 51 Q163 51 137 52 L138 38 Q138 -6 135 -29 L130 -38 Q128 -38 128 -41 Q117 -36 84 -8 L84 -1 L95 -1 Q104 -6 110 -6 Q112 -6 114 -1 L115 32 L115 52 L85 49 Q78 49 78 56 L75 69 Q112 70 113 74 L113 86 L108 86 Q57 81 40 78 Q26 81 27 91 L27 96 L48 100 L112 110 Q112 122 112 123 L90 119 Q89 119 89 115 Q76 123 76 127 L78 137 Q110 138 116 144 L132 167 L120 165 Q120 164 87 140 L81 140 L81 148 Q97 172 107 203 L112 203 ZM134 126 Q136 116 136 111 L150 111 Q153 111 155 127 Q153 127 134 126 ZM136 75 L147 75 Q147 74 149 89 L137 88 Q136 80 136 75 Z" /><glyph glyph-name="uni4E8B" unicode="&#x4e8b;" d="M124 213 Q131 213 133 183 Q162 185 174 185 L182 174 L182 172 Q182 165 175 165 L143 165 L133 164 L133 161 Q140 161 161 164 Q171 156 171 148 Q158 117 137 117 L134 114 Q134 114 138 114 Q161 117 165 117 Q174 113 182 104 L182 99 L178 86 Q178 86 178 86 Q230 89 240 76 Q237 69 237 65 Q195 65 178 71 L170 38 Q170 33 137 33 Q140 9 136 -39 L123 -40 L119 -40 Q111 -36 88 -16 L93 -6 Q108 -10 114 -9 Q115 -6 114 16 L114 24 Q114 31 108 31 Q92 30 90 30 Q85 31 74 31 L87 48 Q114 51 114 52 L114 61 Q114 65 114 61 Q85 59 55 57 L36 57 Q30 57 27 65 Q27 74 90 80 Q107 83 114 82 L114 88 L108 88 Q102 88 92 87 Q80 90 78 102 Q114 107 114 110 L114 113 Q114 113 111 112 Q97 109 92 109 Q81 137 78 144 Q78 152 114 159 L115 161 L97 160 L90 160 Q76 160 76 165 L76 173 Q109 179 115 180 L116 185 L114 213 L124 213 ZM134 144 Q134 135 134 135 Q143 137 144 141 L144 144 L138 144 Q135 144 134 144 ZM101 137 L101 132 Q101 130 103 130 L114 130 Q114 130 114 132 L114 140 L110 140 Q101 140 101 137 ZM133 92 L133 84 Q133 83 135 83 L143 83 Q157 83 157 94 L154 95 L146 95 Q133 95 133 92 ZM149 53 L151 62 Q151 64 149 64 L133 64 Q136 64 135.5 59 Q135 54 142 54.5 Q149 55 149 53 Z" /><glyph glyph-name="uni4EA4" unicode="&#x4ea4;" d="M95 187 L112 187 L130 171 L135 171 Q156 171 167 178 Q186 173 186 163 Q186 158 176 151 L63 140 Q58 142 52 142 L52 154 Q108 163 108 163 L95 181 L95 187 ZM136 136 Q185 129 185 113 Q185 105 177 105 Q166 107 162 107 Q160 106 140 57 Q138 57 136 51 Q166 26 215 14 Q239 12 239 2 L239 -5 Q234 -5 214 -9 L199 -5 Q175 3 142 17 Q124 28 121 33 Q95 12 55 2 L11 0 L84 33 Q103 44 105 49 Q82 78 76 78 Q76 77 43 60 L38 70 Q84 100 84 132 L93 132 Q102 130 102 123 L102 118 Q102 112 84 87 L84 89 Q95 86 117 63 Q127 67 139 117 L127 130 L136 136 Z" /><glyph glyph-name="uni4EAB" unicode="&#x4eab;" d="M107 198 Q112 198 127 183 Q176 190 181 190 L194 174 Q194 165 187 165 L183 165 Q172 169 156 167 Q127 165 84 157 Q58 161 58 167 Q60 176 66 176 L79 176 Q92 176 106 180 Q106 180 93 194 Q105 198 107 198 ZM147 162 L152 162 Q173 158 173 141 Q158 104 116 104 Q100 99 93 99 Q93 102 82 105 L86 119 L86 130 L83 142 Q83 158 147 162 ZM106 138 L106 127 Q106 127 107 127 L110 127 Q144 127 148 139 Q148 141 143 142 Q106 137 106 138 ZM159 107 Q159 101 168 90 Q138 70 138 61 L142 55 Q188 60 193 62 Q214 55 219 47 L219 40 L215 34 L178 37 Q148 36 148 34 L148 20 Q148 -14 126 -34 L118 -34 Q87 -15 75 5 Q81 5 81 9 L115 -9 Q126 1 126 27 Q124 32 125 32 Q90 32 61 27 Q40 33 40 40 L40 50 L59 45 Q114 54 117 54 L117 51 L114 71 Q120 71 123 75 L123 79 L125 79 Q105 79 87 69 Q83 73 78 73 L78 81 Q78 92 159 107 Z" /><glyph glyph-name="uni4EBA" unicode="&#x4eba;" d="M122 168 L125 168 Q134 166 134 157 Q122 132 115 107 Q175 38 199 31 Q220 24 234 19 L234 12 Q234 1 216 1 Q168 2 109 85 L106 88 Q106 88 81 49 Q70 35 29 8 L22 8 L22 18 Q81 72 100 132 Q109 161 122 168 Z" /><glyph glyph-name="uni4ECE" unicode="&#x4ece;" d="M165 170 L165 164 L148 92 Q205 19 231 18 Q240 16 240 10 L240 -1 Q235 -1 235 -3 Q194 -5 170 33 Q143 67 141 69 Q127 36 91 0 L78 0 L78 8 Q96 29 96 40 Q80 63 70 63 Q37 14 12 14 Q50 59 79 157 L98 157 L98 144 Q79 101 79 86 Q79 80 109 61 L114 61 Q129 99 149 170 L165 170 Z" /><glyph glyph-name="uni4F1A" unicode="&#x4f1a;" d="M119 175 L119 162 Q186 112 221 108 L246 100 L216 86 Q177 92 152 116 Q114 148 111 148 Q88 114 33 77 L24 77 L24 85 Q75 125 102 181 Q105 190 119 175 ZM106 111 L133 111 Q138 111 145 101 Q134 88 123 88 L110 88 Q89 88 89 102 Q92 111 106 111 ZM170 80 Q190 74 190 67 L190 55 Q176 55 159 56 Q110 56 110 47 Q110 42 94 15 Q141 17 133 39 Q183 18 188 0 Q184 -16 184 -22 L174 -22 Q155 0 149 4 Q78 -11 69 -11 Q57 -6 57 2 L57 8 Q70 15 92 50 L95 50 Q70 47 56 47 L51 47 Q43 47 43 56 L43 62 Q143 80 170 80 Z" /><glyph glyph-name="uni4F34" unicode="&#x4f34;" d="M142 192 L150 192 Q156 192 163 176 L162 169 L163 150 Q162 144 162 144 Q182 174 193 179 Q206 175 206 169 L206 165 L165 127 L165 123 Q169 123 184 127 Q197 122 199 115 L199 111 Q199 102 165 100 Q165 98 163 88 L165 87 Q179 87 189 88 L217 91 Q244 88 244 77 L244 69 L230 66 Q184 68 167 68 L165 64 Q163 0 163 -18 Q162 -39 153 -39 L147 -39 Q147 -35 145 -35 L144 -20 L144 0 Q144 9 144 18 Q144 27 144 35 L144 67 Q88 59 79 59 L79 65 Q79 77 142 86 L142 97 Q142 97 140 97 Q139 97 122 95 Q110 101 108 108 Q108 112 117 115 L126 115 Q126 115 126 116 L126 118 Q110 143 110 157 L122 157 Q129 154 145 125 L142 125 L142 123 Q142 137 144 167 L142 192 ZM80 171 Q90 165 90 160 L90 157 Q70 124 70 121 L70 12 L66 -6 L59 -6 Q55 -6 45 8 Q48 37 49.5 69.5 Q51 102 52 100 L24 73 L16 73 L16 82 Q36 106 80 171 Z" /><glyph glyph-name="uni4F53" unicode="&#x4f53;" d="M132 205 L144 200 Q154 196 152 149 L160 150 L188 154 Q192 152 198 152 L198 141 Q198 131 155 128 Q152 128 152 125 Q153 118 205 65 Q218 55 239 45 L255 39 Q237 29 230 30 Q214 17 150 95 L150 55 L148 55 Q160 55 182 58 L188 46 L188 44 Q188 33 151 30 Q152 5 150 -19 Q147 -23 147 -28 L138 -28 Q135 -28 127 -13 L128 19 L128 27 Q114 23 103 31 L95 37 L95 45 Q129 49 130 51 Q130 84 130 91 L129 90 Q87 28 75 22 L68 22 L68 32 Q97 74 124 120 L124 122 L101 122 Q88 127 88 133 L88 141 Q132 143 132 146 L132 150 Q132 191 132 205 ZM69 175 L74 175 Q81 175 85 159 L85 153 Q78 140 62 118 Q64 109 63 91 L63 3 L60 -15 L50 -15 Q44 -15 40 2 Q40 5 42 37 L42 60 Q42 78 42 107 L44 105 Q15 84 8 84 L8 92 Q54 141 69 175 Z" /><glyph glyph-name="uni4F5B" unicode="&#x4f5b;" d="M165 201 L174 201 Q174 171 181 171 Q206 171 210 159 L210 153 Q200 144 187 120 Q177 115 176 113 L176 100 Q176 99 175 99 L179 99 Q180 99 206 104 Q240 97 240 80 Q240 60 210 3 L203 3 Q189 9 177 27 L177 36 L184 36 L197 31 L202 31 Q205 30 212 68 Q215 79 215 79 L210 79 Q207 79 180 75 L176 75 L176 46 Q175 -3 168 -40 L163 -40 Q155 -40 155 -31 L155 -27 Q154 63 154 71 Q154 73 152 72 L141 70 L130 38 Q113 7 100 2 L92 2 L92 11 Q104 26 117 61 L118 67 Q111 65 93 59 Q89 68 89 72 Q97 94 106 121 Q126 126 126 129 L126 137 L114 135 L109 156 Q128 156 128 162 Q126 179 126 180 Q125 188 131 192 L137 192 Q146 192 150 166 L153 166 Q155 166 156 170 L156 193 Q159 201 165 201 ZM176 148 L176 140 L174 140 Q175 140 180 146 L180 148 Q180 148 180 148 L176 148 Q176 148 176 148 ZM150 143 Q148 141 148 136 L148 134 Q148 133 149 133 Q154 134 154 144 L150 143 ZM83 182 Q90 178 95 178 Q95 159 76 135 Q77 105 77 92 L77 81 Q77 68 77 46 L72 -7 L63 -7 Q58 -7 52 4 Q57 68 57 97 Q57 97 56 108 Q32 85 21 85 L16 94 Q45 121 83 182 ZM144 95 L149 95 Q153 96 153 96 L153 114 L150 114 Q144 111 144 95 ZM117 89 L121 89 Q122 89 122 90 L125 111 Q125 108 123 108 Q122 107 117 89 Z" /><glyph glyph-name="uni4F5C" unicode="&#x4f5c;" d="M152 184 L150 178 L143 171 L147 171 Q152 171 196 182 Q210 177 210 171 L210 164 Q183 159 160 154 L161 132 L161 119 L163 119 Q199 127 210 125 Q217 116 217 106 Q163 102 163 97 L163 67 Q165 67 168 68 L210 77 Q224 72 226 64 Q224 55 164 46 Q163 41 163 36 L163 -11 Q163 -27 150 -29 Q141 -19 141 -13 L143 6 Q141 19 143 29 Q141 72 141 106 L141 143 Q141 151 139 152 Q117 120 102 109 L95 109 L95 116 Q130 170 130 199 L152 184 ZM85 179 L90 179 Q98 177 98 170 L98 163 L80 135 Q84 112 84 98 L84 63 Q80 15 80 9 L80 2 Q80 -8 70 -8 Q57 0 57 9 Q64 60 64 81 L64 111 Q62 116 62 115 L49 109 Q40 99 23 99 L85 179 Z" /><glyph glyph-name="uni4F60" unicode="&#x4f60;" d="M128 189 Q136 189 138 167 Q183 164 194 172 Q208 170 216 165 L216 158 Q216 144 179 121 L172 121 L172 129 L184 147 L167 146 Q133 143 129 134 L109 112 L104 107 L96 111 Q118 154 119 189 L128 189 ZM83 184 L94 160 L65 127 L70 110 L69 14 L69 -1 Q59 -1 48 6 L49 111 Q49 113 48 113 Q31 97 15 97 Q72 169 83 184 ZM142 131 L151 131 Q160 131 166 80 Q166 71 167 51 L167 27 Q168 13 164 -5 L164 -12 L152 -12 Q130 3 130 23 L144 20 Q145 53 144 80 Q142 97 142 131 ZM98 82 L115 82 L115 72 Q115 50 95 35 L82 35 L98 82 ZM193 76 Q220 76 236 55 Q235 46 235 37 L225 37 Q202 51 193 66 L193 76 Z" /><glyph glyph-name="uni4FAC" unicode="&#x4fac;" d="M153 202 Q159 193 159 190 Q155 160 154 159 L182 164 Q203 156 207 147 L207 141 Q191 125 156 103 L156 112 Q171 132 171 141 L171 139 Q148 140 145 138 Q123 90 123 86 L123 84 Q123 84 152 65 L155 65 L193 106 Q203 96 203 86 Q203 79 166 55 Q196 27 223 24 Q241 14 241 11 L241 4 L223 3 L212 3 Q194 2 128 60 Q126 61 124 61 L124 28 L137 40 L148 40 L148 31 Q127 7 116 -22 L111 -22 Q106 -22 100 -11 Q103 56 103 67 Q100 67 76 41 L63 41 Q120 108 119 138 L103 135 L103 133 Q103 118 110 107 Q106 102 106 96 L98 96 Q85 96 81 133 Q81 152 134 159 Q141 202 153 202 ZM72 176 Q82 173 82 165 L82 152 Q36 103 12 103 Q49 140 72 176 ZM47 121 L58 121 Q64 99 64 85 L64 83 Q64 69 61 55 L59 41 Q59 21 59 7 L59 -7 L49 -7 L37 4 L47 121 Z" /><glyph glyph-name="uni4FE1" unicode="&#x4fe1;" d="M129 188 L136 188 Q150 188 166 170 L166 161 Q161 161 161 157 Q140 165 129 178 L129 188 ZM199 165 L203 165 Q224 165 228 153 L228 143 Q224 143 224 141 L203 143 L185 143 L104 133 L97 143 Q97 153 199 165 ZM81 172 L96 172 L96 162 Q96 159 73 130 L75 97 Q80 -12 64 -12 Q56 -12 53 3 L55 111 Q39 98 32 93 L25 93 L25 105 Q47 125 81 172 ZM189 132 L189 124 Q189 114 139 102 Q120 108 120 118 Q162 132 189 132 ZM185 102 L194 102 L195 82 Q174 80 132 69 Q118 73 118 80 Q118 88 185 102 ZM187 68 Q224 62 224 50 L224 47 Q203 25 203 14 L206 -1 L190 -4 L166 -4 Q144 -4 134 -15 Q117 -15 111 39 Q111 46 111 52 L130 57 Q144 62 187 68 ZM141 40 L133 40 L133 42 Q137 14 137 14 Q165 18 176 18 L183 18 Q184 18 195 40 L195 44 Q195 45 195 45 L185 45 Q180 45 141 40 Z" /><glyph glyph-name="uni505A" unicode="&#x505a;" d="M99 188 Q112 188 112 162 L112 144 Q112 143 138 141 L138 134 Q138 126 111 121 L110 119 L110 101 L132 101 Q140 105 154 154 L154 177 L162 177 Q170 177 176 162 Q171 146 171 141 L169 141 Q184 141 211 148 L220 148 L219 130 Q202 126 202 118 Q202 107 185 53 Q185 39 222 15 Q251 8 251 -2 Q251 -10 242 -10 L239 -10 Q207 -10 171 35 L174 35 Q158 14 109 -8 L109 4 Q142 27 158 51 L158 53 Q140 77 140 87 L150 87 Q164 73 170 73 Q177 88 177 108 L177 120 Q177 121 177 121 Q157 121 133 71 Q133 33 90 33 Q84 33 76 21 Q66 22 60 36 L60 57 Q58 84 58 97 L79 97 L86 98 L86 118 Q86 119 83 119 L69 115 L65 124 L65 133 Q87 133 93 145 L93 167 Q93 169 92 184 L99 188 ZM58 172 Q65 169 70 169 L70 156 Q45 126 45 120 Q51 92 51 82 Q53 13 49 -5 Q40 -5 29 2 Q29 35 29 80 L29 96 Q29 106 30 106 L18 98 L4 98 L58 172 ZM79 73 Q79 54 85 54 Q115 54 115 79 L83 79 Q81 79 79 73 Z" /><glyph glyph-name="uni505C" unicode="&#x505c;" d="M136 203 L157 187 L187 187 Q200 184 200 178 L200 170 L185 169 L166 169 Q158 169 107 162 L105 170 Q105 177 138 181 L125 195 Q131 203 136 203 ZM69 179 L74 179 Q83 177 83 170 Q83 159 56 130 Q64 117 64 77 Q65 -14 53 -14 L51 -14 L42 -11 L44 91 Q44 119 40 119 Q25 108 14 108 L14 116 Q57 152 69 179 ZM179 167 Q199 161 199 155 Q182 115 174 115 Q134 110 134 108 Q134 108 139 110 Q148 113 198 117 L204 117 Q239 110 239 99 L239 94 Q239 84 205 74 L190 74 Q206 89 206 97 L206 95 Q204 95 199 97 Q146 96 101 88 L101 72 L105 58 L96 54 L92 54 Q79 57 79 79 L79 97 L84 106 L95 102 Q118 106 117 106 Q114 116 112 156 Q123 160 179 167 ZM134 144 L134 131 Q134 130 135 130 Q175 130 175 146 L173 148 L151 148 Q146 148 134 144 ZM174 95 Q188 90 188 83 L188 75 Q180 75 168 72 L173 26 Q171 -29 161 -29 L157 -29 Q137 -19 117 6 L117 14 L124 14 Q149 0 150 0 Q152 2 151 29 Q149 43 149 66 L145 68 L121 65 L116 74 Q116 82 174 95 Z" /><glyph glyph-name="uni5149" unicode="&#x5149;" d="M118 195 Q130 195 131 171 Q130 139 129 130 L128 129 Q130 129 165 173 L179 173 L182 153 L136 111 L136 116 Q167 116 191 120 Q204 114 207 97 L198 97 L182 95 Q60 85 55 85 L55 83 Q44 85 35 85 L28 101 Q104 109 104 112 Q108 146 108 160 L108 169 L106 193 L118 195 ZM71 160 L84 160 Q94 160 104 124 L104 114 L92 114 Q84 114 71 149 L71 160 ZM127 96 L134 96 Q148 93 147 73 Q144 43 144 36 Q148 9 188 11 L205 13 Q211 17 211 54 L227 54 Q233 18 233 8 Q233 -12 198 -15 Q124 -16 121 36 Q123 81 127 96 ZM87 93 L104 93 Q104 87 107 82 Q90 28 32 -7 L32 9 Q81 60 87 93 Z" /><glyph glyph-name="uni5170" unicode="&#x5170;" d="M163 190 Q171 190 176 176 Q172 154 138 130 L120 130 Q146 160 158 190 L163 190 ZM72 171 L86 171 Q98 166 115 132 Q158 132 158 140 Q178 131 181 124 L181 112 L173 112 Q158 112 78 102 L75 102 Q66 102 66 113 L66 121 L92 128 Q79 156 72 162 L72 171 ZM144 91 Q164 85 164 75 L164 66 L152 66 Q145 66 133 68 Q113 61 90 61 Q84 62 78 62 L78 71 Q78 80 144 91 ZM151 36 L161 36 Q196 31 195 31 L195 35 Q234 25 234 12 L224 4 Q158 11 117 11 L87 11 Q73 11 36 6 L28 18 L28 24 Q97 36 151 36 Z" /><glyph glyph-name="uni5185" unicode="&#x5185;" d="M119 192 L128 192 Q142 187 142 173 L138 148 Q138 148 141 148 Q145 148 181 150 Q201 152 204 115 Q204 106 203 90 Q204 38 203 12 Q203 -29 188 -29 L130 13 L145 13 Q151 13 181 3 L182 41 Q175 49 123 80 L123 90 L132 90 Q142 90 178 72 L182 72 Q182 72 182 71 L182 121 Q179 128 164 127 L137 123 Q135 114 117 84 Q99 58 75 36 L75 -6 L66 -12 Q58 -10 51 3 Q51 32 51.5 55.5 Q52 79 53 109 L56 127 Q56 133 114 143 L116 154 L119 192 ZM77 113 Q75 95 75 78 Q75 61 74 53 Q103 93 110 122 L110 119 L108 119 Q76 115 77 113 Z" /><glyph glyph-name="uni51E1" unicode="&#x51e1;" d="M165 172 Q172 165 172 157 Q165 137 165 129 Q162 101 166 66 Q170 31 204 13 L207 13 Q209 13 211 41 L218 41 Q227 41 228 22 Q228 1 231 1 Q227 -16 210 -17 Q171 -6 156 24 Q144 44 143 82 Q143 87 143 97 Q143 107 143 118 Q143 129 145 150 L146 149 Q132 145 104 143 Q87 138 77 157 Q158 172 165 172 ZM69 158 L79 158 L87 155 L88 141 Q90 126 87 111 Q84 56 42 2 L33 -4 L24 -4 L47 45 Q66 87 65 135 Q59 158 69 158 ZM98 103 L101 103 Q125 85 130 80 Q130 73 129 66 L123 57 Q105 67 92 89 L88 91 Q92 103 98 103 Z" /><glyph glyph-name="uni51FA" unicode="&#x51fa;" d="M119 190 L125 190 Q135 181 133.5 147 Q132 113 131 113 L145 113 Q160 113 160 116 L160 144 Q162 152 169 152 Q183 152 183 118 L183 104 L180 86 Q174 86 156 91 L145 91 Q133 90 133 88 L133 65 Q133 45 133 37 L133 28 Q133 28 134 28 L159 28 Q165 28 170 28 Q175 28 179 28 L192 28 Q191 28 191 33 Q189 54 189 64 L203 64 Q215 35 215 16 L215 6 Q216 4 215 -3.5 Q214 -11 214 -18 L195 -23 Q190 -14 190 -9 Q190 -3 190 2 Q188 1 170 2 Q119 1 43 -15 L40 1 Q51 41 61 42 L66 42 L69 26 L69 15 L67 15 Q109 17 109 24 L109 82 Q110 82 106 84 Q74 73 65 73 Q57 73 57 83 Q63 96 63 109 L63 133 L80 133 L84 116 L84 102 L90 102 Q107 102 109 110 L109 125 Q109 148 109 188 L119 190 Z" /><glyph glyph-name="uni5206" unicode="&#x5206;" d="M99 186 L112 186 Q199 108 205 108 Q226 100 242 91 L238 81 Q189 78 171 100 Q135 139 99 179 L99 186 ZM73 148 Q83 139 83 134 L83 128 Q69 98 30 75 L23 75 L23 85 Q36 96 73 148 ZM141 108 Q172 107 171 79 Q157 -9 136 -24 L133 -24 Q90 11 90 19 L90 28 L97 28 Q121 11 129 10 Q136 10 148 76 L148 79 Q143 85 142 85 Q118 83 110 69 Q86 16 39 -9 L39 4 Q88 54 88 74 Q72 78 72 86 Q78 94 141 108 Z" /><glyph glyph-name="uni5217" unicode="&#x5217;" d="M198 189 L213 189 L218 169 L218 163 L222 7 Q220 -2 220 -18 L213 -18 Q192 -10 159 22 L159 33 L165 33 Q168 33 196 19 L199 18 Q198 47 198 146 L198 189 ZM119 170 Q130 164 130 159 L130 157 Q130 150 95 142 Q91 134 91 128 Q93 127 93 127 L122 135 Q131 130 135 121 Q135 117 114 76 Q114 74 122 62 Q122 53 109 53 L102 55 Q75 18 59 5 L23 -12 L43 13 Q75 51 80 64 Q66 68 62 80 L62 93 Q68 87 72 88 Q86 85 92 86 Q98 92 103 108 Q87 106 79 99 L40 69 L33 69 L33 77 Q69 118 71 136 Q59 130 43 146 L43 154 Q101 167 119 170 ZM162 135 Q176 135 171 53 L161 53 L152 59 L154 113 Q154 116 152 122 Q156 135 162 135 Z" /><glyph glyph-name="uni529B" unicode="&#x529b;" d="M129 191 L142 191 Q142 186 144 182 Q148 158 140 131 Q145 131 159 133 L193 134 Q218 128 218 110 Q200 30 179 -16 Q172 -20 167 -20 Q139 -4 120 16 L120 24 L131 24 Q155 14 161 14 L165 14 Q169 14 192 100 L192 105 Q192 107 188 109 L186 109 Q174 109 135 105 Q130 88 119 63 Q76 -6 43 -6 L28 -6 Q83 32 107 97 L107 100 Q108 101 110 101 Q95 99 86 98 Q72 102 72 108 L72 112 Q72 119 117 127 Q119 127 129 191 Z" /><glyph glyph-name="uni5343" unicode="&#x5343;" d="M139 192 L142 192 Q147 192 155 180 L155 175 Q155 169 133 164 L134 161 Q136 156 138 124 L142 125 L210 132 Q229 127 229 108 Q227 108 227 106 Q196 108 183 108 Q138 105 137 99 L138 81 Q139 -34 121 -34 L119 -27 Q117 -9 116 26.5 Q115 62 115 96 Q115 96 110 95 Q58 85 47 85 L37 91 L37 96 Q37 103 100 116 Q114 119 114 120 Q115 148 109 157 L92 151 L82 151 L82 158 Q82 162 139 192 Z" /><glyph glyph-name="uni534A" unicode="&#x534a;" d="M118 205 L124 205 Q131 197 130 190 Q132 183 131 166 L131 155 Q134 160 150 180 L157 180 Q163 180 166 171 L166 161 Q146 144 135 135 Q135 134 136 134 Q140 134 158 141 Q175 134 175 127 Q175 120 130 111 L130 91 L128 91 Q131 91 165 97 Q230 97 230 79 L230 71 Q226 71 221 69 Q188 73 185 75 Q130 75 132 72 L133 10 Q129 -38 117 -38 L112 -31 L110 8 Q109 24 110 50 Q109 63 109 68 Q109 68 107 68 Q84 65 44 52 Q32 56 32 63 Q32 70 107 90 L107 105 Q90 103 80 103 L72 103 L72 111 Q72 118 90 122 Q88 143 83 158 L83 164 L92 164 Q103 164 109 132 Q110 168 110 186 L110 196 Q110 205 118 205 Z" /><glyph glyph-name="uni5374" unicode="&#x5374;" d="M88 201 Q99 199 98 183 L98 164 Q98 163 112 160 L112 149 Q95 143 95 120 Q98 120 113 124 Q135 124 139 113 Q139 102 131 102 L124 102 Q89 102 82 77 Q74 63 74 63 L75 62 Q106 68 106 72 L106 87 L115 87 Q142 65 142 35 L134 27 L113 53 Q61 37 43 37 Q43 57 59 81 L64 91 Q35 83 22 83 L22 95 Q22 104 73 112 Q78 119 76 136 L74 135 L59 133 L52 142 L52 152 Q76 155 76 156 L76 185 Q76 191 74 203 Q83 203 88 201 ZM219 171 Q236 159 236 147 Q231 137 223 66 L223 56 L212 56 Q202 56 181 69 L179 69 Q179 69 179 66 Q178 -33 161 -33 L157 -26 L157 10 Q157 20 157 48 Q157 51 157 62 L155 140 L163 143 L171 143 Q180 88 182 84 Q198 80 199 80 L203 80 Q207 80 211 147 L207 149 Q198 149 156 142 Q152 144 145 144 L145 151 Q145 163 219 171 Z" /><glyph glyph-name="uni53CB" unicode="&#x53cb;" d="M100 199 L108 199 Q119 199 119 178 Q117 156 118 154 Q137 157 165 159 Q176 154 181 143 Q181 134 173 134 L162 134 Q103 134 103 116 Q98 107 98 102 L95 102 Q158 119 166 119 L170 112 Q170 92 140 43 L137 37 Q138 32 203 7 Q224 5 236 -8 L236 -15 L221 -18 Q160 -20 128 18 L122 25 Q97 -6 37 -17 L30 -6 Q72 9 104 40 Q87 61 74 66 Q32 24 27 24 L21 24 L21 32 Q65 81 84 124 Q86 127 86 125 L80 125 Q60 125 57 135 Q57 142 92 151 Q96 153 100 199 ZM89 81 Q95 74 120 55 Q140 78 140 91 Q140 92 140 92 L136 92 Q89 81 89 81 Z" /><glyph glyph-name="uni53D1" unicode="&#x53d1;" d="M112 197 L122 197 Q131 194 131 180 Q131 171 125 136 L154 139 Q159 139 163 142 Q181 134 181 127 L181 119 Q110 119 110 95 Q117 95 160 101 Q165 101 177 87 L144 36 L144 34 Q153 19 207 4 Q229 3 229 -9 L229 -16 L211 -20 Q177 -20 126 16 Q83 -18 52 -15 Q46 -13 41 -13 L41 -2 Q95 12 108 30 L110 33 Q93 50 85 57 Q43 21 40 21 L16 19 Q70 66 89 108 Q89 109 88 109 L72 109 Q74 109 74 107 Q65 109 58 109 L58 117 L79 169 Q93 163 96 157 L96 150 L89 129 L94 129 Q111 140 111 185 L112 197 ZM152 179 L162 179 Q192 169 192 155 Q192 146 183 146 Q152 159 152 170 L152 179 ZM100 72 L100 70 Q116 51 127 51 Q133 51 145 82 L145 79 L141 79 Q100 73 100 72 Z" /><glyph glyph-name="uni53D7" unicode="&#x53d7;" d="M140 196 L146 196 Q150 196 157 187 L157 183 Q157 172 121 166 L113 164 Q123 135 127 134 Q136 134 154 170 L166 170 Q166 164 171 157 L171 152 Q155 136 155 135 L150 131 L172 134 Q223 138 219 117 L219 109 Q210 103 180 83 L169 83 L185 115 L163 113 Q103 100 55 93 L57 75 Q62 53 49 53 L47 53 L36 61 L34 72 L34 74 Q34 85 32 114 Q38 114 51 112 Q62 113 73 118 Q67 142 60 157 Q73 170 110 181 L140 196 ZM81 155 Q91 123 102 123 L107 123 L107 129 Q97 157 93 157 L81 155 ZM153 100 Q160 90 160 84 Q151 52 138 36 L138 32 Q168 8 221 -2 L221 -7 Q221 -15 202 -21 Q158 -21 121 17 Q110 7 87 -7 Q68 -14 57 -14 Q40 -13 40 -6 L40 1 L52 1 Q94 20 102 30 Q76 53 76 69 Q76 87 153 100 ZM96 67 L96 65 Q96 63 113 48 L119 48 Q127 53 132 65 L132 74 L126 74 Q96 69 96 67 Z" /><glyph glyph-name="uni53F0" unicode="&#x53f0;" d="M99 194 L110 194 L122 182 Q122 174 89 122 L86 122 Q153 126 153 128 Q149 137 149 149 L156 149 Q207 127 210 116 L210 105 L198 97 Q179 112 176 112 Q71 95 47 95 L47 105 Q80 135 99 184 L99 194 ZM171 93 Q199 85 199 70 Q175 36 175 32 Q175 32 188 20 Q181 2 167 7 L109 7 Q98 4 95 -2 L95 -12 L87 -12 Q65 -7 63 79 Q148 95 171 93 ZM91 63 L90 45 Q90 29 96 27 L98 27 Q101 27 138 34 L154 34 L166 72 Q166 72 164 72 L155 72 Q91 69 91 63 Z" /><glyph glyph-name="uni5411" unicode="&#x5411;" d="M91 178 L97 178 Q105 176 105 170 L105 155 Q99 150 74 125 L74 129 L79 129 L154 142 L185 144 Q227 145 229 112 Q221 63 203 14 Q192 -10 174 -10 Q137 0 137 13 L137 20 Q144 20 155 18 L169 18 Q185 17 201 118 Q198 123 156 121 Q62 105 55 105 Q48 105 50 105 Q56 58 65 0 L53 0 Q36 0 32 75 Q27 116 27 124 L38 124 Q42 119 42 119 Q66 144 91 178 ZM130 113 Q159 115 167 92 Q152 66 152 64 L153 49 Q136 43 97 37 Q91 37 83 50 L86 55 L86 58 Q86 62 82 96 Q91 107 130 113 ZM101 82 Q105 60 108 60 Q132 60 142 88 L142 91 L132 92 Q101 86 101 82 Z" /><glyph glyph-name="uni542C" unicode="&#x542c;" d="M174 189 Q188 184 188 177 Q184 169 127 153 Q134 127 135 126 L214 142 Q229 138 229 132 L229 120 L218 120 Q195 120 188 115 Q192 62 192 15 L186 -35 L180 -35 Q172 -35 172 -24 Q172 -8 170 8 Q168 40 168 75 L168 111 Q168 111 167 111 L163 111 Q134 111 134 88 Q113 5 84 5 L84 15 Q115 68 115 106 L110 152 Q110 171 174 189 ZM86 140 Q109 136 109 117 Q97 64 81 64 Q63 64 46 57 Q30 61 30 78 L30 106 L28 131 Q77 140 86 140 ZM50 113 Q52 84 53 84 L62 84 Q82 84 82 106 L82 117 Q82 118 81 118 L65 118 Q58 118 50 113 Z" /><glyph glyph-name="uni548C" unicode="&#x548c;" d="M94 186 Q108 180 108 174 L108 170 Q108 164 69 140 L56 140 L56 148 L94 186 ZM85 150 L95 150 L107 134 Q112 134 131 138 L142 128 L142 118 Q107 114 107 111 L108 96 Q108 95 142 72 L146 66 Q146 57 134 57 L114 65 L104 68 L104 36 Q104 34 105 26 Q102 -18 93 -18 L91 -18 Q85 -18 78 -6 Q82 11 82 23 L82 69 L83 74 L87 74 Q67 51 40 30 L34 30 L34 37 Q75 88 75 100 L75 105 Q75 105 30 92 L26 100 L26 108 Q50 119 83 127 L85 137 Q85 136 78 136 Q85 145 85 150 ZM212 135 Q222 134 233 113 Q220 89 220 69 L219 46 L207 46 Q171 49 162 32 Q151 44 144 52 L147 58 L147 65 Q147 87 143 111 Q143 130 203 134 L212 135 ZM165 106 Q165 69 169 67 Q185 71 195 69 Q206 81 207 105 L206 112 Q189 114 165 106 Z" /><glyph glyph-name="uni54EA" unicode="&#x54ea;" d="M217 182 Q231 177 231 169 L231 167 Q219 138 219 119 Q244 96 244 89 Q244 65 196 45 L196 27 Q197 -4 186 -34 L174 -34 L174 -19 Q174 -8 173 13 Q173 164 132 164 L217 182 ZM146 177 Q163 171 163 163 L163 142 Q163 129 162 105 Q157 40 142 13 Q127 13 87 51 L99 56 Q127 45 129 45 L131 45 L137 84 L137 90 Q137 93 137 93 L116 88 Q108 66 87 39 Q79 33 73 31 L62 31 Q87 73 89 81 L76 86 L76 101 L90 101 Q101 101 101 111 Q82 114 82 122 L82 132 Q109 135 109 138 L109 151 L100 151 L86 156 L86 163 Q87 176 104 176 L113 176 Q126 176 146 177 ZM187 157 L187 160 Q194 135 194 119 L195 82 L196 69 L199 69 Q210 69 216 81 L216 89 Q216 96 199 118 Q199 120 195 120 Q205 143 205 155 L205 159 Q205 159 201 159 Q184 157 187 157 ZM130 155 L130 140 Q130 139 135 137 L141 138 L141 155 Q141 157 140 157 L130 157 Q130 157 130 155 ZM67 142 Q82 136 82 122 Q72 66 43 66 Q40 60 40 50 L34 50 Q29 50 17 68 L21 74 L21 78 Q21 96 12 131 Q45 142 67 142 ZM35 114 Q35 109 39 93 L49 93 Q60 101 60 114 L60 119 Q60 122 56 124 Q35 121 35 114 ZM123 114 L122 109 Q141 113 141 117 L141 120 L144 120 Q123 117 123 114 Z" /><glyph glyph-name="uni54FC" unicode="&#x54fc;" d="M138 200 L149 200 Q155 200 166 187 Q190 191 218 191 L223 184 L223 179 Q223 171 214 171 L186 171 Q156 164 112 158 Q99 162 99 170 L99 176 Q145 180 145 183 L138 193 L138 200 ZM190 167 L202 160 Q189 113 177 119 Q150 111 134 111 Q127 116 124 149 Q124 160 190 167 ZM143 143 L143 133 Q144 130 166 136 Q175 142 174 147 L170 147 Q143 147 143 143 ZM92 133 L95 117 Q95 64 72 64 Q55 64 55 50 L46 50 Q34 50 29 120 Q52 133 92 133 ZM51 108 Q52 81 56 81 Q75 81 75 110 L75 112 Q75 113 71 115 Q70 115 51 108 ZM179 117 Q199 112 199 105 L199 102 Q171 78 171 77 Q171 72 187 52 Q190 40 192 24 Q185 -19 175 -30 Q143 -19 124 1 L124 9 L132 9 Q157 2 164 0 Q166 4 168 27 Q169 46 152 73 Q161 87 162 90 Q140 89 140 83 Q131 87 126 87 L125 102 Q179 112 179 117 Z" /><glyph glyph-name="uni56ED" unicode="&#x56ed;" d="M179 194 Q205 197 210 170 L210 24 Q211 -20 196 -34 Q183 -29 171 7 Q190 -3 187.5 71.5 Q185 146 188 172 Q186 174 164 173 Q148 173 71 164 L67 177 Q67 187 179 194 ZM56 164 L64 164 L64 158 Q65 113 62 43 Q61 10 72 12 L86 12 Q118 15 176 17 L187 3 L187 -3 L178 -3 L167 -4 Q124 -8 74 -13 Q39 -15 41 42 L41 52 Q43 164 56 164 ZM136 147 Q150 143 150 137 L150 130 L103 121 L96 132 Q103 141 136 147 ZM157 117 L166 105 L166 97 Q144 93 140 89 Q140 55 146 53 L150 53 Q160 53 160 59 Q180 52 180 44 L180 34 L166 33 L155 33 Q123 27 122 61 L122 89 Q122 89 121 89 L97 41 L80 27 L73 27 L73 34 Q91 63 96 85 L82 85 Q75 85 75 93 Q75 102 157 117 Z" /><glyph glyph-name="uni5708" unicode="&#x5708;" d="M170 196 Q210 196 210 145 Q212 145 213 73 Q212 -25 195 -30 Q188 -30 179 -16 L179 -11 Q188 -2 188 56 Q194 176 169 176 L164 176 Q98 176 62 157 L56 175 Q100 196 170 196 ZM141 173 L151 173 Q151 168 154 164 Q151 153 151 149 Q154 145 154 133 Q127 133 125 122 Q142 127 160 131 Q173 127 173 119 L173 113 Q132 106 134 107 L133 108 Q186 96 190 84 L190 80 L185 72 Q121 90 115 96 L113 96 L65 43 L65 17 Q65 8 72 4 L76 4 Q87 4 161 11 Q172 6 179 -4 Q177 -13 170 -13 L127 -13 L74 -19 Q46 -17 41 12 Q43 59 43 69 Q43 72 43 151 L47 164 L53 164 Q66 160 62 67 L62 65 Q71 70 89 96 L86 92 Q85 92 77 92 L72 99 Q72 107 104 119 L106 125 L86 123 L97 140 Q90 152 90 160 Q92 164 92 169 L97 169 Q104 169 114 148 Q112 148 112 148 L112 176 L130 176 L131 155 L127 155 L141 173 ZM139 90 L146 80 Q145 37 126 33 L109 44 L122 52 Q125 63 125 73 L125 71 Q127 71 100 69 L95 79 Q108 85 139 90 ZM93 67 L108 67 L108 58 Q108 30 114 30 L118 30 Q151 28 158 49 L169 38 L175 22 Q175 12 168 12 L161 12 Q145 9 124 9 Q87 8 90 50 L93 67 Z" /><glyph glyph-name="uni5728" unicode="&#x5728;" d="M103 198 L115 198 Q121 198 130 185 Q130 175 123 145 L130 145 Q136 145 177 153 Q193 148 193 138 L193 131 Q120 126 118 122 Q88 69 88 62 Q88 58 90 36 Q91 -3 87 -27 L80 -27 Q65 -21 62 -13 Q67 7 67 21 Q67 24 67 42 L62 37 Q37 12 29 12 L15 12 Q78 83 87 115 Q58 117 57 135 L69 137 Q99 138 103 160 L104 169 L104 174 L103 198 ZM140 110 L148 110 Q161 110 162 79 L177 79 L197 77 L197 68 Q197 57 163 55 L163 48 Q163 18 162 18 Q173 18 189 18 Q219 24 229 10 L235 -6 L188 -6 L102 -12 Q88 -8 88 0 Q90 10 97 10 L104 10 Q140 10 140 15 L140 48 Q140 48 138 51 L125 47 Q109 52 109 60 L109 67 Q140 70 140 74 L140 110 Z" /><glyph glyph-name="uni573A" unicode="&#x573a;" d="M56 172 L65 172 Q78 172 76 132 L76 125 Q76 124 93 121 L93 113 L78 99 L78 83 Q78 83 78 83 Q95 97 103 97 L103 101 Q103 100 100 100 Q100 112 111 121 Q143 162 143 164 Q143 164 109 162 L109 170 Q111 181 118 181 L131 184 L173 186 Q176 178 183 178 Q161 150 139 126 Q194 130 206 133 Q228 124 228 109 Q217 61 187 -19 Q174 -19 133 8 Q132 8 109 -14 L97 -14 L97 -4 Q147 59 147 94 L147 105 Q147 104 148 104 Q127 102 126 95 Q116 48 106 33 Q94 33 94 45 Q100 68 100 73 L100 78 Q100 77 103 77 L41 20 L26 20 L26 34 Q55 57 55 64 L55 94 Q55 94 52 94 L33 91 L28 100 L28 109 Q49 113 55 118 L55 143 L56 172 ZM147 32 L143 25 Q144 22 160 18 L174 15 Q201 85 201 109 L201 107 L196 109 Q172 109 172 96 Q167 67 147 32 Z" /><glyph glyph-name="uni57F9" unicode="&#x57f9;" d="M133 191 L138 191 Q143 191 156 174 L156 171 Q156 162 147 162 Q130 171 124 186 L133 191 ZM58 178 L71 161 L70 140 L71 116 L88 119 L94 111 L94 108 Q94 102 68 93 L68 65 Q68 65 70 65 L81 72 Q90 70 90 62 Q46 15 25 15 Q18 15 12 26 L46 54 Q46 54 46 52 L46 68 L48 92 Q22 92 22 104 L22 109 Q48 112 48 112 L49 150 Q48 163 48 174 L58 178 ZM178 170 Q194 165 194 159 L194 148 L182 148 L182 151 Q192 142 192 133 Q192 126 175 104 L173 100 L224 100 Q245 100 247 89 L247 83 L242 75 Q192 80 155 75.5 Q118 71 89 71 L81 83 L81 92 L96 88 Q139 96 144 100 Q169 124 169 140 L169 148 Q161 148 115 140 Q100 143 100 154 Q110 160 178 170 ZM118 142 L122 142 Q130 142 138 104 Q134 99 134 94 L126 94 Q119 94 111 137 L118 142 ZM170 68 L184 68 Q191 68 207 58 L207 54 Q207 46 193 6 L193 -14 L173 -15 L136 -15 Q129 -15 119 -25 L113 -25 Q103 -14 101 50 Q102 67 170 68 ZM123 42 L125 9 Q125 5 126 5 Q150 9 159 9 L169 9 Q176 9 184 47 Q184 48 180 48 Q128 48 123 42 Z" /><glyph glyph-name="uni58F0" unicode="&#x58f0;" d="M131 199 L144 199 Q153 199 157 168 L155 168 Q184 172 184 178 Q205 170 205 156 L195 152 L164 152 Q156 152 153 146 L153 144 Q152 145 152 145 Q157 145 161 146 Q176 141 176 134 L176 124 Q145 121 104 110 L101 120 L101 124 Q101 131 127 137 Q130 142 130 147 Q104 142 89 138 Q75 142 75 154 L132 166 L134 167 Q134 185 131 199 ZM184 124 Q205 118 206 109 L206 105 L194 81 L194 69 Q194 72 197 72 Q197 51 109 45 Q109 42 104 21 Q98 -6 63 -39 L47 -39 Q86 5 86 71 L86 86 Q86 107 133 114 Q170 119 184 124 ZM155 74 L160 74 Q178 74 177 101 Q157 103 157 93 Q155 73 155 74 ZM109 89 L109 65 Q109 65 110 65 Q136 65 136 77 L136 93 Q136 93 133 95 Q109 90 109 89 Z" /><glyph glyph-name="uni5904" unicode="&#x5904;" d="M140 189 L148 189 Q162 185 165 120 Q213 110 225 94 Q223 85 223 79 Q195 86 164 95 L162 95 Q162 95 162 95 L162 69 Q162 52 160 20 Q173 7 230 -1 L247 -11 Q246 -27 220 -22 L216 -22 Q137 -11 112 23 Q91 46 88 46 Q45 -3 -2 -3 Q64 39 71 63 L49 92 L49 100 Q59 100 81 86 Q95 107 95 125 Q55 116 55 106 Q55 99 34 80 L18 80 Q39 115 64 164 L79 164 Q79 155 79 149 L79 144 L88 146 Q86 150 112 150 L118 150 Q128 150 128 137 Q101 77 101 69 L101 65 Q110 51 138 30 Q140 30 140 66 L142 133 L142 151 Q142 156 137 178 Q140 183 140 189 Z" /><glyph glyph-name="uni590F" unicode="&#x590f;" d="M147 201 L151 201 Q188 197 188 187 L188 174 L180 174 Q173 174 142 177 Q127 170 127 168 Q143 172 147 172 Q169 166 169 151 L162 111 L162 74 Q109 64 98 58 L96 58 Q117 64 155 71 L159 71 Q168 71 171 59 Q171 47 141 15 L141 17 Q174 1 241 -14 L241 -28 L226 -31 Q183 -31 126 0 L123 0 Q99 -19 58 -21 L30 -21 L30 -6 Q103 1 103 13 Q103 14 78 33 L39 4 L29 4 L29 16 Q75 40 75 92 L75 136 L73 155 Q106 163 106 178 L106 174 L88 173 L85 173 Q69 173 66 182 L66 191 Q129 201 147 201 ZM98 139 L107 139 Q129 143 132 143 L142 143 L142 148 Q130 148 98 139 ZM98 114 L101 114 Q117 114 127 120 Q133 116 138 116 L138 109 Q138 101 98 88 L97 81 Q138 88 138 98 Q138 101 141 124 Q98 114 98 114 ZM89 38 L89 53 Q113 27 120 27 Q138 46 138 45 L127 45 L89 38 Z" /><glyph glyph-name="uni5916" unicode="&#x5916;" d="M142 201 L151 201 Q168 185 168 161 Q167 136 167 138 L169 138 L167 129 L167 121 Q167 112 174 113 Q189 104 220 104 Q228 102 228 72 L212 72 Q202 77 191 83 L170 91 Q169 91 168 88 L168 86 Q168 77 166 71 Q169 41 169 23 L169 -9 L166 -24 L150 -38 L147 -14 Q147 31 145 55 Q144 69 143.5 83 Q143 97 143 107 L143 161 Q143 173 142 201 ZM71 169 L80 169 Q89 166 89 158 L88 145 Q88 145 89 145 Q113 150 127 150 L128 132 Q114 97 114 97 L122 86 L122 80 L113 69 L104 73 Q91 54 75 37 Q41 14 30 14 L30 24 Q67 50 84 79 L63 96 L63 108 Q83 103 89 103 L94 103 Q97 103 104 130 L104 128 L100 128 Q77 128 42 86 L32 86 L32 95 Q68 135 68 151 L71 169 Z" /><glyph glyph-name="uni591A" unicode="&#x591a;" d="M115 199 L126 199 L126 186 L123 186 Q150 190 160 190 L164 190 Q173 187 173 181 L173 175 Q138 141 133 122 Q125 122 82 83 Q72 77 50 77 Q101 121 103 130 Q96 137 90 137 Q80 131 69 131 L69 145 Q88 151 115 199 ZM109 152 Q119 152 120 148 Q129 155 136 166 L122 165 Q119 163 109 152 ZM151 133 Q161 129 161 120 L157 113 Q181 117 198 114 L198 104 Q168 55 168 51 Q174 41 167 22 Q153 30 151 31 Q80 -36 55 -37 L55 -23 Q80 -16 132 43 L113 60 L113 71 L122 71 Q143 64 145 64 Q164 84 164 94 L164 96 Q139 94 91 51 L72 55 Q114 91 151 133 Z" /><glyph glyph-name="uni591C" unicode="&#x591c;" d="M104 193 L118 193 Q123 193 132 179 L132 167 L119 167 Q113 167 104 180 L104 193 ZM166 171 Q192 170 195 153 Q186 148 182 148 Q172 149 167 149 Q152 149 90 141 Q53 140 51 151 L51 156 Q55 162 61 162 L68 159 Q135 165 166 171 ZM134 151 L145 151 Q145 145 148 145 Q139 123 139 117 Q139 116 138 116 Q172 126 190 126 Q200 123 197 113 Q184 74 152 37 Q173 15 226 -1 L235 -7 Q235 -19 214 -21 Q191 -18 136 20 Q93 -14 83 -14 L75 -14 L75 -3 Q120 28 120 34 Q120 36 82 69 Q105 93 134 151 ZM88 140 L103 140 L103 131 Q103 122 70 84 L77 59 Q75 -7 67 -19 L63 -19 Q54 -19 54 -9 Q56 37 56 66 L54 67 Q32 46 21 46 L21 56 Q49 87 88 140 ZM108 70 Q108 65 133 49 Q146 49 167 103 L168 100 Q125 95 120 89 Q111 78 108 70 ZM130 95 Q151 87 151 79 L151 73 L149 63 Q121 73 120 83 L120 90 Q125 90 130 95 Z" /><glyph glyph-name="uni5927" unicode="&#x5927;" d="M111 185 L119 185 L123 169 L123 120 L120 120 Q137 120 161 130 Q179 125 179 116 L179 105 Q116 99 117 98 Q130 92 164 38 Q182 17 238 -3 L238 -19 L215 -19 Q171 -19 111 78 Q111 78 90 35 Q48 -9 26 -9 L26 3 Q44 7 77 53 Q90 79 90 92 Q90 92 87 92 Q83 92 66 88 Q52 92 52 103 Q100 115 100 118 Q100 185 111 185 Z" /><glyph glyph-name="uni5931" unicode="&#x5931;" d="M124 197 Q132 197 137 179 Q139 171 137 151 Q137 150 137 150 L146 150 Q145 150 145 153 Q162 146 164 138 L164 136 Q164 130 135 122 Q134 106 130 95 L132 94 Q184 98 202 98 Q208 94 208 94 L216 82 Q216 74 208 74 L139 74 Q139 74 139 75 Q174 30 216 9 Q228 9 233 -4 Q233 -13 225 -13 L223 -13 Q196 -27 122 64 Q98 17 46 -7 L27 -7 Q87 37 96 65 L95 67 Q92 67 58 63 L33 63 L33 77 Q106 89 107 95 L111 116 Q115 118 95 121 Q78 97 59 86 L54 98 Q87 132 87 169 L104 169 Q104 163 106 158 Q107 148 105 140 Q120 140 116 174 L116 188 Q116 197 124 197 Z" /><glyph glyph-name="uni594B" unicode="&#x594b;" d="M102 197 L112 197 Q117 197 126 181 Q122 155 116 136 L116 140 L150 145 Q162 138 162 133 L162 124 Q138 124 138 124 Q189 67 219 59 Q244 48 242 42 L242 36 L235 36 Q213 37 189 46 Q166 -22 152 -22 Q142 -14 136 -14 L117 -13 Q104 -12 82 -23 L72 -23 L57 57 Q62 71 138 75 Q155 75 167 71 L165 71 L165 68 Q127 116 111 117 Q105 106 93 91 Q39 28 26 28 L12 28 L12 36 Q56 72 81 113 L82 118 Q75 121 67 121 L67 127 Q69 136 94 138 Q98 141 102 197 ZM129 53 L129 56 Q126 41 151 39 L153 31 Q153 21 129 20 L130 10 Q130 8 133 5 L149 4 Q164 13 163 43 L163 47 Q164 51 134 55 Q129 53 129 53 ZM80 46 L80 44 Q80 42 87 38 Q109 40 109 42 Q110 52 105 53 Q81 52 80 46 ZM84 18 L86 2 Q86 1 90 0 Q107 3 107 6 L108 19 Q108 21 108 21 Q84 19 84 18 Z" /><glyph glyph-name="uni597D" unicode="&#x597d;" d="M182 182 Q199 177 199 169 L199 162 Q190 155 169 120 L181 107 L226 111 Q239 111 245 91 L231 89 L213 88 Q187 86 188 87 Q193 50 193 31 Q187 -20 172 -20 Q152 -10 133 16 L133 27 L143 27 L161 17 L167 14 Q169 15 170 37 Q171 75 163 83 Q150 83 112 78 Q108 80 103 80 L103 90 Q105 99 156 104 Q156 106 145 110 L145 119 Q166 148 166 157 L149 154 L144 154 Q135 154 135 164 L135 173 Q180 178 182 182 ZM74 173 Q80 167 83 154 L80 129 Q80 130 100 135 Q113 131 113 125 Q113 106 85 52 L85 50 Q113 29 113 25 L113 7 L103 7 Q74 33 68 33 Q37 13 28 13 L18 13 L18 22 Q49 40 53 49 L39 61 Q51 85 52 98 L53 102 L46 101 Q43 101 25 97 L22 97 Q13 97 13 107 Q13 115 58 126 Q63 134 63 152 L63 162 Q65 173 74 173 ZM65 68 L68 65 L71 65 Q75 68 89 110 L78 108 Q73 106 65 68 Z" /><glyph glyph-name="uni59CB" unicode="&#x59cb;" d="M151 184 L160 184 Q167 184 173 162 L151 114 L147 108 Q143 108 148 107 Q178 115 200 119 Q195 125 195 139 L205 139 Q230 120 243 104 L243 91 Q228 91 221 99 Q176 99 128 79 Q123 84 118 84 L118 96 Q132 114 151 165 L151 184 ZM83 168 L88 168 L92 152 Q89 121 89 124 Q115 123 115 104 Q115 91 92 33 L92 28 Q92 27 112 6 L112 -5 L100 -5 Q80 14 73 14 L28 -3 L28 6 L58 31 L49 44 Q49 53 59 91 L27 85 Q21 88 16 88 L16 95 Q16 104 66 113 Q75 168 83 168 ZM68 50 Q68 49 69 49 L73 49 Q93 67 94 99 Q74 99 68 57 L68 50 ZM208 83 L213 83 Q230 83 236 66 Q236 53 220 29 L220 25 Q224 7 224 0 Q218 0 213 -1 L191 0 Q152 0 152 -14 L141 -14 Q133 -14 133 -2 Q133 -1 128 67 Q154 83 208 83 ZM147 50 Q151 22 153 22 L181 22 Q205 22 212 62 L204 63 Q147 63 147 50 Z" /><glyph glyph-name="uni5B55" unicode="&#x5b55;" d="M143 196 Q152 197 158 192 L158 184 Q151 175 151 164 L151 153 Q151 153 155 151 L183 153 L191 143 L191 130 L173 70 Q164 70 137 89 L133 84 Q123 75 123 71 Q136 59 136 59 Q172 60 196 62 L198 62 Q220 62 225 48 L225 38 L142 38 L144 23 Q134 -29 114 -29 Q96 -25 71 -3 Q83 -3 83 -1 Q95 -3 111 -3 L113 -3 Q116 -3 122 14 L122 35 Q122 36 122 36 L109 36 L36 31 L32 38 L32 48 Q113 56 113 55 L104 66 Q104 73 113 93 Q83 91 67 74 L59 69 L45 69 Q88 125 96 158 L96 168 Q96 168 95 168 Q88 165 76 164 Q72 166 66 166 L66 176 Q73 182 137 193 L143 196 ZM117 170 L117 168 Q117 160 116 157 Q108 128 95 111 L95 108 Q95 108 96 108 L104 108 Q110 108 132 114 L137 114 Q150 99 159 99 Q163 100 168 132 L158 132 Q127 132 127 172 L129 172 Q117 170 117 170 Z" /><glyph glyph-name="uni5B64" unicode="&#x5b64;" d="M100 176 L100 170 Q100 158 71 126 Q84 104 84 58 L84 51 Q84 34 71 -10 L66 -10 Q43 -10 17 34 L29 34 Q55 20 57 20 Q62 26 64 64 L62 85 L66 87 Q27 50 11 50 L8 69 Q29 81 60 103 Q60 109 53 119 L53 127 Q69 148 69 152 L40 152 L40 159 Q40 167 100 176 ZM160 36 Q144 -3 137 -3 L130 -3 L124 3 Q128 66 128 121 Q130 129 130 135 L137 135 Q146 135 148 99 Q146 68 146 45 Q150 50 152 51 Q150 53 147 62 L147 77 L156 77 Q169 63 182 37 L182 34 Q182 25 174 25 Q167 25 160 36 ZM157 144 L167 144 Q178 129 208 55 Q223 17 246 -5 L246 -13 Q210 -13 183 62 Q183 72 157 130 L157 144 ZM114 151 L122 151 L122 111 Q122 44 91 -6 L76 -6 Q99 47 105 144 L114 151 ZM169 174 Q180 171 180 162 Q180 154 122 144 L116 144 Q116 164 169 174 Z" /><glyph glyph-name="uni5B87" unicode="&#x5b87;" d="M107 193 L119 193 Q137 192 137 181 L132 170 Q107 177 107 187 L107 193 ZM162 172 Q218 172 214 154 L214 148 Q175 124 164 124 L164 131 Q182 146 182 151 Q172 156 153 152 L72 142 L75 118 L75 110 L66 110 Q59 110 50 151 Q52 155 52 162 L59 162 Q66 157 67 157 Q86 164 162 172 ZM146 138 Q153 136 160 136 L160 123 Q147 118 142 117 L143 115 Q146 108 147 99 L196 104 Q217 104 218 92 L218 87 L215 79 L183 81 L147 76 L147 67 Q149 -27 130 -27 Q114 -20 97 3 L97 10 Q109 10 120 3 Q124 4 124 13 L125 57 L125 71 L123 74 Q97 72 57 63 Q48 64 44 68 L44 80 Q107 94 122 96 Q122 114 121 114 L109 111 Q98 114 92 114 L92 120 Q92 129 146 138 Z" /><glyph glyph-name="uni5B8F" unicode="&#x5b8f;" d="M109 193 L118 193 Q130 193 143 176 Q142 176 173 177 Q225 169 225 159 L225 155 Q225 149 170 126 L167 139 Q184 147 184 155 Q176 155 156 157 Q84 147 84 142 Q82 111 74 111 Q70 111 64 122 L64 163 L80 163 Q117 164 117 171 Q109 181 109 184 L109 193 ZM112 149 L122 149 Q130 146 130 139 L130 135 Q130 131 126 112 L130 112 Q167 117 180 120 Q195 115 195 109 Q195 101 185 97 L171 97 Q113 96 101 59 Q61 11 33 -7 L33 6 Q82 62 88 78 L90 83 L65 79 L54 96 Q112 96 112 149 ZM130 82 L147 67 Q139 42 117 20 L115 18 Q163 23 182 26 L182 30 L177 37 L177 44 L186 44 Q203 44 222 -6 L222 -13 L212 -13 Q206 -13 190 1 L161 1 Q157 1 121 -4 L102 -4 Q97 -4 92 -5 Q87 -4 80 -4 L80 5 Q122 57 130 82 Z" /><glyph glyph-name="uni5B99" unicode="&#x5b99;" d="M96 190 L103 190 Q129 182 129 172 L129 160 L121 160 Q116 160 96 176 L96 190 ZM192 163 Q221 151 221 134 Q186 113 166 113 L166 123 Q183 142 183 141 Q179 145 169 143 Q117 144 59 130 Q62 77 48 92 Q43 92 38 105 Q37 115 37 126 L37 128 Q37 132 32 148 L32 157 L57 152 Q163 167 192 163 ZM117 132 Q132 128 130 96 L173 98 Q189 98 204 74 Q197 14 172 -16 Q163 -16 159 -14 Q126 -14 107 -14 L79 -16 Q62 -16 58 -5 L58 2 Q52 42 51 73 Q59 95 111 95 L108 129 L117 132 ZM130 72 L132 55 L151 56 L165 56 L162 42 Q162 33 131 29 L131 9 Q137 9 158 9 Q170 13 176 72 Q174 75 170 75 Q145 74 130 72 ZM75 49 Q75 6 85 6 L110 8 L110 32 Q110 28 108 28 Q83 28 77 28 L77 43 Q82 48 110 54 L110 71 L100 70 Q75 70 74 66 L75 49 Z" /><glyph glyph-name="uni5B9D" unicode="&#x5b9d;" d="M108 191 L111 191 Q129 184 129 175 L128 163 L116 163 Q109 163 97 183 Q102 191 108 191 ZM165 168 L177 168 Q199 168 213 143 Q173 112 157 112 L153 122 Q168 135 176 145 L175 146 Q155 146 76 133 Q63 140 63 149 Q82 155 165 168 ZM43 146 L53 146 Q68 146 69 94 L61 91 L58 91 Q51 91 48 104 L48 123 Q48 124 43 146 ZM136 122 Q149 115 149 110 L149 101 L129 95 L124 95 L124 97 Q127 75 130 75 Q146 77 159 77 Q170 73 170 65 Q170 58 128 52 L127 11 Q127 9 128 9 Q164 11 182 11 Q221 10 220 -11 L220 -22 Q203 -9 125 -12 Q60 -18 40 -18 L37 -6 Q39 1 95 7 L105 10 L106 48 Q106 48 106 48 L101 48 Q96 48 67 41 L65 55 Q68 60 106 71 L107 77 Q107 91 104 91 L82 91 L82 97 Q83 110 136 122 ZM151 48 Q196 31 179 11 L175 11 Q163 11 148 34 L149 39 L151 48 Z" /><glyph glyph-name="uni5BB6" unicode="&#x5bb6;" d="M93 198 L107 198 Q119 198 125 181 Q132 182 136 182 L167 182 Q199 182 211 165 L211 155 L163 138 L163 149 L178 162 Q178 162 174 164 L136 164 Q113 164 65 150 L66 132 L57 120 Q51 123 45 123 L45 153 L41 176 L63 168 L104 178 Q104 178 89 191 L93 198 ZM149 152 L149 142 Q149 133 118 126 L120 122 Q123 117 137 88 Q140 82 143 76 Q166 103 173 120 L185 105 Q188 95 154 66 L155 68 Q177 43 213 29 Q223 27 231 20 L231 10 Q183 10 145 51 L145 44 Q141 -13 123 -29 L116 -29 Q109 -29 76 7 L76 14 L83 14 Q112 -2 112 -2 Q123 17 123 34 L123 45 L120 61 L121 59 Q89 20 58 5 L49 5 L49 12 Q93 50 114 81 L114 85 Q109 100 106 102 L52 53 L24 46 Q89 107 96 127 L96 125 L98 125 L73 121 L73 129 Q74 143 149 152 ZM98 94 L105 94 L111 80 Q69 40 61 40 L55 40 L55 49 L98 94 Z" /><glyph glyph-name="uni5BBD" unicode="&#x5bbd;" d="M93 198 Q128 195 128 185 Q128 178 119 178 L116 178 Q100 178 93 191 L93 198 ZM156 182 L175 182 Q206 182 206 170 L206 161 Q199 161 155 136 L155 150 Q165 160 170 167 Q169 166 149 166 Q61 158 61 152 L61 134 Q61 118 51 116 L40 116 L40 123 L43 154 L39 170 Q89 178 156 182 ZM123 156 Q148 156 151 132 L167 132 Q165 132 165 135 Q185 130 185 123 L185 114 Q129 114 129 109 Q156 100 156 91 Q152 24 140 24 Q136 32 131 32 L133 68 L133 87 Q90 87 90 78 Q83 43 83 34 L80 34 Q102 58 102 80 L117 80 Q117 75 120 75 Q114 60 114 48 L117 36 Q114 25 114 17 L114 15 Q114 -5 159 -5 L186 -5 Q200 -5 200 4 Q200 8 199 36 L208 43 Q227 17 227 -16 Q215 -27 190 -27 L155 -27 Q93 -27 93 25 L95 25 Q48 -19 32 -16 L32 -5 Q42 -5 70 24 Q69 29 64 43 L70 88 L78 97 L78 102 Q78 104 73 106 L51 101 L51 110 Q51 117 75 121 L75 123 L73 148 L79 148 Q84 148 99 124 Q129 125 129 132 L129 134 Q129 134 123 156 ZM97 107 L97 102 Q97 102 101 102 Q106 103 106 107 L97 107 Z" /><glyph glyph-name="uni5BF9" unicode="&#x5bf9;" d="M173 194 L183 194 Q198 194 197 136 L206 137 Q206 137 211 139 Q220 139 225 134 L225 127 Q225 119 197 115 L197 101 L196 8 Q196 -26 181 -26 Q133 0 129 7 L129 14 L138 14 Q149 14 172 1 L176 1 Q175 1 175 0 L175 112 Q175 112 176 112 L122 103 Q116 105 110 105 L110 112 Q110 122 173 132 L175 134 L175 138 Q175 178 173 186 L173 194 ZM100 138 Q107 136 114 136 Q114 119 91 80 Q105 62 105 45 L93 45 Q90 45 78 58 Q54 28 30 25 L25 39 Q63 60 63 72 Q63 73 32 96 L32 107 L41 107 Q53 107 69 94 L76 94 Q77 94 82 106 L82 114 Q81 114 64 109 Q48 114 48 122 L48 131 Q80 131 100 138 ZM127 97 Q164 81 164 72 L164 66 L156 55 Q122 75 122 88 L127 97 Z" /><glyph glyph-name="uni5C0F" unicode="&#x5c0f;" d="M113 176 L123 176 Q136 176 139 125 Q142 74 140 46 Q140 -15 123 -19 Q98 -5 82 16 L82 26 L91 26 Q107 19 116 19 Q117 39 117 46 L117 49 Q119 87 116 123 L115 150 Q113 162 113 176 ZM74 98 Q59 53 48 53 L41 53 Q28 53 35 64 Q53 95 58 105 Q69 118 74 98 ZM172 111 L184 111 L236 74 L236 65 Q236 55 222 55 Q212 59 172 101 L172 111 Z" /><glyph glyph-name="uni5C11" unicode="&#x5c11;" d="M117 191 L123 191 Q137 191 138 156 L138 106 Q138 84 128 81 L117 81 Q117 88 114 92 Q118 111 118 125 L118 164 L117 191 ZM157 153 L167 153 Q221 123 221 117 L221 105 L210 105 Q192 105 157 140 L157 153 ZM85 151 L99 146 L99 137 Q99 119 62 88 L53 88 L53 97 L85 151 ZM167 124 L176 124 L176 116 Q159 68 123 33 Q100 1 62 -15 L51 -15 Q51 -3 79 16 Q143 73 159 121 L167 124 Z" /><glyph glyph-name="uni5C31" unicode="&#x5c31;" d="M52 193 Q78 188 78 177 Q78 167 67 167 Q59 167 52 180 L52 193 ZM106 171 L112 160 L112 151 Q95 151 37 143 Q23 149 23 156 L23 163 L106 171 ZM163 171 L178 171 Q201 171 206 154 L206 142 L199 142 Q163 149 163 163 L163 171 ZM135 168 L143 168 Q158 168 158 119 L158 112 Q158 113 159 113 Q173 113 173 122 Q183 114 192 114 L192 96 Q161 91 158 90 Q156 60 160 33 Q160 11 190 8 Q195 9 215 9 Q214 9 214 12 Q214 21 214 59 L223 59 Q238 52 240 -12 Q218 -18 188 -16 Q157 -16 141 19 Q137 31 137 37 L137 47 Q137 46 139 46 Q103 -2 96 -2 L88 -2 L88 9 Q106 27 106 33 L79 56 L79 68 Q92 68 118 51 Q128 66 128 79 L128 83 Q128 83 128 83 L108 83 L108 101 Q137 101 137 127 L137 133 Q135 151 129 151 Q135 161 135 168 ZM95 145 Q108 141 108 130 Q93 74 78 75 Q78 71 78 55 Q83 36 75 -16 L66 -16 Q41 0 40 7 L40 14 L59 14 Q58 14 58 14 L58 58 Q58 67 54 69 L45 69 Q45 69 53 65 Q33 72 33 79 L33 81 Q33 97 35 112 L30 140 Q35 140 35 145 L46 140 Q51 140 95 145 ZM54 119 L54 92 Q54 92 74 96 Q75 96 81 113 L83 123 Q83 122 84 122 L78 122 Q54 122 54 119 ZM36 63 L45 63 L45 47 Q32 21 23 18 L13 18 Q26 62 36 63 Z" /><glyph glyph-name="uni5E02" unicode="&#x5e02;" d="M111 202 L118 202 Q140 193 140 187 L140 177 L130 166 Q112 177 111 202 ZM159 167 L197 170 Q217 162 217 152 Q217 144 209 144 Q192 148 183 148 Q175 148 139 146 L140 140 L140 131 L173 131 Q194 131 198 117 Q176 40 161 40 Q156 40 146 57 L146 63 Q167 63 174 102 L174 108 Q174 113 147 111 Q141 109 140 109 L142 90 L142 58 Q142 2 132 -39 L120 -39 Q120 -15 119 21 Q120 66 120 104 L115 106 Q94 104 92 100 Q95 84 95 77 L95 40 L86 40 Q73 40 72 75 Q71 110 71 117 L82 117 Q120 126 120 127 L120 146 Q95 144 59 137 Q38 142 38 155 Q46 158 50 158 Q65 158 159 167 Z" /><glyph glyph-name="uni5E27" unicode="&#x5e27;" d="M59 195 L66 195 Q79 195 84 143 L84 135 L105 135 Q111 135 117 124 Q104 58 93 58 Q89 60 83 60 L83 74 Q90 81 95 112 L95 116 Q95 117 91 119 Q83 119 83 108 L83 33 L76 -11 L69 -11 L60 -9 L65 76 Q62 86 62 106 L62 112 Q62 112 60 112 Q53 112 47 107 L50 92 Q47 61 47 43 L36 43 L26 45 Q32 69 32 85 Q32 88 26 127 L46 127 Q65 129 65 131 L65 157 Q65 164 59 195 ZM134 189 L147 189 L166 166 Q176 168 186 168 L188 160 L188 153 Q162 148 162 143 L162 131 Q162 131 162 131 Q181 134 197 134 Q198 129 202 129 Q201 91 201 73 L201 58 L193 58 Q180 62 180 69 L180 85 Q180 97 182 116 L178 116 Q171 116 143 105 Q143 105 138 52 L138 47 L131 47 Q124 47 119 61 Q121 87 121 106 L121 122 Q144 124 144 127 Q144 129 141 134 Q144 148 144 156 L144 160 Q144 166 134 189 ZM162 106 Q168 106 173 87 Q154 7 106 7 L106 15 Q154 42 154 85 L154 91 Q154 88 148 88 Q155 106 162 106 ZM176 45 Q226 19 231 9 L231 7 Q231 -2 222 -2 Q184 17 167 36 Q169 45 176 45 Z" /><glyph glyph-name="uni5E2D" unicode="&#x5e2d;" d="M106 208 Q129 208 131 188 Q169 192 171 195 Q190 187 190 180 L190 171 Q186 171 180 169 L170 170 L170 173 Q170 154 185 154 Q196 154 196 145 L196 136 Q170 136 170 126 Q173 116 173 105 Q156 101 156 100 L156 91 L154 91 Q172 91 196 96 Q224 89 229 74 Q190 14 182 13 L173 13 Q168 13 162 24 L162 33 L178 33 Q202 56 202 74 L201 76 Q156 75 156 71 L156 27 Q156 -9 151 -29 L147 -29 Q138 -29 138 -20 L138 6 Q137 40 137 63 Q134 68 134 67 L127 67 Q111 67 107 59 Q107 49 112 17 L102 17 Q94 23 80 84 L106 83 Q134 86 134 87 L134 94 Q134 96 133 96 L131 96 Q133 96 133 92 Q112 92 108 115 L108 125 Q103 125 103 125 Q104 125 100 125 Q88 130 88 139 Q108 143 108 145 L106 166 L120 166 Q123 148 127 148 Q156 152 156 155 Q152 171 150 171 L147 171 Q134 171 91 161 Q79 48 64 48 Q47 17 29 17 L29 27 Q69 65 69 159 L69 162 L67 174 Q75 183 116 184 L116 182 L96 200 Q106 205 106 208 ZM129 129 L129 118 Q129 117 129 117 L144 117 Q152 121 152 131 L152 134 Q152 135 152 135 Q129 131 129 129 Z" /><glyph glyph-name="uni5E38" unicode="&#x5e38;" d="M99 213 L114 213 Q120 213 124 197 Q122 181 122 172 L122 167 Q122 166 123 166 Q169 170 182 170 Q211 165 211 153 L211 149 Q183 128 170 128 L170 135 L179 147 L179 151 Q179 151 178 151 Q90 151 74 133 L74 126 Q74 109 70 98 L66 98 Q60 98 54 110 Q56 118 56 122 L56 134 Q56 136 50 157 Q53 157 53 161 L64 157 L67 157 Q103 157 103 172 L105 193 L99 213 ZM153 203 L160 203 Q168 201 168 189 Q151 170 123 170 L153 203 ZM76 189 Q89 186 89 170 L89 158 L84 158 Q75 158 67 187 L76 189 ZM153 145 L162 131 Q156 89 133 89 L133 84 Q134 82 134 82 Q142 82 174 87 Q203 80 203 72 L203 66 Q187 26 163 12 Q151 16 151 22 L148 35 Q176 39 178 67 Q178 68 176 68 Q136 65 136 64 Q137 51 136 36 Q136 -2 129 -46 L118 -46 Q114 15 115 50 Q116 61 109 61 Q87 57 82 53 L85 32 L85 12 L76 12 Q66 12 60 76 Q67 76 84 73 Q114 76 114 80 L114 83 Q114 84 111 86 Q101 83 92 83 Q86 107 86 135 L153 145 ZM107 120 L107 118 Q107 104 111 104 Q138 108 138 113 L138 126 Q107 126 107 120 Z" /><glyph glyph-name="uni5E95" unicode="&#x5e95;" d="M95 197 L107 197 Q112 197 122 182 L122 172 L114 172 Q108 172 95 189 L95 197 ZM165 181 Q185 176 185 170 L185 166 Q185 155 82 151 Q80 149 76 104 Q49 9 16 9 L16 18 Q42 41 56 108 Q60 117 60 132 L60 160 Q62 169 69 169 Q165 174 165 181 ZM134 141 L149 141 Q157 138 157 132 L157 123 L151 123 Q134 123 98 117 Q98 133 134 141 ZM132 122 L143 122 L160 101 L193 110 L199 98 L199 89 Q166 85 166 84 Q178 45 212 16 L217 16 Q218 16 219 19 L219 26 L220 46 Q237 45 239 22 Q239 9 231 -15 L220 -15 Q153 41 144 76 Q99 64 98 61 L98 20 L100 20 L130 55 L138 55 Q138 32 95 -14 L90 -14 Q79 -14 77 8 Q77 14 79 28 Q79 30 77 51 Q79 89 79 110 Q81 114 81 120 L97 120 L98 105 L97 85 L100 82 L102 82 Q137 90 137 95 L137 100 Q137 101 132 122 ZM137 29 L147 29 Q153 29 168 2 Q166 -4 166 -9 L159 -9 Q137 6 137 29 Z" /><glyph glyph-name="uni5EA6" unicode="&#x5ea6;" d="M113 196 Q139 196 142 186 L142 175 L128 175 Q122 175 113 188 L113 196 ZM166 181 Q178 181 178 183 Q198 176 199 167 L199 158 L158 158 Q134 158 134 153 L136 134 L150 134 Q160 134 161 138 L158 154 L173 154 Q177 138 181 137 Q208 138 208 130 Q208 122 183 116 L183 88 Q140 73 124 73 Q116 76 116 87 L113 108 L88 108 L88 123 Q116 126 116 127 L116 142 Q116 152 110 153 Q97 151 92 151 Q82 48 59 16 Q48 -1 26 -14 L19 -14 L19 -4 Q55 35 64 96 Q66 109 67 126 L69 154 L72 168 L81 168 Q157 177 160 179 Q163 181 166 181 ZM136 112 L136 98 Q136 97 139 97 Q159 101 159 106 L159 115 L154 115 Q149 115 136 112 ZM180 82 Q198 78 198 70 Q171 27 162 20 Q178 5 231 -6 L235 -14 L235 -21 Q230 -21 230 -24 Q168 -20 144 2 L142 2 Q111 -18 59 -18 Q128 12 127 19 Q100 53 100 61 Q109 66 180 82 ZM127 52 Q138 36 144 33 Q162 52 162 62 L161 60 Q127 55 127 52 Z" /><glyph glyph-name="uni5EFA" unicode="&#x5efa;" d="M139 197 L145 197 Q156 197 155 170 Q159 170 177 172 Q190 163 188 145 Q233 147 233 131 L233 123 Q210 125 199 125 L187 125 Q179 124 179 124 L179 120 Q179 115 184 108 L184 104 Q184 95 166 94 Q158 95 153 94 L161 94 Q160 94 160 96 Q177 91 179 84 L179 75 Q153 73 153 71 L153 68 Q154 66 153 66 L175 66 Q181 66 195 69 Q203 65 210 53 L210 43 Q190 48 155 48 Q155 48 148 2 L143 2 Q136 2 132 14 L132 32 Q132 42 130 42 L122 42 Q88 38 88 33 Q103 13 169 -5 Q272 -9 233 -25 L222 -31 Q137 -31 89 10 Q83 13 77 13 Q68 -9 30 -15 L26 -15 Q18 -15 18 -4 Q30 1 46 9 Q54 13 60 24 L60 27 Q60 27 26 47 L26 63 Q67 44 70 44 Q74 53 74 58 Q77 58 56 61 L49 61 Q49 67 44 79 Q54 92 54 112 Q38 112 35 124 L35 132 L49 135 L68 135 Q74 135 78 125 L78 120 Q78 119 71 88 L73 88 Q99 80 97 60 L107 56 L110 56 Q128 61 128 66 L133 66 Q133 66 118 66 L114 79 L132 88 L132 92 L123 92 Q120 92 117 90 Q104 94 104 99 L104 108 Q132 111 132 115 L132 124 Q132 123 130 123 Q92 115 77 115 L74 123 Q74 129 132 141 L132 144 L114 157 Q137 168 137 170 Q137 180 136 188 Q139 192 139 197 ZM153 150 L153 143 Q153 142 153 142 L163 143 Q166 145 166 152 L161 152 Q153 151 153 150 ZM153 119 L153 114 L150 114 Q154 116 154 124 L155 123 Q155 123 153 119 Z" /><glyph glyph-name="uni5F00" unicode="&#x5f00;" d="M152 189 Q163 177 163 173 L163 164 Q132 162 119 162 L104 162 L83 164 L83 181 L152 189 ZM86 156 L94 156 Q105 156 107 116 Q142 119 141 127 Q141 144 141 151 L152 158 Q163 126 163 126 Q230 126 230 107 L230 105 Q230 97 218 97 Q190 103 174 103 L166 103 Q163 103 162 100 Q163 -4 151 -38 L139 -38 L140 -1 Q139 19 139 38 L140 98 Q140 99 139 99 L106 96 Q108 93 100 66 Q68 9 54 9 L49 17 Q81 70 80 85 L80 93 Q78 91 66 89 Q53 86 41 86 Q28 91 25 101 Q40 106 85 114 L85 112 Q83 135 83 146 Q86 150 86 156 Z" /><glyph glyph-name="uni5F53" unicode="&#x5f53;" d="M102 189 L112 189 Q124 185 127 160 L127 112 Q155 134 166 169 L177 169 Q190 165 190 146 Q172 126 142 103 L156 104 L171 106 Q208 95 208 81 Q182 28 182 16 L190 6 L190 -3 L167 -8 Q161 -8 140 -9 Q104 -9 63 -14 Q59 -11 53 -11 L53 -3 Q53 8 157 18 Q165 38 177 76 L176 79 Q117 79 63 67 L60 67 Q51 67 51 75 L51 80 Q55 84 107 97 L109 101 L104 110 Q104 115 106 120 Q104 141 104 155 L102 169 L102 189 ZM56 148 L65 148 Q89 129 89 109 Q85 102 85 98 L80 98 Q65 98 56 148 ZM131 61 Q151 56 151 50 L151 35 L137 35 Q91 35 75 28 Q61 32 61 38 L61 42 Q61 48 131 61 Z" /><glyph glyph-name="uni5F80" unicode="&#x5f80;" d="M132 179 Q148 179 166 155 L190 157 L193 157 Q198 157 211 137 Q166 134 166 132 Q167 103 168 103 L178 103 L192 107 L198 94 L198 92 Q198 79 169 76 Q165 40 167 27 L217 28 Q232 28 238 8 L235 -1 L212 2 Q178 0 152 0 L96 -2 Q91 0 87 0 L87 21 Q142 24 142 27 L143 44 L143 70 L146 70 Q123 67 115 67 L112 75 L112 80 Q112 86 144 96 L146 100 L146 124 Q146 126 141 129 Q121 123 117 123 Q113 125 108 125 L108 142 L143 149 L143 152 Q143 152 132 166 L132 179 ZM77 174 L84 174 L91 152 L51 126 L42 126 L42 133 L77 174 ZM79 128 L89 128 L93 112 Q80 99 73 95 Q76 74 76 65 L71 -12 L65 -12 Q61 -12 52 1 Q54 39 54 47 L53 81 L23 60 L13 60 L13 67 L79 128 Z" /><glyph glyph-name="uni5F97" unicode="&#x5f97;" d="M186 195 Q198 191 205 179 Q194 118 186 115 Q159 112 146 112 Q146 111 139 106 L134 106 Q125 106 125 115 L120 139 L118 172 L126 172 Q137 172 141 131 Q179 131 179 140 L179 143 Q168 143 140 143 L140 154 Q147 163 160 163 Q179 161 182 161 L183 163 L183 173 Q183 172 179 174 L166 174 Q164 174 141 170 Q126 170 122 181 Q122 193 186 195 ZM78 183 L91 176 L91 173 Q91 155 55 132 L43 132 L43 140 Q55 151 78 183 ZM84 142 Q90 155 100 135 Q100 128 81 109 Q72 102 70 100 Q70 96 72 86 L72 25 Q70 -11 61 -11 L59 -11 Q51 -11 51 -3 Q51 2 52 25 L50 85 L52 85 Q48 85 34 71 L9 69 Q70 128 84 142 ZM185 111 Q198 107 198 101 L198 92 Q183 92 183 90 Q183 84 182 84 L232 84 L238 74 L238 68 L234 61 Q210 65 199 64 Q186 64 188 64 L190 17 Q187 -31 169 -27 L165 -27 Q134 -6 134 -1 L134 5 L149 5 Q160 1 163 1 Q168 11 168 25 Q168 61 166 62 L95 54 L79 69 Q104 76 164 82 Q163 88 161 88 L136 85 Q124 90 124 96 Q124 106 185 111 ZM115 53 L121 53 Q158 47 158 36 L158 28 L151 21 Q115 34 115 44 L115 53 Z" /><glyph glyph-name="uni5FAA" unicode="&#x5faa;" d="M172 192 Q194 193 194 184 L194 177 L173 171 Q146 166 126 156 L126 144 Q126 144 126 144 L138 144 Q164 144 164 154 L162 168 L171 173 L187 152 Q219 156 223 156 Q236 152 236 139 Q170 139 170 121 L193 121 Q193 121 193 124 Q214 118 214 84 L212 -7 Q207 -27 197 -27 Q185 -8 182 -8 L142 -13 L139 -5 Q139 6 189 15 L189 40 L180 40 Q171 35 159 35 L156 35 L153 21 L153 6 Q135 6 131 16 Q135 72 136 101 Q136 106 153 125 L139 125 L127 127 L118 84 Q118 64 74 -1 Q70 -14 63 -14 L60 -14 L48 -8 Q54 16 52 71 Q52 76 48 80 Q48 80 32 67 L16 67 Q78 129 78 135 Q95 129 95 121 Q85 106 70 90 Q72 79 73 51 Q74 23 73 24 L72 22 Q110 86 109 165 Q152 192 172 192 ZM80 177 L87 177 Q95 175 95 168 L95 165 Q80 141 56 125 L45 125 L45 133 Q58 143 80 177 ZM161 96 L161 89 Q161 88 161 88 Q190 91 193 91 L193 100 Q193 101 192 101 L189 101 Q161 101 161 96 ZM158 61 L158 58 L170 58 Q175 58 178 60 Q186 58 189 58 L193 58 L193 69 L189 69 Q158 67 158 61 Z" /><glyph glyph-name="uni5FC3" unicode="&#x5fc3;" d="M96 160 L108 160 Q122 154 130 142 L130 131 L119 119 Q96 147 96 151 L96 160 ZM192 116 L198 116 Q206 116 230 87 L230 81 Q230 75 222 69 L210 63 Q210 77 192 103 L192 116 ZM28 106 L36 106 Q41 100 44 88 L47 61 L46 40 L38 35 Q33 35 25 50 L25 90 L28 106 ZM70 104 Q84 58 109 41 Q123 34 123 34 Q171 34 171 42 Q159 59 159 75 L166 72 L169 72 Q199 54 206 29 Q197 16 183 14 Q156 6 129 10 Q77 21 62 81 Q62 88 56 95 L70 104 Z" /><glyph glyph-name="uni600E" unicode="&#x600e;" d="M78 192 L90 192 Q97 192 101 176 Q99 171 99 167 Q99 167 100 167 Q121 173 150 178 L157 167 Q152 158 108 147 L108 149 L110 128 L108 128 Q116 128 137 138 Q149 134 149 128 Q149 120 110 106 L111 96 Q118 96 139 103 Q152 99 152 92 Q152 85 108 73 Q107 49 98 49 Q89 49 89 61 Q88 114 89 141 Q47 95 39 95 L39 102 Q81 161 81 172 L78 192 ZM119 58 Q140 47 143 38 L143 36 Q143 26 134 28 Q114 37 106 37 L106 53 Q113 58 119 58 ZM180 60 Q199 60 225 37 L225 22 L216 22 Q181 44 180 52 L180 60 ZM37 52 L43 52 Q57 52 56 19 L56 -3 L38 -3 Q38 1 36 14 Q36 20 38 33 Q37 39 37 52 ZM60 49 L73 49 Q86 5 129 5 L133 5 Q169 5 169 10 L169 38 L176 38 Q182 38 196 -5 Q182 -20 139 -20 Q60 -7 60 49 Z" /><glyph glyph-name="uni6069" unicode="&#x6069;" d="M155 192 Q181 182 181 172 Q170 77 151 77 Q132 77 80 69 L78 69 Q65 69 63 103 L63 137 Q63 146 62 166 Q62 183 130 189 L155 192 ZM127 169 L126 154 L142 157 Q155 153 155 144 Q145 136 126 133 L127 135 Q145 128 150 124 L150 118 Q150 109 142 109 Q113 112 113 113 Q112 112 96 91 Q92 91 92 91 L90 91 Q152 91 152 125 Q157 145 157 153 L157 169 Q157 170 153 171 L136 171 Q127 171 127 169 ZM80 161 Q82 141 83 141 Q108 141 108 164 Q108 165 108 165 L80 161 ZM83 127 L82 120 L82 115 Q83 103 83 103 Q90 103 96 127 L83 127 ZM116 67 L119 67 Q124 67 147 44 L144 31 L134 31 Q129 31 106 56 Q110 67 116 67 ZM189 67 Q228 52 228 42 L228 28 L219 28 Q202 35 180 58 Q182 67 189 67 ZM59 61 L67 61 L96 21 Q106 10 124 5 Q148 5 171 3 L176 3 Q177 3 177 5 L177 10 L176 29 L182 29 Q205 15 205 -5 Q205 -21 180 -21 L144 -19 Q80 -19 59 48 L59 61 ZM34 57 L41 57 Q55 57 54 7 Q52 2 52 -4 L45 -4 Q33 -4 32 48 Q34 51 34 57 Z" /><glyph glyph-name="uni60C5" unicode="&#x60c5;" d="M139 204 L144 204 Q158 203 158 175 L173 176 L180 165 L180 155 L163 154 L166 154 L182 151 L182 137 Q158 137 158 124 L158 121 Q159 119 159 119 L179 121 L210 121 Q233 116 233 109 L233 105 Q233 97 224 97 L194 101 Q86 94 86 86 L72 87 Q72 27 73 1 L72 -15 Q67 -27 60 -27 Q52 -27 49 -10 Q52 43 52 174 L60 177 L66 177 Q71 164 71 153 L72 115 L72 113 Q72 111 82 104 Q90 108 132 117 L135 121 L135 124 Q135 126 135 126 L132 126 L118 121 L113 130 L113 140 Q135 140 138 147 Q116 153 116 159 L116 168 Q139 170 139 170 L139 183 Q139 188 139 204 ZM168 102 Q176 102 186 84 L187 77 L187 72 Q187 64 189 -31 Q189 -39 180 -39 L177 -39 Q151 -23 148 -12 L148 -5 Q168 -10 168 -10 L168 22 L171 22 Q131 16 131 13 L133 -9 Q133 -7 135 -7 Q133 -16 133 -24 L123 -24 Q119 -24 111 -10 Q111 92 120 92 Q121 96 168 102 ZM35 95 Q44 95 44 87 L44 82 Q37 51 28 51 L22 51 Q24 95 35 95 ZM135 78 L135 67 Q135 66 138 64 Q164 70 164 72 Q164 81 163 81 Q134 79 135 78 ZM132 42 L132 37 Q132 37 132 37 L138 37 Q168 41 168 46 L168 52 Q170 52 165 54 Q133 42 132 42 Z" /><glyph glyph-name="uni60F3" unicode="&#x60f3;" d="M81 190 Q94 186 93 172 L94 152 Q95 155 117 153 L122 146 Q122 135 97 133 L96 131 L96 123 Q123 107 123 102 L123 91 L108 91 Q101 98 94 98 Q93 98 93 98 L93 47 Q76 47 72 59 L72 62 Q72 74 73 93 L74 95 Q53 75 37 66 L29 66 L29 74 Q65 112 66 128 Q56 129 56 121 Q42 129 34 129 L34 136 Q34 144 72 150 L74 158 L74 168 L72 187 L81 190 ZM173 185 L175 185 Q202 185 202 158 Q198 99 198 61 L192 61 Q187 61 179 66 Q173 66 137 61 L132 61 Q124 61 124 71 L124 73 L128 80 L127 95 Q127 110 129 125 L125 173 Q147 185 173 185 ZM144 162 L144 160 Q144 150 150 150 Q179 154 179 158 L180 166 Q165 166 144 162 ZM148 125 L148 121 Q148 120 152 120 Q179 124 179 127 L179 135 Q179 135 177 135 Q148 129 148 125 ZM164 101 Q154 98 150 98 L148 96 L148 85 Q148 86 154 86 Q172 87 176 93 L177 102 Q172 102 164 101 ZM115 52 L130 52 Q153 37 154 30 Q154 24 142 17 Q122 32 115 43 L115 52 ZM193 56 L200 56 Q241 44 241 18 L226 18 Q199 33 193 44 L193 56 ZM45 39 L53 39 Q64 39 70 2 Q68 -4 68 -9 L60 -9 Q47 -9 45 24 Q45 32 45 39 ZM74 42 L85 42 Q112 5 139 5 L150 5 Q190 5 190 12 Q190 30 200 30 Q207 21 214 -3 L214 -6 Q214 -17 180 -23 L150 -23 Q87 -17 74 35 L74 42 Z" /><glyph glyph-name="uni611F" unicode="&#x611f;" d="M145 204 Q181 196 181 186 Q181 177 171 177 L166 177 Q136 186 136 198 L145 204 ZM106 193 L114 193 Q119 193 136 167 Q136 167 160 177 Q171 172 179 163 Q179 153 144 149 Q156 118 158 118 L156 118 Q156 120 160 137 L169 137 Q179 133 179 118 Q172 101 172 99 L172 92 Q199 55 202 64 L208 64 Q209 64 209 65 L209 83 L222 83 Q222 76 232 37 L232 29 L217 29 Q183 42 170 64 Q158 76 160 76 Q126 44 114 44 L106 44 L106 54 Q146 74 146 98 Q132 133 119 147 L72 139 Q72 142 71 136 Q72 125 72 119 Q61 42 30 27 L17 27 L17 38 Q51 62 51 123 L51 134 L49 154 Q60 158 112 165 L112 163 Q112 174 106 184 L106 193 ZM112 134 L116 134 Q125 134 125 124 Q117 110 88 110 Q76 115 76 121 L76 126 L112 134 ZM121 114 Q138 107 138 101 L138 97 Q138 62 97 58 L88 58 Q88 41 78 41 Q66 41 64 91 Q73 104 121 114 ZM93 87 L86 87 L86 90 Q86 71 86 71 Q117 82 117 97 L118 95 Q114 95 93 87 ZM114 44 Q126 44 142 23 L142 13 L130 13 Q110 28 110 34 L110 42 Q114 42 114 44 ZM49 32 L54 32 Q68 32 71 -19 L65 -21 L62 -21 Q50 -21 49 32 ZM188 31 L195 31 Q224 19 224 11 L224 8 Q224 0 213 0 Q205 2 188 19 L188 31 ZM74 23 L84 23 Q103 -6 123 -6 L150 -8 Q171 -6 171 -5 Q171 2 158 13 L164 22 Q199 4 199 -16 L199 -18 Q199 -27 175 -33 L148 -33 Q98 -33 74 14 L74 23 Z" /><glyph glyph-name="uni613F" unicode="&#x613f;" d="M188 196 Q194 196 202 181 Q198 170 180 170 L149 170 Q146 170 141 154 Q142 158 140 158 L155 160 L182 160 Q191 158 191 152 Q191 138 169 103 Q153 102 151 100 L153 76 L153 58 Q153 52 142 48 Q131 51 121 55 L116 68 Q132 72 132 80 Q132 89 129 96 Q109 94 109 90 Q86 90 86 146 Q115 155 123 168 L99 166 L79 165 Q80 157 79 140 Q69 47 50 14 Q25 -17 20 -17 L11 -17 L11 -9 Q58 39 58 154 L58 167 Q58 166 57 166 Q57 185 68 185 L98 185 Q172 190 188 196 ZM107 136 L107 134 Q107 134 107 134 L110 134 Q140 140 160 140 L169 140 Q169 140 169 140 Q169 143 164 144 Q107 140 107 136 ZM109 117 L109 114 Q109 113 111 111 Q160 121 160 121 L155 124 Q109 118 109 117 ZM169 94 L178 94 Q195 94 213 77 L213 61 L203 61 Q178 72 169 85 L169 94 ZM96 86 Q103 81 103 76 L103 73 Q96 45 78 53 Q78 54 74 54 Q86 86 96 86 ZM132 44 L137 44 Q150 37 155 33 L157 21 Q150 12 143 15 Q126 26 125 34 L125 36 Q127 44 132 44 ZM201 41 L211 41 Q227 41 242 20 L237 5 Q204 23 201 30 L201 41 ZM68 38 L76 38 Q83 14 83 -5 L83 -12 L74 -12 Q60 -8 60 25 L60 31 Q64 38 68 38 ZM85 31 L95 31 Q121 -3 155 -3 L184 -1 Q184 -1 184 0 L184 4 L176 17 L176 24 L188 24 Q205 13 216 -11 Q212 -23 198 -23 L149 -23 Q100 -19 85 24 L85 31 Z" /><glyph glyph-name="uni6211" unicode="&#x6211;" d="M114 202 Q131 189 145 129 L148 128 Q159 128 178 133 Q192 128 194 121 L194 112 L178 109 Q164 108 151 108 Q160 74 163 74 L177 96 L186 96 L190 85 Q187 73 174 56 L174 54 Q183 31 201 13 L206 9 Q207 36 218 36 Q228 20 228 8 L228 -22 Q228 -30 218 -30 L215 -30 Q176 -2 160 34 Q144 19 122 4 L113 4 L113 12 Q142 41 147 55 L147 58 Q132 98 129 103 L119 101 Q110 98 102 97 Q103 94 103 91 L120 96 Q115 78 107 71 Q104 -16 95 -16 L89 -16 Q54 3 49 14 L49 21 Q60 21 82 14 L84 14 Q89 14 87 58 Q84 63 84 62 Q83 62 53 42 Q42 34 33 34 L24 46 Q82 78 84 86 L84 93 Q84 95 82 95 Q77 95 35 88 L35 107 Q84 113 84 114 L84 118 Q84 134 66 124 L52 129 L74 146 Q92 165 107 172 Q113 175 113 175 L113 173 Q113 175 104 194 L114 202 ZM154 177 L163 177 Q185 177 197 158 L197 143 Q154 159 154 171 L154 177 ZM93 141 Q103 126 103 118 Q125 122 124 126 Q122 154 115 154 Q96 146 93 141 Z" /><glyph glyph-name="uni6240" unicode="&#x6240;" d="M187 183 Q195 180 195 174 L195 169 Q191 160 149 152 Q148 149 148 149 Q150 124 153 124 L165 124 L224 135 L235 124 L235 114 Q196 112 196 106 Q196 104 196 81 Q196 58 196 4 L194 -13 Q190 -34 183 -34 L176 -34 L175 53 Q177 105 177 105 L156 105 Q150 105 142 61 Q132 14 112 14 L105 14 L105 20 Q130 66 130 109 Q126 131 126 155 Q165 183 187 183 ZM100 174 Q104 170 108 170 L108 162 Q108 152 67 142 L62 135 L62 130 Q62 127 69 126 L112 134 Q125 130 125 118 Q115 62 88 62 Q54 62 54 44 L38 8 L23 8 L23 15 Q42 55 42 92 Q42 96 40 135 Q40 149 93 174 L100 174 ZM64 106 L64 83 Q64 82 65 82 L74 82 Q100 82 100 106 L100 109 L99 112 Q64 110 64 106 Z" /><glyph glyph-name="uni6253" unicode="&#x6253;" d="M75 187 L82 187 Q94 183 94 160 L94 140 Q94 138 113 135 L113 125 Q94 119 94 117 L94 111 L96 111 L113 114 L113 105 Q94 88 94 79 L94 55 Q94 8 88 -12 L72 -9 Q60 3 42 16 L42 24 L54 24 Q63 22 66 22 Q74 26 73 48 L73 66 Q73 69 74 68 L39 37 Q26 43 21 43 L21 54 Q69 86 71 92 L71 109 Q71 111 70 111 L67 111 L50 107 Q45 111 41 111 L41 125 Q75 131 75 135 L75 187 ZM216 161 Q235 155 235 137 L229 137 Q217 138 209 138 L190 136 L191 82 Q191 42 191 -3 L187 -19 L180 -19 Q170 -19 145 8 L145 19 L154 19 L170 15 L170 13 Q170 38 170 118 Q172 135 169 135 L165 135 Q142 135 132 129 Q127 132 121 132 L121 149 Q160 153 216 161 Z" /><glyph glyph-name="uni628A" unicode="&#x628a;" d="M106 137 Q112 145 188 161 Q200 145 200 140 Q194 129 189 86 Q190 80 190 75 L127 61 L127 57 Q127 21 161 21 L173 21 Q191 21 217 27 L217 55 L220 71 L226 71 Q235 71 245 8 Q245 -1 174 -5 Q135 -1 114 25 Q106 49 106 55 Q109 98 108 124 L106 131 L106 137 ZM84 120 L84 111 Q84 111 97 111 L97 101 Q84 87 84 78 L84 47 Q77 -15 67 -15 L62 -15 Q34 8 28 16 L28 31 Q53 15 58 15 Q61 31 61 61 Q61 63 59 63 L25 39 Q9 43 9 50 Q9 55 63 92 Q63 116 61 116 Q53 116 40 114 Q36 116 30 116 L30 124 Q36 129 61 139 Q61 137 63 151 L61 186 L67 186 Q72 186 82 172 L82 155 Q83 145 84 145 L86 145 L102 148 Q102 140 102 129 Q84 122 84 120 ZM157 135 Q158 108 158 95 L161 94 L166 94 Q170 94 175 138 L174 137 L157 135 ZM129 127 L129 118 Q129 107 127 84 L138 84 Q140 84 140 90 Q140 128 138 128 L136 128 L129 127 Z" /><glyph glyph-name="uni6309" unicode="&#x6309;" d="M57 191 L70 191 Q77 191 83 165 L80 149 L80 139 L86 139 L101 136 L101 122 Q80 115 80 112 Q80 110 91 110 L91 104 Q78 89 78 74 L82 70 Q129 70 133 101 Q134 121 145 121 Q148 121 156 111 Q150 96 151 82 Q172 82 188 91 Q201 88 211 88 Q216 88 220 92 Q245 81 245 74 L245 68 Q240 68 236 65 Q211 68 199 68 Q166 26 166 22 Q204 4 218 -10 L218 -19 L212 -29 Q170 3 147 3 Q129 -13 89 -15 L86 -7 L86 1 Q123 6 123 13 L123 15 Q123 16 101 26 Q107 43 114 55 L116 58 Q78 58 78 51 Q76 4 70 -22 L59 -22 Q44 -12 23 14 L23 22 L33 22 Q51 7 56 8 Q58 55 58 68 L60 68 Q28 39 17 39 L14 48 Q14 53 58 93 L58 110 L39 108 Q31 108 31 117 L31 124 Q61 126 61 130 L61 133 Q61 149 63 165 L57 191 ZM134 183 L141 183 Q162 183 166 172 L166 161 L160 161 Q139 161 134 174 L134 183 ZM110 158 Q118 152 126 152 Q162 157 174 157 L210 157 Q218 157 218 145 Q218 134 183 108 L176 121 Q189 135 189 135 Q187 135 187 138 Q124 134 124 126 L124 91 Q124 83 116 83 Q111 83 105 94 L105 112 Q105 140 100 156 L110 158 ZM127 35 L127 33 Q135 32 145 29 Q156 38 168 58 L171 65 L174 65 Q135 65 127 35 Z" /><glyph glyph-name="uni653E" unicode="&#x653e;" d="M155 183 Q163 183 163 170 Q163 165 157 144 L166 145 L169 145 Q181 146 190 153 Q204 145 205 137 Q205 127 143 115 Q129 78 109 78 Q109 89 136 138 Q148 183 155 183 ZM50 163 L64 163 Q69 163 82 144 Q89 143 117 146 L123 135 L123 126 L115 126 Q84 121 83 123 Q78 98 100 99 Q113 93 108 73 L90 4 L106 7 Q128 14 145 46 L125 80 L125 92 L132 92 Q157 65 157 65 Q159 70 170 123 L176 123 Q182 123 187 100 Q180 59 171 50 Q182 28 247 -6 L247 -20 L240 -20 Q198 -20 159 25 Q140 -2 114 -11 Q91 -10 87 -10 Q80 -16 71 -16 Q49 19 36 28 L51 31 L56 31 Q65 25 73 21 Q82 20 86 80 L84 81 L79 81 Q70 77 49 47 L27 19 L9 19 Q51 77 61 117 Q55 117 38 113 Q33 115 27 115 L27 129 L62 139 L50 155 L50 163 Z" /><glyph glyph-name="uni6548" unicode="&#x6548;" d="M56 182 L70 182 Q89 168 89 163 L89 154 Q85 154 85 149 Q59 161 56 173 L56 182 ZM146 172 L151 172 Q156 172 162 161 L162 158 Q162 150 158 138 Q159 137 159 137 Q168 144 197 152 Q203 150 208 150 L208 141 Q187 126 187 122 Q187 97 166 46 Q184 13 239 -1 L239 -16 L234 -16 Q208 -30 154 24 Q122 -13 95 -13 Q91 -8 85 -8 L85 4 Q116 4 143 43 Q138 55 111 83 L118 96 L118 100 Q118 100 118 100 L107 100 L85 53 Q85 55 111 26 L111 14 L101 14 Q79 33 76 33 Q41 -2 19 -2 L15 9 Q42 22 58 50 Q58 49 37 77 L51 77 Q66 65 74 65 Q76 65 81 104 L79 117 Q75 125 88 127 Q117 119 126 115 Q139 128 139 143 L139 159 L136 165 L146 172 ZM107 157 L112 157 Q120 154 120 148 L120 146 Q120 138 65 127 Q48 53 12 53 Q39 91 48 133 Q53 120 39 131 L39 137 Q39 146 107 157 ZM132 89 Q132 86 151 68 Q165 88 165 116 L161 119 L155 119 Q132 93 132 89 Z" /><glyph glyph-name="uni65AD" unicode="&#x65ad;" d="M85 186 L100 186 Q104 163 104 155 Q100 140 100 138 L97 133 Q109 153 116 153 L121 146 Q121 134 107 119 Q107 118 108 118 Q130 120 130 123 L130 138 Q130 136 127 136 Q127 158 179 169 Q203 164 203 156 Q203 145 193 145 L161 145 Q151 145 149 139 L149 122 Q149 120 154 118 L157 118 Q206 127 213 132 Q236 125 236 119 L236 113 L191 104 Q191 93 193 91 L192 57 L192 -3 Q191 -33 176 -39 L169 -39 L169 -31 Q172 1 171 58 Q171 82 171 85 Q171 97 170 97 L151 97 Q151 50 112 2 L101 2 L101 19 L43 19 Q30 19 23 125 Q25 129 25 134 L32 134 Q42 134 49 43 Q76 43 76 43 L78 57 L78 65 Q78 65 79 65 Q59 48 45 48 L45 57 Q58 69 69 86 L70 90 Q69 90 55 87 Q50 90 45 90 L45 99 Q45 106 62 111 Q60 132 53 132 Q57 141 57 147 L64 147 Q77 147 80 115 Q80 115 83 138 Q85 157 85 168 L85 186 ZM99 93 L99 91 L126 77 L126 62 L117 62 Q113 62 100 67 L98 64 L98 44 L115 44 Q130 61 130 97 L125 99 L105 99 Q104 99 99 93 Z" /><glyph glyph-name="uni65E0" unicode="&#x65e0;" d="M137 178 L143 178 Q148 178 157 162 Q150 155 129 151 L123 150 L122 136 L122 121 Q123 121 123 120 Q154 126 181 130 Q193 129 198 115 L198 106 L148 101 Q132 99 132 62 L132 39 Q132 15 152 15 L194 15 Q208 15 211 47 Q210 64 218 64 L226 64 Q226 55 227 51.5 Q228 48 228 39 Q231 18 231 1 Q231 -14 188 -15 L172 -15 Q110 -20 110 41 Q113 86 115 94 Q88 40 55 5 L45 -4 L31 -4 L31 3 Q78 68 78 81 L82 90 L48 84 L34 89 L25 98 Q33 109 40 109 L58 110 Q81 111 95 115 Q101 138 101 146 Q92 141 75 156 L75 164 Q133 178 137 178 Z" /><glyph glyph-name="uni65F6" unicode="&#x65f6;" d="M172 199 L184 193 Q194 183 194 140 Q235 145 227 119 L199 117 Q196 117 193 116 Q194 96 193 49 Q194 13 194 5 Q193 -33 180 -33 Q138 1 138 5 L138 14 L147 14 L165 7 L167 7 Q168 7 170 10 L171 51 L172 115 L170 115 Q158 115 124 112 L106 118 L110 131 Q127 138 171 139 Q169 182 172 199 ZM89 145 Q108 141 107 117 Q106 82 106 65 L106 49 Q104 22 91 22 Q80 27 75 42 Q83 44 83 52 L83 77 Q83 77 83 77 L80 77 Q51 77 51 76 L52 54 L74 56 Q81 51 82 43 L82 35 Q71 35 49 28 L42 28 L27 39 L29 102 L29 129 Q34 143 89 145 ZM52 117 L52 98 Q52 98 52 98 Q83 102 82 102 Q84 124 83 124 L69 124 Q53 121 52 117 ZM118 92 L125 92 Q157 87 157 73 L157 70 Q157 64 152 53 Q126 69 118 84 L118 92 Z" /><glyph glyph-name="uni661F" unicode="&#x661f;" d="M162 191 Q169 191 180 176 L180 160 Q174 120 160 95 L141 97 L134 97 L134 93 Q135 90 135 90 L155 90 Q160 90 164 93 Q180 88 179 78 Q179 74 167 65 L154 67 L145 67 Q139 66 139 65 L139 58 L157 58 L174 60 Q182 53 182 40 L172 34 L161 38 Q138 38 137 21 L137 15 L138 14 L198 14 Q212 14 220 -1 L220 -13 Q213 -13 185 -10 Q109 -10 69 -21 L53 -21 Q38 -21 35 -9 L35 -2 Q114 2 115 18 L115 27 L95 27 L80 30 L81 46 Q116 50 116 54 L116 60 L118 60 Q80 57 68 38 L52 22 L47 22 Q38 22 38 33 Q60 50 76 89 L81 89 Q87 89 92 76 Q114 80 115 85 L115 89 Q115 91 110 93 Q90 90 85 90 Q75 98 67 167 Q67 186 162 191 ZM87 163 Q91 151 91 151 Q100 151 140 155 Q153 151 153 145 L153 141 Q153 129 102 129 L96 129 Q95 129 95 127 L94 117 Q94 116 95 116 Q100 116 136 124 L149 124 Q152 124 155 145 L156 171 Q87 165 87 163 Z" /><glyph glyph-name="uni662F" unicode="&#x662f;" d="M148 195 Q162 195 171 177 Q154 113 148 113 Q95 103 92 103 L90 103 Q86 103 79 114 L76 183 Q92 188 131 194 Q141 196 148 195 ZM99 169 L99 166 L100 159 Q129 163 143 165 L146 175 Q146 174 142 175 Q138 175 99 169 ZM101 140 L102 127 Q137 130 136 132 L138 145 L141 145 L101 140 ZM206 111 L216 97 L216 87 L193 87 L157 85 Q148 82 146 82 L148 70 Q144 70 164 75 Q177 66 177 59 L177 56 Q177 52 148 47 L147 36 L147 20 Q147 13 232 -16 L236 -23 Q236 -33 227 -33 Q147 -29 88 36 L86 34 Q60 -2 35 -10 L25 -10 L25 -2 Q59 27 69 51 Q79 75 81 75 Q41 68 28 68 L25 76 L25 85 Q139 102 160.5 105.5 Q182 109 206 111 ZM104 77 L103 70 L101 60 L101 52 Q99 44 123 31 L126 80 L104 77 Z" /><glyph glyph-name="uni666F" unicode="&#x666f;" d="M156 201 Q161 201 172 188 Q156 128 145 128 Q132 128 132 126 L132 124 L137 124 L179 129 Q225 129 225 105 Q216 103 213 103 Q198 107 193 107 L168 107 Q57 88 45 88 Q42 90 33 90 L33 107 Q110 112 110 118 L110 120 Q110 121 110 121 L106 121 Q101 121 93 114 Q87 114 80 124 L82 147 L82 152 Q82 157 76 178 L91 178 Q100 169 102 169 L145 178 Q145 178 142 178 Q132 178 99 174 Q94 176 89 176 L89 191 Q116 194 156 201 ZM110 151 L102 151 L102 143 Q102 142 102 142 L106 142 Q142 147 142 157 L139 160 Q122 151 110 151 ZM160 103 Q173 99 179 88 L179 85 Q151 43 139 42 L141 22 L141 -11 Q141 -26 131 -28 Q114 -28 98 -7 L98 2 L114 -2 L118 -2 L120 11 L120 28 Q120 38 116 39 Q106 39 89 29 Q80 36 77 76 Q77 93 160 103 ZM99 75 L99 59 Q99 59 102 59 Q152 64 152 82 Q152 83 150 83 Q146 83 99 75 ZM171 40 L180 40 Q212 23 212 4 Q207 4 207 0 Q187 8 171 27 L171 40 ZM72 36 L80 36 L83 20 Q81 -2 70 -2 Q62 -2 62 6 L62 13 Q62 34 72 36 Z" /><glyph glyph-name="uni66F4" unicode="&#x66f4;" d="M150 190 Q154 189 163 189 L163 177 Q163 168 135 165 L136 162 L159 164 Q166 164 188 151 L188 137 Q168 102 168 100 Q171 96 171 90 Q171 79 127 78 Q117 58 113 47 Q154 20 242 -10 L235 -18 Q235 -21 224 -28 Q186 -28 101 28 Q89 6 44 -11 Q28 -11 28 0 Q68 17 84 39 Q55 65 35 68 L39 85 Q68 80 67 80 Q64 134 56 134 Q61 145 61 149 L66 149 Q100 157 113 161 Q114 162 108 163 Q103 163 82 161 L79 169 Q79 179 150 190 ZM133 140 L134 134 Q162 137 152 127 L151 118 Q132 114 132 114 L131 99 Q131 99 131 99 Q155 99 160 136 L160 139 Q162 145 154 145 L136 145 Q135 145 133 140 ZM82 129 L82 123 Q82 123 85 123 Q114 127 114 133 L114 135 Q114 136 113 136 L105 136 Q82 134 82 129 ZM88 100 L88 93 Q88 92 88 92 L101 92 Q103 92 109 100 L109 107 Q109 108 108 108 L106 108 Q88 100 88 100 ZM84 67 Q88 63 96 58 Q97 61 100 67 L100 70 Q101 72 97 71 L84 67 Z" /><glyph glyph-name="uni6709" unicode="&#x6709;" d="M121 202 L129 202 Q136 202 139 187 L130 159 Q130 159 132 159 Q142 159 183 165 Q186 165 212 160 L212 154 Q208 143 194 143 L180 143 Q119 142 118 123 Q121 123 121 121 Q149 123 177 127 Q195 127 196 81.5 Q197 36 197 14 L197 -2 Q197 -9 189 -34 L181 -34 Q163 -20 154 -20 L154 -4 L172 -3 Q173 -3 173 -2 L173 24 Q173 40 172 71 L128 63 L118 64 Q118 58 118 46 L118 48 Q154 53 154 57 Q175 52 175 45 L175 42 Q175 34 127 27 L116 33 Q116 33 116 33 L116 27 Q113 -16 113 -19 L105 -24 Q95 -18 92 -11 L92 9 Q94 79 94 84 L94 82 L98 82 Q51 30 40 30 L40 37 Q89 99 98 136 L75 134 Q61 134 57 144 L57 154 L74 154 L107 157 Q111 160 121 202 ZM116 99 L116 83 Q116 82 118 82 Q133 82 156 88 L171 86 L171 84 Q170 103 170 106 L173 106 Q116 107 116 99 Z" /><glyph glyph-name="uni670B" unicode="&#x670b;" d="M192 184 L197 184 Q210 184 220 175 Q217 149 217 136 L217 129 Q217 101 221 -8 Q217 -20 211 -20 L205 -20 Q182 -10 172 11 L182 11 L197 8 L198 10 Q198 11 198 66 L197 70 L155 65 Q155 65 140 27 Q130 11 122 -3 Q122 -11 110 -11 Q82 4 74 20 L74 29 L81 29 L97 25 L102 25 Q103 25 103 25 L103 69 Q103 70 99 72 Q61 62 61 28 Q47 9 30 9 L30 15 Q55 49 59 145 L55 156 Q55 174 108 177 Q129 176 129 160 Q125 154 126 109 L126 46 Q142 87 142 133 Q142 137 139 173 L150 173 L192 184 ZM161 156 Q161 133 167 133 L180 134 L195 136 Q198 136 197 157 Q196 165 197 165 L195 165 Q164 163 161 156 ZM78 151 L78 138 Q79 126 81 126 Q104 126 104 145 L104 155 Q104 156 101 157 Q78 155 78 151 ZM161 101 L161 90 L169 89 L196 96 L196 112 Q196 113 195 113 Q161 111 161 101 ZM78 97 L78 90 L90 90 Q100 90 103 98 L103 101 Q103 104 102 104 L97 104 Q78 101 78 97 Z" /><glyph glyph-name="uni671F" unicode="&#x671f;" d="M116 197 L127 197 L131 181 L131 170 Q131 160 131 159 L143 143 L143 136 Q130 136 130 61 L132 59 L153 59 Q153 59 153 63 Q157 126 157 134 Q157 145 151 145 Q155 155 155 161 L166 161 Q207 169 210 169 Q228 169 228 157 Q228 138 226 126 Q228 58 230 1 L230 -20 Q230 -30 219 -30 Q203 -22 179 1 L179 12 L187 12 L203 6 L206 6 Q208 6 208 7 Q208 32 208 51 L208 55 Q208 57 208 57 Q165 51 165 37 Q144 -11 132 -14 L124 -14 L131 12 Q143 25 143 36 L128 36 Q128 36 128 36 Q128 29 138 18 L138 7 L124 7 Q101 34 95 34 Q93 34 73 2 Q64 -6 51 -6 L51 4 L64 25 L64 29 Q64 29 64 29 L34 25 Q28 26 22 26 L22 40 Q69 40 69 70 Q71 84 71 103 L71 124 Q71 123 51 131 L51 142 Q74 144 74 145 L74 149 L71 182 L80 182 Q92 182 95 146 Q117 146 114 166 L114 170 L112 184 Q112 190 116 197 ZM176 145 L176 118 Q177 117 179 117 Q206 120 206 121 L206 148 Q206 148 205 148 L193 148 Q188 148 176 145 ZM95 126 L95 112 L110 112 Q111 112 113 116 L113 128 Q113 129 109 131 Q95 128 95 126 ZM174 75 Q174 74 175 74 Q206 78 206 80 L206 101 Q206 101 205 101 L200 101 Q194 95 174 92 L174 75 ZM93 84 L105 84 Q107 84 110 89 L109 94 Q93 84 93 84 ZM86 56 Q88 52 88 53 L104 53 Q110 56 110 61 Q109 65 110 65 Q86 65 86 56 Z" /><glyph glyph-name="uni673A" unicode="&#x673a;" d="M58 177 L65 177 Q78 170 78 148 Q78 147 78 120 Q95 118 95 109 L95 105 Q75 93 75 93 L75 76 L99 55 L99 45 L86 45 Q76 51 74 51 Q70 43 73 0 L73 -5 Q73 -23 56 -23 Q53 -19 50 -15 Q53 14 53 47 L53 42 Q51 41 31 26 L20 26 L20 34 Q38 47 56 85 L56 88 Q56 90 51 91 Q40 90 40 85 Q23 91 23 97 L23 105 Q60 112 58 124 Q58 129 58 158 Q58 170 58 177 ZM177 149 L182 141 L182 137 Q170 93 170 64 L170 46 Q170 14 196 14 L210 15 Q213 15 215 42 L224 42 Q232 40 232 32 L232 11 L234 -4 Q236 -14 224 -14 Q163 -18 153 10 Q144 50 158 118 L158 124 Q158 127 157 127 L153 127 Q139 127 138 123 L135 91 Q125 13 92 -7 L83 -7 L83 3 Q108 37 115 86 Q115 93 116 141 Q156 149 177 149 Z" /><glyph glyph-name="uni6765" unicode="&#x6765;" d="M107 198 L124 199 Q127 167 128 159 L150 161 Q164 157 164 151 L164 140 L129 141 Q129 106 129 109 L126 108 Q139 128 139 140 L161 132 L161 126 Q156 115 132 93 L132 86 L162 87 Q215 89 215 68 Q207 65 203 65 Q160 65 154 65 L140 65 Q140 65 140 67 Q168 37 223 13 L223 2 Q211 -1 210 -1 Q181 -1 135 44 L131 48 Q130 -6 130 -33 L130 -40 L117 -40 Q108 -37 108 -19 Q110 18 110 29 Q110 32 110 37 Q87 16 49 -5 L33 -5 Q85 43 95 58 L97 61 L100 61 Q43 57 38 57 L34 75 Q110 82 110 82 L108 137 L106 137 L82 135 L72 142 Q72 153 106 157 Q107 160 107 163 Q107 166 107 198 ZM89 134 Q100 134 106 100 Q101 86 93 86 Q81 103 81 129 L89 134 Z" /><glyph glyph-name="uni679C" unicode="&#x679c;" d="M160 187 Q179 183 179 172 Q163 100 151 100 Q134 100 134 100 L134 91 Q135 89 136 89 Q184 94 194 94 Q216 86 216 79 Q216 68 208 68 Q134 71 134 71 L136 66 Q170 28 212 22 Q233 9 233 5 Q233 -3 222 -3 Q177 -3 132 38 L134 38 Q132 12 132 1 L132 -16 L128 -34 L116 -31 Q111 -31 108 -17 Q110 24 110 45 L114 45 Q44 -17 33 1 Q89 48 95 60 L95 62 L80 62 Q70 62 38 55 L35 65 L32 78 Q111 84 110 86 L110 91 Q110 93 109 96 L85 92 Q70 97 69 106 L68 132 Q65 157 65 174 L78 186 L97 186 Q119 186 160 187 ZM85 168 L84 165 Q89 142 89 124 L89 119 Q89 118 90 118 L109 118 Q111 118 112 121 L112 133 L106 133 Q92 133 89 146 L89 150 L112 155 L112 166 Q112 168 110 168 Q95 166 92 166 Q87 168 85 168 ZM134 166 L134 161 Q134 158 134 156 L151 158 L151 166 L134 166 ZM133 121 L134 120 Q151 120 151 138 L145 139 L134 137 Q134 134 133 121 Z" /><glyph glyph-name="uni67D4" unicode="&#x67d4;" d="M141 187 L147 176 L147 172 Q123 152 121 146 L124 146 Q165 151 171 151 Q186 145 187 137 L187 129 Q159 119 147 119 Q145 128 145 128 L143 128 Q128 128 126 122 L126 94 L123 68 Q126 66 129 66 L175 72 Q193 68 193 62 L193 50 L159 50 Q126 50 126 46 Q139 24 230 -4 L230 -15 L223 -15 Q172 -15 126 21 L126 -18 Q126 -39 109 -45 Q109 -38 104 -38 L105 2 Q105 6 104 30 Q102 30 57 -2 Q46 -6 33 -6 L33 5 Q56 11 87 44 L87 41 Q53 40 53 35 Q33 39 33 45 Q33 54 95 61 L101 66 L101 68 Q101 67 91 78 L91 87 Q105 87 105 87 L105 105 Q105 106 104 106 Q93 97 62 81 L49 81 Q87 119 87 117 Q84 117 84 119 L63 117 L55 117 L55 132 Q87 132 101 144 Q101 141 89 152 Q89 160 112 164 L113 165 L113 167 Q86 166 79 166 L75 173 Q75 187 141 187 Z" /><glyph glyph-name="uni6837" unicode="&#x6837;" d="M173 191 L187 179 Q187 167 171 145 Q189 144 189 137 L189 134 Q189 125 163 122 L163 115 L164 108 L177 110 L186 97 L186 90 Q162 88 162 87 L162 69 Q164 64 164 66 Q189 69 206 69 L220 70 Q225 70 231 59 L231 49 L216 48 Q161 50 162 45 Q162 7 156 -30 L144 -30 Q144 -26 144 -26 Q138 -3 141 43 Q116 36 100 36 L87 36 L87 43 Q87 52 140 63 L140 81 Q140 82 121 84 L121 99 Q142 102 142 106 L142 117 Q142 118 140 118 Q134 118 129 117 Q115 121 115 127 L115 136 Q142 136 173 191 ZM66 185 L74 185 L77 167 L77 134 L91 134 Q89 134 89 138 Q99 134 107 134 L107 127 Q107 118 75 109 L75 106 Q75 97 102 78 Q102 68 93 68 Q91 68 73 72 L75 72 Q75 64 74 -9 L66 -15 L63 -15 Q58 -15 51 -4 L54 54 L54 59 Q53 59 34 41 L24 41 L24 48 Q49 86 53 104 L53 108 L39 108 Q30 108 30 117 Q30 128 58 131 Q58 131 60 171 Q58 175 58 180 L66 185 ZM119 182 L127 182 Q137 182 144 157 L144 146 L136 146 Q126 146 119 176 L119 182 Z" /><glyph glyph-name="uni68A6" unicode="&#x68a6;" d="M148 200 L157 200 Q169 196 169 181 L169 164 L179 164 Q188 162 188 156 Q188 149 168 140 L168 131 Q168 126 220 116 L226 107 L226 96 Q207 96 168 109 L168 91 Q176 82 176 74 Q160 52 160 39 L166 22 Q147 22 122 -5 L75 -38 L63 -38 L63 -28 Q81 -18 124 31 L124 29 Q115 29 104 44 L110 52 L134 51 L137 51 Q139 51 142 64 L122 63 Q115 55 88 34 L66 30 Q138 119 141 135 Q128 140 128 150 Q150 160 150 167 L150 174 L148 200 ZM79 194 L89 194 Q92 181 92 167 L92 158 Q92 158 92 158 L98 158 Q96 158 96 162 Q116 155 116 149 L116 140 Q92 137 92 136 L92 127 Q116 115 121 107 L121 105 Q121 96 111 96 Q91 102 89 102 L89 105 Q89 89 83 65 L78 65 Q74 65 66 79 L68 92 L68 100 Q68 101 67 101 L47 85 L34 85 L34 94 Q63 119 63 131 Q48 136 48 143 L48 148 Q72 148 72 160 L72 190 L79 194 ZM130 84 L134 84 Q146 84 146 95 L146 101 L143 101 Q134 96 130 84 Z" /><glyph glyph-name="uni6B4C" unicode="&#x6b4c;" d="M105 192 Q109 189 115 189 L115 179 Q115 166 62 166 L58 173 Q58 182 105 192 ZM115 174 L122 174 L127 158 L127 155 Q127 136 119 111 L135 111 Q148 128 148 151 L145 166 Q148 166 148 169 Q167 169 169 138 L172 138 Q205 144 209 144 Q212 136 218 136 Q205 106 191 97 L184 97 Q184 106 188 121 Q188 122 185 122 Q158 122 140 84 L131 81 Q127 89 119 89 Q118 89 118 87 L118 69 Q118 61 116 44 L115 11 Q115 -7 107 -26 L100 -26 Q81 -26 60 1 L60 11 L69 11 Q81 -1 88 -1 L90 -1 Q90 -1 93 21 Q93 22 94 34 L98 62 L97 65 Q94 65 86 36 Q60 29 46 9 L41 9 Q33 9 22 68 Q61 80 80 80 L94 80 L96 88 L96 86 L85 86 Q68 86 12 70 L2 70 L2 78 Q2 90 103 110 Q107 129 107 141 L107 165 Q109 174 115 174 ZM95 164 Q101 161 106 161 L106 154 Q95 121 91 115 L54 102 Q42 115 42 154 Q61 160 95 164 ZM59 141 Q64 126 64 126 Q78 126 81 145 Q59 145 59 141 ZM169 111 Q177 107 177 101 L177 94 L171 71 L171 69 Q171 48 218 21 Q251 10 251 1 L251 -8 L244 -8 Q203 -12 163 48 Q123 1 119 1 L113 1 L114 17 Q151 59 161 108 L169 111 ZM43 58 Q48 45 48 45 Q65 45 70 56 L70 61 Q65 61 65 62 Q43 59 43 58 Z" /><glyph glyph-name="uni6B62" unicode="&#x6b62;" d="M121 167 L129 167 Q147 167 147 107 Q146 107 151 104 L182 115 L188 104 Q188 93 144 81 L144 38 Q144 38 149 34 L154 34 Q231 34 231 17 L231 5 Q189 12 169 12 Q103 12 39 1 Q32 3 27 3 L27 19 L76 29 L76 60 Q76 57 74 57 L76 66 L76 101 L85 101 Q98 101 98 31 L100 30 Q125 30 125 45 Q125 52 123 66 Q125 111 125 140 Q121 156 121 167 Z" /><glyph glyph-name="uni6B65" unicode="&#x6b65;" d="M129 199 Q137 180 148 180 Q166 180 166 171 L166 162 Q137 161 137 157 L137 138 L135 138 Q156 138 181 140 Q220 137 220 126 L220 116 Q216 116 216 112 Q201 118 185 118 L166 118 Q137 118 137 113 Q139 83 139 80 Q139 79 137 54 L135 54 Q136 54 165 107 L178 107 L178 99 Q178 57 80 -29 Q64 -32 52 -32 Q116 31 119 40 L114 49 L117 106 Q115 111 113 111 L111 111 Q107 90 94 76 Q76 51 63 49 L63 58 Q87 98 90 109 L88 109 Q65 109 48 103 Q35 107 35 113 L35 118 Q82 125 82 130 L82 147 L78 175 L88 175 Q96 175 104 142 Q101 137 101 134 L101 132 Q101 130 104 130 L117 133 L117 190 Q119 199 129 199 Z" /><glyph glyph-name="uni6BCF" unicode="&#x6bcf;" d="M79 198 L85 198 Q95 194 102 177 Q161 180 171 184 Q184 179 186 171 L186 163 Q88 157 88 153 Q73 133 55 120 L48 120 Q48 129 74 172 Q75 177 79 198 ZM151 152 Q190 154 186 124 Q184 120 182 101 L225 101 Q230 101 239 88 L239 84 Q239 80 226 77 Q194 79 188 79 Q182 78 182 79 Q180 64 180 53 Q182 47 182 49 Q204 49 209 34 L209 23 L178 25 L172 25 Q172 25 162 -6 Q144 -33 131 -33 Q95 -19 85 -16 L85 -5 L103 -5 Q128 -9 133 -9 Q141 0 147 18 L147 21 Q147 22 144 25 L138 25 Q115 25 63 16 Q53 18 53 25 Q66 65 66 66 L62 69 Q30 66 17 66 L17 75 Q17 85 70 90 Q79 147 103 147 Q111 147 151 152 ZM100 127 L96 96 Q96 96 96 96 L103 96 Q118 96 118 97 Q111 100 102 110 Q108 119 113 119 L115 119 Q145 110 141 99 Q161 98 160 101 Q164 117 164 125 L159 132 Q99 128 100 127 ZM92 73 Q84 50 80 39 Q113 42 113 43 Q99 59 99 66 L106 70 Q119 70 146 49 L151 49 Q152 49 156 59 L157 75 Q111 73 92 73 Z" /><glyph glyph-name="uni6C38" unicode="&#x6c38;" d="M139 149 L139 146 L137 116 L139 117 Q150 128 175 148 L178 148 Q191 142 195 132 Q137 99 137 99 Q174 61 236 28 Q241 28 241 19 L231 16 L220 11 Q204 11 153 59 L137 79 L137 4 Q137 -19 125 -21 Q100 -4 87 7 Q67 18 97 16 Q105 13 114 14 Q115 19 113 142 Q114 142 90 138 Q80 138 87 156 Q104 161 111 163 L126 166 Q140 163 139 149 ZM123 165 L116 169 Q104 176 99 192 Q116 196 129 187 L133 179 Q134 165 123 165 ZM101 115 Q117 115 113 98 Q86 45 56 26 Q46 16 31 16 L31 24 Q72 62 76.5 74.5 Q81 87 81 87 Q59 80 51 80 L41 80 L41 98 Q46 98 101 115 Z" /><glyph glyph-name="uni6C41" unicode="&#x6c41;" d="M145 200 L159 200 Q175 188 175 164 Q173 135 173 133 Q176 131 177 131 Q206 132 214 132 L223 115 L213 108 L176 109 Q175 109 175 108 L175 52 Q170 -38 159 -38 L154 -38 L151 7 Q150 41 150 77 L150 102 Q150 103 147 104 L130 104 L117 102 Q104 106 104 113 Q104 120 150 129 Q154 134 152 146 L152 167 Q152 172 145 200 ZM53 160 L63 160 Q79 160 84 148 L84 145 Q84 137 74 137 Q54 146 53 155 L53 160 ZM39 116 Q67 116 72 87 L64 87 Q53 87 30 105 Q32 116 39 116 ZM98 110 L98 102 Q87 61 58 13 L55 13 Q49 13 39 28 L39 33 Q53 41 86 110 L98 110 Z" /><glyph glyph-name="uni6D3B" unicode="&#x6d3b;" d="M166 180 Q179 186 185 175 L185 170 Q182 161 161 155 Q163 141 165 126 L233 124 L233 106 L164 103 Q163 98 163 94 L163 76 Q164 73 167 72 Q199 76 210 64 L210 58 Q210 47 195 3 Q185 -11 134 -11 Q134 -15 123 -15 Q118 -15 107 1 L107 8 Q107 26 103 61 L133 67 Q141 68 141 77 L141 97 Q141 98 139 98 L95 97 Q94 93 78 55 L50 -10 L39 4 Q36 4 27 16 L38 27 Q77 92 87 114 Q134 121 141 121 L141 143 Q141 151 141 148 Q126 143 118 143 L107 151 Q154 180 166 180 ZM55 161 Q63 161 83 146 L84 127 L75 127 Q58 127 46 156 L55 161 ZM33 114 Q53 105 55 91 L50 77 Q39 77 22 102 Q24 114 33 114 ZM128 45 Q127 22 132 14 Q182 9 180 44 L180 47 Q180 49 179 49 L169 49 Q128 47 128 45 Z" /><glyph glyph-name="uni6D69" unicode="&#x6d69;" d="M139 191 L147 191 Q161 191 160 169 L160 143 Q160 142 163 142 Q180 142 186 142 L191 135 L191 125 Q168 119 159 118 Q159 107 159 94 Q156 94 167 92 Q186 95 199 95 Q229 96 229 85 L229 74 L208 73 L188 73 Q171 73 93 63 Q88 67 84 67 L84 80 Q122 87 137 91 L138 116 L123 117 Q120 109 97 92 L89 92 L89 101 Q103 122 103 133 Q107 144 107 151 L114 156 L121 156 L126 138 L124 138 Q139 140 140 140 L140 174 L139 191 ZM167 64 Q205 64 205 48 L205 45 Q186 -6 177 -9 L143 -9 Q131 -9 120 -18 L109 -18 Q102 21 100 45 Q101 58 167 64 ZM123 35 L123 22 Q124 13 123 13 Q172 13 171 14 Q178 35 178 40 Q178 43 174 44 L168 44 Q128 43 123 35 ZM50 163 L59 163 L75 152 L75 135 L63 130 Q57 135 50 149 L50 163 ZM26 113 L32 113 Q49 113 55 97 L46 80 Q36 88 26 104 L26 113 ZM77 98 L87 98 L87 90 L46 -10 L37 -10 Q29 -10 25 7 Q51 51 77 98 Z" /><glyph glyph-name="uni6D77" unicode="&#x6d77;" d="M121 193 L125 193 Q130 193 135 186 L135 176 Q135 174 142 173 Q149 172 186 177 Q203 171 203 165 Q203 161 195 156 L179 154 Q142 153 124 151 Q97 117 93 134 L93 137 L112 170 Q114 193 121 193 ZM51 166 Q64 166 71 154 Q71 147 69 142 L63 133 Q53 141 41 164 L51 166 ZM147 146 L173 146 Q199 139 199 129 L197 104 Q197 103 201 103 Q212 103 230 103 Q238 99 245 99 L245 84 Q218 79 194 80 L190 49 L201 49 Q222 48 222 37 L222 23 L204 26 L186 26 L179 0 Q172 -15 156 -24 L146 -24 Q124 -9 119 1 L119 6 Q131 6 146 0 L149 0 Q159 10 159 16 L161 24 Q132 23 106 23 Q92 23 85 34 L85 40 Q96 61 100 73 L101 77 L73 77 Q64 53 40 -6 Q18 6 23 24 Q37 30 72 114 L80 106 L80 97 L106 97 Q108 97 119 140 Q130 146 147 146 ZM128 101 Q133 99 143 99.5 Q153 100 152 100 Q143 108 143 114 L143 125 Q176 115 168 101 L176 101 Q177 103 177 114 L177 122 Q177 126 150 127 Q133 126 132 114 L128 101 ZM23 119 L28 119 Q52 118 52 97 L40 87 Q24 107 23 114 L23 119 ZM124 78 Q120 71 111 44 L114 43 Q142 45 165 46 Q168 63 171 80 Q163 79 124 78 ZM131 75 L141 75 Q146 75 158 64 Q158 49 150 49 L145 49 Q141 49 131 65 L131 75 Z" /><glyph glyph-name="uni6D78" unicode="&#x6d78;" d="M214 112 L222 101 L222 95 Q217 86 181 62 L170 62 L170 72 Q191 89 190 92 L184 96 L174 96 Q131 92 98 83 L98 74 L99 59 Q98 43 90 43 Q84 43 79 55 L77 62 Q77 62 39 -11 L35 -11 Q27 -11 19 9 Q34 21 71 86 Q78 102 86 104 Q99 103 99 103 Q130 111 164 115.5 Q198 120 214 112 ZM123 114 L106 114 L106 119 Q102 133 146 140 L147 145 L140 145 L127 143 Q111 146 111 158 Q123 163 138 164 Q153 165 153 167 L154 175 Q146 175 115 171 L111 178 L113 189 L151 194 Q179 198 175 174 L163 117 L123 114 ZM37 162 L45 162 Q66 162 64 155 L67 153 Q71 128 56 131 Q42 146 37 156 L37 162 ZM35 116 Q56 101 56 97 L56 88 L46 75 Q25 98 25 104 L25 108 Q27 116 35 116 ZM156 88 L161 88 Q168 88 171 76 L171 73 Q152 29 152 27 Q176 3 209 -3 Q241 -8 236 -25 L208 -25 Q191 -29 137 8 L135 8 Q107 -20 81 -24 Q72 -24 72 -15 L72 -10 Q95 -4 121 23 Q99 47 99 51 L99 58 L110 58 L132 41 Q144 48 144 59 L144 66 Q135 66 123 59 Q118 62 113 62 L113 75 Q151 88 156 88 Z" /><glyph glyph-name="uni6DA6" unicode="&#x6da6;" d="M203 178 Q227 178 227.5 99 Q228 20 228 19 Q227 -23 215 -23 L209 -23 Q181 -3 181 1 Q181 10 189 10 Q201 9 203 9 L206 13 L205 143 Q205 145 200 157 Q193 157 184 158 Q172 156 172 151 Q155 157 155 165 L155 170 Q179 177 203 178 ZM104 175 L109 175 Q119 175 137 168 L137 162 Q137 153 129 153 Q108 153 104 166 L104 175 ZM56 160 Q74 149 74 143 L74 134 L61 134 Q56 134 45 151 Q45 160 56 160 ZM94 142 L103 142 Q109 142 113 130 Q109 52 111 13 L115 -7 L106 -10 L102 -10 Q97 -10 89 2 L89 5 Q87 30 94 121 L91 133 Q94 138 94 142 ZM165 136 Q178 131 178 123 Q161 112 161 109 Q161 101 186 97 L186 89 Q163 78 163 78 L163 59 Q163 59 190 60 L196 54 L196 49 L190 41 L165 40 L119 33 Q115 34 109 34 L109 41 Q109 48 142 56 L144 59 L144 73 Q144 75 125 78 L125 92 Q140 94 140 94 L140 109 Q140 110 126 113 L126 117 Q127 126 165 136 ZM25 118 Q56 114 56 104 L56 101 L46 87 Q26 102 25 109 L25 118 ZM80 114 L80 95 Q77 65 43 0 L36 0 Q28 0 28 8 L28 15 Q41 42 80 114 Z" /><glyph glyph-name="uni6E29" unicode="&#x6e29;" d="M162 183 Q179 182 183 167 Q174 89 155 88 Q145 89 120 83 L118 83 Q113 83 107 93 L105 112 Q102 149 102 165 Q102 179 162 183 ZM127 161 L121 161 Q120 161 120 160 Q120 147 126 147 Q160 147 160 154 L159 163 Q139 161 127 161 ZM54 164 Q75 155 78 146 L78 135 L71 135 Q46 142 46 152 L46 161 Q54 161 54 164 ZM127 124 L127 107 Q127 107 130 107 Q152 110 152 114 L154 130 Q146 130 127 124 ZM27 116 L36 116 Q64 109 64 97 L64 89 L56 89 Q37 89 27 106 L27 116 ZM72 86 L80 86 L80 79 Q62 33 37 -4 L32 -4 Q26 -4 22 8 L22 15 L72 86 ZM190 81 Q206 76 206 67 L206 61 Q206 43 196 24 L193 14 Q193 15 195 15 L211 16 Q232 7 232 -1 L232 -11 Q211 -11 142 -8 L135 -8 L66 -11 L62 -4 L62 4 Q72 10 95 10 L93 10 Q91 61 86 61 Q88 70 88 78 L109 74 L116 74 Q171 81 190 81 ZM141 55 L142 15 L144 15 Q149 52 149 57 L141 57 Q141 57 141 55 ZM166 57 L166 55 Q166 44 163 14 L171 13 Q174 16 185 57 L166 57 ZM110 49 L110 28 Q110 15 116 15 Q123 14 123 15 Q122 51 117 51 Q110 49 110 49 Z" /></font>
</defs>
</svg>
