{
    "accessors" : [
        {
            "bufferView" : 0,
            "componentType" : 5123,
            "count" : 798,
            "max" : [
                568
            ],
            "min" : [
                0
            ],
            "type" : "SCALAR"
        },
        {
            "bufferView" : 1,
            "componentType" : 5126,
            "count" : 569,
            "max" : [
                4.0068745613098145,
                1.0108940601348877,
                13.874443054199219
            ],
            "min" : [
                -3.6563799381256104,
                -1.14070463180542,
                -13.874443054199219
            ],
            "type" : "VEC3"
        },
        {
            "bufferView" : 2,
            "componentType" : 5126,
            "count" : 569,
            "max" : [
                0.963137149810791,
                0.9997575879096985,
                0.9905241131782532
            ],
            "min" : [
                -0.9910227060317993,
                -0.9988884925842285,
                -0.9905241131782532
            ],
            "type" : "VEC3"
        },
        {
            "bufferView" : 3,
            "componentType" : 5126,
            "count" : 569,
            "max" : [
                1.0,
                1.0,
                1.0,
                1.0
            ],
            "min" : [
                0.0,
                0.0,
                0.0,
                1.0
            ],
            "type" : "VEC4"
        },
        {
            "bufferView" : 4,
            "componentType" : 5123,
            "count" : 569,
            "max" : [
                9,
                11,
                11,
                11
            ],
            "min" : [
                0,
                0,
                0,
                0
            ],
            "type" : "VEC4"
        },
        {
            "bufferView" : 5,
            "componentType" : 5126,
            "count" : 569,
            "max" : [
                1.0,
                0.9999997019767761,
                1.0,
                0.999999463558197
            ],
            "min" : [
                0.0,
                0.0,
                0.0,
                0.0
            ],
            "type" : "VEC4"
        },
        {
            "bufferView" : 6,
            "componentType" : 5123,
            "count" : 569,
            "max" : [
                11,
                11,
                11,
                11
            ],
            "min" : [
                0,
                0,
                0,
                0
            ],
            "type" : "VEC4"
        },
        {
            "bufferView" : 7,
            "componentType" : 5126,
            "count" : 569,
            "max" : [
                0.9999982714653015,
                0.005316860042512417,
                0.0,
                0.0
            ],
            "min" : [
                0.0,
                0.0,
                0.0,
                0.0
            ],
            "type" : "VEC4"
        },
        {
            "bufferView" : 8,
            "componentType" : 5126,
            "count" : 12,
            "max" : [
                0.033878814429044724,
                0.03599587827920914,
                0.010142182931303978,
                0.0,
                0.011033025570213795,
                0.006922622211277485,
                0.0359959714114666,
                0.0,
                0.036655493080616,
                0.035353127866983414,
                0.007288680877536535,
                0.0,
                0.2248671054840088,
                0.09482930600643158,
                0.027524881064891815,
                1.0
            ],
            "min" : [
                -0.033871009945869446,
                -0.03503701835870743,
                -0.006922583095729351,
                0.0,
                -0.011033040471374989,
                -0.0075593264773488045,
                -0.036655597388744354,
                0.0,
                -0.01586182229220867,
                -0.0353611595928669,
                -0.007295956835150719,
                0.0,
                -0.2248670905828476,
                -0.12950865924358368,
                -0.04399910941720009,
                1.0
            ],
            "type" : "MAT4"
        },
        {
            "bufferView" : 9,
            "componentType" : 5126,
            "count" : 60,
            "max" : [
                2.4583333333333335
            ],
            "min" : [
                0.0
            ],
            "type" : "SCALAR"
        },
        {
            "bufferView" : 10,
            "componentType" : 5126,
            "count" : 60,
            "max" : [
                1.4210854715202004e-14,
                0.008239318616688251,
                -0.0990772396326065
            ],
            "min" : [
                -4.263256414560601e-14,
                -0.023434139788150787,
                -0.0990772396326065
            ],
            "type" : "VEC3"
        },
        {
            "bufferView" : 11,
            "componentType" : 5126,
            "count" : 60,
            "max" : [
                2.4583333333333335
            ],
            "min" : [
                0.0
            ],
            "type" : "SCALAR"
        },
        {
            "bufferView" : 12,
            "componentType" : 5126,
            "count" : 60,
            "max" : [
                0.14201311767101288,
                0.37866875529289246,
                -0.4161115288734436,
                0.8268117308616638
            ],
            "min" : [
                -0.2844220697879791,
                -0.22785845398902893,
                -0.6042245030403137,
                0.7502170205116272
            ],
            "type" : "VEC4"
        },
        {
            "bufferView" : 13,
            "componentType" : 5126,
            "count" : 60,
            "max" : [
                2.4583333333333335
            ],
            "min" : [
                0.0
            ],
            "type" : "SCALAR"
        },
        {
            "bufferView" : 14,
            "componentType" : 5126,
            "count" : 60,
            "max" : [
                0.28559064865112305,
                -0.03707003593444824,
                -0.04730373993515968,
                0.9969702363014221
            ],
            "min" : [
                0.04938342794775963,
                -0.1115698367357254,
                -0.11158137768507004,
                0.9452723264694214
            ],
            "type" : "VEC4"
        },
        {
            "bufferView" : 15,
            "componentType" : 5126,
            "count" : 60,
            "max" : [
                2.4583333333333335
            ],
            "min" : [
                0.0
            ],
            "type" : "SCALAR"
        },
        {
            "bufferView" : 16,
            "componentType" : 5126,
            "count" : 60,
            "max" : [
                0.25860607624053955,
                0.031109407544136047,
                -0.37732669711112976,
                0.9259963035583496
            ],
            "min" : [
                0.01142225880175829,
                0.004991013091057539,
                -0.42880335450172424,
                0.8650334477424622
            ],
            "type" : "VEC4"
        },
        {
            "bufferView" : 17,
            "componentType" : 5126,
            "count" : 60,
            "max" : [
                2.4583333333333335
            ],
            "min" : [
                0.0
            ],
            "type" : "SCALAR"
        },
        {
            "bufferView" : 18,
            "componentType" : 5126,
            "count" : 60,
            "max" : [
                0.14200997352600098,
                0.22785446047782898,
                0.6042252779006958,
                0.8268111348152161
            ],
            "min" : [
                -0.2844243347644806,
                -0.3786729574203491,
                0.41610997915267944,
                0.7502182126045227
            ],
            "type" : "VEC4"
        },
        {
            "bufferView" : 19,
            "componentType" : 5126,
            "count" : 60,
            "max" : [
                2.4583333333333335
            ],
            "min" : [
                0.0
            ],
            "type" : "SCALAR"
        },
        {
            "bufferView" : 20,
            "componentType" : 5126,
            "count" : 60,
            "max" : [
                0.2855907082557678,
                0.11156978458166122,
                0.11158143728971481,
                0.9969701170921326
            ],
            "min" : [
                0.04938347637653351,
                0.03706996887922287,
                0.047303829342126846,
                0.9452723264694214
            ],
            "type" : "VEC4"
        },
        {
            "bufferView" : 21,
            "componentType" : 5126,
            "count" : 60,
            "max" : [
                2.4583333333333335
            ],
            "min" : [
                0.0
            ],
            "type" : "SCALAR"
        },
        {
            "bufferView" : 22,
            "componentType" : 5126,
            "count" : 60,
            "max" : [
                0.2586061656475067,
                -0.004990915767848492,
                0.42880332469940186,
                0.9259963631629944
            ],
            "min" : [
                0.011422332376241684,
                -0.03110937401652336,
                0.37732669711112976,
                0.8650333881378174
            ],
            "type" : "VEC4"
        }
    ],
    "animations" : [
        {
            "channels" : [
                {
                    "sampler" : 0,
                    "target" : {
                        "node" : 2,
                        "path" : "translation"
                    }
                },
                {
                    "sampler" : 1,
                    "target" : {
                        "node" : 4,
                        "path" : "rotation"
                    }
                },
                {
                    "sampler" : 2,
                    "target" : {
                        "node" : 5,
                        "path" : "rotation"
                    }
                },
                {
                    "sampler" : 3,
                    "target" : {
                        "node" : 6,
                        "path" : "rotation"
                    }
                },
                {
                    "sampler" : 4,
                    "target" : {
                        "node" : 9,
                        "path" : "rotation"
                    }
                },
                {
                    "sampler" : 5,
                    "target" : {
                        "node" : 10,
                        "path" : "rotation"
                    }
                },
                {
                    "sampler" : 6,
                    "target" : {
                        "node" : 11,
                        "path" : "rotation"
                    }
                }
            ],
            "name" : "fly",
            "samplers" : [
                {
                    "input" : 9,
                    "interpolation" : "LINEAR",
                    "output" : 10
                },
                {
                    "input" : 11,
                    "interpolation" : "LINEAR",
                    "output" : 12
                },
                {
                    "input" : 13,
                    "interpolation" : "LINEAR",
                    "output" : 14
                },
                {
                    "input" : 15,
                    "interpolation" : "LINEAR",
                    "output" : 16
                },
                {
                    "input" : 17,
                    "interpolation" : "LINEAR",
                    "output" : 18
                },
                {
                    "input" : 19,
                    "interpolation" : "LINEAR",
                    "output" : 20
                },
                {
                    "input" : 21,
                    "interpolation" : "LINEAR",
                    "output" : 22
                }
            ]
        }
    ],
    "asset" : {
        "generator" : "Khronos Blender glTF 2.0 exporter",
        "version" : "2.0"
    },
    "bufferViews" : [
        {
            "buffer" : 0,
            "byteLength" : 1596,
            "byteOffset" : 0,
            "target" : 34963
        },
        {
            "buffer" : 0,
            "byteLength" : 6828,
            "byteOffset" : 1596,
            "target" : 34962
        },
        {
            "buffer" : 0,
            "byteLength" : 6828,
            "byteOffset" : 8424,
            "target" : 34962
        },
        {
            "buffer" : 0,
            "byteLength" : 9104,
            "byteOffset" : 15252,
            "target" : 34962
        },
        {
            "buffer" : 0,
            "byteLength" : 4552,
            "byteOffset" : 24356,
            "target" : 34962
        },
        {
            "buffer" : 0,
            "byteLength" : 9104,
            "byteOffset" : 28908,
            "target" : 34962
        },
        {
            "buffer" : 0,
            "byteLength" : 4552,
            "byteOffset" : 38012,
            "target" : 34962
        },
        {
            "buffer" : 0,
            "byteLength" : 9104,
            "byteOffset" : 42564,
            "target" : 34962
        },
        {
            "buffer" : 0,
            "byteLength" : 768,
            "byteOffset" : 51668
        },
        {
            "buffer" : 0,
            "byteLength" : 240,
            "byteOffset" : 52436
        },
        {
            "buffer" : 0,
            "byteLength" : 720,
            "byteOffset" : 52676
        },
        {
            "buffer" : 0,
            "byteLength" : 240,
            "byteOffset" : 53396
        },
        {
            "buffer" : 0,
            "byteLength" : 960,
            "byteOffset" : 53636
        },
        {
            "buffer" : 0,
            "byteLength" : 240,
            "byteOffset" : 54596
        },
        {
            "buffer" : 0,
            "byteLength" : 960,
            "byteOffset" : 54836
        },
        {
            "buffer" : 0,
            "byteLength" : 240,
            "byteOffset" : 55796
        },
        {
            "buffer" : 0,
            "byteLength" : 960,
            "byteOffset" : 56036
        },
        {
            "buffer" : 0,
            "byteLength" : 240,
            "byteOffset" : 56996
        },
        {
            "buffer" : 0,
            "byteLength" : 960,
            "byteOffset" : 57236
        },
        {
            "buffer" : 0,
            "byteLength" : 240,
            "byteOffset" : 58196
        },
        {
            "buffer" : 0,
            "byteLength" : 960,
            "byteOffset" : 58436
        },
        {
            "buffer" : 0,
            "byteLength" : 240,
            "byteOffset" : 59396
        },
        {
            "buffer" : 0,
            "byteLength" : 960,
            "byteOffset" : 59636
        }
    ],
    "buffers" : [
        {
            "byteLength" : 60596,
            "uri" : "bird.bin"
        }
    ],
    "materials" : [
        {
            "name" : "Material.001",
            "pbrMetallicRoughness" : {
                "baseColorFactor" : [
                    0.800000011920929,
                    0.800000011920929,
                    0.800000011920929,
                    1.0
                ],
                "metallicFactor" : 0.0
            }
        }
    ],
    "meshes" : [
        {
            "name" : "Cube.002",
            "primitives" : [
                {
                    "attributes" : {
                        "COLOR_0" : 3,
                        "JOINTS_0" : 4,
                        "JOINTS_1" : 6,
                        "NORMAL" : 2,
                        "POSITION" : 1,
                        "WEIGHTS_0" : 5,
                        "WEIGHTS_1" : 7
                    },
                    "indices" : 0,
                    "material" : 0
                }
            ]
        }
    ],
    "nodes" : [
        {
            "mesh" : 0,
            "name" : "bird",
            "rotation" : [
                0.7072537541389465,
                1.9945454710068589e-07,
                0.7069598436355591,
                -1.9953751007051324e-07
            ],
            "scale" : [
                0.036655500531196594,
                0.036655500531196594,
                0.036655500531196594
            ],
            "skin" : 0,
            "translation" : [
                0.0,
                -0.02530287206172943,
                -0.0017708871746435761
            ]
        },
        {
            "children" : [
                0,
                2
            ],
            "name" : "metarig",
            "scale" : [
                27.281036376953125,
                27.281036376953125,
                27.281036376953125
            ],
            "translation" : [
                0.0,
                0.6902885437011719,
                0.048311635851860046
            ]
        },
        {
            "children" : [
                4,
                3,
                9
            ],
            "name" : "metarig_spine.004",
            "rotation" : [
                0.7019290328025818,
                1.952844741026638e-06,
                1.9245526345912367e-06,
                0.7122468948364258
            ],
            "scale" : [
                1.0,
                0.9999999403953552,
                0.9999972581863403
            ],
            "translation" : [
                0.0,
                -0.023434139788150787,
                -0.0990772396326065
            ]
        },
        {
            "name" : "metarig_spine.006",
            "rotation" : [
                0.15342290699481964,
                -1.531350676486909e-06,
                6.035481874278048e-07,
                0.9881606101989746
            ],
            "translation" : [
                1.4557799410397365e-14,
                0.11377575248479843,
                -7.275957614183426e-12
            ]
        },
        {
            "children" : [
                5,
                8
            ],
            "name" : "metarig_Wing.L",
            "rotation" : [
                -0.2844220697879791,
                0.37866875529289246,
                -0.4161115288734436,
                0.7762507796287537
            ],
            "scale" : [
                0.9999998807907104,
                0.9999999403953552,
                1.0
            ],
            "translation" : [
                0.03141119331121445,
                0.15623314678668976,
                0.012552850879728794
            ]
        },
        {
            "children" : [
                6,
                7
            ],
            "name" : "metarig_Wing.001.L",
            "rotation" : [
                0.2715364098548889,
                -0.10717971622943878,
                -0.10782397538423538,
                0.9503445029258728
            ],
            "scale" : [
                1.0000001192092896,
                1.0,
                1.0
            ],
            "translation" : [
                4.656612873077393e-10,
                0.08393804728984833,
                -9.313225746154785e-10
            ]
        },
        {
            "name" : "metarig_Wing.002.L",
            "rotation" : [
                0.2001514732837677,
                0.0249567199498415,
                -0.418992817401886,
                0.8853030800819397
            ],
            "translation" : [
                3.4924596548080444e-09,
                0.09446065872907639,
                4.6566128730773926e-09
            ]
        },
        {
            "name" : "metarig_Wing.001.L.001",
            "rotation" : [
                -0.6891736388206482,
                -0.7102822065353394,
                0.09498444199562073,
                0.10731710493564606
            ],
            "scale" : [
                1.0,
                0.9999999403953552,
                1.0
            ],
            "translation" : [
                3.4924596548080444e-09,
                0.09446065872907639,
                4.6566128730773926e-09
            ]
        },
        {
            "name" : "metarig_Wing.L.001",
            "rotation" : [
                -0.6799290180206299,
                -0.7163129448890686,
                0.14250779151916504,
                0.06545236706733704
            ],
            "scale" : [
                1.0,
                1.0000003576278687,
                1.0
            ],
            "translation" : [
                4.656612873077393e-10,
                0.08393804728984833,
                -9.313225746154785e-10
            ]
        },
        {
            "children" : [
                10,
                13
            ],
            "name" : "metarig_Wing.R",
            "rotation" : [
                -0.2844243347644806,
                -0.3786729574203491,
                0.41610997915267944,
                0.7762487530708313
            ],
            "scale" : [
                1.0000001192092896,
                1.0000001192092896,
                1.0
            ],
            "translation" : [
                -0.03141132742166519,
                0.15623313188552856,
                0.012552503496408463
            ]
        },
        {
            "children" : [
                11,
                12
            ],
            "name" : "metarig_Wing.001.R",
            "rotation" : [
                0.2715364992618561,
                0.10717964172363281,
                0.10782401263713837,
                0.9503443837165833
            ],
            "translation" : [
                -4.656612873077393e-10,
                0.08393804728984833,
                -2.7939677238464355e-09
            ]
        },
        {
            "name" : "metarig_Wing.002.R",
            "rotation" : [
                0.2001515030860901,
                -0.02495666779577732,
                0.4189927875995636,
                0.8853031396865845
            ],
            "scale" : [
                1.0000001192092896,
                1.0,
                1.0
            ],
            "translation" : [
                -3.4924596548080444e-09,
                0.09446068108081818,
                -2.7939677238464355e-09
            ]
        },
        {
            "name" : "metarig_Wing.001.R.001",
            "rotation" : [
                -0.6891735196113586,
                0.7102822661399841,
                -0.0949845016002655,
                0.10731746256351471
            ],
            "scale" : [
                1.0,
                0.9999997615814209,
                1.0
            ],
            "translation" : [
                -3.4924596548080444e-09,
                0.09446068108081818,
                -2.7939677238464355e-09
            ]
        },
        {
            "name" : "metarig_Wing.R.001",
            "rotation" : [
                -0.679928719997406,
                0.7163132429122925,
                -0.1425076574087143,
                0.06545230001211166
            ],
            "scale" : [
                1.0000001192092896,
                1.0000005960464478,
                1.0000001192092896
            ],
            "translation" : [
                -4.656612873077393e-10,
                0.08393804728984833,
                -2.7939677238464355e-09
            ]
        }
    ],
    "scene" : 0,
    "scenes" : [
        {
            "name" : "Scene",
            "nodes" : [
                1
            ]
        }
    ],
    "skins" : [
        {
            "inverseBindMatrices" : 8,
            "joints" : [
                2,
                3,
                4,
                5,
                6,
                7,
                8,
                9,
                10,
                11,
                12,
                13
            ],
            "skeleton" : 1
        }
    ]
}
