{
    "accessors" : [
        {
            "bufferView" : 0,
            "componentType" : 5123,
            "count" : 1548,
            "max" : [
                861
            ],
            "min" : [
                0
            ],
            "type" : "SCALAR"
        },
        {
            "bufferView" : 1,
            "componentType" : 5126,
            "count" : 862,
            "max" : [
                157.91470336914062,
                332.527099609375,
                -38.58354187011719
            ],
            "min" : [
                -157.9315948486328,
                -252.55679321289062,
                -253.4091033935547
            ],
            "type" : "VEC3"
        },
        {
            "bufferView" : 2,
            "componentType" : 5126,
            "count" : 862,
            "max" : [
                0.9991455078125,
                0.999603271484375,
                1.0
            ],
            "min" : [
                -0.9991455078125,
                -0.999603271484375,
                -0.999969482421875
            ],
            "type" : "VEC3"
        },
        {
            "bufferView" : 3,
            "componentType" : 5126,
            "count" : 862,
            "max" : [
                0.998046875,
                0.998046875
            ],
            "min" : [
                0.001953125,
                0.012806475162506104
            ],
            "type" : "VEC2"
        }
    ],
    "asset" : {
        "generator" : "Khronos Blender glTF 2.0 exporter",
        "version" : "2.0"
    },
    "bufferViews" : [
        {
            "buffer" : 0,
            "byteLength" : 3096,
            "byteOffset" : 0,
            "target" : 34963
        },
        {
            "buffer" : 0,
            "byteLength" : 10344,
            "byteOffset" : 3096,
            "target" : 34962
        },
        {
            "buffer" : 0,
            "byteLength" : 10344,
            "byteOffset" : 13440,
            "target" : 34962
        },
        {
            "buffer" : 0,
            "byteLength" : 6896,
            "byteOffset" : 23784,
            "target" : 34962
        }
    ],
    "buffers" : [
        {
            "byteLength" : 30680,
            "uri" : "car.bin"
        }
    ],
    "images" : [
        {
            "name" : "car_Base_Color",
            "uri" : "car_Base_Color.png"
        },
        {
            "name" : "car_Emissive",
            "uri" : "car_Emissive.png"
        }
    ],
    "materials" : [
        {
            "emissiveTexture" : {
                "index" : 1
            },
            "name" : "Material.004",
            "pbrMetallicRoughness" : {
                "baseColorFactor" : [
                    0.800000011920929,
                    0.800000011920929,
                    0.800000011920929,
                    1.0
                ],
                "baseColorTexture" : {
                    "index" : 0
                },
                "metallicFactor" : 0.0
            }
        }
    ],
    "meshes" : [
        {
            "name" : "car.002",
            "primitives" : [
                {
                    "attributes" : {
                        "NORMAL" : 2,
                        "POSITION" : 1,
                        "TEXCOORD_0" : 3
                    },
                    "indices" : 0,
                    "material" : 0
                }
            ]
        }
    ],
    "nodes" : [
        {
            "mesh" : 0,
            "name" : "car.032",
            "rotation" : [
                0.7071068286895752,
                0.0,
                -0.0,
                0.7071067094802856
            ],
            "scale" : [
                0.003511993680149317,
                0.003511993680149317,
                0.003511993680149317
            ]
        }
    ],
    "samplers" : [
        {}
    ],
    "scene" : 0,
    "scenes" : [
        {
            "name" : "Scene",
            "nodes" : [
                0
            ]
        }
    ],
    "textures" : [
        {
            "sampler" : 0,
            "source" : 0
        },
        {
            "sampler" : 0,
            "source" : 1
        }
    ]
}
