{
    "accessors" : [
        {
            "bufferView" : 0,
            "componentType" : 5123,
            "count" : 240,
            "max" : [
                175
            ],
            "min" : [
                0
            ],
            "type" : "SCALAR"
        },
        {
            "bufferView" : 1,
            "componentType" : 5126,
            "count" : 176,
            "max" : [
                46.63325119018555,
                -42.588157653808594,
                -186.18727111816406
            ],
            "min" : [
                11.169971466064453,
                -52.560203552246094,
                -195.96812438964844
            ],
            "type" : "VEC3"
        },
        {
            "bufferView" : 2,
            "componentType" : 5126,
            "count" : 176,
            "max" : [
                0.9985162615776062,
                0.9199791550636292,
                0.19522415101528168
            ],
            "min" : [
                -0.9093191623687744,
                -0.9957711696624756,
                -0.7053669691085815
            ],
            "type" : "VEC3"
        },
        {
            "bufferView" : 3,
            "componentType" : 5126,
            "count" : 176,
            "max" : [
                1.0,
                1.0
            ],
            "min" : [
                0.0,
                0.0
            ],
            "type" : "VEC2"
        },
        {
            "bufferView" : 4,
            "componentType" : 5123,
            "count" : 432,
            "max" : [
                431
            ],
            "min" : [
                0
            ],
            "type" : "SCALAR"
        },
        {
            "bufferView" : 5,
            "componentType" : 5126,
            "count" : 432,
            "max" : [
                140.76927185058594,
                78.21640014648438,
                -6.753194808959961
            ],
            "min" : [
                -108.80061340332031,
                -173.2113037109375,
                -187.6161651611328
            ],
            "type" : "VEC3"
        },
        {
            "bufferView" : 6,
            "componentType" : 5126,
            "count" : 432,
            "max" : [
                0.9305791258811951,
                0.9217706322669983,
                -0.3063451647758484
            ],
            "min" : [
                -0.9153748154640198,
                -0.9241845011711121,
                -0.7459701895713806
            ],
            "type" : "VEC3"
        },
        {
            "bufferView" : 7,
            "componentType" : 5126,
            "count" : 432,
            "max" : [
                1.0,
                1.0
            ],
            "min" : [
                0.0,
                0.0
            ],
            "type" : "VEC2"
        },
        {
            "bufferView" : 8,
            "componentType" : 5123,
            "count" : 1920,
            "max" : [
                1407
            ],
            "min" : [
                0
            ],
            "type" : "SCALAR"
        },
        {
            "bufferView" : 9,
            "componentType" : 5126,
            "count" : 1408,
            "max" : [
                139.54525756835938,
                77.24395751953125,
                -15.322652816772461
            ],
            "min" : [
                -107.27799987792969,
                -170.18649291992188,
                -145.48651123046875
            ],
            "type" : "VEC3"
        },
        {
            "bufferView" : 10,
            "componentType" : 5126,
            "count" : 1408,
            "max" : [
                0.9944013953208923,
                0.9970226287841797,
                0.036110930144786835
            ],
            "min" : [
                -0.9968480467796326,
                -0.9974592924118042,
                -0.5739901065826416
            ],
            "type" : "VEC3"
        },
        {
            "bufferView" : 11,
            "componentType" : 5126,
            "count" : 1408,
            "max" : [
                1.0,
                1.0
            ],
            "min" : [
                0.0,
                0.0
            ],
            "type" : "VEC2"
        },
        {
            "bufferView" : 12,
            "componentType" : 5123,
            "count" : 864,
            "max" : [
                539
            ],
            "min" : [
                0
            ],
            "type" : "SCALAR"
        },
        {
            "bufferView" : 13,
            "componentType" : 5126,
            "count" : 540,
            "max" : [
                137.95335388183594,
                73.94764709472656,
                -4.15576171875
            ],
            "min" : [
                -105.792236328125,
                -169.47132873535156,
                -187.98997497558594
            ],
            "type" : "VEC3"
        },
        {
            "bufferView" : 14,
            "componentType" : 5126,
            "count" : 540,
            "max" : [
                0.99859619140625,
                0.9987733364105225,
                1.0
            ],
            "min" : [
                -0.9998752474784851,
                -0.9987733364105225,
                -0.32806283235549927
            ],
            "type" : "VEC3"
        },
        {
            "bufferView" : 15,
            "componentType" : 5126,
            "count" : 540,
            "max" : [
                1.0,
                1.0
            ],
            "min" : [
                0.0,
                0.0
            ],
            "type" : "VEC2"
        },
        {
            "bufferView" : 16,
            "componentType" : 5123,
            "count" : 864,
            "max" : [
                863
            ],
            "min" : [
                0
            ],
            "type" : "SCALAR"
        },
        {
            "bufferView" : 17,
            "componentType" : 5126,
            "count" : 864,
            "max" : [
                142.38279724121094,
                78.50299072265625,
                -8.996094703674316
            ],
            "min" : [
                -109.32124328613281,
                -173.72352600097656,
                -192.72802734375
            ],
            "type" : "VEC3"
        },
        {
            "bufferView" : 18,
            "componentType" : 5126,
            "count" : 864,
            "max" : [
                0.9795407056808472,
                0.9619149565696716,
                -0.1372326761484146
            ],
            "min" : [
                -0.9402707815170288,
                -0.9487971067428589,
                -0.7614357471466064
            ],
            "type" : "VEC3"
        },
        {
            "bufferView" : 19,
            "componentType" : 5126,
            "count" : 864,
            "max" : [
                1.0,
                1.0
            ],
            "min" : [
                0.0,
                0.0
            ],
            "type" : "VEC2"
        }
    ],
    "asset" : {
        "generator" : "Khronos Blender glTF 2.0 exporter",
        "version" : "2.0"
    },
    "bufferViews" : [
        {
            "buffer" : 0,
            "byteLength" : 480,
            "byteOffset" : 0,
            "target" : 34963
        },
        {
            "buffer" : 0,
            "byteLength" : 2112,
            "byteOffset" : 480,
            "target" : 34962
        },
        {
            "buffer" : 0,
            "byteLength" : 2112,
            "byteOffset" : 2592,
            "target" : 34962
        },
        {
            "buffer" : 0,
            "byteLength" : 1408,
            "byteOffset" : 4704,
            "target" : 34962
        },
        {
            "buffer" : 0,
            "byteLength" : 864,
            "byteOffset" : 6112,
            "target" : 34963
        },
        {
            "buffer" : 0,
            "byteLength" : 5184,
            "byteOffset" : 6976,
            "target" : 34962
        },
        {
            "buffer" : 0,
            "byteLength" : 5184,
            "byteOffset" : 12160,
            "target" : 34962
        },
        {
            "buffer" : 0,
            "byteLength" : 3456,
            "byteOffset" : 17344,
            "target" : 34962
        },
        {
            "buffer" : 0,
            "byteLength" : 3840,
            "byteOffset" : 20800,
            "target" : 34963
        },
        {
            "buffer" : 0,
            "byteLength" : 16896,
            "byteOffset" : 24640,
            "target" : 34962
        },
        {
            "buffer" : 0,
            "byteLength" : 16896,
            "byteOffset" : 41536,
            "target" : 34962
        },
        {
            "buffer" : 0,
            "byteLength" : 11264,
            "byteOffset" : 58432,
            "target" : 34962
        },
        {
            "buffer" : 0,
            "byteLength" : 1728,
            "byteOffset" : 69696,
            "target" : 34963
        },
        {
            "buffer" : 0,
            "byteLength" : 6480,
            "byteOffset" : 71424,
            "target" : 34962
        },
        {
            "buffer" : 0,
            "byteLength" : 6480,
            "byteOffset" : 77904,
            "target" : 34962
        },
        {
            "buffer" : 0,
            "byteLength" : 4320,
            "byteOffset" : 84384,
            "target" : 34962
        },
        {
            "buffer" : 0,
            "byteLength" : 1728,
            "byteOffset" : 88704,
            "target" : 34963
        },
        {
            "buffer" : 0,
            "byteLength" : 10368,
            "byteOffset" : 90432,
            "target" : 34962
        },
        {
            "buffer" : 0,
            "byteLength" : 10368,
            "byteOffset" : 100800,
            "target" : 34962
        },
        {
            "buffer" : 0,
            "byteLength" : 6912,
            "byteOffset" : 111168,
            "target" : 34962
        }
    ],
    "buffers" : [
        {
            "byteLength" : 118080,
            "uri" : "trees1.bin"
        }
    ],
    "materials" : [
        {
            "name" : "\u6750\u8d28",
            "pbrMetallicRoughness" : {
                "baseColorFactor" : [
                    0.4699999988079071,
                    0.28795334696769714,
                    0.07989999651908875,
                    1.0
                ],
                "metallicFactor" : 0.0
            }
        },
        {
            "name" : "\u6750\u8d28.1",
            "pbrMetallicRoughness" : {
                "baseColorFactor" : [
                    0.4807400107383728,
                    0.8600000143051147,
                    0.01720000058412552,
                    1.0
                ],
                "metallicFactor" : 0.0
            }
        },
        {
            "name" : "\u6750\u8d28.14",
            "pbrMetallicRoughness" : {
                "metallicFactor" : 0.0
            }
        },
        {
            "name" : "\u6750\u8d28.1_1",
            "pbrMetallicRoughness" : {
                "baseColorFactor" : [
                    0.29516667127609253,
                    0.7699999809265137,
                    0.0,
                    1.0
                ],
                "metallicFactor" : 0.0
            }
        },
        {
            "name" : "\u6750\u8d28.1_2",
            "pbrMetallicRoughness" : {
                "baseColorFactor" : [
                    0.18683333694934845,
                    0.5899999737739563,
                    0.0,
                    1.0
                ],
                "metallicFactor" : 0.0
            }
        }
    ],
    "meshes" : [
        {
            "name" : "tree-5.15",
            "primitives" : [
                {
                    "attributes" : {
                        "NORMAL" : 2,
                        "POSITION" : 1,
                        "TEXCOORD_0" : 3
                    },
                    "indices" : 0,
                    "material" : 2
                },
                {
                    "attributes" : {
                        "NORMAL" : 6,
                        "POSITION" : 5,
                        "TEXCOORD_0" : 7
                    },
                    "indices" : 4,
                    "material" : 4
                },
                {
                    "attributes" : {
                        "NORMAL" : 10,
                        "POSITION" : 9,
                        "TEXCOORD_0" : 11
                    },
                    "indices" : 8,
                    "material" : 1
                },
                {
                    "attributes" : {
                        "NORMAL" : 14,
                        "POSITION" : 13,
                        "TEXCOORD_0" : 15
                    },
                    "indices" : 12,
                    "material" : 0
                },
                {
                    "attributes" : {
                        "NORMAL" : 18,
                        "POSITION" : 17,
                        "TEXCOORD_0" : 19
                    },
                    "indices" : 16,
                    "material" : 3
                }
            ]
        }
    ],
    "nodes" : [
        {
            "mesh" : 0,
            "name" : "tree-5.15",
            "rotation" : [
                0.7071068286895752,
                0.0,
                -0.0,
                0.7071067094802856
            ],
            "scale" : [
                0.018279803916811943,
                0.018279803916811943,
                0.018279803916811943
            ]
        }
    ],
    "scene" : 0,
    "scenes" : [
        {
            "name" : "Scene",
            "nodes" : [
                0
            ]
        }
    ]
}
